<?xml version="1.0" encoding="utf-8" standalone="no"?>
<!DOCTYPE svg PUBLIC "-//W3C//DTD SVG 1.1//EN"
  "http://www.w3.org/Graphics/SVG/1.1/DTD/svg11.dtd">
<svg xmlns:xlink="http://www.w3.org/1999/xlink" width="380.896744pt" height="424.8pt" viewBox="0 0 380.896744 424.8" xmlns="http://www.w3.org/2000/svg" version="1.1">
 <metadata>
  <rdf:RDF xmlns:dc="http://purl.org/dc/elements/1.1/" xmlns:cc="http://creativecommons.org/ns#" xmlns:rdf="http://www.w3.org/1999/02/22-rdf-syntax-ns#">
   <cc:Work>
    <dc:type rdf:resource="http://purl.org/dc/dcmitype/StillImage"/>
    <dc:date>2026-06-15T21:45:07.073940</dc:date>
    <dc:format>image/svg+xml</dc:format>
    <dc:creator>
     <cc:Agent>
      <dc:title>Matplotlib v3.10.9, https://matplotlib.org/</dc:title>
     </cc:Agent>
    </dc:creator>
   </cc:Work>
  </rdf:RDF>
 </metadata>
 <defs>
  <style type="text/css">*{stroke-linejoin: round; stroke-linecap: butt}</style>
 </defs>
 <g id="figure_1">
  <g id="patch_1">
   <path d="M 0 424.8 
L 380.896744 424.8 
L 380.896744 0 
L 0 0 
z
" style="fill: #ffffff"/>
  </g>
  <g id="axes_1">
   <g id="patch_2">
    <path d="M 7.2 417.6 
L 373.696744 417.6 
L 373.696744 7.2 
L 7.2 7.2 
z
" style="fill: #ffffff"/>
   </g>
   <g id="PathCollection_1">
    <path d="M 14.248014 328.845825 
C 14.70736 328.845825 15.147953 328.663326 15.472759 328.338519 
C 15.797565 328.013713 15.980065 327.57312 15.980065 327.113775 
C 15.980065 326.654429 15.797565 326.213836 15.472759 325.88903 
C 15.147953 325.564224 14.70736 325.381724 14.248014 325.381724 
C 13.788669 325.381724 13.348076 325.564224 13.023269 325.88903 
C 12.698463 326.213836 12.515964 326.654429 12.515964 327.113775 
C 12.515964 327.57312 12.698463 328.013713 13.023269 328.338519 
C 13.348076 328.663326 13.788669 328.845825 14.248014 328.845825 
z
" clip-path="url(#pe0946932f9)" style="fill: #d3d3d3"/>
   </g>
   <g id="PathCollection_2">
    <path d="M 14.248014 46.191085 
C 14.70736 46.191085 15.147953 46.008585 15.472759 45.683779 
C 15.797565 45.358973 15.980065 44.918379 15.980065 44.459034 
C 15.980065 43.999689 15.797565 43.559095 15.472759 43.234289 
C 15.147953 42.909483 14.70736 42.726983 14.248014 42.726983 
C 13.788669 42.726983 13.348076 42.909483 13.023269 43.234289 
C 12.698463 43.559095 12.515964 43.999689 12.515964 44.459034 
C 12.515964 44.918379 12.698463 45.358973 13.023269 45.683779 
C 13.348076 46.008585 13.788669 46.191085 14.248014 46.191085 
z
" clip-path="url(#pe0946932f9)" style="fill: #d3d3d3"/>
   </g>
   <g id="PathCollection_3">
    <path d="M 17.918855 207.708079 
C 18.3782 207.708079 18.818794 207.52558 19.1436 207.200773 
C 19.468406 206.875967 19.650906 206.435374 19.650906 205.976029 
C 19.650906 205.516683 19.468406 205.07609 19.1436 204.751284 
C 18.818794 204.426478 18.3782 204.243978 17.918855 204.243978 
C 17.45951 204.243978 17.018916 204.426478 16.69411 204.751284 
C 16.369304 205.07609 16.186804 205.516683 16.186804 205.976029 
C 16.186804 206.435374 16.369304 206.875967 16.69411 207.200773 
C 17.018916 207.52558 17.45951 207.708079 17.918855 207.708079 
z
" clip-path="url(#pe0946932f9)" style="fill: #d3d3d3"/>
   </g>
   <g id="PathCollection_4">
    <path d="M 17.918855 167.328831 
C 18.3782 167.328831 18.818794 167.146331 19.1436 166.821525 
C 19.468406 166.496719 19.650906 166.056125 19.650906 165.59678 
C 19.650906 165.137435 19.468406 164.696841 19.1436 164.372035 
C 18.818794 164.047229 18.3782 163.864729 17.918855 163.864729 
C 17.45951 163.864729 17.018916 164.047229 16.69411 164.372035 
C 16.369304 164.696841 16.186804 165.137435 16.186804 165.59678 
C 16.186804 166.056125 16.369304 166.496719 16.69411 166.821525 
C 17.018916 167.146331 17.45951 167.328831 17.918855 167.328831 
z
" clip-path="url(#pe0946932f9)" style="fill: #d3d3d3"/>
   </g>
   <g id="PathCollection_5">
    <path d="M 25.260537 343.529189 
C 25.719882 343.529189 26.160475 343.346689 26.485282 343.021883 
C 26.810088 342.697076 26.992587 342.256483 26.992587 341.797138 
C 26.992587 341.337793 26.810088 340.897199 26.485282 340.572393 
C 26.160475 340.247587 25.719882 340.065087 25.260537 340.065087 
C 24.801191 340.065087 24.360598 340.247587 24.035792 340.572393 
C 23.710986 340.897199 23.528486 341.337793 23.528486 341.797138 
C 23.528486 342.256483 23.710986 342.697076 24.035792 343.021883 
C 24.360598 343.346689 24.801191 343.529189 25.260537 343.529189 
z
" clip-path="url(#pe0946932f9)" style="fill: #d3d3d3"/>
   </g>
   <g id="PathCollection_6">
    <path d="M 25.260537 31.507722 
C 25.719882 31.507722 26.160475 31.325222 26.485282 31.000416 
C 26.810088 30.67561 26.992587 30.235016 26.992587 29.775671 
C 26.992587 29.316326 26.810088 28.875732 26.485282 28.550926 
C 26.160475 28.22612 25.719882 28.04362 25.260537 28.04362 
C 24.801191 28.04362 24.360598 28.22612 24.035792 28.550926 
C 23.710986 28.875732 23.528486 29.316326 23.528486 29.775671 
C 23.528486 30.235016 23.710986 30.67561 24.035792 31.000416 
C 24.360598 31.325222 24.801191 31.507722 25.260537 31.507722 
z
" clip-path="url(#pe0946932f9)" style="fill: #d3d3d3"/>
   </g>
   <g id="PathCollection_7">
    <path d="M 28.931377 193.024716 
C 29.390723 193.024716 29.831316 192.842216 30.156122 192.51741 
C 30.480928 192.192604 30.663428 191.752011 30.663428 191.292665 
C 30.663428 190.83332 30.480928 190.392727 30.156122 190.067921 
C 29.831316 189.743114 29.390723 189.560615 28.931377 189.560615 
C 28.472032 189.560615 28.031439 189.743114 27.706633 190.067921 
C 27.381826 190.392727 27.199327 190.83332 27.199327 191.292665 
C 27.199327 191.752011 27.381826 192.192604 27.706633 192.51741 
C 28.031439 192.842216 28.472032 193.024716 28.931377 193.024716 
z
" clip-path="url(#pe0946932f9)" style="fill: #d3d3d3"/>
   </g>
   <g id="PathCollection_8">
    <path d="M 28.931377 182.012194 
C 29.390723 182.012194 29.831316 181.829694 30.156122 181.504888 
C 30.480928 181.180082 30.663428 180.739488 30.663428 180.280143 
C 30.663428 179.820798 30.480928 179.380204 30.156122 179.055398 
C 29.831316 178.730592 29.390723 178.548092 28.931377 178.548092 
C 28.472032 178.548092 28.031439 178.730592 27.706633 179.055398 
C 27.381826 179.380204 27.199327 179.820798 27.199327 180.280143 
C 27.199327 180.739488 27.381826 181.180082 27.706633 181.504888 
C 28.031439 181.829694 28.472032 182.012194 28.931377 182.012194 
z
" clip-path="url(#pe0946932f9)" style="fill: #d3d3d3"/>
   </g>
   <g id="PathCollection_9">
    <path d="M 50.956422 288.466577 
C 51.415767 288.466577 51.856361 288.284077 52.181167 287.959271 
C 52.505973 287.634465 52.688473 287.193871 52.688473 286.734526 
C 52.688473 286.275181 52.505973 285.834587 52.181167 285.509781 
C 51.856361 285.184975 51.415767 285.002475 50.956422 285.002475 
C 50.497077 285.002475 50.056483 285.184975 49.731677 285.509781 
C 49.406871 285.834587 49.224371 286.275181 49.224371 286.734526 
C 49.224371 287.193871 49.406871 287.634465 49.731677 287.959271 
C 50.056483 288.284077 50.497077 288.466577 50.956422 288.466577 
z
" clip-path="url(#pe0946932f9)" style="fill: #d3d3d3"/>
   </g>
   <g id="PathCollection_10">
    <path d="M 50.956422 86.570333 
C 51.415767 86.570333 51.856361 86.387834 52.181167 86.063028 
C 52.505973 85.738221 52.688473 85.297628 52.688473 84.838283 
C 52.688473 84.378937 52.505973 83.938344 52.181167 83.613538 
C 51.856361 83.288732 51.415767 83.106232 50.956422 83.106232 
C 50.497077 83.106232 50.056483 83.288732 49.731677 83.613538 
C 49.406871 83.938344 49.224371 84.378937 49.224371 84.838283 
C 49.224371 85.297628 49.406871 85.738221 49.731677 86.063028 
C 50.056483 86.387834 50.497077 86.570333 50.956422 86.570333 
z
" clip-path="url(#pe0946932f9)" style="fill: #d3d3d3"/>
   </g>
   <g id="PathCollection_11">
    <path d="M 54.627263 303.14994 
C 55.086608 303.14994 55.527202 302.96744 55.852008 302.642634 
C 56.176814 302.317828 56.359314 301.877234 56.359314 301.417889 
C 56.359314 300.958544 56.176814 300.51795 55.852008 300.193144 
C 55.527202 299.868338 55.086608 299.685838 54.627263 299.685838 
C 54.167918 299.685838 53.727324 299.868338 53.402518 300.193144 
C 53.077712 300.51795 52.895212 300.958544 52.895212 301.417889 
C 52.895212 301.877234 53.077712 302.317828 53.402518 302.642634 
C 53.727324 302.96744 54.167918 303.14994 54.627263 303.14994 
z
" clip-path="url(#pe0946932f9)" style="fill: #d3d3d3"/>
   </g>
   <g id="PathCollection_12">
    <path d="M 54.627263 71.88697 
C 55.086608 71.88697 55.527202 71.704471 55.852008 71.379664 
C 56.176814 71.054858 56.359314 70.614265 56.359314 70.154919 
C 56.359314 69.695574 56.176814 69.254981 55.852008 68.930175 
C 55.527202 68.605368 55.086608 68.422869 54.627263 68.422869 
C 54.167918 68.422869 53.727324 68.605368 53.402518 68.930175 
C 53.077712 69.254981 52.895212 69.695574 52.895212 70.154919 
C 52.895212 70.614265 53.077712 71.054858 53.402518 71.379664 
C 53.727324 71.704471 54.167918 71.88697 54.627263 71.88697 
z
" clip-path="url(#pe0946932f9)" style="fill: #d3d3d3"/>
   </g>
   <g id="PathCollection_13">
    <path d="M 58.298104 354.541711 
C 58.757449 354.541711 59.198042 354.359211 59.522849 354.034405 
C 59.847655 353.709599 60.030155 353.269005 60.030155 352.80966 
C 60.030155 352.350315 59.847655 351.909721 59.522849 351.584915 
C 59.198042 351.260109 58.757449 351.077609 58.298104 351.077609 
C 57.838759 351.077609 57.398165 351.260109 57.073359 351.584915 
C 56.748553 351.909721 56.566053 352.350315 56.566053 352.80966 
C 56.566053 353.269005 56.748553 353.709599 57.073359 354.034405 
C 57.398165 354.359211 57.838759 354.541711 58.298104 354.541711 
z
" clip-path="url(#pe0946932f9)" style="fill: #d3d3d3"/>
   </g>
   <g id="PathCollection_14">
    <path d="M 58.298104 20.495199 
C 58.757449 20.495199 59.198042 20.312699 59.522849 19.987893 
C 59.847655 19.663087 60.030155 19.222494 60.030155 18.763148 
C 60.030155 18.303803 59.847655 17.86321 59.522849 17.538404 
C 59.198042 17.213597 58.757449 17.031098 58.298104 17.031098 
C 57.838759 17.031098 57.398165 17.213597 57.073359 17.538404 
C 56.748553 17.86321 56.566053 18.303803 56.566053 18.763148 
C 56.566053 19.222494 56.748553 19.663087 57.073359 19.987893 
C 57.398165 20.312699 57.838759 20.495199 58.298104 20.495199 
z
" clip-path="url(#pe0946932f9)" style="fill: #d3d3d3"/>
   </g>
   <g id="PathCollection_15">
    <path d="M 76.652308 328.845825 
C 77.111653 328.845825 77.552246 328.663326 77.877053 328.338519 
C 78.201859 328.013713 78.384358 327.57312 78.384358 327.113775 
C 78.384358 326.654429 78.201859 326.213836 77.877053 325.88903 
C 77.552246 325.564224 77.111653 325.381724 76.652308 325.381724 
C 76.192962 325.381724 75.752369 325.564224 75.427563 325.88903 
C 75.102757 326.213836 74.920257 326.654429 74.920257 327.113775 
C 74.920257 327.57312 75.102757 328.013713 75.427563 328.338519 
C 75.752369 328.663326 76.192962 328.845825 76.652308 328.845825 
z
" clip-path="url(#pe0946932f9)" style="fill: #d3d3d3"/>
   </g>
   <g id="PathCollection_16">
    <path d="M 76.652308 46.191085 
C 77.111653 46.191085 77.552246 46.008585 77.877053 45.683779 
C 78.201859 45.358973 78.384358 44.918379 78.384358 44.459034 
C 78.384358 43.999689 78.201859 43.559095 77.877053 43.234289 
C 77.552246 42.909483 77.111653 42.726983 76.652308 42.726983 
C 76.192962 42.726983 75.752369 42.909483 75.427563 43.234289 
C 75.102757 43.559095 74.920257 43.999689 74.920257 44.459034 
C 74.920257 44.918379 75.102757 45.358973 75.427563 45.683779 
C 75.752369 46.008585 76.192962 46.191085 76.652308 46.191085 
z
" clip-path="url(#pe0946932f9)" style="fill: #d3d3d3"/>
   </g>
   <g id="PathCollection_17">
    <path d="M 87.66483 240.745647 
C 88.124175 240.745647 88.564769 240.563147 88.889575 240.238341 
C 89.214381 239.913534 89.396881 239.472941 89.396881 239.013596 
C 89.396881 238.55425 89.214381 238.113657 88.889575 237.788851 
C 88.564769 237.464045 88.124175 237.281545 87.66483 237.281545 
C 87.205485 237.281545 86.764891 237.464045 86.440085 237.788851 
C 86.115279 238.113657 85.932779 238.55425 85.932779 239.013596 
C 85.932779 239.472941 86.115279 239.913534 86.440085 240.238341 
C 86.764891 240.563147 87.205485 240.745647 87.66483 240.745647 
z
" clip-path="url(#pe0946932f9)" style="fill: #d3d3d3"/>
   </g>
   <g id="PathCollection_18">
    <path d="M 87.66483 134.291264 
C 88.124175 134.291264 88.564769 134.108764 88.889575 133.783958 
C 89.214381 133.459152 89.396881 133.018558 89.396881 132.559213 
C 89.396881 132.099868 89.214381 131.659274 88.889575 131.334468 
C 88.564769 131.009662 88.124175 130.827162 87.66483 130.827162 
C 87.205485 130.827162 86.764891 131.009662 86.440085 131.334468 
C 86.115279 131.659274 85.932779 132.099868 85.932779 132.559213 
C 85.932779 133.018558 86.115279 133.459152 86.440085 133.783958 
C 86.764891 134.108764 87.205485 134.291264 87.66483 134.291264 
z
" clip-path="url(#pe0946932f9)" style="fill: #d3d3d3"/>
   </g>
   <g id="PathCollection_19">
    <path d="M 91.335671 277.454054 
C 91.795016 277.454054 92.23561 277.271555 92.560416 276.946748 
C 92.885222 276.621942 93.067722 276.181349 93.067722 275.722004 
C 93.067722 275.262658 92.885222 274.822065 92.560416 274.497259 
C 92.23561 274.172453 91.795016 273.989953 91.335671 273.989953 
C 90.876326 273.989953 90.435732 274.172453 90.110926 274.497259 
C 89.78612 274.822065 89.60362 275.262658 89.60362 275.722004 
C 89.60362 276.181349 89.78612 276.621942 90.110926 276.946748 
C 90.435732 277.271555 90.876326 277.454054 91.335671 277.454054 
z
" clip-path="url(#pe0946932f9)" style="fill: #d3d3d3"/>
   </g>
   <g id="PathCollection_20">
    <path d="M 91.335671 97.582856 
C 91.795016 97.582856 92.23561 97.400356 92.560416 97.07555 
C 92.885222 96.750744 93.067722 96.31015 93.067722 95.850805 
C 93.067722 95.39146 92.885222 94.950866 92.560416 94.62606 
C 92.23561 94.301254 91.795016 94.118754 91.335671 94.118754 
C 90.876326 94.118754 90.435732 94.301254 90.110926 94.62606 
C 89.78612 94.950866 89.60362 95.39146 89.60362 95.850805 
C 89.60362 96.31015 89.78612 96.750744 90.110926 97.07555 
C 90.435732 97.400356 90.876326 97.582856 91.335671 97.582856 
z
" clip-path="url(#pe0946932f9)" style="fill: #d3d3d3"/>
   </g>
   <g id="PathCollection_21">
    <path d="M 95.006512 347.200029 
C 95.465857 347.200029 95.90645 347.01753 96.231256 346.692723 
C 96.556063 346.367917 96.738562 345.927324 96.738562 345.467979 
C 96.738562 345.008633 96.556063 344.56804 96.231256 344.243234 
C 95.90645 343.918428 95.465857 343.735928 95.006512 343.735928 
C 94.547166 343.735928 94.106573 343.918428 93.781767 344.243234 
C 93.456961 344.56804 93.274461 345.008633 93.274461 345.467979 
C 93.274461 345.927324 93.456961 346.367917 93.781767 346.692723 
C 94.106573 347.01753 94.547166 347.200029 95.006512 347.200029 
z
" clip-path="url(#pe0946932f9)" style="fill: #d3d3d3"/>
   </g>
   <g id="PathCollection_22">
    <path d="M 95.006512 27.836881 
C 95.465857 27.836881 95.90645 27.654381 96.231256 27.329575 
C 96.556063 27.004769 96.738562 26.564175 96.738562 26.10483 
C 96.738562 25.645485 96.556063 25.204891 96.231256 24.880085 
C 95.90645 24.555279 95.465857 24.372779 95.006512 24.372779 
C 94.547166 24.372779 94.106573 24.555279 93.781767 24.880085 
C 93.456961 25.204891 93.274461 25.645485 93.274461 26.10483 
C 93.274461 26.564175 93.456961 27.004769 93.781767 27.329575 
C 94.106573 27.654381 94.547166 27.836881 95.006512 27.836881 
z
" clip-path="url(#pe0946932f9)" style="fill: #d3d3d3"/>
   </g>
   <g id="PathCollection_23">
    <path d="M 98.677352 277.454054 
C 99.136698 277.454054 99.577291 277.271555 99.902097 276.946748 
C 100.226903 276.621942 100.409403 276.181349 100.409403 275.722004 
C 100.409403 275.262658 100.226903 274.822065 99.902097 274.497259 
C 99.577291 274.172453 99.136698 273.989953 98.677352 273.989953 
C 98.218007 273.989953 97.777414 274.172453 97.452608 274.497259 
C 97.127801 274.822065 96.945302 275.262658 96.945302 275.722004 
C 96.945302 276.181349 97.127801 276.621942 97.452608 276.946748 
C 97.777414 277.271555 98.218007 277.454054 98.677352 277.454054 
z
" clip-path="url(#pe0946932f9)" style="fill: #d3d3d3"/>
   </g>
   <g id="PathCollection_24">
    <path d="M 98.677352 97.582856 
C 99.136698 97.582856 99.577291 97.400356 99.902097 97.07555 
C 100.226903 96.750744 100.409403 96.31015 100.409403 95.850805 
C 100.409403 95.39146 100.226903 94.950866 99.902097 94.62606 
C 99.577291 94.301254 99.136698 94.118754 98.677352 94.118754 
C 98.218007 94.118754 97.777414 94.301254 97.452608 94.62606 
C 97.127801 94.950866 96.945302 95.39146 96.945302 95.850805 
C 96.945302 96.31015 97.127801 96.750744 97.452608 97.07555 
C 97.777414 97.400356 98.218007 97.582856 98.677352 97.582856 
z
" clip-path="url(#pe0946932f9)" style="fill: #d3d3d3"/>
   </g>
   <g id="PathCollection_25">
    <path d="M 102.348193 358.212552 
C 102.807538 358.212552 103.248132 358.030052 103.572938 357.705246 
C 103.897744 357.38044 104.080244 356.939846 104.080244 356.480501 
C 104.080244 356.021156 103.897744 355.580562 103.572938 355.255756 
C 103.248132 354.93095 102.807538 354.74845 102.348193 354.74845 
C 101.888848 354.74845 101.448254 354.93095 101.123448 355.255756 
C 100.798642 355.580562 100.616142 356.021156 100.616142 356.480501 
C 100.616142 356.939846 100.798642 357.38044 101.123448 357.705246 
C 101.448254 358.030052 101.888848 358.212552 102.348193 358.212552 
z
" clip-path="url(#pe0946932f9)" style="fill: #d3d3d3"/>
   </g>
   <g id="PathCollection_26">
    <path d="M 102.348193 16.824358 
C 102.807538 16.824358 103.248132 16.641859 103.572938 16.317053 
C 103.897744 15.992246 104.080244 15.551653 104.080244 15.092308 
C 104.080244 14.632962 103.897744 14.192369 103.572938 13.867563 
C 103.248132 13.542757 102.807538 13.360257 102.348193 13.360257 
C 101.888848 13.360257 101.448254 13.542757 101.123448 13.867563 
C 100.798642 14.192369 100.616142 14.632962 100.616142 15.092308 
C 100.616142 15.551653 100.798642 15.992246 101.123448 16.317053 
C 101.448254 16.641859 101.888848 16.824358 102.348193 16.824358 
z
" clip-path="url(#pe0946932f9)" style="fill: #d3d3d3"/>
   </g>
   <g id="PathCollection_27">
    <path d="M 106.019034 237.074806 
C 106.478379 237.074806 106.918973 236.892306 107.243779 236.5675 
C 107.568585 236.242694 107.751085 235.8021 107.751085 235.342755 
C 107.751085 234.88341 107.568585 234.442816 107.243779 234.11801 
C 106.918973 233.793204 106.478379 233.610704 106.019034 233.610704 
C 105.559689 233.610704 105.119095 233.793204 104.794289 234.11801 
C 104.469483 234.442816 104.286983 234.88341 104.286983 235.342755 
C 104.286983 235.8021 104.469483 236.242694 104.794289 236.5675 
C 105.119095 236.892306 105.559689 237.074806 106.019034 237.074806 
z
" clip-path="url(#pe0946932f9)" style="fill: #d3d3d3"/>
   </g>
   <g id="PathCollection_28">
    <path d="M 106.019034 137.962104 
C 106.478379 137.962104 106.918973 137.779605 107.243779 137.454799 
C 107.568585 137.129992 107.751085 136.689399 107.751085 136.230054 
C 107.751085 135.770708 107.568585 135.330115 107.243779 135.005309 
C 106.918973 134.680503 106.478379 134.498003 106.019034 134.498003 
C 105.559689 134.498003 105.119095 134.680503 104.794289 135.005309 
C 104.469483 135.330115 104.286983 135.770708 104.286983 136.230054 
C 104.286983 136.689399 104.469483 137.129992 104.794289 137.454799 
C 105.119095 137.779605 105.559689 137.962104 106.019034 137.962104 
z
" clip-path="url(#pe0946932f9)" style="fill: #d3d3d3"/>
   </g>
   <g id="PathCollection_29">
    <path d="M 113.360716 339.858348 
C 113.820061 339.858348 114.260654 339.675848 114.58546 339.351042 
C 114.910267 339.026236 115.092766 338.585642 115.092766 338.126297 
C 115.092766 337.666952 114.910267 337.226358 114.58546 336.901552 
C 114.260654 336.576746 113.820061 336.394246 113.360716 336.394246 
C 112.90137 336.394246 112.460777 336.576746 112.135971 336.901552 
C 111.811165 337.226358 111.628665 337.666952 111.628665 338.126297 
C 111.628665 338.585642 111.811165 339.026236 112.135971 339.351042 
C 112.460777 339.675848 112.90137 339.858348 113.360716 339.858348 
z
" clip-path="url(#pe0946932f9)" style="fill: #d3d3d3"/>
   </g>
   <g id="PathCollection_30">
    <path d="M 113.360716 35.178562 
C 113.820061 35.178562 114.260654 34.996063 114.58546 34.671256 
C 114.910267 34.34645 115.092766 33.905857 115.092766 33.446512 
C 115.092766 32.987166 114.910267 32.546573 114.58546 32.221767 
C 114.260654 31.896961 113.820061 31.714461 113.360716 31.714461 
C 112.90137 31.714461 112.460777 31.896961 112.135971 32.221767 
C 111.811165 32.546573 111.628665 32.987166 111.628665 33.446512 
C 111.628665 33.905857 111.811165 34.34645 112.135971 34.671256 
C 112.460777 34.996063 112.90137 35.178562 113.360716 35.178562 
z
" clip-path="url(#pe0946932f9)" style="fill: #d3d3d3"/>
   </g>
   <g id="PathCollection_31">
    <path d="M 117.031556 240.745647 
C 117.490902 240.745647 117.931495 240.563147 118.256301 240.238341 
C 118.581107 239.913534 118.763607 239.472941 118.763607 239.013596 
C 118.763607 238.55425 118.581107 238.113657 118.256301 237.788851 
C 117.931495 237.464045 117.490902 237.281545 117.031556 237.281545 
C 116.572211 237.281545 116.131618 237.464045 115.806811 237.788851 
C 115.482005 238.113657 115.299506 238.55425 115.299506 239.013596 
C 115.299506 239.472941 115.482005 239.913534 115.806811 240.238341 
C 116.131618 240.563147 116.572211 240.745647 117.031556 240.745647 
z
" clip-path="url(#pe0946932f9)" style="fill: #d3d3d3"/>
   </g>
   <g id="PathCollection_32">
    <path d="M 117.031556 134.291264 
C 117.490902 134.291264 117.931495 134.108764 118.256301 133.783958 
C 118.581107 133.459152 118.763607 133.018558 118.763607 132.559213 
C 118.763607 132.099868 118.581107 131.659274 118.256301 131.334468 
C 117.931495 131.009662 117.490902 130.827162 117.031556 130.827162 
C 116.572211 130.827162 116.131618 131.009662 115.806811 131.334468 
C 115.482005 131.659274 115.299506 132.099868 115.299506 132.559213 
C 115.299506 133.018558 115.482005 133.459152 115.806811 133.783958 
C 116.131618 134.108764 116.572211 134.291264 117.031556 134.291264 
z
" clip-path="url(#pe0946932f9)" style="fill: #d3d3d3"/>
   </g>
   <g id="PathCollection_33">
    <path d="M 120.702397 207.708079 
C 121.161742 207.708079 121.602336 207.52558 121.927142 207.200773 
C 122.251948 206.875967 122.434448 206.435374 122.434448 205.976029 
C 122.434448 205.516683 122.251948 205.07609 121.927142 204.751284 
C 121.602336 204.426478 121.161742 204.243978 120.702397 204.243978 
C 120.243052 204.243978 119.802458 204.426478 119.477652 204.751284 
C 119.152846 205.07609 118.970346 205.516683 118.970346 205.976029 
C 118.970346 206.435374 119.152846 206.875967 119.477652 207.200773 
C 119.802458 207.52558 120.243052 207.708079 120.702397 207.708079 
z
" clip-path="url(#pe0946932f9)" style="fill: #d3d3d3"/>
   </g>
   <g id="PathCollection_34">
    <path d="M 120.702397 167.328831 
C 121.161742 167.328831 121.602336 167.146331 121.927142 166.821525 
C 122.251948 166.496719 122.434448 166.056125 122.434448 165.59678 
C 122.434448 165.137435 122.251948 164.696841 121.927142 164.372035 
C 121.602336 164.047229 121.161742 163.864729 120.702397 163.864729 
C 120.243052 163.864729 119.802458 164.047229 119.477652 164.372035 
C 119.152846 164.696841 118.970346 165.137435 118.970346 165.59678 
C 118.970346 166.056125 119.152846 166.496719 119.477652 166.821525 
C 119.802458 167.146331 120.243052 167.328831 120.702397 167.328831 
z
" clip-path="url(#pe0946932f9)" style="fill: #d3d3d3"/>
   </g>
   <g id="PathCollection_35">
    <path d="M 124.373238 365.554233 
C 124.832583 365.554233 125.273177 365.371733 125.597983 365.046927 
C 125.922789 364.722121 126.105289 364.281528 126.105289 363.822182 
C 126.105289 363.362837 125.922789 362.922244 125.597983 362.597438 
C 125.273177 362.272631 124.832583 362.090132 124.373238 362.090132 
C 123.913893 362.090132 123.473299 362.272631 123.148493 362.597438 
C 122.823687 362.922244 122.641187 363.362837 122.641187 363.822182 
C 122.641187 364.281528 122.823687 364.722121 123.148493 365.046927 
C 123.473299 365.371733 123.913893 365.554233 124.373238 365.554233 
z
" clip-path="url(#pe0946932f9)" style="fill: #d3d3d3"/>
   </g>
   <g id="PathCollection_36">
    <path d="M 131.714919 339.858348 
C 132.174265 339.858348 132.614858 339.675848 132.939664 339.351042 
C 133.264471 339.026236 133.44697 338.585642 133.44697 338.126297 
C 133.44697 337.666952 133.264471 337.226358 132.939664 336.901552 
C 132.614858 336.576746 132.174265 336.394246 131.714919 336.394246 
C 131.255574 336.394246 130.814981 336.576746 130.490175 336.901552 
C 130.165368 337.226358 129.982869 337.666952 129.982869 338.126297 
C 129.982869 338.585642 130.165368 339.026236 130.490175 339.351042 
C 130.814981 339.675848 131.255574 339.858348 131.714919 339.858348 
z
" clip-path="url(#pe0946932f9)" style="fill: #d3d3d3"/>
   </g>
   <g id="PathCollection_37">
    <path d="M 131.714919 35.178562 
C 132.174265 35.178562 132.614858 34.996063 132.939664 34.671256 
C 133.264471 34.34645 133.44697 33.905857 133.44697 33.446512 
C 133.44697 32.987166 133.264471 32.546573 132.939664 32.221767 
C 132.614858 31.896961 132.174265 31.714461 131.714919 31.714461 
C 131.255574 31.714461 130.814981 31.896961 130.490175 32.221767 
C 130.165368 32.546573 129.982869 32.987166 129.982869 33.446512 
C 129.982869 33.905857 130.165368 34.34645 130.490175 34.671256 
C 130.814981 34.996063 131.255574 35.178562 131.714919 35.178562 
z
" clip-path="url(#pe0946932f9)" style="fill: #d3d3d3"/>
   </g>
   <g id="PathCollection_38">
    <path d="M 150.069123 284.795736 
C 150.528469 284.795736 150.969062 284.613236 151.293868 284.28843 
C 151.618674 283.963624 151.801174 283.52303 151.801174 283.063685 
C 151.801174 282.60434 151.618674 282.163746 151.293868 281.83894 
C 150.969062 281.514134 150.528469 281.331634 150.069123 281.331634 
C 149.609778 281.331634 149.169185 281.514134 148.844379 281.83894 
C 148.519572 282.163746 148.337073 282.60434 148.337073 283.063685 
C 148.337073 283.52303 148.519572 283.963624 148.844379 284.28843 
C 149.169185 284.613236 149.609778 284.795736 150.069123 284.795736 
z
" clip-path="url(#pe0946932f9)" style="fill: #d3d3d3"/>
   </g>
   <g id="PathCollection_39">
    <path d="M 150.069123 90.241174 
C 150.528469 90.241174 150.969062 90.058674 151.293868 89.733868 
C 151.618674 89.409062 151.801174 88.968469 151.801174 88.509123 
C 151.801174 88.049778 151.618674 87.609185 151.293868 87.284379 
C 150.969062 86.959572 150.528469 86.777073 150.069123 86.777073 
C 149.609778 86.777073 149.169185 86.959572 148.844379 87.284379 
C 148.519572 87.609185 148.337073 88.049778 148.337073 88.509123 
C 148.337073 88.968469 148.519572 89.409062 148.844379 89.733868 
C 149.169185 90.058674 149.609778 90.241174 150.069123 90.241174 
z
" clip-path="url(#pe0946932f9)" style="fill: #d3d3d3"/>
   </g>
   <g id="PathCollection_40">
    <path d="M 153.739964 339.858348 
C 154.199309 339.858348 154.639903 339.675848 154.964709 339.351042 
C 155.289515 339.026236 155.472015 338.585642 155.472015 338.126297 
C 155.472015 337.666952 155.289515 337.226358 154.964709 336.901552 
C 154.639903 336.576746 154.199309 336.394246 153.739964 336.394246 
C 153.280619 336.394246 152.840025 336.576746 152.515219 336.901552 
C 152.190413 337.226358 152.007913 337.666952 152.007913 338.126297 
C 152.007913 338.585642 152.190413 339.026236 152.515219 339.351042 
C 152.840025 339.675848 153.280619 339.858348 153.739964 339.858348 
z
" clip-path="url(#pe0946932f9)" style="fill: #d3d3d3"/>
   </g>
   <g id="PathCollection_41">
    <path d="M 153.739964 35.178562 
C 154.199309 35.178562 154.639903 34.996063 154.964709 34.671256 
C 155.289515 34.34645 155.472015 33.905857 155.472015 33.446512 
C 155.472015 32.987166 155.289515 32.546573 154.964709 32.221767 
C 154.639903 31.896961 154.199309 31.714461 153.739964 31.714461 
C 153.280619 31.714461 152.840025 31.896961 152.515219 32.221767 
C 152.190413 32.546573 152.007913 32.987166 152.007913 33.446512 
C 152.007913 33.905857 152.190413 34.34645 152.515219 34.671256 
C 152.840025 34.996063 153.280619 35.178562 153.739964 35.178562 
z
" clip-path="url(#pe0946932f9)" style="fill: #d3d3d3"/>
   </g>
   <g id="PathCollection_42">
    <path d="M 157.410805 343.529189 
C 157.87015 343.529189 158.310744 343.346689 158.63555 343.021883 
C 158.960356 342.697076 159.142856 342.256483 159.142856 341.797138 
C 159.142856 341.337793 158.960356 340.897199 158.63555 340.572393 
C 158.310744 340.247587 157.87015 340.065087 157.410805 340.065087 
C 156.95146 340.065087 156.510866 340.247587 156.18606 340.572393 
C 155.861254 340.897199 155.678754 341.337793 155.678754 341.797138 
C 155.678754 342.256483 155.861254 342.697076 156.18606 343.021883 
C 156.510866 343.346689 156.95146 343.529189 157.410805 343.529189 
z
" clip-path="url(#pe0946932f9)" style="fill: #d3d3d3"/>
   </g>
   <g id="PathCollection_43">
    <path d="M 157.410805 31.507722 
C 157.87015 31.507722 158.310744 31.325222 158.63555 31.000416 
C 158.960356 30.67561 159.142856 30.235016 159.142856 29.775671 
C 159.142856 29.316326 158.960356 28.875732 158.63555 28.550926 
C 158.310744 28.22612 157.87015 28.04362 157.410805 28.04362 
C 156.95146 28.04362 156.510866 28.22612 156.18606 28.550926 
C 155.861254 28.875732 155.678754 29.316326 155.678754 29.775671 
C 155.678754 30.235016 155.861254 30.67561 156.18606 31.000416 
C 156.510866 31.325222 156.95146 31.507722 157.410805 31.507722 
z
" clip-path="url(#pe0946932f9)" style="fill: #d3d3d3"/>
   </g>
   <g id="PathCollection_44">
    <path d="M 175.765009 292.137418 
C 176.224354 292.137418 176.664948 291.954918 176.989754 291.630112 
C 177.31456 291.305305 177.49706 290.864712 177.49706 290.405367 
C 177.49706 289.946021 177.31456 289.505428 176.989754 289.180622 
C 176.664948 288.855816 176.224354 288.673316 175.765009 288.673316 
C 175.305664 288.673316 174.86507 288.855816 174.540264 289.180622 
C 174.215458 289.505428 174.032958 289.946021 174.032958 290.405367 
C 174.032958 290.864712 174.215458 291.305305 174.540264 291.630112 
C 174.86507 291.954918 175.305664 292.137418 175.765009 292.137418 
z
" clip-path="url(#pe0946932f9)" style="fill: #d3d3d3"/>
   </g>
   <g id="PathCollection_45">
    <path d="M 175.765009 82.899493 
C 176.224354 82.899493 176.664948 82.716993 176.989754 82.392187 
C 177.31456 82.067381 177.49706 81.626787 177.49706 81.167442 
C 177.49706 80.708097 177.31456 80.267503 176.989754 79.942697 
C 176.664948 79.617891 176.224354 79.435391 175.765009 79.435391 
C 175.305664 79.435391 174.86507 79.617891 174.540264 79.942697 
C 174.215458 80.267503 174.032958 80.708097 174.032958 81.167442 
C 174.032958 81.626787 174.215458 82.067381 174.540264 82.392187 
C 174.86507 82.716993 175.305664 82.899493 175.765009 82.899493 
z
" clip-path="url(#pe0946932f9)" style="fill: #d3d3d3"/>
   </g>
   <g id="PathCollection_46">
    <path d="M 183.106691 273.783214 
C 183.566036 273.783214 184.006629 273.600714 184.331435 273.275908 
C 184.656242 272.951102 184.838741 272.510508 184.838741 272.051163 
C 184.838741 271.591818 184.656242 271.151224 184.331435 270.826418 
C 184.006629 270.501612 183.566036 270.319112 183.106691 270.319112 
C 182.647345 270.319112 182.206752 270.501612 181.881946 270.826418 
C 181.55714 271.151224 181.37464 271.591818 181.37464 272.051163 
C 181.37464 272.510508 181.55714 272.951102 181.881946 273.275908 
C 182.206752 273.600714 182.647345 273.783214 183.106691 273.783214 
z
" clip-path="url(#pe0946932f9)" style="fill: #d3d3d3"/>
   </g>
   <g id="PathCollection_47">
    <path d="M 183.106691 101.253697 
C 183.566036 101.253697 184.006629 101.071197 184.331435 100.746391 
C 184.656242 100.421585 184.838741 99.980991 184.838741 99.521646 
C 184.838741 99.062301 184.656242 98.621707 184.331435 98.296901 
C 184.006629 97.972095 183.566036 97.789595 183.106691 97.789595 
C 182.647345 97.789595 182.206752 97.972095 181.881946 98.296901 
C 181.55714 98.621707 181.37464 99.062301 181.37464 99.521646 
C 181.37464 99.980991 181.55714 100.421585 181.881946 100.746391 
C 182.206752 101.071197 182.647345 101.253697 183.106691 101.253697 
z
" clip-path="url(#pe0946932f9)" style="fill: #d3d3d3"/>
   </g>
   <g id="PathCollection_48">
    <path d="M 186.777531 299.479099 
C 187.236877 299.479099 187.67747 299.296599 188.002276 298.971793 
C 188.327082 298.646987 188.509582 298.206394 188.509582 297.747048 
C 188.509582 297.287703 188.327082 296.84711 188.002276 296.522303 
C 187.67747 296.197497 187.236877 296.014997 186.777531 296.014997 
C 186.318186 296.014997 185.877593 296.197497 185.552786 296.522303 
C 185.22798 296.84711 185.04548 297.287703 185.04548 297.747048 
C 185.04548 298.206394 185.22798 298.646987 185.552786 298.971793 
C 185.877593 299.296599 186.318186 299.479099 186.777531 299.479099 
z
" clip-path="url(#pe0946932f9)" style="fill: #d3d3d3"/>
   </g>
   <g id="PathCollection_49">
    <path d="M 186.777531 75.557811 
C 187.236877 75.557811 187.67747 75.375311 188.002276 75.050505 
C 188.327082 74.725699 188.509582 74.285106 188.509582 73.82576 
C 188.509582 73.366415 188.327082 72.925822 188.002276 72.601015 
C 187.67747 72.276209 187.236877 72.093709 186.777531 72.093709 
C 186.318186 72.093709 185.877593 72.276209 185.552786 72.601015 
C 185.22798 72.925822 185.04548 73.366415 185.04548 73.82576 
C 185.04548 74.285106 185.22798 74.725699 185.552786 75.050505 
C 185.877593 75.375311 186.318186 75.557811 186.777531 75.557811 
z
" clip-path="url(#pe0946932f9)" style="fill: #d3d3d3"/>
   </g>
   <g id="PathCollection_50">
    <path d="M 194.119213 240.745647 
C 194.578558 240.745647 195.019152 240.563147 195.343958 240.238341 
C 195.668764 239.913534 195.851264 239.472941 195.851264 239.013596 
C 195.851264 238.55425 195.668764 238.113657 195.343958 237.788851 
C 195.019152 237.464045 194.578558 237.281545 194.119213 237.281545 
C 193.659868 237.281545 193.219274 237.464045 192.894468 237.788851 
C 192.569662 238.113657 192.387162 238.55425 192.387162 239.013596 
C 192.387162 239.472941 192.569662 239.913534 192.894468 240.238341 
C 193.219274 240.563147 193.659868 240.745647 194.119213 240.745647 
z
" clip-path="url(#pe0946932f9)" style="fill: #d3d3d3"/>
   </g>
   <g id="PathCollection_51">
    <path d="M 194.119213 134.291264 
C 194.578558 134.291264 195.019152 134.108764 195.343958 133.783958 
C 195.668764 133.459152 195.851264 133.018558 195.851264 132.559213 
C 195.851264 132.099868 195.668764 131.659274 195.343958 131.334468 
C 195.019152 131.009662 194.578558 130.827162 194.119213 130.827162 
C 193.659868 130.827162 193.219274 131.009662 192.894468 131.334468 
C 192.569662 131.659274 192.387162 132.099868 192.387162 132.559213 
C 192.387162 133.018558 192.569662 133.459152 192.894468 133.783958 
C 193.219274 134.108764 193.659868 134.291264 194.119213 134.291264 
z
" clip-path="url(#pe0946932f9)" style="fill: #d3d3d3"/>
   </g>
   <g id="PathCollection_52">
    <path d="M 197.790054 295.808258 
C 198.249399 295.808258 198.689992 295.625759 199.014799 295.300952 
C 199.339605 294.976146 199.522104 294.535553 199.522104 294.076208 
C 199.522104 293.616862 199.339605 293.176269 199.014799 292.851463 
C 198.689992 292.526657 198.249399 292.344157 197.790054 292.344157 
C 197.330708 292.344157 196.890115 292.526657 196.565309 292.851463 
C 196.240503 293.176269 196.058003 293.616862 196.058003 294.076208 
C 196.058003 294.535553 196.240503 294.976146 196.565309 295.300952 
C 196.890115 295.625759 197.330708 295.808258 197.790054 295.808258 
z
" clip-path="url(#pe0946932f9)" style="fill: #d3d3d3"/>
   </g>
   <g id="PathCollection_53">
    <path d="M 197.790054 79.228652 
C 198.249399 79.228652 198.689992 79.046152 199.014799 78.721346 
C 199.339605 78.39654 199.522104 77.955946 199.522104 77.496601 
C 199.522104 77.037256 199.339605 76.596662 199.014799 76.271856 
C 198.689992 75.94705 198.249399 75.76455 197.790054 75.76455 
C 197.330708 75.76455 196.890115 75.94705 196.565309 76.271856 
C 196.240503 76.596662 196.058003 77.037256 196.058003 77.496601 
C 196.058003 77.955946 196.240503 78.39654 196.565309 78.721346 
C 196.890115 79.046152 197.330708 79.228652 197.790054 79.228652 
z
" clip-path="url(#pe0946932f9)" style="fill: #d3d3d3"/>
   </g>
   <g id="PathCollection_54">
    <path d="M 205.131735 259.09985 
C 205.59108 259.09985 206.031674 258.917351 206.35648 258.592545 
C 206.681286 258.267738 206.863786 257.827145 206.863786 257.3678 
C 206.863786 256.908454 206.681286 256.467861 206.35648 256.143055 
C 206.031674 255.818249 205.59108 255.635749 205.131735 255.635749 
C 204.67239 255.635749 204.231797 255.818249 203.90699 256.143055 
C 203.582184 256.467861 203.399684 256.908454 203.399684 257.3678 
C 203.399684 257.827145 203.582184 258.267738 203.90699 258.592545 
C 204.231797 258.917351 204.67239 259.09985 205.131735 259.09985 
z
" clip-path="url(#pe0946932f9)" style="fill: #d3d3d3"/>
   </g>
   <g id="PathCollection_55">
    <path d="M 205.131735 115.93706 
C 205.59108 115.93706 206.031674 115.75456 206.35648 115.429754 
C 206.681286 115.104948 206.863786 114.664354 206.863786 114.205009 
C 206.863786 113.745664 206.681286 113.30507 206.35648 112.980264 
C 206.031674 112.655458 205.59108 112.472958 205.131735 112.472958 
C 204.67239 112.472958 204.231797 112.655458 203.90699 112.980264 
C 203.582184 113.30507 203.399684 113.745664 203.399684 114.205009 
C 203.399684 114.664354 203.582184 115.104948 203.90699 115.429754 
C 204.231797 115.75456 204.67239 115.93706 205.131735 115.93706 
z
" clip-path="url(#pe0946932f9)" style="fill: #d3d3d3"/>
   </g>
   <g id="PathCollection_56">
    <path d="M 208.802576 277.454054 
C 209.261921 277.454054 209.702515 277.271555 210.027321 276.946748 
C 210.352127 276.621942 210.534627 276.181349 210.534627 275.722004 
C 210.534627 275.262658 210.352127 274.822065 210.027321 274.497259 
C 209.702515 274.172453 209.261921 273.989953 208.802576 273.989953 
C 208.343231 273.989953 207.902637 274.172453 207.577831 274.497259 
C 207.253025 274.822065 207.070525 275.262658 207.070525 275.722004 
C 207.070525 276.181349 207.253025 276.621942 207.577831 276.946748 
C 207.902637 277.271555 208.343231 277.454054 208.802576 277.454054 
z
" clip-path="url(#pe0946932f9)" style="fill: #d3d3d3"/>
   </g>
   <g id="PathCollection_57">
    <path d="M 208.802576 97.582856 
C 209.261921 97.582856 209.702515 97.400356 210.027321 97.07555 
C 210.352127 96.750744 210.534627 96.31015 210.534627 95.850805 
C 210.534627 95.39146 210.352127 94.950866 210.027321 94.62606 
C 209.702515 94.301254 209.261921 94.118754 208.802576 94.118754 
C 208.343231 94.118754 207.902637 94.301254 207.577831 94.62606 
C 207.253025 94.950866 207.070525 95.39146 207.070525 95.850805 
C 207.070525 96.31015 207.253025 96.750744 207.577831 97.07555 
C 207.902637 97.400356 208.343231 97.582856 208.802576 97.582856 
z
" clip-path="url(#pe0946932f9)" style="fill: #d3d3d3"/>
   </g>
   <g id="PathCollection_58">
    <path d="M 212.473417 321.504144 
C 212.932762 321.504144 213.373356 321.321644 213.698162 320.996838 
C 214.022968 320.672032 214.205468 320.231438 214.205468 319.772093 
C 214.205468 319.312748 214.022968 318.872154 213.698162 318.547348 
C 213.373356 318.222542 212.932762 318.040042 212.473417 318.040042 
C 212.014072 318.040042 211.573478 318.222542 211.248672 318.547348 
C 210.923866 318.872154 210.741366 319.312748 210.741366 319.772093 
C 210.741366 320.231438 210.923866 320.672032 211.248672 320.996838 
C 211.573478 321.321644 212.014072 321.504144 212.473417 321.504144 
z
" clip-path="url(#pe0946932f9)" style="fill: #d3d3d3"/>
   </g>
   <g id="PathCollection_59">
    <path d="M 212.473417 53.532766 
C 212.932762 53.532766 213.373356 53.350267 213.698162 53.02546 
C 214.022968 52.700654 214.205468 52.260061 214.205468 51.800716 
C 214.205468 51.34137 214.022968 50.900777 213.698162 50.575971 
C 213.373356 50.251165 212.932762 50.068665 212.473417 50.068665 
C 212.014072 50.068665 211.573478 50.251165 211.248672 50.575971 
C 210.923866 50.900777 210.741366 51.34137 210.741366 51.800716 
C 210.741366 52.260061 210.923866 52.700654 211.248672 53.02546 
C 211.573478 53.350267 212.014072 53.532766 212.473417 53.532766 
z
" clip-path="url(#pe0946932f9)" style="fill: #d3d3d3"/>
   </g>
   <g id="PathCollection_60">
    <path d="M 216.144258 343.529189 
C 216.603603 343.529189 217.044196 343.346689 217.369002 343.021883 
C 217.693809 342.697076 217.876308 342.256483 217.876308 341.797138 
C 217.876308 341.337793 217.693809 340.897199 217.369002 340.572393 
C 217.044196 340.247587 216.603603 340.065087 216.144258 340.065087 
C 215.684912 340.065087 215.244319 340.247587 214.919513 340.572393 
C 214.594707 340.897199 214.412207 341.337793 214.412207 341.797138 
C 214.412207 342.256483 214.594707 342.697076 214.919513 343.021883 
C 215.244319 343.346689 215.684912 343.529189 216.144258 343.529189 
z
" clip-path="url(#pe0946932f9)" style="fill: #d3d3d3"/>
   </g>
   <g id="PathCollection_61">
    <path d="M 216.144258 31.507722 
C 216.603603 31.507722 217.044196 31.325222 217.369002 31.000416 
C 217.693809 30.67561 217.876308 30.235016 217.876308 29.775671 
C 217.876308 29.316326 217.693809 28.875732 217.369002 28.550926 
C 217.044196 28.22612 216.603603 28.04362 216.144258 28.04362 
C 215.684912 28.04362 215.244319 28.22612 214.919513 28.550926 
C 214.594707 28.875732 214.412207 29.316326 214.412207 29.775671 
C 214.412207 30.235016 214.594707 30.67561 214.919513 31.000416 
C 215.244319 31.325222 215.684912 31.507722 216.144258 31.507722 
z
" clip-path="url(#pe0946932f9)" style="fill: #d3d3d3"/>
   </g>
   <g id="PathCollection_62">
    <path d="M 219.815098 336.187507 
C 220.274444 336.187507 220.715037 336.005007 221.039843 335.680201 
C 221.364649 335.355395 221.547149 334.914801 221.547149 334.455456 
C 221.547149 333.996111 221.364649 333.555517 221.039843 333.230711 
C 220.715037 332.905905 220.274444 332.723405 219.815098 332.723405 
C 219.355753 332.723405 218.91516 332.905905 218.590354 333.230711 
C 218.265547 333.555517 218.083048 333.996111 218.083048 334.455456 
C 218.083048 334.914801 218.265547 335.355395 218.590354 335.680201 
C 218.91516 336.005007 219.355753 336.187507 219.815098 336.187507 
z
" clip-path="url(#pe0946932f9)" style="fill: #d3d3d3"/>
   </g>
   <g id="PathCollection_63">
    <path d="M 219.815098 38.849403 
C 220.274444 38.849403 220.715037 38.666903 221.039843 38.342097 
C 221.364649 38.017291 221.547149 37.576698 221.547149 37.117352 
C 221.547149 36.658007 221.364649 36.217414 221.039843 35.892608 
C 220.715037 35.567801 220.274444 35.385302 219.815098 35.385302 
C 219.355753 35.385302 218.91516 35.567801 218.590354 35.892608 
C 218.265547 36.217414 218.083048 36.658007 218.083048 37.117352 
C 218.083048 37.576698 218.265547 38.017291 218.590354 38.342097 
C 218.91516 38.666903 219.355753 38.849403 219.815098 38.849403 
z
" clip-path="url(#pe0946932f9)" style="fill: #d3d3d3"/>
   </g>
   <g id="PathCollection_64">
    <path d="M 230.827621 248.087328 
C 231.286966 248.087328 231.727559 247.904828 232.052366 247.580022 
C 232.377172 247.255216 232.559672 246.814623 232.559672 246.355277 
C 232.559672 245.895932 232.377172 245.455339 232.052366 245.130532 
C 231.727559 244.805726 231.286966 244.623226 230.827621 244.623226 
C 230.368276 244.623226 229.927682 244.805726 229.602876 245.130532 
C 229.27807 245.455339 229.09557 245.895932 229.09557 246.355277 
C 229.09557 246.814623 229.27807 247.255216 229.602876 247.580022 
C 229.927682 247.904828 230.368276 248.087328 230.827621 248.087328 
z
" clip-path="url(#pe0946932f9)" style="fill: #d3d3d3"/>
   </g>
   <g id="PathCollection_65">
    <path d="M 230.827621 126.949582 
C 231.286966 126.949582 231.727559 126.767082 232.052366 126.442276 
C 232.377172 126.11747 232.559672 125.676877 232.559672 125.217531 
C 232.559672 124.758186 232.377172 124.317593 232.052366 123.992786 
C 231.727559 123.66798 231.286966 123.48548 230.827621 123.48548 
C 230.368276 123.48548 229.927682 123.66798 229.602876 123.992786 
C 229.27807 124.317593 229.09557 124.758186 229.09557 125.217531 
C 229.09557 125.676877 229.27807 126.11747 229.602876 126.442276 
C 229.927682 126.767082 230.368276 126.949582 230.827621 126.949582 
z
" clip-path="url(#pe0946932f9)" style="fill: #d3d3d3"/>
   </g>
   <g id="PathCollection_66">
    <path d="M 252.852665 248.087328 
C 253.312011 248.087328 253.752604 247.904828 254.07741 247.580022 
C 254.402216 247.255216 254.584716 246.814623 254.584716 246.355277 
C 254.584716 245.895932 254.402216 245.455339 254.07741 245.130532 
C 253.752604 244.805726 253.312011 244.623226 252.852665 244.623226 
C 252.39332 244.623226 251.952727 244.805726 251.627921 245.130532 
C 251.303114 245.455339 251.120615 245.895932 251.120615 246.355277 
C 251.120615 246.814623 251.303114 247.255216 251.627921 247.580022 
C 251.952727 247.904828 252.39332 248.087328 252.852665 248.087328 
z
" clip-path="url(#pe0946932f9)" style="fill: #d3d3d3"/>
   </g>
   <g id="PathCollection_67">
    <path d="M 252.852665 126.949582 
C 253.312011 126.949582 253.752604 126.767082 254.07741 126.442276 
C 254.402216 126.11747 254.584716 125.676877 254.584716 125.217531 
C 254.584716 124.758186 254.402216 124.317593 254.07741 123.992786 
C 253.752604 123.66798 253.312011 123.48548 252.852665 123.48548 
C 252.39332 123.48548 251.952727 123.66798 251.627921 123.992786 
C 251.303114 124.317593 251.120615 124.758186 251.120615 125.217531 
C 251.120615 125.676877 251.303114 126.11747 251.627921 126.442276 
C 251.952727 126.767082 252.39332 126.949582 252.852665 126.949582 
z
" clip-path="url(#pe0946932f9)" style="fill: #d3d3d3"/>
   </g>
   <g id="PathCollection_68">
    <path d="M 260.194347 207.708079 
C 260.653692 207.708079 261.094286 207.52558 261.419092 207.200773 
C 261.743898 206.875967 261.926398 206.435374 261.926398 205.976029 
C 261.926398 205.516683 261.743898 205.07609 261.419092 204.751284 
C 261.094286 204.426478 260.653692 204.243978 260.194347 204.243978 
C 259.735002 204.243978 259.294408 204.426478 258.969602 204.751284 
C 258.644796 205.07609 258.462296 205.516683 258.462296 205.976029 
C 258.462296 206.435374 258.644796 206.875967 258.969602 207.200773 
C 259.294408 207.52558 259.735002 207.708079 260.194347 207.708079 
z
" clip-path="url(#pe0946932f9)" style="fill: #d3d3d3"/>
   </g>
   <g id="PathCollection_69">
    <path d="M 260.194347 167.328831 
C 260.653692 167.328831 261.094286 167.146331 261.419092 166.821525 
C 261.743898 166.496719 261.926398 166.056125 261.926398 165.59678 
C 261.926398 165.137435 261.743898 164.696841 261.419092 164.372035 
C 261.094286 164.047229 260.653692 163.864729 260.194347 163.864729 
C 259.735002 163.864729 259.294408 164.047229 258.969602 164.372035 
C 258.644796 164.696841 258.462296 165.137435 258.462296 165.59678 
C 258.462296 166.056125 258.644796 166.496719 258.969602 166.821525 
C 259.294408 167.146331 259.735002 167.328831 260.194347 167.328831 
z
" clip-path="url(#pe0946932f9)" style="fill: #d3d3d3"/>
   </g>
   <g id="PathCollection_70">
    <path d="M 263.865188 365.554233 
C 264.324533 365.554233 264.765127 365.371733 265.089933 365.046927 
C 265.414739 364.722121 265.597239 364.281528 265.597239 363.822182 
C 265.597239 363.362837 265.414739 362.922244 265.089933 362.597438 
C 264.765127 362.272631 264.324533 362.090132 263.865188 362.090132 
C 263.405843 362.090132 262.965249 362.272631 262.640443 362.597438 
C 262.315637 362.922244 262.133137 363.362837 262.133137 363.822182 
C 262.133137 364.281528 262.315637 364.722121 262.640443 365.046927 
C 262.965249 365.371733 263.405843 365.554233 263.865188 365.554233 
z
" clip-path="url(#pe0946932f9)" style="fill: #d3d3d3"/>
   </g>
   <g id="PathCollection_71">
    <path d="M 271.206869 248.087328 
C 271.666215 248.087328 272.106808 247.904828 272.431614 247.580022 
C 272.75642 247.255216 272.93892 246.814623 272.93892 246.355277 
C 272.93892 245.895932 272.75642 245.455339 272.431614 245.130532 
C 272.106808 244.805726 271.666215 244.623226 271.206869 244.623226 
C 270.747524 244.623226 270.306931 244.805726 269.982125 245.130532 
C 269.657318 245.455339 269.474819 245.895932 269.474819 246.355277 
C 269.474819 246.814623 269.657318 247.255216 269.982125 247.580022 
C 270.306931 247.904828 270.747524 248.087328 271.206869 248.087328 
z
" clip-path="url(#pe0946932f9)" style="fill: #d3d3d3"/>
   </g>
   <g id="PathCollection_72">
    <path d="M 271.206869 126.949582 
C 271.666215 126.949582 272.106808 126.767082 272.431614 126.442276 
C 272.75642 126.11747 272.93892 125.676877 272.93892 125.217531 
C 272.93892 124.758186 272.75642 124.317593 272.431614 123.992786 
C 272.106808 123.66798 271.666215 123.48548 271.206869 123.48548 
C 270.747524 123.48548 270.306931 123.66798 269.982125 123.992786 
C 269.657318 124.317593 269.474819 124.758186 269.474819 125.217531 
C 269.474819 125.676877 269.657318 126.11747 269.982125 126.442276 
C 270.306931 126.767082 270.747524 126.949582 271.206869 126.949582 
z
" clip-path="url(#pe0946932f9)" style="fill: #d3d3d3"/>
   </g>
   <g id="PathCollection_73">
    <path d="M 282.219392 314.162462 
C 282.678737 314.162462 283.119331 313.979962 283.444137 313.655156 
C 283.768943 313.33035 283.951443 312.889757 283.951443 312.430411 
C 283.951443 311.971066 283.768943 311.530473 283.444137 311.205667 
C 283.119331 310.88086 282.678737 310.698361 282.219392 310.698361 
C 281.760047 310.698361 281.319453 310.88086 280.994647 311.205667 
C 280.669841 311.530473 280.487341 311.971066 280.487341 312.430411 
C 280.487341 312.889757 280.669841 313.33035 280.994647 313.655156 
C 281.319453 313.979962 281.760047 314.162462 282.219392 314.162462 
z
" clip-path="url(#pe0946932f9)" style="fill: #d3d3d3"/>
   </g>
   <g id="PathCollection_74">
    <path d="M 282.219392 60.874448 
C 282.678737 60.874448 283.119331 60.691948 283.444137 60.367142 
C 283.768943 60.042336 283.951443 59.601742 283.951443 59.142397 
C 283.951443 58.683052 283.768943 58.242458 283.444137 57.917652 
C 283.119331 57.592846 282.678737 57.410346 282.219392 57.410346 
C 281.760047 57.410346 281.319453 57.592846 280.994647 57.917652 
C 280.669841 58.242458 280.487341 58.683052 280.487341 59.142397 
C 280.487341 59.601742 280.669841 60.042336 280.994647 60.367142 
C 281.319453 60.691948 281.760047 60.874448 282.219392 60.874448 
z
" clip-path="url(#pe0946932f9)" style="fill: #d3d3d3"/>
   </g>
   <g id="PathCollection_75">
    <path d="M 285.890233 292.137418 
C 286.349578 292.137418 286.790171 291.954918 287.114977 291.630112 
C 287.439784 291.305305 287.622283 290.864712 287.622283 290.405367 
C 287.622283 289.946021 287.439784 289.505428 287.114977 289.180622 
C 286.790171 288.855816 286.349578 288.673316 285.890233 288.673316 
C 285.430887 288.673316 284.990294 288.855816 284.665488 289.180622 
C 284.340682 289.505428 284.158182 289.946021 284.158182 290.405367 
C 284.158182 290.864712 284.340682 291.305305 284.665488 291.630112 
C 284.990294 291.954918 285.430887 292.137418 285.890233 292.137418 
z
" clip-path="url(#pe0946932f9)" style="fill: #d3d3d3"/>
   </g>
   <g id="PathCollection_76">
    <path d="M 285.890233 82.899493 
C 286.349578 82.899493 286.790171 82.716993 287.114977 82.392187 
C 287.439784 82.067381 287.622283 81.626787 287.622283 81.167442 
C 287.622283 80.708097 287.439784 80.267503 287.114977 79.942697 
C 286.790171 79.617891 286.349578 79.435391 285.890233 79.435391 
C 285.430887 79.435391 284.990294 79.617891 284.665488 79.942697 
C 284.340682 80.267503 284.158182 80.708097 284.158182 81.167442 
C 284.158182 81.626787 284.340682 82.067381 284.665488 82.392187 
C 284.990294 82.716993 285.430887 82.899493 285.890233 82.899493 
z
" clip-path="url(#pe0946932f9)" style="fill: #d3d3d3"/>
   </g>
   <g id="PathCollection_77">
    <path d="M 293.231914 292.137418 
C 293.691259 292.137418 294.131853 291.954918 294.456659 291.630112 
C 294.781465 291.305305 294.963965 290.864712 294.963965 290.405367 
C 294.963965 289.946021 294.781465 289.505428 294.456659 289.180622 
C 294.131853 288.855816 293.691259 288.673316 293.231914 288.673316 
C 292.772569 288.673316 292.331975 288.855816 292.007169 289.180622 
C 291.682363 289.505428 291.499863 289.946021 291.499863 290.405367 
C 291.499863 290.864712 291.682363 291.305305 292.007169 291.630112 
C 292.331975 291.954918 292.772569 292.137418 293.231914 292.137418 
z
" clip-path="url(#pe0946932f9)" style="fill: #d3d3d3"/>
   </g>
   <g id="PathCollection_78">
    <path d="M 293.231914 82.899493 
C 293.691259 82.899493 294.131853 82.716993 294.456659 82.392187 
C 294.781465 82.067381 294.963965 81.626787 294.963965 81.167442 
C 294.963965 80.708097 294.781465 80.267503 294.456659 79.942697 
C 294.131853 79.617891 293.691259 79.435391 293.231914 79.435391 
C 292.772569 79.435391 292.331975 79.617891 292.007169 79.942697 
C 291.682363 80.267503 291.499863 80.708097 291.499863 81.167442 
C 291.499863 81.626787 291.682363 82.067381 292.007169 82.392187 
C 292.331975 82.716993 292.772569 82.899493 293.231914 82.899493 
z
" clip-path="url(#pe0946932f9)" style="fill: #d3d3d3"/>
   </g>
   <g id="PathCollection_79">
    <path d="M 307.915277 328.845825 
C 308.374623 328.845825 308.815216 328.663326 309.140022 328.338519 
C 309.464828 328.013713 309.647328 327.57312 309.647328 327.113775 
C 309.647328 326.654429 309.464828 326.213836 309.140022 325.88903 
C 308.815216 325.564224 308.374623 325.381724 307.915277 325.381724 
C 307.455932 325.381724 307.015339 325.564224 306.690532 325.88903 
C 306.365726 326.213836 306.183226 326.654429 306.183226 327.113775 
C 306.183226 327.57312 306.365726 328.013713 306.690532 328.338519 
C 307.015339 328.663326 307.455932 328.845825 307.915277 328.845825 
z
" clip-path="url(#pe0946932f9)" style="fill: #d3d3d3"/>
   </g>
   <g id="PathCollection_80">
    <path d="M 307.915277 46.191085 
C 308.374623 46.191085 308.815216 46.008585 309.140022 45.683779 
C 309.464828 45.358973 309.647328 44.918379 309.647328 44.459034 
C 309.647328 43.999689 309.464828 43.559095 309.140022 43.234289 
C 308.815216 42.909483 308.374623 42.726983 307.915277 42.726983 
C 307.455932 42.726983 307.015339 42.909483 306.690532 43.234289 
C 306.365726 43.559095 306.183226 43.999689 306.183226 44.459034 
C 306.183226 44.918379 306.365726 45.358973 306.690532 45.683779 
C 307.015339 46.008585 307.455932 46.191085 307.915277 46.191085 
z
" clip-path="url(#pe0946932f9)" style="fill: #d3d3d3"/>
   </g>
   <g id="PathCollection_81">
    <path d="M 318.9278 281.124895 
C 319.387145 281.124895 319.827738 280.942395 320.152545 280.617589 
C 320.477351 280.292783 320.65985 279.85219 320.65985 279.392844 
C 320.65985 278.933499 320.477351 278.492906 320.152545 278.168099 
C 319.827738 277.843293 319.387145 277.660794 318.9278 277.660794 
C 318.468454 277.660794 318.027861 277.843293 317.703055 278.168099 
C 317.378249 278.492906 317.195749 278.933499 317.195749 279.392844 
C 317.195749 279.85219 317.378249 280.292783 317.703055 280.617589 
C 318.027861 280.942395 318.468454 281.124895 318.9278 281.124895 
z
" clip-path="url(#pe0946932f9)" style="fill: #d3d3d3"/>
   </g>
   <g id="PathCollection_82">
    <path d="M 318.9278 93.912015 
C 319.387145 93.912015 319.827738 93.729515 320.152545 93.404709 
C 320.477351 93.079903 320.65985 92.639309 320.65985 92.179964 
C 320.65985 91.720619 320.477351 91.280025 320.152545 90.955219 
C 319.827738 90.630413 319.387145 90.447913 318.9278 90.447913 
C 318.468454 90.447913 318.027861 90.630413 317.703055 90.955219 
C 317.378249 91.280025 317.195749 91.720619 317.195749 92.179964 
C 317.195749 92.639309 317.378249 93.079903 317.703055 93.404709 
C 318.027861 93.729515 318.468454 93.912015 318.9278 93.912015 
z
" clip-path="url(#pe0946932f9)" style="fill: #d3d3d3"/>
   </g>
   <g id="PathCollection_83">
    <path d="M 322.59864 229.733124 
C 323.057986 229.733124 323.498579 229.550624 323.823385 229.225818 
C 324.148191 228.901012 324.330691 228.460419 324.330691 228.001073 
C 324.330691 227.541728 324.148191 227.101135 323.823385 226.776328 
C 323.498579 226.451522 323.057986 226.269023 322.59864 226.269023 
C 322.139295 226.269023 321.698702 226.451522 321.373896 226.776328 
C 321.049089 227.101135 320.86659 227.541728 320.86659 228.001073 
C 320.86659 228.460419 321.049089 228.901012 321.373896 229.225818 
C 321.698702 229.550624 322.139295 229.733124 322.59864 229.733124 
z
" clip-path="url(#pe0946932f9)" style="fill: #d3d3d3"/>
   </g>
   <g id="PathCollection_84">
    <path d="M 322.59864 145.303786 
C 323.057986 145.303786 323.498579 145.121286 323.823385 144.79648 
C 324.148191 144.471674 324.330691 144.03108 324.330691 143.571735 
C 324.330691 143.11239 324.148191 142.671797 323.823385 142.34699 
C 323.498579 142.022184 323.057986 141.839684 322.59864 141.839684 
C 322.139295 141.839684 321.698702 142.022184 321.373896 142.34699 
C 321.049089 142.671797 320.86659 143.11239 320.86659 143.571735 
C 320.86659 144.03108 321.049089 144.471674 321.373896 144.79648 
C 321.698702 145.121286 322.139295 145.303786 322.59864 145.303786 
z
" clip-path="url(#pe0946932f9)" style="fill: #d3d3d3"/>
   </g>
   <g id="PathCollection_85">
    <path d="M 326.269481 270.112373 
C 326.728826 270.112373 327.16942 269.929873 327.494226 269.605067 
C 327.819032 269.280261 328.001532 268.839667 328.001532 268.380322 
C 328.001532 267.920977 327.819032 267.480383 327.494226 267.155577 
C 327.16942 266.830771 326.728826 266.648271 326.269481 266.648271 
C 325.810136 266.648271 325.369542 266.830771 325.044736 267.155577 
C 324.71993 267.480383 324.53743 267.920977 324.53743 268.380322 
C 324.53743 268.839667 324.71993 269.280261 325.044736 269.605067 
C 325.369542 269.929873 325.810136 270.112373 326.269481 270.112373 
z
" clip-path="url(#pe0946932f9)" style="fill: #d3d3d3"/>
   </g>
   <g id="PathCollection_86">
    <path d="M 326.269481 104.924537 
C 326.728826 104.924537 327.16942 104.742038 327.494226 104.417231 
C 327.819032 104.092425 328.001532 103.651832 328.001532 103.192487 
C 328.001532 102.733141 327.819032 102.292548 327.494226 101.967742 
C 327.16942 101.642936 326.728826 101.460436 326.269481 101.460436 
C 325.810136 101.460436 325.369542 101.642936 325.044736 101.967742 
C 324.71993 102.292548 324.53743 102.733141 324.53743 103.192487 
C 324.53743 103.651832 324.71993 104.092425 325.044736 104.417231 
C 325.369542 104.742038 325.810136 104.924537 326.269481 104.924537 
z
" clip-path="url(#pe0946932f9)" style="fill: #d3d3d3"/>
   </g>
   <g id="PathCollection_87">
    <path d="M 329.940322 262.770691 
C 330.399667 262.770691 330.840261 262.588191 331.165067 262.263385 
C 331.489873 261.938579 331.672373 261.497986 331.672373 261.03864 
C 331.672373 260.579295 331.489873 260.138702 331.165067 259.813896 
C 330.840261 259.489089 330.399667 259.30659 329.940322 259.30659 
C 329.480977 259.30659 329.040383 259.489089 328.715577 259.813896 
C 328.390771 260.138702 328.208271 260.579295 328.208271 261.03864 
C 328.208271 261.497986 328.390771 261.938579 328.715577 262.263385 
C 329.040383 262.588191 329.480977 262.770691 329.940322 262.770691 
z
" clip-path="url(#pe0946932f9)" style="fill: #d3d3d3"/>
   </g>
   <g id="PathCollection_88">
    <path d="M 329.940322 112.266219 
C 330.399667 112.266219 330.840261 112.083719 331.165067 111.758913 
C 331.489873 111.434107 331.672373 110.993513 331.672373 110.534168 
C 331.672373 110.074823 331.489873 109.634229 331.165067 109.309423 
C 330.840261 108.984617 330.399667 108.802117 329.940322 108.802117 
C 329.480977 108.802117 329.040383 108.984617 328.715577 109.309423 
C 328.390771 109.634229 328.208271 110.074823 328.208271 110.534168 
C 328.208271 110.993513 328.390771 111.434107 328.715577 111.758913 
C 329.040383 112.083719 329.480977 112.266219 329.940322 112.266219 
z
" clip-path="url(#pe0946932f9)" style="fill: #d3d3d3"/>
   </g>
   <g id="PathCollection_89">
    <path d="M 333.611163 266.441532 
C 334.070508 266.441532 334.511102 266.259032 334.835908 265.934226 
C 335.160714 265.60942 335.343214 265.168826 335.343214 264.709481 
C 335.343214 264.250136 335.160714 263.809542 334.835908 263.484736 
C 334.511102 263.15993 334.070508 262.97743 333.611163 262.97743 
C 333.151818 262.97743 332.711224 263.15993 332.386418 263.484736 
C 332.061612 263.809542 331.879112 264.250136 331.879112 264.709481 
C 331.879112 265.168826 332.061612 265.60942 332.386418 265.934226 
C 332.711224 266.259032 333.151818 266.441532 333.611163 266.441532 
z
" clip-path="url(#pe0946932f9)" style="fill: #d3d3d3"/>
   </g>
   <g id="PathCollection_90">
    <path d="M 333.611163 108.595378 
C 334.070508 108.595378 334.511102 108.412878 334.835908 108.088072 
C 335.160714 107.763266 335.343214 107.322673 335.343214 106.863327 
C 335.343214 106.403982 335.160714 105.963389 334.835908 105.638582 
C 334.511102 105.313776 334.070508 105.131277 333.611163 105.131277 
C 333.151818 105.131277 332.711224 105.313776 332.386418 105.638582 
C 332.061612 105.963389 331.879112 106.403982 331.879112 106.863327 
C 331.879112 107.322673 332.061612 107.763266 332.386418 108.088072 
C 332.711224 108.412878 333.151818 108.595378 333.611163 108.595378 
z
" clip-path="url(#pe0946932f9)" style="fill: #d3d3d3"/>
   </g>
   <g id="PathCollection_91">
    <path d="M 337.282004 215.049761 
C 337.741349 215.049761 338.181942 214.867261 338.506748 214.542455 
C 338.831555 214.217649 339.014054 213.777055 339.014054 213.31771 
C 339.014054 212.858365 338.831555 212.417771 338.506748 212.092965 
C 338.181942 211.768159 337.741349 211.585659 337.282004 211.585659 
C 336.822658 211.585659 336.382065 211.768159 336.057259 212.092965 
C 335.732453 212.417771 335.549953 212.858365 335.549953 213.31771 
C 335.549953 213.777055 335.732453 214.217649 336.057259 214.542455 
C 336.382065 214.867261 336.822658 215.049761 337.282004 215.049761 
z
" clip-path="url(#pe0946932f9)" style="fill: #d3d3d3"/>
   </g>
   <g id="PathCollection_92">
    <path d="M 337.282004 159.987149 
C 337.741349 159.987149 338.181942 159.804649 338.506748 159.479843 
C 338.831555 159.155037 339.014054 158.714444 339.014054 158.255098 
C 339.014054 157.795753 338.831555 157.35516 338.506748 157.030354 
C 338.181942 156.705547 337.741349 156.523048 337.282004 156.523048 
C 336.822658 156.523048 336.382065 156.705547 336.057259 157.030354 
C 335.732453 157.35516 335.549953 157.795753 335.549953 158.255098 
C 335.549953 158.714444 335.732453 159.155037 336.057259 159.479843 
C 336.382065 159.804649 336.822658 159.987149 337.282004 159.987149 
z
" clip-path="url(#pe0946932f9)" style="fill: #d3d3d3"/>
   </g>
   <g id="PathCollection_93">
    <path d="M 348.294526 222.391443 
C 348.753871 222.391443 349.194465 222.208943 349.519271 221.884137 
C 349.844077 221.559331 350.026577 221.118737 350.026577 220.659392 
C 350.026577 220.200047 349.844077 219.759453 349.519271 219.434647 
C 349.194465 219.109841 348.753871 218.927341 348.294526 218.927341 
C 347.835181 218.927341 347.394587 219.109841 347.069781 219.434647 
C 346.744975 219.759453 346.562475 220.200047 346.562475 220.659392 
C 346.562475 221.118737 346.744975 221.559331 347.069781 221.884137 
C 347.394587 222.208943 347.835181 222.391443 348.294526 222.391443 
z
" clip-path="url(#pe0946932f9)" style="fill: #d3d3d3"/>
   </g>
   <g id="PathCollection_94">
    <path d="M 348.294526 152.645468 
C 348.753871 152.645468 349.194465 152.462968 349.519271 152.138162 
C 349.844077 151.813356 350.026577 151.372762 350.026577 150.913417 
C 350.026577 150.454072 349.844077 150.013478 349.519271 149.688672 
C 349.194465 149.363866 348.753871 149.181366 348.294526 149.181366 
C 347.835181 149.181366 347.394587 149.363866 347.069781 149.688672 
C 346.744975 150.013478 346.562475 150.454072 346.562475 150.913417 
C 346.562475 151.372762 346.744975 151.813356 347.069781 152.138162 
C 347.394587 152.462968 347.835181 152.645468 348.294526 152.645468 
z
" clip-path="url(#pe0946932f9)" style="fill: #d3d3d3"/>
   </g>
   <g id="PathCollection_95">
    <path d="M 351.965367 306.820781 
C 352.424712 306.820781 352.865305 306.638281 353.190112 306.313475 
C 353.514918 305.988669 353.697418 305.548075 353.697418 305.08873 
C 353.697418 304.629385 353.514918 304.188791 353.190112 303.863985 
C 352.865305 303.539179 352.424712 303.356679 351.965367 303.356679 
C 351.506021 303.356679 351.065428 303.539179 350.740622 303.863985 
C 350.415816 304.188791 350.233316 304.629385 350.233316 305.08873 
C 350.233316 305.548075 350.415816 305.988669 350.740622 306.313475 
C 351.065428 306.638281 351.506021 306.820781 351.965367 306.820781 
z
" clip-path="url(#pe0946932f9)" style="fill: #d3d3d3"/>
   </g>
   <g id="PathCollection_96">
    <path d="M 351.965367 68.21613 
C 352.424712 68.21613 352.865305 68.03363 353.190112 67.708824 
C 353.514918 67.384017 353.697418 66.943424 353.697418 66.484079 
C 353.697418 66.024733 353.514918 65.58414 353.190112 65.259334 
C 352.865305 64.934528 352.424712 64.752028 351.965367 64.752028 
C 351.506021 64.752028 351.065428 64.934528 350.740622 65.259334 
C 350.415816 65.58414 350.233316 66.024733 350.233316 66.484079 
C 350.233316 66.943424 350.415816 67.384017 350.740622 67.708824 
C 351.065428 68.03363 351.506021 68.21613 351.965367 68.21613 
z
" clip-path="url(#pe0946932f9)" style="fill: #d3d3d3"/>
   </g>
   <g id="PathCollection_97">
    <path d="M 362.977889 251.758169 
C 363.437234 251.758169 363.877828 251.575669 364.202634 251.250863 
C 364.52744 250.926057 364.70994 250.485463 364.70994 250.026118 
C 364.70994 249.566773 364.52744 249.126179 364.202634 248.801373 
C 363.877828 248.476567 363.437234 248.294067 362.977889 248.294067 
C 362.518544 248.294067 362.07795 248.476567 361.753144 248.801373 
C 361.428338 249.126179 361.245838 249.566773 361.245838 250.026118 
C 361.245838 250.485463 361.428338 250.926057 361.753144 251.250863 
C 362.07795 251.575669 362.518544 251.758169 362.977889 251.758169 
z
" clip-path="url(#pe0946932f9)" style="fill: #d3d3d3"/>
   </g>
   <g id="PathCollection_98">
    <path d="M 362.977889 123.278741 
C 363.437234 123.278741 363.877828 123.096242 364.202634 122.771435 
C 364.52744 122.446629 364.70994 122.006036 364.70994 121.546691 
C 364.70994 121.087345 364.52744 120.646752 364.202634 120.321946 
C 363.877828 119.99714 363.437234 119.81464 362.977889 119.81464 
C 362.518544 119.81464 362.07795 119.99714 361.753144 120.321946 
C 361.428338 120.646752 361.245838 121.087345 361.245838 121.546691 
C 361.245838 122.006036 361.428338 122.446629 361.753144 122.771435 
C 362.07795 123.096242 362.518544 123.278741 362.977889 123.278741 
z
" clip-path="url(#pe0946932f9)" style="fill: #d3d3d3"/>
   </g>
   <g id="PathCollection_99">
    <path d="M 366.64873 365.554233 
C 367.108075 365.554233 367.548669 365.371733 367.873475 365.046927 
C 368.198281 364.722121 368.380781 364.281528 368.380781 363.822182 
C 368.380781 363.362837 368.198281 362.922244 367.873475 362.597438 
C 367.548669 362.272631 367.108075 362.090132 366.64873 362.090132 
C 366.189385 362.090132 365.748791 362.272631 365.423985 362.597438 
C 365.099179 362.922244 364.916679 363.362837 364.916679 363.822182 
C 364.916679 364.281528 365.099179 364.722121 365.423985 365.046927 
C 365.748791 365.371733 366.189385 365.554233 366.64873 365.554233 
z
" clip-path="url(#pe0946932f9)" style="fill: #d3d3d3"/>
   </g>
   <g id="PathCollection_100">
    <path d="M 25.260537 345.505237 
C 26.243936 345.505237 27.18719 345.114528 27.882559 344.41916 
C 28.577927 343.723791 28.968636 342.780537 28.968636 341.797138 
C 28.968636 340.813738 28.577927 339.870484 27.882559 339.175116 
C 27.18719 338.479747 26.243936 338.089039 25.260537 338.089039 
C 24.277137 338.089039 23.333883 338.479747 22.638515 339.175116 
C 21.943146 339.870484 21.552437 340.813738 21.552437 341.797138 
C 21.552437 342.780537 21.943146 343.723791 22.638515 344.41916 
C 23.333883 345.114528 24.277137 345.505237 25.260537 345.505237 
z
" clip-path="url(#pe0946932f9)" style="fill: #0000ff"/>
   </g>
   <g id="PathCollection_101">
    <path d="M 307.915277 330.821874 
C 308.898677 330.821874 309.841931 330.431165 310.537299 329.735797 
C 311.232668 329.040428 311.623377 328.097174 311.623377 327.113775 
C 311.623377 326.130375 311.232668 325.187121 310.537299 324.491752 
C 309.841931 323.796384 308.898677 323.405675 307.915277 323.405675 
C 306.931878 323.405675 305.988624 323.796384 305.293255 324.491752 
C 304.597887 325.187121 304.207178 326.130375 304.207178 327.113775 
C 304.207178 328.097174 304.597887 329.040428 305.293255 329.735797 
C 305.988624 330.431165 306.931878 330.821874 307.915277 330.821874 
z
" clip-path="url(#pe0946932f9)" style="fill: #008000"/>
   </g>
   <g id="PathCollection_102">
    <path d="M 307.915277 48.167133 
C 308.898677 48.167133 309.841931 47.776425 310.537299 47.081056 
C 311.232668 46.385688 311.623377 45.442433 311.623377 44.459034 
C 311.623377 43.475635 311.232668 42.53238 310.537299 41.837012 
C 309.841931 41.141643 308.898677 40.750935 307.915277 40.750935 
C 306.931878 40.750935 305.988624 41.141643 305.293255 41.837012 
C 304.597887 42.53238 304.207178 43.475635 304.207178 44.459034 
C 304.207178 45.442433 304.597887 46.385688 305.293255 47.081056 
C 305.988624 47.776425 306.931878 48.167133 307.915277 48.167133 
z
" clip-path="url(#pe0946932f9)" style="fill: #ff0000"/>
   </g>
   <g id="PathCollection_103">
    <path d="M 307.915277 330.821874 
C 308.898677 330.821874 309.841931 330.431165 310.537299 329.735797 
C 311.232668 329.040428 311.623377 328.097174 311.623377 327.113775 
C 311.623377 326.130375 311.232668 325.187121 310.537299 324.491752 
C 309.841931 323.796384 308.898677 323.405675 307.915277 323.405675 
C 306.931878 323.405675 305.988624 323.796384 305.293255 324.491752 
C 304.597887 325.187121 304.207178 326.130375 304.207178 327.113775 
C 304.207178 328.097174 304.597887 329.040428 305.293255 329.735797 
C 305.988624 330.431165 306.931878 330.821874 307.915277 330.821874 
z
" clip-path="url(#pe0946932f9)" style="fill: #800080"/>
   </g>
   <g id="matplotlib.axis_1"/>
   <g id="matplotlib.axis_2"/>
   <g id="text_1">
    <!-- P -->
    <g style="fill: #0000ff" transform="translate(22.848662 327.485854) scale(0.08 -0.08)">
     <defs>
      <path id="DejaVuSans-50" d="M 1259 4147 
L 1259 2394 
L 2053 2394 
Q 2494 2394 2734 2622 
Q 2975 2850 2975 3272 
Q 2975 3691 2734 3919 
Q 2494 4147 2053 4147 
L 1259 4147 
z
M 628 4666 
L 2053 4666 
Q 2838 4666 3239 4311 
Q 3641 3956 3641 3272 
Q 3641 2581 3239 2228 
Q 2838 1875 2053 1875 
L 1259 1875 
L 1259 0 
L 628 0 
L 628 4666 
z
" transform="scale(0.015625)"/>
     </defs>
     <use xlink:href="#DejaVuSans-50"/>
    </g>
   </g>
   <g id="text_2">
    <!-- Q -->
    <g style="fill: #008000" transform="translate(304.766527 312.802491) scale(0.08 -0.08)">
     <defs>
      <path id="DejaVuSans-51" d="M 2522 4238 
Q 1834 4238 1429 3725 
Q 1025 3213 1025 2328 
Q 1025 1447 1429 934 
Q 1834 422 2522 422 
Q 3209 422 3611 934 
Q 4013 1447 4013 2328 
Q 4013 3213 3611 3725 
Q 3209 4238 2522 4238 
z
M 3406 84 
L 4238 -825 
L 3475 -825 
L 2784 -78 
Q 2681 -84 2626 -87 
Q 2572 -91 2522 -91 
Q 1538 -91 948 567 
Q 359 1225 359 2328 
Q 359 3434 948 4092 
Q 1538 4750 2522 4750 
Q 3503 4750 4090 4092 
Q 4678 3434 4678 2328 
Q 4678 1516 4351 937 
Q 4025 359 3406 84 
z
" transform="scale(0.015625)"/>
     </defs>
     <use xlink:href="#DejaVuSans-51"/>
    </g>
   </g>
   <g id="text_3">
    <!-- P+Q -->
    <g style="fill: #ff0000" transform="translate(299.002777 30.14775) scale(0.08 -0.08)">
     <defs>
      <path id="DejaVuSans-2b" d="M 2944 4013 
L 2944 2272 
L 4684 2272 
L 4684 1741 
L 2944 1741 
L 2944 0 
L 2419 0 
L 2419 1741 
L 678 1741 
L 678 2272 
L 2419 2272 
L 2419 4013 
L 2944 4013 
z
" transform="scale(0.015625)"/>
     </defs>
     <use xlink:href="#DejaVuSans-50"/>
     <use xlink:href="#DejaVuSans-2b" transform="translate(60.302734 0)"/>
     <use xlink:href="#DejaVuSans-51" transform="translate(144.091797 0)"/>
    </g>
   </g>
   <g id="text_4">
    <!-- 7P -->
    <g style="fill: #800080" transform="translate(302.958402 312.802491) scale(0.08 -0.08)">
     <defs>
      <path id="DejaVuSans-37" d="M 525 4666 
L 3525 4666 
L 3525 4397 
L 1831 0 
L 1172 0 
L 2766 4134 
L 525 4134 
L 525 4666 
z
" transform="scale(0.015625)"/>
     </defs>
     <use xlink:href="#DejaVuSans-37"/>
     <use xlink:href="#DejaVuSans-50" transform="translate(63.623047 0)"/>
    </g>
   </g>
   <g id="text_5">
    <!-- E: y^2 = x^3 + 2x + 3 over F_97 -->
    <g transform="translate(105.861653 395.72094) scale(0.1 -0.1)">
     <defs>
      <path id="DejaVuSans-45" d="M 628 4666 
L 3578 4666 
L 3578 4134 
L 1259 4134 
L 1259 2753 
L 3481 2753 
L 3481 2222 
L 1259 2222 
L 1259 531 
L 3634 531 
L 3634 0 
L 628 0 
L 628 4666 
z
" transform="scale(0.015625)"/>
      <path id="DejaVuSans-3a" d="M 750 794 
L 1409 794 
L 1409 0 
L 750 0 
L 750 794 
z
M 750 3309 
L 1409 3309 
L 1409 2516 
L 750 2516 
L 750 3309 
z
" transform="scale(0.015625)"/>
      <path id="DejaVuSans-20" transform="scale(0.015625)"/>
      <path id="DejaVuSans-79" d="M 2059 -325 
Q 1816 -950 1584 -1140 
Q 1353 -1331 966 -1331 
L 506 -1331 
L 506 -850 
L 844 -850 
Q 1081 -850 1212 -737 
Q 1344 -625 1503 -206 
L 1606 56 
L 191 3500 
L 800 3500 
L 1894 763 
L 2988 3500 
L 3597 3500 
L 2059 -325 
z
" transform="scale(0.015625)"/>
      <path id="DejaVuSans-5e" d="M 2988 4666 
L 4684 2925 
L 4056 2925 
L 2681 4159 
L 1306 2925 
L 678 2925 
L 2375 4666 
L 2988 4666 
z
" transform="scale(0.015625)"/>
      <path id="DejaVuSans-32" d="M 1228 531 
L 3431 531 
L 3431 0 
L 469 0 
L 469 531 
Q 828 903 1448 1529 
Q 2069 2156 2228 2338 
Q 2531 2678 2651 2914 
Q 2772 3150 2772 3378 
Q 2772 3750 2511 3984 
Q 2250 4219 1831 4219 
Q 1534 4219 1204 4116 
Q 875 4013 500 3803 
L 500 4441 
Q 881 4594 1212 4672 
Q 1544 4750 1819 4750 
Q 2544 4750 2975 4387 
Q 3406 4025 3406 3419 
Q 3406 3131 3298 2873 
Q 3191 2616 2906 2266 
Q 2828 2175 2409 1742 
Q 1991 1309 1228 531 
z
" transform="scale(0.015625)"/>
      <path id="DejaVuSans-3d" d="M 678 2906 
L 4684 2906 
L 4684 2381 
L 678 2381 
L 678 2906 
z
M 678 1631 
L 4684 1631 
L 4684 1100 
L 678 1100 
L 678 1631 
z
" transform="scale(0.015625)"/>
      <path id="DejaVuSans-78" d="M 3513 3500 
L 2247 1797 
L 3578 0 
L 2900 0 
L 1881 1375 
L 863 0 
L 184 0 
L 1544 1831 
L 300 3500 
L 978 3500 
L 1906 2253 
L 2834 3500 
L 3513 3500 
z
" transform="scale(0.015625)"/>
      <path id="DejaVuSans-33" d="M 2597 2516 
Q 3050 2419 3304 2112 
Q 3559 1806 3559 1356 
Q 3559 666 3084 287 
Q 2609 -91 1734 -91 
Q 1441 -91 1130 -33 
Q 819 25 488 141 
L 488 750 
Q 750 597 1062 519 
Q 1375 441 1716 441 
Q 2309 441 2620 675 
Q 2931 909 2931 1356 
Q 2931 1769 2642 2001 
Q 2353 2234 1838 2234 
L 1294 2234 
L 1294 2753 
L 1863 2753 
Q 2328 2753 2575 2939 
Q 2822 3125 2822 3475 
Q 2822 3834 2567 4026 
Q 2313 4219 1838 4219 
Q 1578 4219 1281 4162 
Q 984 4106 628 3988 
L 628 4550 
Q 988 4650 1302 4700 
Q 1616 4750 1894 4750 
Q 2613 4750 3031 4423 
Q 3450 4097 3450 3541 
Q 3450 3153 3228 2886 
Q 3006 2619 2597 2516 
z
" transform="scale(0.015625)"/>
      <path id="DejaVuSans-6f" d="M 1959 3097 
Q 1497 3097 1228 2736 
Q 959 2375 959 1747 
Q 959 1119 1226 758 
Q 1494 397 1959 397 
Q 2419 397 2687 759 
Q 2956 1122 2956 1747 
Q 2956 2369 2687 2733 
Q 2419 3097 1959 3097 
z
M 1959 3584 
Q 2709 3584 3137 3096 
Q 3566 2609 3566 1747 
Q 3566 888 3137 398 
Q 2709 -91 1959 -91 
Q 1206 -91 779 398 
Q 353 888 353 1747 
Q 353 2609 779 3096 
Q 1206 3584 1959 3584 
z
" transform="scale(0.015625)"/>
      <path id="DejaVuSans-76" d="M 191 3500 
L 800 3500 
L 1894 563 
L 2988 3500 
L 3597 3500 
L 2284 0 
L 1503 0 
L 191 3500 
z
" transform="scale(0.015625)"/>
      <path id="DejaVuSans-65" d="M 3597 1894 
L 3597 1613 
L 953 1613 
Q 991 1019 1311 708 
Q 1631 397 2203 397 
Q 2534 397 2845 478 
Q 3156 559 3463 722 
L 3463 178 
Q 3153 47 2828 -22 
Q 2503 -91 2169 -91 
Q 1331 -91 842 396 
Q 353 884 353 1716 
Q 353 2575 817 3079 
Q 1281 3584 2069 3584 
Q 2775 3584 3186 3129 
Q 3597 2675 3597 1894 
z
M 3022 2063 
Q 3016 2534 2758 2815 
Q 2500 3097 2075 3097 
Q 1594 3097 1305 2825 
Q 1016 2553 972 2059 
L 3022 2063 
z
" transform="scale(0.015625)"/>
      <path id="DejaVuSans-72" d="M 2631 2963 
Q 2534 3019 2420 3045 
Q 2306 3072 2169 3072 
Q 1681 3072 1420 2755 
Q 1159 2438 1159 1844 
L 1159 0 
L 581 0 
L 581 3500 
L 1159 3500 
L 1159 2956 
Q 1341 3275 1631 3429 
Q 1922 3584 2338 3584 
Q 2397 3584 2469 3576 
Q 2541 3569 2628 3553 
L 2631 2963 
z
" transform="scale(0.015625)"/>
      <path id="DejaVuSans-46" d="M 628 4666 
L 3309 4666 
L 3309 4134 
L 1259 4134 
L 1259 2759 
L 3109 2759 
L 3109 2228 
L 1259 2228 
L 1259 0 
L 628 0 
L 628 4666 
z
" transform="scale(0.015625)"/>
      <path id="DejaVuSans-5f" d="M 3263 -1063 
L 3263 -1509 
L -63 -1509 
L -63 -1063 
L 3263 -1063 
z
" transform="scale(0.015625)"/>
      <path id="DejaVuSans-39" d="M 703 97 
L 703 672 
Q 941 559 1184 500 
Q 1428 441 1663 441 
Q 2288 441 2617 861 
Q 2947 1281 2994 2138 
Q 2813 1869 2534 1725 
Q 2256 1581 1919 1581 
Q 1219 1581 811 2004 
Q 403 2428 403 3163 
Q 403 3881 828 4315 
Q 1253 4750 1959 4750 
Q 2769 4750 3195 4129 
Q 3622 3509 3622 2328 
Q 3622 1225 3098 567 
Q 2575 -91 1691 -91 
Q 1453 -91 1209 -44 
Q 966 3 703 97 
z
M 1959 2075 
Q 2384 2075 2632 2365 
Q 2881 2656 2881 3163 
Q 2881 3666 2632 3958 
Q 2384 4250 1959 4250 
Q 1534 4250 1286 3958 
Q 1038 3666 1038 3163 
Q 1038 2656 1286 2365 
Q 1534 2075 1959 2075 
z
" transform="scale(0.015625)"/>
     </defs>
     <use xlink:href="#DejaVuSans-45"/>
     <use xlink:href="#DejaVuSans-3a" transform="translate(63.183594 0)"/>
     <use xlink:href="#DejaVuSans-20" transform="translate(96.875 0)"/>
     <use xlink:href="#DejaVuSans-79" transform="translate(128.662109 0)"/>
     <use xlink:href="#DejaVuSans-5e" transform="translate(187.841797 0)"/>
     <use xlink:href="#DejaVuSans-32" transform="translate(271.630859 0)"/>
     <use xlink:href="#DejaVuSans-20" transform="translate(335.253906 0)"/>
     <use xlink:href="#DejaVuSans-3d" transform="translate(367.041016 0)"/>
     <use xlink:href="#DejaVuSans-20" transform="translate(450.830078 0)"/>
     <use xlink:href="#DejaVuSans-78" transform="translate(482.617188 0)"/>
     <use xlink:href="#DejaVuSans-5e" transform="translate(541.796875 0)"/>
     <use xlink:href="#DejaVuSans-33" transform="translate(625.585938 0)"/>
     <use xlink:href="#DejaVuSans-20" transform="translate(689.208984 0)"/>
     <use xlink:href="#DejaVuSans-2b" transform="translate(720.996094 0)"/>
     <use xlink:href="#DejaVuSans-20" transform="translate(804.785156 0)"/>
     <use xlink:href="#DejaVuSans-32" transform="translate(836.572266 0)"/>
     <use xlink:href="#DejaVuSans-78" transform="translate(900.195312 0)"/>
     <use xlink:href="#DejaVuSans-20" transform="translate(959.375 0)"/>
     <use xlink:href="#DejaVuSans-2b" transform="translate(991.162109 0)"/>
     <use xlink:href="#DejaVuSans-20" transform="translate(1074.951172 0)"/>
     <use xlink:href="#DejaVuSans-33" transform="translate(1106.738281 0)"/>
     <use xlink:href="#DejaVuSans-20" transform="translate(1170.361328 0)"/>
     <use xlink:href="#DejaVuSans-6f" transform="translate(1202.148438 0)"/>
     <use xlink:href="#DejaVuSans-76" transform="translate(1263.330078 0)"/>
     <use xlink:href="#DejaVuSans-65" transform="translate(1322.509766 0)"/>
     <use xlink:href="#DejaVuSans-72" transform="translate(1384.033203 0)"/>
     <use xlink:href="#DejaVuSans-20" transform="translate(1425.146484 0)"/>
     <use xlink:href="#DejaVuSans-46" transform="translate(1456.933594 0)"/>
     <use xlink:href="#DejaVuSans-5f" transform="translate(1514.453125 0)"/>
     <use xlink:href="#DejaVuSans-39" transform="translate(1564.453125 0)"/>
     <use xlink:href="#DejaVuSans-37" transform="translate(1628.076172 0)"/>
    </g>
   </g>
   <g id="text_6">
    <!-- finite points form a group -->
    <g transform="translate(126.750716 412.467067) scale(0.1 -0.1)">
     <defs>
      <path id="DejaVuSans-66" d="M 2375 4863 
L 2375 4384 
L 1825 4384 
Q 1516 4384 1395 4259 
Q 1275 4134 1275 3809 
L 1275 3500 
L 2222 3500 
L 2222 3053 
L 1275 3053 
L 1275 0 
L 697 0 
L 697 3053 
L 147 3053 
L 147 3500 
L 697 3500 
L 697 3744 
Q 697 4328 969 4595 
Q 1241 4863 1831 4863 
L 2375 4863 
z
" transform="scale(0.015625)"/>
      <path id="DejaVuSans-69" d="M 603 3500 
L 1178 3500 
L 1178 0 
L 603 0 
L 603 3500 
z
M 603 4863 
L 1178 4863 
L 1178 4134 
L 603 4134 
L 603 4863 
z
" transform="scale(0.015625)"/>
      <path id="DejaVuSans-6e" d="M 3513 2113 
L 3513 0 
L 2938 0 
L 2938 2094 
Q 2938 2591 2744 2837 
Q 2550 3084 2163 3084 
Q 1697 3084 1428 2787 
Q 1159 2491 1159 1978 
L 1159 0 
L 581 0 
L 581 3500 
L 1159 3500 
L 1159 2956 
Q 1366 3272 1645 3428 
Q 1925 3584 2291 3584 
Q 2894 3584 3203 3211 
Q 3513 2838 3513 2113 
z
" transform="scale(0.015625)"/>
      <path id="DejaVuSans-74" d="M 1172 4494 
L 1172 3500 
L 2356 3500 
L 2356 3053 
L 1172 3053 
L 1172 1153 
Q 1172 725 1289 603 
Q 1406 481 1766 481 
L 2356 481 
L 2356 0 
L 1766 0 
Q 1100 0 847 248 
Q 594 497 594 1153 
L 594 3053 
L 172 3053 
L 172 3500 
L 594 3500 
L 594 4494 
L 1172 4494 
z
" transform="scale(0.015625)"/>
      <path id="DejaVuSans-70" d="M 1159 525 
L 1159 -1331 
L 581 -1331 
L 581 3500 
L 1159 3500 
L 1159 2969 
Q 1341 3281 1617 3432 
Q 1894 3584 2278 3584 
Q 2916 3584 3314 3078 
Q 3713 2572 3713 1747 
Q 3713 922 3314 415 
Q 2916 -91 2278 -91 
Q 1894 -91 1617 61 
Q 1341 213 1159 525 
z
M 3116 1747 
Q 3116 2381 2855 2742 
Q 2594 3103 2138 3103 
Q 1681 3103 1420 2742 
Q 1159 2381 1159 1747 
Q 1159 1113 1420 752 
Q 1681 391 2138 391 
Q 2594 391 2855 752 
Q 3116 1113 3116 1747 
z
" transform="scale(0.015625)"/>
      <path id="DejaVuSans-73" d="M 2834 3397 
L 2834 2853 
Q 2591 2978 2328 3040 
Q 2066 3103 1784 3103 
Q 1356 3103 1142 2972 
Q 928 2841 928 2578 
Q 928 2378 1081 2264 
Q 1234 2150 1697 2047 
L 1894 2003 
Q 2506 1872 2764 1633 
Q 3022 1394 3022 966 
Q 3022 478 2636 193 
Q 2250 -91 1575 -91 
Q 1294 -91 989 -36 
Q 684 19 347 128 
L 347 722 
Q 666 556 975 473 
Q 1284 391 1588 391 
Q 1994 391 2212 530 
Q 2431 669 2431 922 
Q 2431 1156 2273 1281 
Q 2116 1406 1581 1522 
L 1381 1569 
Q 847 1681 609 1914 
Q 372 2147 372 2553 
Q 372 3047 722 3315 
Q 1072 3584 1716 3584 
Q 2034 3584 2315 3537 
Q 2597 3491 2834 3397 
z
" transform="scale(0.015625)"/>
      <path id="DejaVuSans-6d" d="M 3328 2828 
Q 3544 3216 3844 3400 
Q 4144 3584 4550 3584 
Q 5097 3584 5394 3201 
Q 5691 2819 5691 2113 
L 5691 0 
L 5113 0 
L 5113 2094 
Q 5113 2597 4934 2840 
Q 4756 3084 4391 3084 
Q 3944 3084 3684 2787 
Q 3425 2491 3425 1978 
L 3425 0 
L 2847 0 
L 2847 2094 
Q 2847 2600 2669 2842 
Q 2491 3084 2119 3084 
Q 1678 3084 1418 2786 
Q 1159 2488 1159 1978 
L 1159 0 
L 581 0 
L 581 3500 
L 1159 3500 
L 1159 2956 
Q 1356 3278 1631 3431 
Q 1906 3584 2284 3584 
Q 2666 3584 2933 3390 
Q 3200 3197 3328 2828 
z
" transform="scale(0.015625)"/>
      <path id="DejaVuSans-61" d="M 2194 1759 
Q 1497 1759 1228 1600 
Q 959 1441 959 1056 
Q 959 750 1161 570 
Q 1363 391 1709 391 
Q 2188 391 2477 730 
Q 2766 1069 2766 1631 
L 2766 1759 
L 2194 1759 
z
M 3341 1997 
L 3341 0 
L 2766 0 
L 2766 531 
Q 2569 213 2275 61 
Q 1981 -91 1556 -91 
Q 1019 -91 701 211 
Q 384 513 384 1019 
Q 384 1609 779 1909 
Q 1175 2209 1959 2209 
L 2766 2209 
L 2766 2266 
Q 2766 2663 2505 2880 
Q 2244 3097 1772 3097 
Q 1472 3097 1187 3025 
Q 903 2953 641 2809 
L 641 3341 
Q 956 3463 1253 3523 
Q 1550 3584 1831 3584 
Q 2591 3584 2966 3190 
Q 3341 2797 3341 1997 
z
" transform="scale(0.015625)"/>
      <path id="DejaVuSans-67" d="M 2906 1791 
Q 2906 2416 2648 2759 
Q 2391 3103 1925 3103 
Q 1463 3103 1205 2759 
Q 947 2416 947 1791 
Q 947 1169 1205 825 
Q 1463 481 1925 481 
Q 2391 481 2648 825 
Q 2906 1169 2906 1791 
z
M 3481 434 
Q 3481 -459 3084 -895 
Q 2688 -1331 1869 -1331 
Q 1566 -1331 1297 -1286 
Q 1028 -1241 775 -1147 
L 775 -588 
Q 1028 -725 1275 -790 
Q 1522 -856 1778 -856 
Q 2344 -856 2625 -561 
Q 2906 -266 2906 331 
L 2906 616 
Q 2728 306 2450 153 
Q 2172 0 1784 0 
Q 1141 0 747 490 
Q 353 981 353 1791 
Q 353 2603 747 3093 
Q 1141 3584 1784 3584 
Q 2172 3584 2450 3431 
Q 2728 3278 2906 2969 
L 2906 3500 
L 3481 3500 
L 3481 434 
z
" transform="scale(0.015625)"/>
      <path id="DejaVuSans-75" d="M 544 1381 
L 544 3500 
L 1119 3500 
L 1119 1403 
Q 1119 906 1312 657 
Q 1506 409 1894 409 
Q 2359 409 2629 706 
Q 2900 1003 2900 1516 
L 2900 3500 
L 3475 3500 
L 3475 0 
L 2900 0 
L 2900 538 
Q 2691 219 2414 64 
Q 2138 -91 1772 -91 
Q 1169 -91 856 284 
Q 544 659 544 1381 
z
M 1991 3584 
L 1991 3584 
z
" transform="scale(0.015625)"/>
     </defs>
     <use xlink:href="#DejaVuSans-66"/>
     <use xlink:href="#DejaVuSans-69" transform="translate(35.205078 0)"/>
     <use xlink:href="#DejaVuSans-6e" transform="translate(62.988281 0)"/>
     <use xlink:href="#DejaVuSans-69" transform="translate(126.367188 0)"/>
     <use xlink:href="#DejaVuSans-74" transform="translate(154.150391 0)"/>
     <use xlink:href="#DejaVuSans-65" transform="translate(193.359375 0)"/>
     <use xlink:href="#DejaVuSans-20" transform="translate(254.882812 0)"/>
     <use xlink:href="#DejaVuSans-70" transform="translate(286.669922 0)"/>
     <use xlink:href="#DejaVuSans-6f" transform="translate(350.146484 0)"/>
     <use xlink:href="#DejaVuSans-69" transform="translate(411.328125 0)"/>
     <use xlink:href="#DejaVuSans-6e" transform="translate(439.111328 0)"/>
     <use xlink:href="#DejaVuSans-74" transform="translate(502.490234 0)"/>
     <use xlink:href="#DejaVuSans-73" transform="translate(541.699219 0)"/>
     <use xlink:href="#DejaVuSans-20" transform="translate(593.798828 0)"/>
     <use xlink:href="#DejaVuSans-66" transform="translate(625.585938 0)"/>
     <use xlink:href="#DejaVuSans-6f" transform="translate(660.791016 0)"/>
     <use xlink:href="#DejaVuSans-72" transform="translate(721.972656 0)"/>
     <use xlink:href="#DejaVuSans-6d" transform="translate(761.335938 0)"/>
     <use xlink:href="#DejaVuSans-20" transform="translate(858.748047 0)"/>
     <use xlink:href="#DejaVuSans-61" transform="translate(890.535156 0)"/>
     <use xlink:href="#DejaVuSans-20" transform="translate(951.814453 0)"/>
     <use xlink:href="#DejaVuSans-67" transform="translate(983.601562 0)"/>
     <use xlink:href="#DejaVuSans-72" transform="translate(1047.078125 0)"/>
     <use xlink:href="#DejaVuSans-6f" transform="translate(1085.941406 0)"/>
     <use xlink:href="#DejaVuSans-75" transform="translate(1147.123047 0)"/>
     <use xlink:href="#DejaVuSans-70" transform="translate(1210.501953 0)"/>
    </g>
   </g>
  </g>
 </g>
 <defs>
  <clipPath id="pe0946932f9">
   <rect x="7.2" y="7.2" width="366.496744" height="410.4"/>
  </clipPath>
 </defs>
</svg>
