<?xml version="1.0" encoding="UTF-8"?>
<svg xmlns="http://www.w3.org/2000/svg" xmlns:xlink="http://www.w3.org/1999/xlink" width="854" height="480" viewBox="0 0 854 480">
<defs>
<g>
<g id="glyph-0-0">
<path d="M 0.671875 -0.296875 L 0.671875 -4.125 L 0.171875 -4.125 L 0.171875 -4.421875 L 1.1875 -4.421875 L 1.1875 -2.546875 C 1.289062 -2.742188 1.421875 -2.882812 1.578125 -2.96875 C 1.742188 -3.0625 1.941406 -3.109375 2.171875 -3.109375 C 2.546875 -3.109375 2.847656 -2.957031 3.078125 -2.65625 C 3.316406 -2.363281 3.4375 -1.984375 3.4375 -1.515625 C 3.4375 -1.035156 3.316406 -0.648438 3.078125 -0.359375 C 2.847656 -0.0664062 2.546875 0.078125 2.171875 0.078125 C 1.941406 0.078125 1.742188 0.0351562 1.578125 -0.046875 C 1.421875 -0.140625 1.289062 -0.28125 1.1875 -0.46875 L 1.1875 0 L 0.171875 0 L 0.171875 -0.296875 Z M 1.1875 -1.359375 C 1.1875 -0.992188 1.253906 -0.71875 1.390625 -0.53125 C 1.535156 -0.34375 1.742188 -0.25 2.015625 -0.25 C 2.273438 -0.25 2.472656 -0.351562 2.609375 -0.5625 C 2.753906 -0.78125 2.828125 -1.097656 2.828125 -1.515625 C 2.828125 -1.929688 2.753906 -2.242188 2.609375 -2.453125 C 2.472656 -2.671875 2.273438 -2.78125 2.015625 -2.78125 C 1.742188 -2.78125 1.535156 -2.679688 1.390625 -2.484375 C 1.253906 -2.296875 1.1875 -2.019531 1.1875 -1.65625 Z "/>
</g>
<g id="glyph-0-1">
<path d="M 2.78125 -3.03125 L 2.78125 -2.28125 L 2.484375 -2.28125 C 2.472656 -2.425781 2.429688 -2.535156 2.359375 -2.609375 C 2.285156 -2.679688 2.175781 -2.71875 2.03125 -2.71875 C 1.769531 -2.71875 1.570312 -2.628906 1.4375 -2.453125 C 1.300781 -2.273438 1.234375 -2.019531 1.234375 -1.6875 L 1.234375 -0.296875 L 1.84375 -0.296875 L 1.84375 0 L 0.234375 0 L 0.234375 -0.296875 L 0.71875 -0.296875 L 0.71875 -2.71875 L 0.203125 -2.71875 L 0.203125 -3.03125 L 1.234375 -3.03125 L 1.234375 -2.484375 C 1.335938 -2.691406 1.46875 -2.847656 1.625 -2.953125 C 1.789062 -3.054688 1.988281 -3.109375 2.21875 -3.109375 C 2.300781 -3.109375 2.390625 -3.097656 2.484375 -3.078125 C 2.578125 -3.066406 2.675781 -3.050781 2.78125 -3.03125 Z "/>
</g>
<g id="glyph-0-2">
<path d="M 2.0625 -3.03125 L 3.046875 -3.03125 L 3.046875 -0.296875 L 3.53125 -0.296875 L 3.53125 0 L 2.515625 0 L 2.515625 -0.53125 C 2.421875 -0.332031 2.296875 -0.179688 2.140625 -0.078125 C 1.984375 0.0234375 1.804688 0.078125 1.609375 0.078125 C 1.273438 0.078125 1.023438 -0.015625 0.859375 -0.203125 C 0.703125 -0.390625 0.625 -0.6875 0.625 -1.09375 L 0.625 -2.71875 L 0.15625 -2.71875 L 0.15625 -3.03125 L 1.15625 -3.03125 L 1.15625 -1.265625 C 1.15625 -0.898438 1.195312 -0.644531 1.28125 -0.5 C 1.375 -0.363281 1.535156 -0.296875 1.765625 -0.296875 C 2.015625 -0.296875 2.203125 -0.382812 2.328125 -0.5625 C 2.453125 -0.75 2.515625 -1.007812 2.515625 -1.34375 L 2.515625 -2.71875 L 2.0625 -2.71875 Z "/>
</g>
<g id="glyph-0-3">
<path d="M 0.625 -2.71875 L 0.171875 -2.71875 L 0.171875 -3.03125 L 0.625 -3.03125 L 0.625 -3.96875 L 1.15625 -3.96875 L 1.15625 -3.03125 L 2.140625 -3.03125 L 2.140625 -2.71875 L 1.15625 -2.71875 L 1.15625 -0.796875 C 1.15625 -0.546875 1.175781 -0.382812 1.21875 -0.3125 C 1.269531 -0.238281 1.363281 -0.203125 1.5 -0.203125 C 1.632812 -0.203125 1.734375 -0.238281 1.796875 -0.3125 C 1.859375 -0.394531 1.894531 -0.53125 1.90625 -0.71875 L 2.296875 -0.71875 C 2.285156 -0.4375 2.210938 -0.234375 2.078125 -0.109375 C 1.941406 0.015625 1.734375 0.078125 1.453125 0.078125 C 1.148438 0.078125 0.9375 0.015625 0.8125 -0.109375 C 0.6875 -0.242188 0.625 -0.472656 0.625 -0.796875 Z "/>
</g>
<g id="glyph-0-4">
<path d="M 3.15625 -1.453125 L 0.90625 -1.453125 L 0.90625 -1.4375 C 0.90625 -1.03125 0.976562 -0.722656 1.125 -0.515625 C 1.28125 -0.304688 1.507812 -0.203125 1.8125 -0.203125 C 2.039062 -0.203125 2.226562 -0.257812 2.375 -0.375 C 2.519531 -0.5 2.625 -0.679688 2.6875 -0.921875 L 3.109375 -0.921875 C 3.023438 -0.585938 2.867188 -0.335938 2.640625 -0.171875 C 2.421875 -0.00390625 2.128906 0.078125 1.765625 0.078125 C 1.316406 0.078125 0.957031 -0.0664062 0.6875 -0.359375 C 0.425781 -0.648438 0.296875 -1.035156 0.296875 -1.515625 C 0.296875 -1.992188 0.425781 -2.378906 0.6875 -2.671875 C 0.945312 -2.960938 1.289062 -3.109375 1.71875 -3.109375 C 2.175781 -3.109375 2.523438 -2.96875 2.765625 -2.6875 C 3.015625 -2.40625 3.144531 -1.992188 3.15625 -1.453125 Z M 2.546875 -1.765625 C 2.535156 -2.109375 2.457031 -2.367188 2.3125 -2.546875 C 2.175781 -2.734375 1.976562 -2.828125 1.71875 -2.828125 C 1.476562 -2.828125 1.289062 -2.734375 1.15625 -2.546875 C 1.019531 -2.367188 0.9375 -2.109375 0.90625 -1.765625 Z "/>
</g>
<g id="glyph-0-5">
<path d="M 0.25 -1.78125 L 1.71875 -1.78125 L 1.71875 -1.34375 L 0.25 -1.34375 Z "/>
</g>
<g id="glyph-0-6">
<path d="M 2.5 -3.71875 L 2.234375 -3.71875 C 2.234375 -3.851562 2.191406 -3.957031 2.109375 -4.03125 C 2.023438 -4.113281 1.910156 -4.15625 1.765625 -4.15625 C 1.566406 -4.15625 1.425781 -4.097656 1.34375 -3.984375 C 1.269531 -3.878906 1.234375 -3.691406 1.234375 -3.421875 L 1.234375 -3.03125 L 2.078125 -3.03125 L 2.078125 -2.71875 L 1.234375 -2.71875 L 1.234375 -0.296875 L 1.90625 -0.296875 L 1.90625 0 L 0.203125 0 L 0.203125 -0.296875 L 0.71875 -0.296875 L 0.71875 -2.71875 L 0.203125 -2.71875 L 0.203125 -3.03125 L 0.71875 -3.03125 L 0.71875 -3.40625 C 0.71875 -3.738281 0.800781 -3.988281 0.96875 -4.15625 C 1.144531 -4.332031 1.40625 -4.421875 1.75 -4.421875 C 1.875 -4.421875 2 -4.410156 2.125 -4.390625 C 2.25 -4.367188 2.375 -4.332031 2.5 -4.28125 Z "/>
</g>
<g id="glyph-0-7">
<path d="M 1.75 -0.203125 C 2.03125 -0.203125 2.242188 -0.3125 2.390625 -0.53125 C 2.535156 -0.75 2.609375 -1.078125 2.609375 -1.515625 C 2.609375 -1.941406 2.535156 -2.265625 2.390625 -2.484375 C 2.242188 -2.710938 2.03125 -2.828125 1.75 -2.828125 C 1.46875 -2.828125 1.253906 -2.710938 1.109375 -2.484375 C 0.972656 -2.265625 0.90625 -1.941406 0.90625 -1.515625 C 0.90625 -1.078125 0.972656 -0.75 1.109375 -0.53125 C 1.253906 -0.3125 1.46875 -0.203125 1.75 -0.203125 Z M 1.75 0.078125 C 1.3125 0.078125 0.957031 -0.0664062 0.6875 -0.359375 C 0.425781 -0.648438 0.296875 -1.035156 0.296875 -1.515625 C 0.296875 -1.992188 0.425781 -2.378906 0.6875 -2.671875 C 0.957031 -2.960938 1.3125 -3.109375 1.75 -3.109375 C 2.195312 -3.109375 2.550781 -2.960938 2.8125 -2.671875 C 3.082031 -2.378906 3.21875 -1.992188 3.21875 -1.515625 C 3.21875 -1.035156 3.082031 -0.648438 2.8125 -0.359375 C 2.550781 -0.0664062 2.195312 0.078125 1.75 0.078125 Z "/>
</g>
<g id="glyph-0-8">
<path d="M 3 -0.90625 C 2.925781 -0.582031 2.78125 -0.335938 2.5625 -0.171875 C 2.351562 -0.00390625 2.082031 0.078125 1.75 0.078125 C 1.3125 0.078125 0.957031 -0.0664062 0.6875 -0.359375 C 0.425781 -0.648438 0.296875 -1.035156 0.296875 -1.515625 C 0.296875 -1.992188 0.425781 -2.378906 0.6875 -2.671875 C 0.957031 -2.960938 1.3125 -3.109375 1.75 -3.109375 C 1.945312 -3.109375 2.140625 -3.082031 2.328125 -3.03125 C 2.515625 -2.988281 2.703125 -2.925781 2.890625 -2.84375 L 2.890625 -2.0625 L 2.59375 -2.0625 C 2.550781 -2.332031 2.460938 -2.523438 2.328125 -2.640625 C 2.191406 -2.765625 2.003906 -2.828125 1.765625 -2.828125 C 1.472656 -2.828125 1.253906 -2.71875 1.109375 -2.5 C 0.972656 -2.28125 0.90625 -1.953125 0.90625 -1.515625 C 0.90625 -1.078125 0.972656 -0.75 1.109375 -0.53125 C 1.253906 -0.3125 1.472656 -0.203125 1.765625 -0.203125 C 1.984375 -0.203125 2.160156 -0.257812 2.296875 -0.375 C 2.429688 -0.488281 2.523438 -0.664062 2.578125 -0.90625 Z "/>
</g>
<g id="glyph-0-9">
</g>
<g id="glyph-0-10">
<path d="M 1.4375 0 L 0.328125 -2.71875 L -0.015625 -2.71875 L -0.015625 -3.03125 L 1.375 -3.03125 L 1.375 -2.71875 L 0.890625 -2.71875 L 1.734375 -0.640625 L 2.59375 -2.71875 L 2.140625 -2.71875 L 2.140625 -3.03125 L 3.28125 -3.03125 L 3.28125 -2.71875 L 2.9375 -2.71875 L 1.828125 0 Z "/>
</g>
<g id="glyph-0-11">
<path d="M 1.265625 0.5625 L 1.453125 0.046875 L 0.328125 -2.71875 L -0.015625 -2.71875 L -0.015625 -3.03125 L 1.375 -3.03125 L 1.375 -2.71875 L 0.890625 -2.71875 L 1.734375 -0.640625 L 2.59375 -2.71875 L 2.140625 -2.71875 L 2.140625 -3.03125 L 3.28125 -3.03125 L 3.28125 -2.71875 L 2.9375 -2.71875 L 1.546875 0.6875 C 1.453125 0.914062 1.347656 1.070312 1.234375 1.15625 C 1.117188 1.25 0.957031 1.296875 0.75 1.296875 C 0.65625 1.296875 0.5625 1.285156 0.46875 1.265625 C 0.375 1.253906 0.28125 1.234375 0.1875 1.203125 L 0.1875 0.625 L 0.453125 0.625 C 0.460938 0.757812 0.492188 0.851562 0.546875 0.90625 C 0.609375 0.957031 0.695312 0.984375 0.8125 0.984375 C 0.914062 0.984375 1 0.953125 1.0625 0.890625 C 1.125 0.835938 1.191406 0.726562 1.265625 0.5625 Z "/>
</g>
<g id="glyph-0-12">
<path d="M 0.234375 0 L 0.234375 -0.296875 L 0.71875 -0.296875 L 0.71875 -4.125 L 0.203125 -4.125 L 0.203125 -4.421875 L 1.234375 -4.421875 L 1.234375 -2.484375 C 1.328125 -2.691406 1.453125 -2.847656 1.609375 -2.953125 C 1.765625 -3.054688 1.945312 -3.109375 2.15625 -3.109375 C 2.488281 -3.109375 2.734375 -3.007812 2.890625 -2.8125 C 3.046875 -2.625 3.125 -2.328125 3.125 -1.921875 L 3.125 -0.296875 L 3.59375 -0.296875 L 3.59375 0 L 2.140625 0 L 2.140625 -0.296875 L 2.59375 -0.296875 L 2.59375 -1.765625 C 2.59375 -2.128906 2.546875 -2.378906 2.453125 -2.515625 C 2.367188 -2.648438 2.210938 -2.71875 1.984375 -2.71875 C 1.734375 -2.71875 1.546875 -2.628906 1.421875 -2.453125 C 1.296875 -2.273438 1.234375 -2.019531 1.234375 -1.6875 L 1.234375 -0.296875 L 1.6875 -0.296875 L 1.6875 0 Z "/>
</g>
<g id="glyph-0-13">
<path d="M 0.609375 -0.296875 C 0.609375 -0.398438 0.644531 -0.488281 0.71875 -0.5625 C 0.789062 -0.632812 0.878906 -0.671875 0.984375 -0.671875 C 1.085938 -0.671875 1.175781 -0.632812 1.25 -0.5625 C 1.320312 -0.488281 1.359375 -0.398438 1.359375 -0.296875 C 1.359375 -0.191406 1.320312 -0.101562 1.25 -0.03125 C 1.175781 0.0390625 1.085938 0.078125 0.984375 0.078125 C 0.878906 0.078125 0.789062 0.0390625 0.71875 -0.03125 C 0.644531 -0.101562 0.609375 -0.191406 0.609375 -0.296875 Z M 0.609375 -2.15625 C 0.609375 -2.257812 0.644531 -2.347656 0.71875 -2.421875 C 0.789062 -2.492188 0.878906 -2.53125 0.984375 -2.53125 C 1.085938 -2.53125 1.175781 -2.492188 1.25 -2.421875 C 1.320312 -2.347656 1.359375 -2.257812 1.359375 -2.15625 C 1.359375 -2.039062 1.320312 -1.945312 1.25 -1.875 C 1.175781 -1.800781 1.085938 -1.765625 0.984375 -1.765625 C 0.878906 -1.765625 0.789062 -1.800781 0.71875 -1.875 C 0.644531 -1.945312 0.609375 -2.039062 0.609375 -2.15625 Z "/>
</g>
<g id="glyph-0-14">
<path d="M 2.71875 -1.15625 C 2.71875 -1.457031 2.640625 -1.691406 2.484375 -1.859375 C 2.335938 -2.035156 2.128906 -2.125 1.859375 -2.125 C 1.578125 -2.125 1.359375 -2.035156 1.203125 -1.859375 C 1.054688 -1.691406 0.984375 -1.457031 0.984375 -1.15625 C 0.984375 -0.851562 1.054688 -0.617188 1.203125 -0.453125 C 1.359375 -0.285156 1.578125 -0.203125 1.859375 -0.203125 C 2.128906 -0.203125 2.335938 -0.285156 2.484375 -0.453125 C 2.640625 -0.617188 2.71875 -0.851562 2.71875 -1.15625 Z M 2.59375 -3.21875 C 2.59375 -3.476562 2.523438 -3.679688 2.390625 -3.828125 C 2.265625 -3.972656 2.085938 -4.046875 1.859375 -4.046875 C 1.617188 -4.046875 1.429688 -3.972656 1.296875 -3.828125 C 1.171875 -3.679688 1.109375 -3.476562 1.109375 -3.21875 C 1.109375 -2.957031 1.171875 -2.753906 1.296875 -2.609375 C 1.429688 -2.472656 1.617188 -2.40625 1.859375 -2.40625 C 2.085938 -2.40625 2.265625 -2.472656 2.390625 -2.609375 C 2.523438 -2.753906 2.59375 -2.957031 2.59375 -3.21875 Z M 2.296875 -2.265625 C 2.617188 -2.222656 2.867188 -2.101562 3.046875 -1.90625 C 3.222656 -1.707031 3.3125 -1.457031 3.3125 -1.15625 C 3.3125 -0.757812 3.1875 -0.453125 2.9375 -0.234375 C 2.6875 -0.0234375 2.328125 0.078125 1.859375 0.078125 C 1.390625 0.078125 1.023438 -0.0234375 0.765625 -0.234375 C 0.515625 -0.453125 0.390625 -0.757812 0.390625 -1.15625 C 0.390625 -1.457031 0.476562 -1.707031 0.65625 -1.90625 C 0.84375 -2.101562 1.097656 -2.222656 1.421875 -2.265625 C 1.128906 -2.316406 0.90625 -2.425781 0.75 -2.59375 C 0.601562 -2.757812 0.53125 -2.96875 0.53125 -3.21875 C 0.53125 -3.5625 0.644531 -3.832031 0.875 -4.03125 C 1.113281 -4.226562 1.441406 -4.328125 1.859375 -4.328125 C 2.265625 -4.328125 2.582031 -4.226562 2.8125 -4.03125 C 3.050781 -3.832031 3.171875 -3.5625 3.171875 -3.21875 C 3.171875 -2.96875 3.09375 -2.757812 2.9375 -2.59375 C 2.789062 -2.425781 2.578125 -2.316406 2.296875 -2.265625 Z "/>
</g>
<g id="glyph-0-15">
<path d="M 3.28125 -3.953125 L 1.625 0 L 1.203125 0 L 2.78125 -3.78125 L 0.828125 -3.78125 L 0.828125 -3.265625 L 0.484375 -3.265625 L 0.484375 -4.25 L 3.28125 -4.25 Z "/>
</g>
<g id="glyph-0-16">
<path d="M 2.03125 -1.4375 L 2.03125 -3.703125 L 0.578125 -1.4375 Z M 3.28125 0 L 1.359375 0 L 1.359375 -0.296875 L 2.03125 -0.296875 L 2.03125 -1.140625 L 0.171875 -1.140625 L 0.171875 -1.453125 L 2.046875 -4.328125 L 2.609375 -4.328125 L 2.609375 -1.4375 L 3.421875 -1.4375 L 3.421875 -1.140625 L 2.609375 -1.140625 L 2.609375 -0.296875 L 3.28125 -0.296875 Z "/>
</g>
<g id="glyph-0-17">
<path d="M 2.3125 -0.953125 L 2.3125 -1.59375 L 1.640625 -1.59375 C 1.378906 -1.59375 1.1875 -1.535156 1.0625 -1.421875 C 0.9375 -1.304688 0.875 -1.132812 0.875 -0.90625 C 0.875 -0.695312 0.9375 -0.53125 1.0625 -0.40625 C 1.195312 -0.28125 1.375 -0.21875 1.59375 -0.21875 C 1.8125 -0.21875 1.984375 -0.285156 2.109375 -0.421875 C 2.242188 -0.554688 2.3125 -0.734375 2.3125 -0.953125 Z M 2.84375 -1.890625 L 2.84375 -0.296875 L 3.3125 -0.296875 L 3.3125 0 L 2.3125 0 L 2.3125 -0.328125 C 2.195312 -0.179688 2.0625 -0.078125 1.90625 -0.015625 C 1.757812 0.046875 1.585938 0.078125 1.390625 0.078125 C 1.046875 0.078125 0.773438 -0.0078125 0.578125 -0.1875 C 0.390625 -0.363281 0.296875 -0.601562 0.296875 -0.90625 C 0.296875 -1.21875 0.40625 -1.457031 0.625 -1.625 C 0.851562 -1.800781 1.171875 -1.890625 1.578125 -1.890625 L 2.3125 -1.890625 L 2.3125 -2.109375 C 2.3125 -2.335938 2.242188 -2.515625 2.109375 -2.640625 C 1.972656 -2.765625 1.773438 -2.828125 1.515625 -2.828125 C 1.304688 -2.828125 1.140625 -2.78125 1.015625 -2.6875 C 0.898438 -2.59375 0.828125 -2.453125 0.796875 -2.265625 L 0.53125 -2.265625 L 0.53125 -2.875 C 0.707031 -2.945312 0.878906 -3.003906 1.046875 -3.046875 C 1.222656 -3.085938 1.394531 -3.109375 1.5625 -3.109375 C 1.976562 -3.109375 2.296875 -3.003906 2.515625 -2.796875 C 2.734375 -2.585938 2.84375 -2.285156 2.84375 -1.890625 Z "/>
</g>
<g id="glyph-0-18">
<path d="M 0.234375 0 L 0.234375 -0.296875 L 0.71875 -0.296875 L 0.71875 -2.71875 L 0.203125 -2.71875 L 0.203125 -3.03125 L 1.234375 -3.03125 L 1.234375 -2.484375 C 1.328125 -2.691406 1.453125 -2.847656 1.609375 -2.953125 C 1.765625 -3.054688 1.945312 -3.109375 2.15625 -3.109375 C 2.488281 -3.109375 2.734375 -3.007812 2.890625 -2.8125 C 3.046875 -2.625 3.125 -2.328125 3.125 -1.921875 L 3.125 -0.296875 L 3.59375 -0.296875 L 3.59375 0 L 2.140625 0 L 2.140625 -0.296875 L 2.59375 -0.296875 L 2.59375 -1.765625 C 2.59375 -2.128906 2.546875 -2.378906 2.453125 -2.515625 C 2.367188 -2.648438 2.210938 -2.71875 1.984375 -2.71875 C 1.734375 -2.71875 1.546875 -2.628906 1.421875 -2.453125 C 1.296875 -2.273438 1.234375 -2.019531 1.234375 -1.6875 L 1.234375 -0.296875 L 1.6875 -0.296875 L 1.6875 0 Z "/>
</g>
<g id="glyph-0-19">
<path d="M 3.0625 -0.296875 L 3.5625 -0.296875 L 3.5625 0 L 2.53125 0 L 2.53125 -0.46875 C 2.425781 -0.28125 2.296875 -0.140625 2.140625 -0.046875 C 1.984375 0.0351562 1.789062 0.078125 1.5625 0.078125 C 1.1875 0.078125 0.878906 -0.0664062 0.640625 -0.359375 C 0.410156 -0.648438 0.296875 -1.035156 0.296875 -1.515625 C 0.296875 -1.984375 0.410156 -2.363281 0.640625 -2.65625 C 0.878906 -2.957031 1.1875 -3.109375 1.5625 -3.109375 C 1.789062 -3.109375 1.984375 -3.0625 2.140625 -2.96875 C 2.296875 -2.882812 2.425781 -2.742188 2.53125 -2.546875 L 2.53125 -4.125 L 2.046875 -4.125 L 2.046875 -4.421875 L 3.0625 -4.421875 Z M 2.53125 -1.359375 L 2.53125 -1.65625 C 2.53125 -2.019531 2.460938 -2.296875 2.328125 -2.484375 C 2.191406 -2.679688 1.988281 -2.78125 1.71875 -2.78125 C 1.445312 -2.78125 1.242188 -2.671875 1.109375 -2.453125 C 0.972656 -2.242188 0.90625 -1.929688 0.90625 -1.515625 C 0.90625 -1.097656 0.972656 -0.78125 1.109375 -0.5625 C 1.242188 -0.351562 1.445312 -0.25 1.71875 -0.25 C 1.988281 -0.25 2.191406 -0.34375 2.328125 -0.53125 C 2.460938 -0.71875 2.53125 -0.992188 2.53125 -1.359375 Z "/>
</g>
<g id="glyph-0-20">
<path d="M 0.5625 -3.96875 C 0.5625 -4.050781 0.59375 -4.125 0.65625 -4.1875 C 0.71875 -4.25 0.796875 -4.28125 0.890625 -4.28125 C 0.972656 -4.28125 1.046875 -4.25 1.109375 -4.1875 C 1.179688 -4.125 1.21875 -4.050781 1.21875 -3.96875 C 1.21875 -3.875 1.1875 -3.796875 1.125 -3.734375 C 1.0625 -3.671875 0.984375 -3.640625 0.890625 -3.640625 C 0.796875 -3.640625 0.71875 -3.671875 0.65625 -3.734375 C 0.59375 -3.796875 0.5625 -3.875 0.5625 -3.96875 Z M 1.234375 -0.296875 L 1.734375 -0.296875 L 1.734375 0 L 0.203125 0 L 0.203125 -0.296875 L 0.71875 -0.296875 L 0.71875 -2.71875 L 0.203125 -2.71875 L 0.203125 -3.03125 L 1.234375 -3.03125 Z "/>
</g>
<g id="glyph-0-21">
<path d="M 0.328125 -0.171875 L 0.328125 -0.875 L 0.625 -0.875 C 0.632812 -0.644531 0.707031 -0.472656 0.84375 -0.359375 C 0.976562 -0.253906 1.175781 -0.203125 1.4375 -0.203125 C 1.664062 -0.203125 1.84375 -0.242188 1.96875 -0.328125 C 2.09375 -0.421875 2.15625 -0.550781 2.15625 -0.71875 C 2.15625 -0.851562 2.109375 -0.957031 2.015625 -1.03125 C 1.929688 -1.113281 1.742188 -1.203125 1.453125 -1.296875 L 1.078125 -1.421875 C 0.816406 -1.503906 0.625 -1.609375 0.5 -1.734375 C 0.382812 -1.859375 0.328125 -2.019531 0.328125 -2.21875 C 0.328125 -2.5 0.425781 -2.71875 0.625 -2.875 C 0.832031 -3.03125 1.117188 -3.109375 1.484375 -3.109375 C 1.640625 -3.109375 1.804688 -3.085938 1.984375 -3.046875 C 2.160156 -3.003906 2.34375 -2.941406 2.53125 -2.859375 L 2.53125 -2.203125 L 2.234375 -2.203125 C 2.222656 -2.398438 2.148438 -2.550781 2.015625 -2.65625 C 1.890625 -2.769531 1.71875 -2.828125 1.5 -2.828125 C 1.28125 -2.828125 1.113281 -2.785156 1 -2.703125 C 0.882812 -2.628906 0.828125 -2.515625 0.828125 -2.359375 C 0.828125 -2.234375 0.867188 -2.128906 0.953125 -2.046875 C 1.035156 -1.972656 1.207031 -1.894531 1.46875 -1.8125 L 1.890625 -1.6875 C 2.171875 -1.601562 2.375 -1.492188 2.5 -1.359375 C 2.625 -1.222656 2.6875 -1.050781 2.6875 -0.84375 C 2.6875 -0.550781 2.578125 -0.320312 2.359375 -0.15625 C 2.140625 0 1.835938 0.078125 1.453125 0.078125 C 1.253906 0.078125 1.0625 0.0546875 0.875 0.015625 C 0.695312 -0.0234375 0.515625 -0.0859375 0.328125 -0.171875 Z "/>
</g>
<g id="glyph-0-22">
<path d="M 0.203125 0.5625 C 0.390625 0.4375 0.523438 0.285156 0.609375 0.109375 C 0.691406 -0.0664062 0.734375 -0.285156 0.734375 -0.546875 L 0.734375 -0.640625 L 1.296875 -0.640625 C 1.273438 -0.316406 1.195312 -0.0390625 1.0625 0.1875 C 0.925781 0.414062 0.71875 0.617188 0.4375 0.796875 Z M 0.625 -2.15625 C 0.625 -2.257812 0.660156 -2.347656 0.734375 -2.421875 C 0.804688 -2.492188 0.894531 -2.53125 1 -2.53125 C 1.101562 -2.53125 1.191406 -2.492188 1.265625 -2.421875 C 1.335938 -2.347656 1.375 -2.257812 1.375 -2.15625 C 1.375 -2.039062 1.335938 -1.945312 1.265625 -1.875 C 1.191406 -1.800781 1.101562 -1.765625 1 -1.765625 C 0.894531 -1.765625 0.804688 -1.800781 0.734375 -1.875 C 0.660156 -1.945312 0.625 -2.039062 0.625 -2.15625 Z "/>
</g>
<g id="glyph-0-23">
<path d="M 2.796875 -3.03125 L 3.578125 -0.65625 L 4.25 -2.71875 L 3.8125 -2.71875 L 3.8125 -3.03125 L 4.90625 -3.03125 L 4.90625 -2.71875 L 4.578125 -2.71875 L 3.671875 0 L 3.234375 0 L 2.5 -2.265625 L 1.75 0 L 1.328125 0 L 0.4375 -2.71875 L 0.09375 -2.71875 L 0.09375 -3.03125 L 1.46875 -3.03125 L 1.46875 -2.71875 L 0.96875 -2.71875 L 1.65625 -0.65625 L 2.4375 -3.03125 Z "/>
</g>
<g id="glyph-0-24">
<path d="M 0.828125 0 L 0.828125 -0.296875 L 1.5625 -0.296875 L 1.5625 -3.84375 L 0.71875 -3.28125 L 0.71875 -3.65625 L 1.75 -4.328125 L 2.140625 -4.328125 L 2.140625 -0.296875 L 2.875 -0.296875 L 2.875 0 Z "/>
</g>
<g id="glyph-0-25">
<path d="M 1.859375 -0.203125 C 2.140625 -0.203125 2.351562 -0.359375 2.5 -0.671875 C 2.644531 -0.992188 2.71875 -1.476562 2.71875 -2.125 C 2.71875 -2.769531 2.644531 -3.25 2.5 -3.5625 C 2.351562 -3.882812 2.140625 -4.046875 1.859375 -4.046875 C 1.566406 -4.046875 1.347656 -3.882812 1.203125 -3.5625 C 1.054688 -3.25 0.984375 -2.769531 0.984375 -2.125 C 0.984375 -1.476562 1.054688 -0.992188 1.203125 -0.671875 C 1.347656 -0.359375 1.566406 -0.203125 1.859375 -0.203125 Z M 1.859375 0.078125 C 1.390625 0.078125 1.023438 -0.113281 0.765625 -0.5 C 0.515625 -0.882812 0.390625 -1.425781 0.390625 -2.125 C 0.390625 -2.820312 0.515625 -3.363281 0.765625 -3.75 C 1.023438 -4.132812 1.390625 -4.328125 1.859375 -4.328125 C 2.316406 -4.328125 2.675781 -4.132812 2.9375 -3.75 C 3.195312 -3.363281 3.328125 -2.820312 3.328125 -2.125 C 3.328125 -1.425781 3.195312 -0.882812 2.9375 -0.5 C 2.675781 -0.113281 2.316406 0.078125 1.859375 0.078125 Z "/>
</g>
<g id="glyph-0-26">
<path d="M 2.71875 -1.90625 C 2.59375 -1.757812 2.445312 -1.648438 2.28125 -1.578125 C 2.125 -1.515625 1.941406 -1.484375 1.734375 -1.484375 C 1.304688 -1.484375 0.96875 -1.609375 0.71875 -1.859375 C 0.476562 -2.117188 0.359375 -2.46875 0.359375 -2.90625 C 0.359375 -3.332031 0.488281 -3.675781 0.75 -3.9375 C 1.019531 -4.195312 1.378906 -4.328125 1.828125 -4.328125 C 2.304688 -4.328125 2.671875 -4.144531 2.921875 -3.78125 C 3.179688 -3.425781 3.3125 -2.914062 3.3125 -2.25 C 3.3125 -1.507812 3.160156 -0.9375 2.859375 -0.53125 C 2.554688 -0.125 2.125 0.078125 1.5625 0.078125 C 1.414062 0.078125 1.257812 0.0625 1.09375 0.03125 C 0.925781 0.0078125 0.757812 -0.03125 0.59375 -0.09375 L 0.59375 -0.796875 L 0.90625 -0.796875 C 0.925781 -0.597656 1 -0.445312 1.125 -0.34375 C 1.25 -0.25 1.414062 -0.203125 1.625 -0.203125 C 1.988281 -0.203125 2.257812 -0.335938 2.4375 -0.609375 C 2.625 -0.890625 2.71875 -1.320312 2.71875 -1.90625 Z M 1.796875 -4.046875 C 1.523438 -4.046875 1.316406 -3.945312 1.171875 -3.75 C 1.035156 -3.550781 0.96875 -3.269531 0.96875 -2.90625 C 0.96875 -2.53125 1.035156 -2.242188 1.171875 -2.046875 C 1.316406 -1.859375 1.523438 -1.765625 1.796875 -1.765625 C 2.066406 -1.765625 2.273438 -1.859375 2.421875 -2.046875 C 2.566406 -2.234375 2.640625 -2.507812 2.640625 -2.875 C 2.640625 -3.25 2.566406 -3.535156 2.421875 -3.734375 C 2.273438 -3.941406 2.066406 -4.046875 1.796875 -4.046875 Z "/>
</g>
</g>
</defs>
<g fill="rgb(96.862745%, 85.098039%, 43.529412%)" fill-opacity="1">
<use xlink:href="#glyph-0-0" x="30" y="25.414062"/>
<use xlink:href="#glyph-0-1" x="34" y="25.414062"/>
<use xlink:href="#glyph-0-2" x="37" y="25.414062"/>
<use xlink:href="#glyph-0-3" x="41" y="25.414062"/>
<use xlink:href="#glyph-0-4" x="43" y="25.414062"/>
<use xlink:href="#glyph-0-5" x="46" y="25.414062"/>
<use xlink:href="#glyph-0-6" x="48" y="25.414062"/>
<use xlink:href="#glyph-0-7" x="50" y="25.414062"/>
<use xlink:href="#glyph-0-1" x="54" y="25.414062"/>
<use xlink:href="#glyph-0-8" x="57" y="25.414062"/>
<use xlink:href="#glyph-0-4" x="60" y="25.414062"/>
<use xlink:href="#glyph-0-9" x="63" y="25.414062"/>
<use xlink:href="#glyph-0-1" x="65" y="25.414062"/>
<use xlink:href="#glyph-0-4" x="68" y="25.414062"/>
<use xlink:href="#glyph-0-8" x="71" y="25.414062"/>
<use xlink:href="#glyph-0-7" x="74" y="25.414062"/>
<use xlink:href="#glyph-0-10" x="78" y="25.414062"/>
<use xlink:href="#glyph-0-4" x="81" y="25.414062"/>
<use xlink:href="#glyph-0-1" x="84" y="25.414062"/>
<use xlink:href="#glyph-0-11" x="87" y="25.414062"/>
<use xlink:href="#glyph-0-9" x="90" y="25.414062"/>
<use xlink:href="#glyph-0-12" x="92" y="25.414062"/>
<use xlink:href="#glyph-0-4" x="96" y="25.414062"/>
<use xlink:href="#glyph-0-1" x="99" y="25.414062"/>
<use xlink:href="#glyph-0-4" x="102" y="25.414062"/>
<use xlink:href="#glyph-0-13" x="105" y="25.414062"/>
<use xlink:href="#glyph-0-9" x="107" y="25.414062"/>
<use xlink:href="#glyph-0-14" x="109" y="25.414062"/>
<use xlink:href="#glyph-0-15" x="113" y="25.414062"/>
<use xlink:href="#glyph-0-16" x="117" y="25.414062"/>
<use xlink:href="#glyph-0-9" x="121" y="25.414062"/>
<use xlink:href="#glyph-0-8" x="123" y="25.414062"/>
<use xlink:href="#glyph-0-17" x="126" y="25.414062"/>
<use xlink:href="#glyph-0-18" x="129" y="25.414062"/>
<use xlink:href="#glyph-0-19" x="133" y="25.414062"/>
<use xlink:href="#glyph-0-20" x="137" y="25.414062"/>
<use xlink:href="#glyph-0-19" x="139" y="25.414062"/>
<use xlink:href="#glyph-0-17" x="143" y="25.414062"/>
<use xlink:href="#glyph-0-3" x="146" y="25.414062"/>
<use xlink:href="#glyph-0-4" x="148" y="25.414062"/>
<use xlink:href="#glyph-0-21" x="151" y="25.414062"/>
<use xlink:href="#glyph-0-22" x="154" y="25.414062"/>
<use xlink:href="#glyph-0-9" x="156" y="25.414062"/>
<use xlink:href="#glyph-0-23" x="158" y="25.414062"/>
<use xlink:href="#glyph-0-7" x="163" y="25.414062"/>
<use xlink:href="#glyph-0-1" x="167" y="25.414062"/>
<use xlink:href="#glyph-0-21" x="170" y="25.414062"/>
<use xlink:href="#glyph-0-3" x="173" y="25.414062"/>
<use xlink:href="#glyph-0-9" x="175" y="25.414062"/>
<use xlink:href="#glyph-0-8" x="177" y="25.414062"/>
<use xlink:href="#glyph-0-17" x="180" y="25.414062"/>
<use xlink:href="#glyph-0-21" x="183" y="25.414062"/>
<use xlink:href="#glyph-0-4" x="186" y="25.414062"/>
<use xlink:href="#glyph-0-9" x="189" y="25.414062"/>
<use xlink:href="#glyph-0-24" x="191" y="25.414062"/>
<use xlink:href="#glyph-0-25" x="195" y="25.414062"/>
<use xlink:href="#glyph-0-24" x="199" y="25.414062"/>
<use xlink:href="#glyph-0-26" x="203" y="25.414062"/>
</g>
</svg>
