<?xml version="1.0" encoding="utf-8" standalone="no"?>
<!DOCTYPE svg PUBLIC "-//W3C//DTD SVG 1.1//EN"
  "http://www.w3.org/Graphics/SVG/1.1/DTD/svg11.dtd">
<svg xmlns:xlink="http://www.w3.org/1999/xlink" width="285.746231pt" height="352.8pt" viewBox="0 0 285.746231 352.8" xmlns="http://www.w3.org/2000/svg" version="1.1">
 <metadata>
  <rdf:RDF xmlns:dc="http://purl.org/dc/elements/1.1/" xmlns:cc="http://creativecommons.org/ns#" xmlns:rdf="http://www.w3.org/1999/02/22-rdf-syntax-ns#">
   <cc:Work>
    <dc:type rdf:resource="http://purl.org/dc/dcmitype/StillImage"/>
    <dc:date>2026-06-15T20:56:26.907756</dc:date>
    <dc:format>image/svg+xml</dc:format>
    <dc:creator>
     <cc:Agent>
      <dc:title>Matplotlib v3.10.9, https://matplotlib.org/</dc:title>
     </cc:Agent>
    </dc:creator>
   </cc:Work>
  </rdf:RDF>
 </metadata>
 <defs>
  <style type="text/css">*{stroke-linejoin: round; stroke-linecap: butt}</style>
 </defs>
 <g id="figure_1">
  <g id="patch_1">
   <path d="M 0 352.8 
L 285.746231 352.8 
L 285.746231 0 
L 0 0 
z
" style="fill: #ffffff"/>
  </g>
  <g id="axes_1">
   <g id="patch_2">
    <path d="M 14.258959 345.6 
L 278.546231 345.6 
L 278.546231 7.2 
L 14.258959 7.2 
z
" style="fill: #ffffff"/>
   </g>
   <g id="PathCollection_1">
    <path d="M 254.639904 147.092367 
C 255.202485 147.092367 255.742099 146.868852 256.139904 146.471047 
C 256.537709 146.073242 256.761224 145.533628 256.761224 144.971047 
C 256.761224 144.408466 256.537709 143.868852 256.139904 143.471047 
C 255.742099 143.073242 255.202485 142.849727 254.639904 142.849727 
C 254.077323 142.849727 253.537709 143.073242 253.139904 143.471047 
C 252.742099 143.868852 252.518584 144.408466 252.518584 144.971047 
C 252.518584 145.533628 252.742099 146.073242 253.139904 146.471047 
C 253.537709 146.868852 254.077323 147.092367 254.639904 147.092367 
z
" clip-path="url(#pcddce6cc08)"/>
   </g>
   <g id="PathCollection_2">
    <path d="M 246.695312 104.592557 
C 247.257893 104.592557 247.797508 104.369041 248.195312 103.971236 
C 248.593117 103.573432 248.816633 103.033817 248.816633 102.471236 
C 248.816633 101.908656 248.593117 101.369041 248.195312 100.971236 
C 247.797508 100.573432 247.257893 100.349916 246.695312 100.349916 
C 246.132732 100.349916 245.593117 100.573432 245.195312 100.971236 
C 244.797508 101.369041 244.573992 101.908656 244.573992 102.471236 
C 244.573992 103.033817 244.797508 103.573432 245.195312 103.971236 
C 245.593117 104.369041 246.132732 104.592557 246.695312 104.592557 
z
" clip-path="url(#pcddce6cc08)"/>
   </g>
   <g id="PathCollection_3">
    <path d="M 223.934499 69.065363 
C 224.824017 69.065363 225.677223 68.711953 226.306207 68.082969 
C 226.935192 67.453985 227.288601 66.600779 227.288601 65.711261 
C 227.288601 64.821742 226.935192 63.968537 226.306207 63.339552 
C 225.677223 62.710568 224.824017 62.357159 223.934499 62.357159 
C 223.044981 62.357159 222.191775 62.710568 221.562791 63.339552 
C 220.933806 63.968537 220.580397 64.821742 220.580397 65.711261 
C 220.580397 66.600779 220.933806 67.453985 221.562791 68.082969 
C 222.191775 68.711953 223.044981 69.065363 223.934499 69.065363 
z
" clip-path="url(#pcddce6cc08)" style="fill: #ff0000"/>
   </g>
   <g id="PathCollection_4">
    <path d="M 189.431438 41.777079 
C 189.994019 41.777079 190.533633 41.553563 190.931438 41.155758 
C 191.329243 40.757954 191.552758 40.218339 191.552758 39.655758 
C 191.552758 39.093178 191.329243 38.553563 190.931438 38.155758 
C 190.533633 37.757954 189.994019 37.534438 189.431438 37.534438 
C 188.868857 37.534438 188.329243 37.757954 187.931438 38.155758 
C 187.533633 38.553563 187.310118 39.093178 187.310118 39.655758 
C 187.310118 40.218339 187.533633 40.757954 187.931438 41.155758 
C 188.329243 41.553563 188.868857 41.777079 189.431438 41.777079 
z
" clip-path="url(#pcddce6cc08)"/>
   </g>
   <g id="PathCollection_5">
    <path d="M 147.845958 29.94499 
C 148.408539 29.94499 148.948154 29.721474 149.345958 29.323669 
C 149.743763 28.925865 149.967279 28.38625 149.967279 27.823669 
C 149.967279 27.261088 149.743763 26.721474 149.345958 26.323669 
C 148.948154 25.925865 148.408539 25.702349 147.845958 25.702349 
C 147.283378 25.702349 146.743763 25.925865 146.345958 26.323669 
C 145.948154 26.721474 145.724638 27.261088 145.724638 27.823669 
C 145.724638 28.38625 145.948154 28.925865 146.345958 29.323669 
C 146.743763 29.721474 147.283378 29.94499 147.845958 29.94499 
z
" clip-path="url(#pcddce6cc08)"/>
   </g>
   <g id="PathCollection_6">
    <path d="M 104.79441 35.167085 
C 105.683928 35.167085 106.537134 34.813675 107.166118 34.184691 
C 107.795103 33.555706 108.148512 32.702501 108.148512 31.812983 
C 108.148512 30.923464 107.795103 30.070259 107.166118 29.441274 
C 106.537134 28.81229 105.683928 28.458881 104.79441 28.458881 
C 103.904892 28.458881 103.051686 28.81229 102.422702 29.441274 
C 101.793717 30.070259 101.440308 30.923464 101.440308 31.812983 
C 101.440308 32.702501 101.793717 33.555706 102.422702 34.184691 
C 103.051686 34.813675 103.904892 35.167085 104.79441 35.167085 
z
" clip-path="url(#pcddce6cc08)" style="fill: #0000ff"/>
   </g>
   <g id="PathCollection_7">
    <path d="M 66.091143 53.20624 
C 66.653724 53.20624 67.193338 52.982724 67.591143 52.58492 
C 67.988947 52.187115 68.212463 51.6475 68.212463 51.08492 
C 68.212463 50.522339 67.988947 49.982724 67.591143 49.58492 
C 67.193338 49.187115 66.653724 48.963599 66.091143 48.963599 
C 65.528562 48.963599 64.988947 49.187115 64.591143 49.58492 
C 64.193338 49.982724 63.969822 50.522339 63.969822 51.08492 
C 63.969822 51.6475 64.193338 52.187115 64.591143 52.58492 
C 64.988947 52.982724 65.528562 53.20624 66.091143 53.20624 
z
" clip-path="url(#pcddce6cc08)"/>
   </g>
   <g id="PathCollection_8">
    <path d="M 36.963248 85.158019 
C 37.525828 85.158019 38.065443 84.934503 38.463248 84.536699 
C 38.861052 84.138894 39.084568 83.599279 39.084568 83.036699 
C 39.084568 82.474118 38.861052 81.934503 38.463248 81.536699 
C 38.065443 81.138894 37.525828 80.915378 36.963248 80.915378 
C 36.400667 80.915378 35.861052 81.138894 35.463248 81.536699 
C 35.065443 81.934503 34.841927 82.474118 34.841927 83.036699 
C 34.841927 83.599279 35.065443 84.138894 35.463248 84.536699 
C 35.861052 84.934503 36.400667 85.158019 36.963248 85.158019 
z
" clip-path="url(#pcddce6cc08)"/>
   </g>
   <g id="PathCollection_9">
    <path d="M 21.344608 125.474375 
C 21.907189 125.474375 22.446804 125.250859 22.844608 124.853054 
C 23.242413 124.45525 23.465929 123.915635 23.465929 123.353054 
C 23.465929 122.790474 23.242413 122.250859 22.844608 121.853054 
C 22.446804 121.45525 21.907189 121.231734 21.344608 121.231734 
C 20.782028 121.231734 20.242413 121.45525 19.844608 121.853054 
C 19.446804 122.250859 19.223288 122.790474 19.223288 123.353054 
C 19.223288 123.915635 19.446804 124.45525 19.844608 124.853054 
C 20.242413 125.250859 20.782028 125.474375 21.344608 125.474375 
z
" clip-path="url(#pcddce6cc08)"/>
   </g>
   <g id="PathCollection_10">
    <path d="M 21.344608 168.71036 
C 21.907189 168.71036 22.446804 168.486844 22.844608 168.08904 
C 23.242413 167.691235 23.465929 167.151621 23.465929 166.58904 
C 23.465929 166.026459 23.242413 165.486844 22.844608 165.08904 
C 22.446804 164.691235 21.907189 164.467719 21.344608 164.467719 
C 20.782028 164.467719 20.242413 164.691235 19.844608 165.08904 
C 19.446804 165.486844 19.223288 166.026459 19.223288 166.58904 
C 19.223288 167.151621 19.446804 167.691235 19.844608 168.08904 
C 20.242413 168.486844 20.782028 168.71036 21.344608 168.71036 
z
" clip-path="url(#pcddce6cc08)"/>
   </g>
   <g id="PathCollection_11">
    <path d="M 36.963248 209.026716 
C 37.525828 209.026716 38.065443 208.8032 38.463248 208.405396 
C 38.861052 208.007591 39.084568 207.467976 39.084568 206.905396 
C 39.084568 206.342815 38.861052 205.8032 38.463248 205.405396 
C 38.065443 205.007591 37.525828 204.784075 36.963248 204.784075 
C 36.400667 204.784075 35.861052 205.007591 35.463248 205.405396 
C 35.065443 205.8032 34.841927 206.342815 34.841927 206.905396 
C 34.841927 207.467976 35.065443 208.007591 35.463248 208.405396 
C 35.861052 208.8032 36.400667 209.026716 36.963248 209.026716 
z
" clip-path="url(#pcddce6cc08)"/>
   </g>
   <g id="PathCollection_12">
    <path d="M 66.091143 240.978495 
C 66.653724 240.978495 67.193338 240.754979 67.591143 240.357174 
C 67.988947 239.95937 68.212463 239.419755 68.212463 238.857174 
C 68.212463 238.294594 67.988947 237.754979 67.591143 237.357174 
C 67.193338 236.95937 66.653724 236.735854 66.091143 236.735854 
C 65.528562 236.735854 64.988947 236.95937 64.591143 237.357174 
C 64.193338 237.754979 63.969822 238.294594 63.969822 238.857174 
C 63.969822 239.419755 64.193338 239.95937 64.591143 240.357174 
C 64.988947 240.754979 65.528562 240.978495 66.091143 240.978495 
z
" clip-path="url(#pcddce6cc08)"/>
   </g>
   <g id="PathCollection_13">
    <path d="M 104.79441 260.250432 
C 105.356991 260.250432 105.896605 260.026916 106.29441 259.629112 
C 106.692215 259.231307 106.91573 258.691692 106.91573 258.129112 
C 106.91573 257.566531 106.692215 257.026916 106.29441 256.629112 
C 105.896605 256.231307 105.356991 256.007791 104.79441 256.007791 
C 104.231829 256.007791 103.692215 256.231307 103.29441 256.629112 
C 102.896605 257.026916 102.67309 257.566531 102.67309 258.129112 
C 102.67309 258.691692 102.896605 259.231307 103.29441 259.629112 
C 103.692215 260.026916 104.231829 260.250432 104.79441 260.250432 
z
" clip-path="url(#pcddce6cc08)"/>
   </g>
   <g id="PathCollection_14">
    <path d="M 147.845958 264.239745 
C 148.408539 264.239745 148.948154 264.01623 149.345958 263.618425 
C 149.743763 263.22062 149.967279 262.681006 149.967279 262.118425 
C 149.967279 261.555844 149.743763 261.01623 149.345958 260.618425 
C 148.948154 260.22062 148.408539 259.997105 147.845958 259.997105 
C 147.283378 259.997105 146.743763 260.22062 146.345958 260.618425 
C 145.948154 261.01623 145.724638 261.555844 145.724638 262.118425 
C 145.724638 262.681006 145.948154 263.22062 146.345958 263.618425 
C 146.743763 264.01623 147.283378 264.239745 147.845958 264.239745 
z
" clip-path="url(#pcddce6cc08)"/>
   </g>
   <g id="PathCollection_15">
    <path d="M 189.431438 253.640438 
C 190.320956 253.640438 191.174162 253.287029 191.803146 252.658044 
C 192.43213 252.02906 192.78554 251.175854 192.78554 250.286336 
C 192.78554 249.396818 192.43213 248.543612 191.803146 247.914628 
C 191.174162 247.285643 190.320956 246.932234 189.431438 246.932234 
C 188.54192 246.932234 187.688714 247.285643 187.05973 247.914628 
C 186.430745 248.543612 186.077336 249.396818 186.077336 250.286336 
C 186.077336 251.175854 186.430745 252.02906 187.05973 252.658044 
C 187.688714 253.287029 188.54192 253.640438 189.431438 253.640438 
z
" clip-path="url(#pcddce6cc08)" style="fill: #ff0000"/>
   </g>
   <g id="PathCollection_16">
    <path d="M 223.934499 226.352154 
C 224.49708 226.352154 225.036694 226.128638 225.434499 225.730834 
C 225.832304 225.333029 226.055819 224.793414 226.055819 224.230834 
C 226.055819 223.668253 225.832304 223.128638 225.434499 222.730834 
C 225.036694 222.333029 224.49708 222.109513 223.934499 222.109513 
C 223.371918 222.109513 222.832304 222.333029 222.434499 222.730834 
C 222.036694 223.128638 221.813179 223.668253 221.813179 224.230834 
C 221.813179 224.793414 222.036694 225.333029 222.434499 225.730834 
C 222.832304 226.128638 223.371918 226.352154 223.934499 226.352154 
z
" clip-path="url(#pcddce6cc08)"/>
   </g>
   <g id="PathCollection_17">
    <path d="M 246.695312 189.592178 
C 247.257893 189.592178 247.797508 189.368662 248.195312 188.970858 
C 248.593117 188.573053 248.816633 188.033438 248.816633 187.470858 
C 248.816633 186.908277 248.593117 186.368662 248.195312 185.970858 
C 247.797508 185.573053 247.257893 185.349537 246.695312 185.349537 
C 246.132732 185.349537 245.593117 185.573053 245.195312 185.970858 
C 244.797508 186.368662 244.573992 186.908277 244.573992 187.470858 
C 244.573992 188.033438 244.797508 188.573053 245.195312 188.970858 
C 245.593117 189.368662 246.132732 189.592178 246.695312 189.592178 
z
" clip-path="url(#pcddce6cc08)"/>
   </g>
   <g id="matplotlib.axis_1">
    <g id="xtick_1">
     <g id="line2d_1">
      <defs>
       <path id="m6ccb61039f" d="M 0 0 
L 0 3.5 
" style="stroke: #000000; stroke-width: 0.8"/>
      </defs>
      <g>
       <use xlink:href="#m6ccb61039f" x="19.341406" y="144.971047" style="stroke: #000000; stroke-width: 0.8"/>
      </g>
     </g>
     <g id="text_1">
      <!-- −1.0 -->
      <g transform="translate(7.2 159.569485) scale(0.1 -0.1)">
       <defs>
        <path id="DejaVuSans-2212" d="M 678 2272 
L 4684 2272 
L 4684 1741 
L 678 1741 
L 678 2272 
z
" transform="scale(0.015625)"/>
        <path id="DejaVuSans-31" d="M 794 531 
L 1825 531 
L 1825 4091 
L 703 3866 
L 703 4441 
L 1819 4666 
L 2450 4666 
L 2450 531 
L 3481 531 
L 3481 0 
L 794 0 
L 794 531 
z
" transform="scale(0.015625)"/>
        <path id="DejaVuSans-2e" d="M 684 794 
L 1344 794 
L 1344 0 
L 684 0 
L 684 794 
z
" transform="scale(0.015625)"/>
        <path id="DejaVuSans-30" d="M 2034 4250 
Q 1547 4250 1301 3770 
Q 1056 3291 1056 2328 
Q 1056 1369 1301 889 
Q 1547 409 2034 409 
Q 2525 409 2770 889 
Q 3016 1369 3016 2328 
Q 3016 3291 2770 3770 
Q 2525 4250 2034 4250 
z
M 2034 4750 
Q 2819 4750 3233 4129 
Q 3647 3509 3647 2328 
Q 3647 1150 3233 529 
Q 2819 -91 2034 -91 
Q 1250 -91 836 529 
Q 422 1150 422 2328 
Q 422 3509 836 4129 
Q 1250 4750 2034 4750 
z
" transform="scale(0.015625)"/>
       </defs>
       <use xlink:href="#DejaVuSans-2212"/>
       <use xlink:href="#DejaVuSans-31" transform="translate(83.789062 0)"/>
       <use xlink:href="#DejaVuSans-2e" transform="translate(147.412109 0)"/>
       <use xlink:href="#DejaVuSans-30" transform="translate(179.199219 0)"/>
      </g>
     </g>
    </g>
    <g id="xtick_2">
     <g id="line2d_2">
      <g>
       <use xlink:href="#m6ccb61039f" x="78.166031" y="144.971047" style="stroke: #000000; stroke-width: 0.8"/>
      </g>
     </g>
     <g id="text_2">
      <!-- −0.5 -->
      <g transform="translate(66.024624 159.569485) scale(0.1 -0.1)">
       <defs>
        <path id="DejaVuSans-35" d="M 691 4666 
L 3169 4666 
L 3169 4134 
L 1269 4134 
L 1269 2991 
Q 1406 3038 1543 3061 
Q 1681 3084 1819 3084 
Q 2600 3084 3056 2656 
Q 3513 2228 3513 1497 
Q 3513 744 3044 326 
Q 2575 -91 1722 -91 
Q 1428 -91 1123 -41 
Q 819 9 494 109 
L 494 744 
Q 775 591 1075 516 
Q 1375 441 1709 441 
Q 2250 441 2565 725 
Q 2881 1009 2881 1497 
Q 2881 1984 2565 2268 
Q 2250 2553 1709 2553 
Q 1456 2553 1204 2497 
Q 953 2441 691 2322 
L 691 4666 
z
" transform="scale(0.015625)"/>
       </defs>
       <use xlink:href="#DejaVuSans-2212"/>
       <use xlink:href="#DejaVuSans-30" transform="translate(83.789062 0)"/>
       <use xlink:href="#DejaVuSans-2e" transform="translate(147.412109 0)"/>
       <use xlink:href="#DejaVuSans-35" transform="translate(179.199219 0)"/>
      </g>
     </g>
    </g>
    <g id="xtick_3">
     <g id="line2d_3">
      <g>
       <use xlink:href="#m6ccb61039f" x="136.990655" y="144.971047" style="stroke: #000000; stroke-width: 0.8"/>
      </g>
     </g>
    </g>
    <g id="xtick_4">
     <g id="line2d_4">
      <g>
       <use xlink:href="#m6ccb61039f" x="195.81528" y="144.971047" style="stroke: #000000; stroke-width: 0.8"/>
      </g>
     </g>
     <g id="text_3">
      <!-- 0.5 -->
      <g transform="translate(187.863717 159.569485) scale(0.1 -0.1)">
       <use xlink:href="#DejaVuSans-30"/>
       <use xlink:href="#DejaVuSans-2e" transform="translate(63.623047 0)"/>
       <use xlink:href="#DejaVuSans-35" transform="translate(95.410156 0)"/>
      </g>
     </g>
    </g>
    <g id="xtick_5">
     <g id="line2d_5">
      <g>
       <use xlink:href="#m6ccb61039f" x="254.639904" y="144.971047" style="stroke: #000000; stroke-width: 0.8"/>
      </g>
     </g>
     <g id="text_4">
      <!-- 1.0 -->
      <g transform="translate(246.688341 159.569485) scale(0.1 -0.1)">
       <use xlink:href="#DejaVuSans-31"/>
       <use xlink:href="#DejaVuSans-2e" transform="translate(63.623047 0)"/>
       <use xlink:href="#DejaVuSans-30" transform="translate(95.410156 0)"/>
      </g>
     </g>
    </g>
    <g id="xtick_6">
     <g id="line2d_6">
      <defs>
       <path id="medd42bf8b6" d="M 0 0 
L 0 2 
" style="stroke: #000000; stroke-width: 0.6"/>
      </defs>
      <g>
       <use xlink:href="#medd42bf8b6" x="31.106331" y="144.971047" style="stroke: #000000; stroke-width: 0.6"/>
      </g>
     </g>
    </g>
    <g id="xtick_7">
     <g id="line2d_7">
      <g>
       <use xlink:href="#medd42bf8b6" x="42.871256" y="144.971047" style="stroke: #000000; stroke-width: 0.6"/>
      </g>
     </g>
    </g>
    <g id="xtick_8">
     <g id="line2d_8">
      <g>
       <use xlink:href="#medd42bf8b6" x="54.636181" y="144.971047" style="stroke: #000000; stroke-width: 0.6"/>
      </g>
     </g>
    </g>
    <g id="xtick_9">
     <g id="line2d_9">
      <g>
       <use xlink:href="#medd42bf8b6" x="66.401106" y="144.971047" style="stroke: #000000; stroke-width: 0.6"/>
      </g>
     </g>
    </g>
    <g id="xtick_10">
     <g id="line2d_10">
      <g>
       <use xlink:href="#medd42bf8b6" x="89.930956" y="144.971047" style="stroke: #000000; stroke-width: 0.6"/>
      </g>
     </g>
    </g>
    <g id="xtick_11">
     <g id="line2d_11">
      <g>
       <use xlink:href="#medd42bf8b6" x="101.69588" y="144.971047" style="stroke: #000000; stroke-width: 0.6"/>
      </g>
     </g>
    </g>
    <g id="xtick_12">
     <g id="line2d_12">
      <g>
       <use xlink:href="#medd42bf8b6" x="113.460805" y="144.971047" style="stroke: #000000; stroke-width: 0.6"/>
      </g>
     </g>
    </g>
    <g id="xtick_13">
     <g id="line2d_13">
      <g>
       <use xlink:href="#medd42bf8b6" x="125.22573" y="144.971047" style="stroke: #000000; stroke-width: 0.6"/>
      </g>
     </g>
    </g>
    <g id="xtick_14">
     <g id="line2d_14">
      <g>
       <use xlink:href="#medd42bf8b6" x="148.75558" y="144.971047" style="stroke: #000000; stroke-width: 0.6"/>
      </g>
     </g>
    </g>
    <g id="xtick_15">
     <g id="line2d_15">
      <g>
       <use xlink:href="#medd42bf8b6" x="160.520505" y="144.971047" style="stroke: #000000; stroke-width: 0.6"/>
      </g>
     </g>
    </g>
    <g id="xtick_16">
     <g id="line2d_16">
      <g>
       <use xlink:href="#medd42bf8b6" x="172.28543" y="144.971047" style="stroke: #000000; stroke-width: 0.6"/>
      </g>
     </g>
    </g>
    <g id="xtick_17">
     <g id="line2d_17">
      <g>
       <use xlink:href="#medd42bf8b6" x="184.050355" y="144.971047" style="stroke: #000000; stroke-width: 0.6"/>
      </g>
     </g>
    </g>
    <g id="xtick_18">
     <g id="line2d_18">
      <g>
       <use xlink:href="#medd42bf8b6" x="207.580204" y="144.971047" style="stroke: #000000; stroke-width: 0.6"/>
      </g>
     </g>
    </g>
    <g id="xtick_19">
     <g id="line2d_19">
      <g>
       <use xlink:href="#medd42bf8b6" x="219.345129" y="144.971047" style="stroke: #000000; stroke-width: 0.6"/>
      </g>
     </g>
    </g>
    <g id="xtick_20">
     <g id="line2d_20">
      <g>
       <use xlink:href="#medd42bf8b6" x="231.110054" y="144.971047" style="stroke: #000000; stroke-width: 0.6"/>
      </g>
     </g>
    </g>
    <g id="xtick_21">
     <g id="line2d_21">
      <g>
       <use xlink:href="#medd42bf8b6" x="242.874979" y="144.971047" style="stroke: #000000; stroke-width: 0.6"/>
      </g>
     </g>
    </g>
    <g id="xtick_22">
     <g id="line2d_22">
      <g>
       <use xlink:href="#medd42bf8b6" x="266.404829" y="144.971047" style="stroke: #000000; stroke-width: 0.6"/>
      </g>
     </g>
    </g>
    <g id="xtick_23">
     <g id="line2d_23">
      <g>
       <use xlink:href="#medd42bf8b6" x="278.169754" y="144.971047" style="stroke: #000000; stroke-width: 0.6"/>
      </g>
     </g>
    </g>
   </g>
   <g id="matplotlib.axis_2">
    <g id="ytick_1">
     <g id="line2d_24">
      <defs>
       <path id="mda27bccd4a" d="M 0 0 
L -3.5 0 
" style="stroke: #000000; stroke-width: 0.8"/>
      </defs>
      <g>
       <use xlink:href="#mda27bccd4a" x="136.990655" y="321.44492" style="stroke: #000000; stroke-width: 0.8"/>
      </g>
     </g>
     <g id="text_5">
      <!-- −1.5 -->
      <g transform="translate(105.707843 325.244139) scale(0.1 -0.1)">
       <use xlink:href="#DejaVuSans-2212"/>
       <use xlink:href="#DejaVuSans-31" transform="translate(83.789062 0)"/>
       <use xlink:href="#DejaVuSans-2e" transform="translate(147.412109 0)"/>
       <use xlink:href="#DejaVuSans-35" transform="translate(179.199219 0)"/>
      </g>
     </g>
    </g>
    <g id="ytick_2">
     <g id="line2d_25">
      <g>
       <use xlink:href="#mda27bccd4a" x="136.990655" y="262.620296" style="stroke: #000000; stroke-width: 0.8"/>
      </g>
     </g>
     <g id="text_6">
      <!-- −1.0 -->
      <g transform="translate(105.707843 266.419515) scale(0.1 -0.1)">
       <use xlink:href="#DejaVuSans-2212"/>
       <use xlink:href="#DejaVuSans-31" transform="translate(83.789062 0)"/>
       <use xlink:href="#DejaVuSans-2e" transform="translate(147.412109 0)"/>
       <use xlink:href="#DejaVuSans-30" transform="translate(179.199219 0)"/>
      </g>
     </g>
    </g>
    <g id="ytick_3">
     <g id="line2d_26">
      <g>
       <use xlink:href="#mda27bccd4a" x="136.990655" y="203.795672" style="stroke: #000000; stroke-width: 0.8"/>
      </g>
     </g>
     <g id="text_7">
      <!-- −0.5 -->
      <g transform="translate(105.707843 207.59489) scale(0.1 -0.1)">
       <use xlink:href="#DejaVuSans-2212"/>
       <use xlink:href="#DejaVuSans-30" transform="translate(83.789062 0)"/>
       <use xlink:href="#DejaVuSans-2e" transform="translate(147.412109 0)"/>
       <use xlink:href="#DejaVuSans-35" transform="translate(179.199219 0)"/>
      </g>
     </g>
    </g>
    <g id="ytick_4">
     <g id="line2d_27">
      <g>
       <use xlink:href="#mda27bccd4a" x="136.990655" y="144.971047" style="stroke: #000000; stroke-width: 0.8"/>
      </g>
     </g>
    </g>
    <g id="ytick_5">
     <g id="line2d_28">
      <g>
       <use xlink:href="#mda27bccd4a" x="136.990655" y="86.146423" style="stroke: #000000; stroke-width: 0.8"/>
      </g>
     </g>
     <g id="text_8">
      <!-- 0.5 -->
      <g transform="translate(114.08753 89.945641) scale(0.1 -0.1)">
       <use xlink:href="#DejaVuSans-30"/>
       <use xlink:href="#DejaVuSans-2e" transform="translate(63.623047 0)"/>
       <use xlink:href="#DejaVuSans-35" transform="translate(95.410156 0)"/>
      </g>
     </g>
    </g>
    <g id="ytick_6">
     <g id="line2d_29">
      <g>
       <use xlink:href="#mda27bccd4a" x="136.990655" y="27.321798" style="stroke: #000000; stroke-width: 0.8"/>
      </g>
     </g>
     <g id="text_9">
      <!-- 1.0 -->
      <g transform="translate(114.08753 31.121017) scale(0.1 -0.1)">
       <use xlink:href="#DejaVuSans-31"/>
       <use xlink:href="#DejaVuSans-2e" transform="translate(63.623047 0)"/>
       <use xlink:href="#DejaVuSans-30" transform="translate(95.410156 0)"/>
      </g>
     </g>
    </g>
    <g id="ytick_7">
     <g id="line2d_30">
      <defs>
       <path id="mfc63e9f5f6" d="M 0 0 
L -2 0 
" style="stroke: #000000; stroke-width: 0.6"/>
      </defs>
      <g>
       <use xlink:href="#mfc63e9f5f6" x="136.990655" y="344.97477" style="stroke: #000000; stroke-width: 0.6"/>
      </g>
     </g>
    </g>
    <g id="ytick_8">
     <g id="line2d_31">
      <g>
       <use xlink:href="#mfc63e9f5f6" x="136.990655" y="333.209845" style="stroke: #000000; stroke-width: 0.6"/>
      </g>
     </g>
    </g>
    <g id="ytick_9">
     <g id="line2d_32">
      <g>
       <use xlink:href="#mfc63e9f5f6" x="136.990655" y="309.679995" style="stroke: #000000; stroke-width: 0.6"/>
      </g>
     </g>
    </g>
    <g id="ytick_10">
     <g id="line2d_33">
      <g>
       <use xlink:href="#mfc63e9f5f6" x="136.990655" y="297.915071" style="stroke: #000000; stroke-width: 0.6"/>
      </g>
     </g>
    </g>
    <g id="ytick_11">
     <g id="line2d_34">
      <g>
       <use xlink:href="#mfc63e9f5f6" x="136.990655" y="286.150146" style="stroke: #000000; stroke-width: 0.6"/>
      </g>
     </g>
    </g>
    <g id="ytick_12">
     <g id="line2d_35">
      <g>
       <use xlink:href="#mfc63e9f5f6" x="136.990655" y="274.385221" style="stroke: #000000; stroke-width: 0.6"/>
      </g>
     </g>
    </g>
    <g id="ytick_13">
     <g id="line2d_36">
      <g>
       <use xlink:href="#mfc63e9f5f6" x="136.990655" y="250.855371" style="stroke: #000000; stroke-width: 0.6"/>
      </g>
     </g>
    </g>
    <g id="ytick_14">
     <g id="line2d_37">
      <g>
       <use xlink:href="#mfc63e9f5f6" x="136.990655" y="239.090446" style="stroke: #000000; stroke-width: 0.6"/>
      </g>
     </g>
    </g>
    <g id="ytick_15">
     <g id="line2d_38">
      <g>
       <use xlink:href="#mfc63e9f5f6" x="136.990655" y="227.325521" style="stroke: #000000; stroke-width: 0.6"/>
      </g>
     </g>
    </g>
    <g id="ytick_16">
     <g id="line2d_39">
      <g>
       <use xlink:href="#mfc63e9f5f6" x="136.990655" y="215.560596" style="stroke: #000000; stroke-width: 0.6"/>
      </g>
     </g>
    </g>
    <g id="ytick_17">
     <g id="line2d_40">
      <g>
       <use xlink:href="#mfc63e9f5f6" x="136.990655" y="192.030747" style="stroke: #000000; stroke-width: 0.6"/>
      </g>
     </g>
    </g>
    <g id="ytick_18">
     <g id="line2d_41">
      <g>
       <use xlink:href="#mfc63e9f5f6" x="136.990655" y="180.265822" style="stroke: #000000; stroke-width: 0.6"/>
      </g>
     </g>
    </g>
    <g id="ytick_19">
     <g id="line2d_42">
      <g>
       <use xlink:href="#mfc63e9f5f6" x="136.990655" y="168.500897" style="stroke: #000000; stroke-width: 0.6"/>
      </g>
     </g>
    </g>
    <g id="ytick_20">
     <g id="line2d_43">
      <g>
       <use xlink:href="#mfc63e9f5f6" x="136.990655" y="156.735972" style="stroke: #000000; stroke-width: 0.6"/>
      </g>
     </g>
    </g>
    <g id="ytick_21">
     <g id="line2d_44">
      <g>
       <use xlink:href="#mfc63e9f5f6" x="136.990655" y="133.206122" style="stroke: #000000; stroke-width: 0.6"/>
      </g>
     </g>
    </g>
    <g id="ytick_22">
     <g id="line2d_45">
      <g>
       <use xlink:href="#mfc63e9f5f6" x="136.990655" y="121.441197" style="stroke: #000000; stroke-width: 0.6"/>
      </g>
     </g>
    </g>
    <g id="ytick_23">
     <g id="line2d_46">
      <g>
       <use xlink:href="#mfc63e9f5f6" x="136.990655" y="109.676272" style="stroke: #000000; stroke-width: 0.6"/>
      </g>
     </g>
    </g>
    <g id="ytick_24">
     <g id="line2d_47">
      <g>
       <use xlink:href="#mfc63e9f5f6" x="136.990655" y="97.911348" style="stroke: #000000; stroke-width: 0.6"/>
      </g>
     </g>
    </g>
    <g id="ytick_25">
     <g id="line2d_48">
      <g>
       <use xlink:href="#mfc63e9f5f6" x="136.990655" y="74.381498" style="stroke: #000000; stroke-width: 0.6"/>
      </g>
     </g>
    </g>
    <g id="ytick_26">
     <g id="line2d_49">
      <g>
       <use xlink:href="#mfc63e9f5f6" x="136.990655" y="62.616573" style="stroke: #000000; stroke-width: 0.6"/>
      </g>
     </g>
    </g>
    <g id="ytick_27">
     <g id="line2d_50">
      <g>
       <use xlink:href="#mfc63e9f5f6" x="136.990655" y="50.851648" style="stroke: #000000; stroke-width: 0.6"/>
      </g>
     </g>
    </g>
    <g id="ytick_28">
     <g id="line2d_51">
      <g>
       <use xlink:href="#mfc63e9f5f6" x="136.990655" y="39.086723" style="stroke: #000000; stroke-width: 0.6"/>
      </g>
     </g>
    </g>
    <g id="ytick_29">
     <g id="line2d_52">
      <g>
       <use xlink:href="#mfc63e9f5f6" x="136.990655" y="15.556873" style="stroke: #000000; stroke-width: 0.6"/>
      </g>
     </g>
    </g>
   </g>
   <g id="patch_3">
    <path d="M 189.431438 250.286336 
Q 206.682968 157.998798 223.729061 66.810258 
" clip-path="url(#pcddce6cc08)" style="fill: none; stroke: #ff0000; stroke-linecap: round"/>
    <path d="M 216.9767 75.721241 
L 223.729061 66.810258 
L 226.806431 77.558737 
z
" clip-path="url(#pcddce6cc08)" style="fill: #ff0000; stroke: #ff0000; stroke-linecap: round"/>
   </g>
   <g id="patch_4">
    <path d="M 136.990655 345.6 
L 136.990655 7.2 
" style="fill: none; stroke: #000000; stroke-width: 0.8; stroke-linejoin: miter; stroke-linecap: square"/>
   </g>
   <g id="patch_5">
    <path d="M 14.258959 144.971047 
L 278.546231 144.971047 
" style="fill: none; stroke: #000000; stroke-width: 0.8; stroke-linejoin: miter; stroke-linecap: square"/>
   </g>
   <g id="text_10">
    <!-- 0 -->
    <g transform="translate(270.918784 147.178547) scale(0.08 -0.08)">
     <use xlink:href="#DejaVuSans-30"/>
    </g>
   </g>
   <g id="text_11">
    <!-- 1 -->
    <g transform="translate(261.703058 97.878767) scale(0.08 -0.08)">
     <use xlink:href="#DejaVuSans-31"/>
    </g>
   </g>
   <g id="text_12">
    <!-- 2 -->
    <g style="fill: #ff0000" transform="translate(235.300514 55.237195) scale(0.08 -0.08)">
     <defs>
      <path id="DejaVuSans-32" d="M 1228 531 
L 3431 531 
L 3431 0 
L 469 0 
L 469 531 
Q 828 903 1448 1529 
Q 2069 2156 2228 2338 
Q 2531 2678 2651 2914 
Q 2772 3150 2772 3378 
Q 2772 3750 2511 3984 
Q 2250 4219 1831 4219 
Q 1534 4219 1204 4116 
Q 875 4013 500 3803 
L 500 4441 
Q 881 4594 1212 4672 
Q 1544 4750 1819 4750 
Q 2544 4750 2975 4387 
Q 3406 4025 3406 3419 
Q 3406 3131 3298 2873 
Q 3191 2616 2906 2266 
Q 2828 2175 2409 1742 
Q 1991 1309 1228 531 
z
" transform="scale(0.015625)"/>
     </defs>
     <use xlink:href="#DejaVuSans-32"/>
    </g>
   </g>
   <g id="text_13">
    <!-- 5 -->
    <g style="fill: #0000ff" transform="translate(97.098011 15.915192) scale(0.08 -0.08)">
     <use xlink:href="#DejaVuSans-35"/>
    </g>
   </g>
   <g id="text_14">
    <!-- 7 -->
    <g transform="translate(18.413863 75.334703) scale(0.08 -0.08)">
     <defs>
      <path id="DejaVuSans-37" d="M 525 4666 
L 3525 4666 
L 3525 4397 
L 1831 0 
L 1172 0 
L 2766 4134 
L 525 4134 
L 525 4666 
z
" transform="scale(0.015625)"/>
     </defs>
     <use xlink:href="#DejaVuSans-37"/>
    </g>
   </g>
   <g id="text_15">
    <!-- 14 -->
    <g style="fill: #ff0000" transform="translate(192.731963 269.344282) scale(0.08 -0.08)">
     <defs>
      <path id="DejaVuSans-34" d="M 2419 4116 
L 825 1625 
L 2419 1625 
L 2419 4116 
z
M 2253 4666 
L 3047 4666 
L 3047 1625 
L 3713 1625 
L 3713 1100 
L 3047 1100 
L 3047 0 
L 2419 0 
L 2419 1100 
L 313 1100 
L 313 1709 
L 2253 4666 
z
" transform="scale(0.015625)"/>
     </defs>
     <use xlink:href="#DejaVuSans-31"/>
     <use xlink:href="#DejaVuSans-34" transform="translate(63.623047 0)"/>
    </g>
   </g>
   <g id="text_16">
    <!-- 16 -->
    <g transform="translate(259.158058 196.478327) scale(0.08 -0.08)">
     <defs>
      <path id="DejaVuSans-36" d="M 2113 2584 
Q 1688 2584 1439 2293 
Q 1191 2003 1191 1497 
Q 1191 994 1439 701 
Q 1688 409 2113 409 
Q 2538 409 2786 701 
Q 3034 994 3034 1497 
Q 3034 2003 2786 2293 
Q 2538 2584 2113 2584 
z
M 3366 4563 
L 3366 3988 
Q 3128 4100 2886 4159 
Q 2644 4219 2406 4219 
Q 1781 4219 1451 3797 
Q 1122 3375 1075 2522 
Q 1259 2794 1537 2939 
Q 1816 3084 2150 3084 
Q 2853 3084 3261 2657 
Q 3669 2231 3669 1497 
Q 3669 778 3244 343 
Q 2819 -91 2113 -91 
Q 1303 -91 875 529 
Q 447 1150 447 2328 
Q 447 3434 972 4092 
Q 1497 4750 2381 4750 
Q 2619 4750 2861 4703 
Q 3103 4656 3366 4563 
z
" transform="scale(0.015625)"/>
     </defs>
     <use xlink:href="#DejaVuSans-31"/>
     <use xlink:href="#DejaVuSans-36" transform="translate(63.623047 0)"/>
    </g>
   </g>
   <g id="text_17">
    <!-- 14 + 5 wraps to 2 in F_17 -->
    <g style="fill: #ff0000" transform="translate(72.649249 318.18277) scale(0.1 -0.1)">
     <defs>
      <path id="DejaVuSans-20" transform="scale(0.015625)"/>
      <path id="DejaVuSans-2b" d="M 2944 4013 
L 2944 2272 
L 4684 2272 
L 4684 1741 
L 2944 1741 
L 2944 0 
L 2419 0 
L 2419 1741 
L 678 1741 
L 678 2272 
L 2419 2272 
L 2419 4013 
L 2944 4013 
z
" transform="scale(0.015625)"/>
      <path id="DejaVuSans-77" d="M 269 3500 
L 844 3500 
L 1563 769 
L 2278 3500 
L 2956 3500 
L 3675 769 
L 4391 3500 
L 4966 3500 
L 4050 0 
L 3372 0 
L 2619 2869 
L 1863 0 
L 1184 0 
L 269 3500 
z
" transform="scale(0.015625)"/>
      <path id="DejaVuSans-72" d="M 2631 2963 
Q 2534 3019 2420 3045 
Q 2306 3072 2169 3072 
Q 1681 3072 1420 2755 
Q 1159 2438 1159 1844 
L 1159 0 
L 581 0 
L 581 3500 
L 1159 3500 
L 1159 2956 
Q 1341 3275 1631 3429 
Q 1922 3584 2338 3584 
Q 2397 3584 2469 3576 
Q 2541 3569 2628 3553 
L 2631 2963 
z
" transform="scale(0.015625)"/>
      <path id="DejaVuSans-61" d="M 2194 1759 
Q 1497 1759 1228 1600 
Q 959 1441 959 1056 
Q 959 750 1161 570 
Q 1363 391 1709 391 
Q 2188 391 2477 730 
Q 2766 1069 2766 1631 
L 2766 1759 
L 2194 1759 
z
M 3341 1997 
L 3341 0 
L 2766 0 
L 2766 531 
Q 2569 213 2275 61 
Q 1981 -91 1556 -91 
Q 1019 -91 701 211 
Q 384 513 384 1019 
Q 384 1609 779 1909 
Q 1175 2209 1959 2209 
L 2766 2209 
L 2766 2266 
Q 2766 2663 2505 2880 
Q 2244 3097 1772 3097 
Q 1472 3097 1187 3025 
Q 903 2953 641 2809 
L 641 3341 
Q 956 3463 1253 3523 
Q 1550 3584 1831 3584 
Q 2591 3584 2966 3190 
Q 3341 2797 3341 1997 
z
" transform="scale(0.015625)"/>
      <path id="DejaVuSans-70" d="M 1159 525 
L 1159 -1331 
L 581 -1331 
L 581 3500 
L 1159 3500 
L 1159 2969 
Q 1341 3281 1617 3432 
Q 1894 3584 2278 3584 
Q 2916 3584 3314 3078 
Q 3713 2572 3713 1747 
Q 3713 922 3314 415 
Q 2916 -91 2278 -91 
Q 1894 -91 1617 61 
Q 1341 213 1159 525 
z
M 3116 1747 
Q 3116 2381 2855 2742 
Q 2594 3103 2138 3103 
Q 1681 3103 1420 2742 
Q 1159 2381 1159 1747 
Q 1159 1113 1420 752 
Q 1681 391 2138 391 
Q 2594 391 2855 752 
Q 3116 1113 3116 1747 
z
" transform="scale(0.015625)"/>
      <path id="DejaVuSans-73" d="M 2834 3397 
L 2834 2853 
Q 2591 2978 2328 3040 
Q 2066 3103 1784 3103 
Q 1356 3103 1142 2972 
Q 928 2841 928 2578 
Q 928 2378 1081 2264 
Q 1234 2150 1697 2047 
L 1894 2003 
Q 2506 1872 2764 1633 
Q 3022 1394 3022 966 
Q 3022 478 2636 193 
Q 2250 -91 1575 -91 
Q 1294 -91 989 -36 
Q 684 19 347 128 
L 347 722 
Q 666 556 975 473 
Q 1284 391 1588 391 
Q 1994 391 2212 530 
Q 2431 669 2431 922 
Q 2431 1156 2273 1281 
Q 2116 1406 1581 1522 
L 1381 1569 
Q 847 1681 609 1914 
Q 372 2147 372 2553 
Q 372 3047 722 3315 
Q 1072 3584 1716 3584 
Q 2034 3584 2315 3537 
Q 2597 3491 2834 3397 
z
" transform="scale(0.015625)"/>
      <path id="DejaVuSans-74" d="M 1172 4494 
L 1172 3500 
L 2356 3500 
L 2356 3053 
L 1172 3053 
L 1172 1153 
Q 1172 725 1289 603 
Q 1406 481 1766 481 
L 2356 481 
L 2356 0 
L 1766 0 
Q 1100 0 847 248 
Q 594 497 594 1153 
L 594 3053 
L 172 3053 
L 172 3500 
L 594 3500 
L 594 4494 
L 1172 4494 
z
" transform="scale(0.015625)"/>
      <path id="DejaVuSans-6f" d="M 1959 3097 
Q 1497 3097 1228 2736 
Q 959 2375 959 1747 
Q 959 1119 1226 758 
Q 1494 397 1959 397 
Q 2419 397 2687 759 
Q 2956 1122 2956 1747 
Q 2956 2369 2687 2733 
Q 2419 3097 1959 3097 
z
M 1959 3584 
Q 2709 3584 3137 3096 
Q 3566 2609 3566 1747 
Q 3566 888 3137 398 
Q 2709 -91 1959 -91 
Q 1206 -91 779 398 
Q 353 888 353 1747 
Q 353 2609 779 3096 
Q 1206 3584 1959 3584 
z
" transform="scale(0.015625)"/>
      <path id="DejaVuSans-69" d="M 603 3500 
L 1178 3500 
L 1178 0 
L 603 0 
L 603 3500 
z
M 603 4863 
L 1178 4863 
L 1178 4134 
L 603 4134 
L 603 4863 
z
" transform="scale(0.015625)"/>
      <path id="DejaVuSans-6e" d="M 3513 2113 
L 3513 0 
L 2938 0 
L 2938 2094 
Q 2938 2591 2744 2837 
Q 2550 3084 2163 3084 
Q 1697 3084 1428 2787 
Q 1159 2491 1159 1978 
L 1159 0 
L 581 0 
L 581 3500 
L 1159 3500 
L 1159 2956 
Q 1366 3272 1645 3428 
Q 1925 3584 2291 3584 
Q 2894 3584 3203 3211 
Q 3513 2838 3513 2113 
z
" transform="scale(0.015625)"/>
      <path id="DejaVuSans-46" d="M 628 4666 
L 3309 4666 
L 3309 4134 
L 1259 4134 
L 1259 2759 
L 3109 2759 
L 3109 2228 
L 1259 2228 
L 1259 0 
L 628 0 
L 628 4666 
z
" transform="scale(0.015625)"/>
      <path id="DejaVuSans-5f" d="M 3263 -1063 
L 3263 -1509 
L -63 -1509 
L -63 -1063 
L 3263 -1063 
z
" transform="scale(0.015625)"/>
     </defs>
     <use xlink:href="#DejaVuSans-31"/>
     <use xlink:href="#DejaVuSans-34" transform="translate(63.623047 0)"/>
     <use xlink:href="#DejaVuSans-20" transform="translate(127.246094 0)"/>
     <use xlink:href="#DejaVuSans-2b" transform="translate(159.033203 0)"/>
     <use xlink:href="#DejaVuSans-20" transform="translate(242.822266 0)"/>
     <use xlink:href="#DejaVuSans-35" transform="translate(274.609375 0)"/>
     <use xlink:href="#DejaVuSans-20" transform="translate(338.232422 0)"/>
     <use xlink:href="#DejaVuSans-77" transform="translate(370.019531 0)"/>
     <use xlink:href="#DejaVuSans-72" transform="translate(451.806641 0)"/>
     <use xlink:href="#DejaVuSans-61" transform="translate(492.919922 0)"/>
     <use xlink:href="#DejaVuSans-70" transform="translate(554.199219 0)"/>
     <use xlink:href="#DejaVuSans-73" transform="translate(617.675781 0)"/>
     <use xlink:href="#DejaVuSans-20" transform="translate(669.775391 0)"/>
     <use xlink:href="#DejaVuSans-74" transform="translate(701.5625 0)"/>
     <use xlink:href="#DejaVuSans-6f" transform="translate(740.771484 0)"/>
     <use xlink:href="#DejaVuSans-20" transform="translate(801.953125 0)"/>
     <use xlink:href="#DejaVuSans-32" transform="translate(833.740234 0)"/>
     <use xlink:href="#DejaVuSans-20" transform="translate(897.363281 0)"/>
     <use xlink:href="#DejaVuSans-69" transform="translate(929.150391 0)"/>
     <use xlink:href="#DejaVuSans-6e" transform="translate(956.933594 0)"/>
     <use xlink:href="#DejaVuSans-20" transform="translate(1020.3125 0)"/>
     <use xlink:href="#DejaVuSans-46" transform="translate(1052.099609 0)"/>
     <use xlink:href="#DejaVuSans-5f" transform="translate(1109.619141 0)"/>
     <use xlink:href="#DejaVuSans-31" transform="translate(1159.619141 0)"/>
     <use xlink:href="#DejaVuSans-37" transform="translate(1223.242188 0)"/>
    </g>
   </g>
   <g id="text_18">
    <!-- 5 * 7 = 1, so 7 is inverse of 5 -->
    <g style="fill: #0000ff" transform="translate(64.107061 341.851683) scale(0.1 -0.1)">
     <defs>
      <path id="DejaVuSans-2a" d="M 3009 3897 
L 1888 3291 
L 3009 2681 
L 2828 2375 
L 1778 3009 
L 1778 1831 
L 1422 1831 
L 1422 3009 
L 372 2375 
L 191 2681 
L 1313 3291 
L 191 3897 
L 372 4206 
L 1422 3572 
L 1422 4750 
L 1778 4750 
L 1778 3572 
L 2828 4206 
L 3009 3897 
z
" transform="scale(0.015625)"/>
      <path id="DejaVuSans-3d" d="M 678 2906 
L 4684 2906 
L 4684 2381 
L 678 2381 
L 678 2906 
z
M 678 1631 
L 4684 1631 
L 4684 1100 
L 678 1100 
L 678 1631 
z
" transform="scale(0.015625)"/>
      <path id="DejaVuSans-2c" d="M 750 794 
L 1409 794 
L 1409 256 
L 897 -744 
L 494 -744 
L 750 256 
L 750 794 
z
" transform="scale(0.015625)"/>
      <path id="DejaVuSans-76" d="M 191 3500 
L 800 3500 
L 1894 563 
L 2988 3500 
L 3597 3500 
L 2284 0 
L 1503 0 
L 191 3500 
z
" transform="scale(0.015625)"/>
      <path id="DejaVuSans-65" d="M 3597 1894 
L 3597 1613 
L 953 1613 
Q 991 1019 1311 708 
Q 1631 397 2203 397 
Q 2534 397 2845 478 
Q 3156 559 3463 722 
L 3463 178 
Q 3153 47 2828 -22 
Q 2503 -91 2169 -91 
Q 1331 -91 842 396 
Q 353 884 353 1716 
Q 353 2575 817 3079 
Q 1281 3584 2069 3584 
Q 2775 3584 3186 3129 
Q 3597 2675 3597 1894 
z
M 3022 2063 
Q 3016 2534 2758 2815 
Q 2500 3097 2075 3097 
Q 1594 3097 1305 2825 
Q 1016 2553 972 2059 
L 3022 2063 
z
" transform="scale(0.015625)"/>
      <path id="DejaVuSans-66" d="M 2375 4863 
L 2375 4384 
L 1825 4384 
Q 1516 4384 1395 4259 
Q 1275 4134 1275 3809 
L 1275 3500 
L 2222 3500 
L 2222 3053 
L 1275 3053 
L 1275 0 
L 697 0 
L 697 3053 
L 147 3053 
L 147 3500 
L 697 3500 
L 697 3744 
Q 697 4328 969 4595 
Q 1241 4863 1831 4863 
L 2375 4863 
z
" transform="scale(0.015625)"/>
     </defs>
     <use xlink:href="#DejaVuSans-35"/>
     <use xlink:href="#DejaVuSans-20" transform="translate(63.623047 0)"/>
     <use xlink:href="#DejaVuSans-2a" transform="translate(95.410156 0)"/>
     <use xlink:href="#DejaVuSans-20" transform="translate(145.410156 0)"/>
     <use xlink:href="#DejaVuSans-37" transform="translate(177.197266 0)"/>
     <use xlink:href="#DejaVuSans-20" transform="translate(240.820312 0)"/>
     <use xlink:href="#DejaVuSans-3d" transform="translate(272.607422 0)"/>
     <use xlink:href="#DejaVuSans-20" transform="translate(356.396484 0)"/>
     <use xlink:href="#DejaVuSans-31" transform="translate(388.183594 0)"/>
     <use xlink:href="#DejaVuSans-2c" transform="translate(451.806641 0)"/>
     <use xlink:href="#DejaVuSans-20" transform="translate(483.59375 0)"/>
     <use xlink:href="#DejaVuSans-73" transform="translate(515.380859 0)"/>
     <use xlink:href="#DejaVuSans-6f" transform="translate(567.480469 0)"/>
     <use xlink:href="#DejaVuSans-20" transform="translate(628.662109 0)"/>
     <use xlink:href="#DejaVuSans-37" transform="translate(660.449219 0)"/>
     <use xlink:href="#DejaVuSans-20" transform="translate(724.072266 0)"/>
     <use xlink:href="#DejaVuSans-69" transform="translate(755.859375 0)"/>
     <use xlink:href="#DejaVuSans-73" transform="translate(783.642578 0)"/>
     <use xlink:href="#DejaVuSans-20" transform="translate(835.742188 0)"/>
     <use xlink:href="#DejaVuSans-69" transform="translate(867.529297 0)"/>
     <use xlink:href="#DejaVuSans-6e" transform="translate(895.3125 0)"/>
     <use xlink:href="#DejaVuSans-76" transform="translate(958.691406 0)"/>
     <use xlink:href="#DejaVuSans-65" transform="translate(1017.871094 0)"/>
     <use xlink:href="#DejaVuSans-72" transform="translate(1079.394531 0)"/>
     <use xlink:href="#DejaVuSans-73" transform="translate(1120.507812 0)"/>
     <use xlink:href="#DejaVuSans-65" transform="translate(1172.607422 0)"/>
     <use xlink:href="#DejaVuSans-20" transform="translate(1234.130859 0)"/>
     <use xlink:href="#DejaVuSans-6f" transform="translate(1265.917969 0)"/>
     <use xlink:href="#DejaVuSans-66" transform="translate(1327.099609 0)"/>
     <use xlink:href="#DejaVuSans-20" transform="translate(1362.304688 0)"/>
     <use xlink:href="#DejaVuSans-35" transform="translate(1394.091797 0)"/>
    </g>
   </g>
   <g id="patch_6">
    <path d="M 136.990655 262.620296 
C 168.191601 262.620296 198.118837 250.224029 220.181237 228.161629 
C 242.243637 206.099229 254.639904 176.171993 254.639904 144.971047 
C 254.639904 113.770102 242.243637 83.842866 220.181237 61.780465 
C 198.118837 39.718065 168.191601 27.321798 136.990655 27.321798 
C 105.78971 27.321798 75.862474 39.718065 53.800073 61.780465 
C 31.737673 83.842866 19.341406 113.770102 19.341406 144.971047 
C 19.341406 176.171993 31.737673 206.099229 53.800073 228.161629 
C 75.862474 250.224029 105.78971 262.620296 136.990655 262.620296 
L 136.990655 262.620296 
z
" clip-path="url(#pcddce6cc08)" style="fill: none; stroke: #808080; stroke-linejoin: miter"/>
   </g>
  </g>
 </g>
 <defs>
  <clipPath id="pcddce6cc08">
   <rect x="14.258959" y="7.2" width="264.287273" height="338.4"/>
  </clipPath>
 </defs>
</svg>
