<?xml version="1.0" encoding="UTF-8"?>
<svg xmlns="http://www.w3.org/2000/svg" xmlns:xlink="http://www.w3.org/1999/xlink" width="854" height="480" viewBox="0 0 854 480">
<defs>
<g>
<g id="glyph-0-0">
<path d="M 1.109375 0 L 1.109375 -0.40625 L 2.09375 -0.40625 L 2.09375 -5.125 L 0.953125 -4.375 L 0.953125 -4.875 L 2.328125 -5.78125 L 2.859375 -5.78125 L 2.859375 -0.40625 L 3.84375 -0.40625 L 3.84375 0 Z "/>
</g>
<g id="glyph-0-1">
<path d="M 2.71875 -1.921875 L 2.71875 -4.9375 L 0.78125 -1.921875 Z M 4.390625 0 L 1.8125 0 L 1.8125 -0.40625 L 2.71875 -0.40625 L 2.71875 -1.515625 L 0.234375 -1.515625 L 0.234375 -1.9375 L 2.71875 -5.78125 L 3.46875 -5.78125 L 3.46875 -1.921875 L 4.5625 -1.921875 L 4.5625 -1.515625 L 3.46875 -1.515625 L 3.46875 -0.40625 L 4.390625 -0.40625 Z "/>
</g>
<g id="glyph-0-2">
</g>
<g id="glyph-0-3">
<path d="M 3.5625 -4.875 L 3.5625 -2.75 L 5.703125 -2.75 L 5.703125 -2.125 L 3.5625 -2.125 L 3.5625 0 L 2.953125 0 L 2.953125 -2.125 L 0.828125 -2.125 L 0.828125 -2.75 L 2.953125 -2.75 L 2.953125 -4.875 Z "/>
</g>
<g id="glyph-0-4">
<path d="M 3.90625 -5.671875 L 3.90625 -5.046875 L 1.3125 -5.046875 L 1.3125 -3.421875 C 1.445312 -3.515625 1.601562 -3.582031 1.78125 -3.625 C 1.957031 -3.675781 2.148438 -3.703125 2.359375 -3.703125 C 2.972656 -3.703125 3.457031 -3.53125 3.8125 -3.1875 C 4.164062 -2.84375 4.34375 -2.378906 4.34375 -1.796875 C 4.34375 -1.191406 4.164062 -0.722656 3.8125 -0.390625 C 3.457031 -0.0546875 2.953125 0.109375 2.296875 0.109375 C 2.035156 0.109375 1.769531 0.078125 1.5 0.015625 C 1.226562 -0.046875 0.945312 -0.144531 0.65625 -0.28125 L 0.65625 -1.375 L 1.09375 -1.375 C 1.113281 -1.007812 1.226562 -0.734375 1.4375 -0.546875 C 1.644531 -0.359375 1.929688 -0.265625 2.296875 -0.265625 C 2.703125 -0.265625 3.007812 -0.394531 3.21875 -0.65625 C 3.4375 -0.925781 3.546875 -1.304688 3.546875 -1.796875 C 3.546875 -2.285156 3.4375 -2.660156 3.21875 -2.921875 C 3.007812 -3.191406 2.703125 -3.328125 2.296875 -3.328125 C 2.066406 -3.328125 1.863281 -3.285156 1.6875 -3.203125 C 1.519531 -3.117188 1.367188 -2.992188 1.234375 -2.828125 L 0.90625 -2.828125 L 0.90625 -5.671875 Z "/>
</g>
<g id="glyph-0-5">
<path d="M 3.734375 -4.03125 L 4.765625 -0.890625 L 5.6875 -3.625 L 5.09375 -3.625 L 5.09375 -4.03125 L 6.5625 -4.03125 L 6.5625 -3.625 L 6.109375 -3.625 L 4.90625 0 L 4.328125 0 L 3.328125 -3.015625 L 2.328125 0 L 1.78125 0 L 0.578125 -3.625 L 0.125 -3.625 L 0.125 -4.03125 L 1.953125 -4.03125 L 1.953125 -3.625 L 1.296875 -3.625 L 2.203125 -0.890625 L 3.25 -4.03125 Z "/>
</g>
<g id="glyph-0-6">
<path d="M 3.71875 -4.046875 L 3.71875 -3.03125 L 3.3125 -3.03125 C 3.300781 -3.226562 3.242188 -3.375 3.140625 -3.46875 C 3.046875 -3.570312 2.90625 -3.625 2.71875 -3.625 C 2.375 -3.625 2.109375 -3.503906 1.921875 -3.265625 C 1.742188 -3.035156 1.65625 -2.695312 1.65625 -2.25 L 1.65625 -0.40625 L 2.453125 -0.40625 L 2.453125 0 L 0.3125 0 L 0.3125 -0.40625 L 0.953125 -0.40625 L 0.953125 -3.640625 L 0.28125 -3.640625 L 0.28125 -4.03125 L 1.65625 -4.03125 L 1.65625 -3.328125 C 1.789062 -3.609375 1.960938 -3.816406 2.171875 -3.953125 C 2.390625 -4.085938 2.65625 -4.15625 2.96875 -4.15625 C 3.082031 -4.15625 3.203125 -4.144531 3.328125 -4.125 C 3.453125 -4.101562 3.582031 -4.078125 3.71875 -4.046875 Z "/>
</g>
<g id="glyph-0-7">
<path d="M 3.09375 -1.265625 L 3.09375 -2.125 L 2.203125 -2.125 C 1.847656 -2.125 1.585938 -2.046875 1.421875 -1.890625 C 1.253906 -1.742188 1.171875 -1.519531 1.171875 -1.21875 C 1.171875 -0.9375 1.253906 -0.710938 1.421875 -0.546875 C 1.597656 -0.378906 1.832031 -0.296875 2.125 -0.296875 C 2.414062 -0.296875 2.648438 -0.382812 2.828125 -0.5625 C 3.003906 -0.738281 3.09375 -0.972656 3.09375 -1.265625 Z M 3.796875 -2.515625 L 3.796875 -0.40625 L 4.421875 -0.40625 L 4.421875 0 L 3.09375 0 L 3.09375 -0.4375 C 2.9375 -0.25 2.753906 -0.109375 2.546875 -0.015625 C 2.347656 0.0664062 2.113281 0.109375 1.84375 0.109375 C 1.394531 0.109375 1.039062 -0.0078125 0.78125 -0.25 C 0.519531 -0.488281 0.390625 -0.8125 0.390625 -1.21875 C 0.390625 -1.632812 0.539062 -1.957031 0.84375 -2.1875 C 1.144531 -2.414062 1.566406 -2.53125 2.109375 -2.53125 L 3.09375 -2.53125 L 3.09375 -2.8125 C 3.09375 -3.113281 3 -3.347656 2.8125 -3.515625 C 2.625 -3.679688 2.363281 -3.765625 2.03125 -3.765625 C 1.75 -3.765625 1.523438 -3.703125 1.359375 -3.578125 C 1.203125 -3.453125 1.101562 -3.265625 1.0625 -3.015625 L 0.703125 -3.015625 L 0.703125 -3.84375 C 0.941406 -3.945312 1.175781 -4.023438 1.40625 -4.078125 C 1.632812 -4.128906 1.859375 -4.15625 2.078125 -4.15625 C 2.640625 -4.15625 3.066406 -4.015625 3.359375 -3.734375 C 3.648438 -3.453125 3.796875 -3.046875 3.796875 -2.515625 Z "/>
</g>
<g id="glyph-0-8">
<path d="M 1.59375 -2.21875 L 1.59375 -1.8125 C 1.59375 -1.332031 1.6875 -0.960938 1.875 -0.703125 C 2.0625 -0.453125 2.332031 -0.328125 2.6875 -0.328125 C 3.039062 -0.328125 3.304688 -0.46875 3.484375 -0.75 C 3.671875 -1.039062 3.765625 -1.460938 3.765625 -2.015625 C 3.765625 -2.578125 3.671875 -3 3.484375 -3.28125 C 3.304688 -3.570312 3.039062 -3.71875 2.6875 -3.71875 C 2.332031 -3.71875 2.0625 -3.585938 1.875 -3.328125 C 1.6875 -3.066406 1.59375 -2.695312 1.59375 -2.21875 Z M 0.890625 -3.625 L 0.21875 -3.625 L 0.21875 -4.03125 L 1.59375 -4.03125 L 1.59375 -3.40625 C 1.726562 -3.65625 1.898438 -3.84375 2.109375 -3.96875 C 2.328125 -4.09375 2.59375 -4.15625 2.90625 -4.15625 C 3.394531 -4.15625 3.796875 -3.957031 4.109375 -3.5625 C 4.429688 -3.164062 4.59375 -2.648438 4.59375 -2.015625 C 4.59375 -1.390625 4.429688 -0.878906 4.109375 -0.484375 C 3.796875 -0.0859375 3.394531 0.109375 2.90625 0.109375 C 2.59375 0.109375 2.328125 0.0507812 2.109375 -0.0625 C 1.898438 -0.1875 1.726562 -0.375 1.59375 -0.625 L 1.59375 1.21875 L 2.25 1.21875 L 2.25 1.625 L 0.21875 1.625 L 0.21875 1.21875 L 0.890625 1.21875 Z "/>
</g>
<g id="glyph-0-9">
<path d="M 0.4375 -0.21875 L 0.4375 -1.171875 L 0.84375 -1.171875 C 0.851562 -0.867188 0.945312 -0.640625 1.125 -0.484375 C 1.300781 -0.335938 1.566406 -0.265625 1.921875 -0.265625 C 2.234375 -0.265625 2.46875 -0.320312 2.625 -0.4375 C 2.789062 -0.5625 2.875 -0.734375 2.875 -0.953125 C 2.875 -1.128906 2.8125 -1.269531 2.6875 -1.375 C 2.570312 -1.488281 2.320312 -1.609375 1.9375 -1.734375 L 1.4375 -1.90625 C 1.082031 -2.019531 0.828125 -2.160156 0.671875 -2.328125 C 0.515625 -2.492188 0.4375 -2.707031 0.4375 -2.96875 C 0.4375 -3.332031 0.570312 -3.617188 0.84375 -3.828125 C 1.113281 -4.046875 1.488281 -4.15625 1.96875 -4.15625 C 2.1875 -4.15625 2.410156 -4.125 2.640625 -4.0625 C 2.878906 -4.007812 3.125 -3.929688 3.375 -3.828125 L 3.375 -2.9375 L 2.96875 -2.9375 C 2.957031 -3.195312 2.863281 -3.398438 2.6875 -3.546875 C 2.519531 -3.691406 2.289062 -3.765625 2 -3.765625 C 1.707031 -3.765625 1.484375 -3.710938 1.328125 -3.609375 C 1.179688 -3.515625 1.109375 -3.363281 1.109375 -3.15625 C 1.109375 -2.976562 1.164062 -2.835938 1.28125 -2.734375 C 1.394531 -2.640625 1.617188 -2.535156 1.953125 -2.421875 L 2.515625 -2.25 C 2.898438 -2.132812 3.175781 -1.988281 3.34375 -1.8125 C 3.507812 -1.632812 3.59375 -1.40625 3.59375 -1.125 C 3.59375 -0.738281 3.445312 -0.4375 3.15625 -0.21875 C 2.863281 0 2.460938 0.109375 1.953125 0.109375 C 1.679688 0.109375 1.421875 0.078125 1.171875 0.015625 C 0.929688 -0.0351562 0.6875 -0.113281 0.4375 -0.21875 Z "/>
</g>
<g id="glyph-0-10">
<path d="M 0.84375 -3.625 L 0.21875 -3.625 L 0.21875 -4.03125 L 0.84375 -4.03125 L 0.84375 -5.296875 L 1.546875 -5.296875 L 1.546875 -4.03125 L 2.859375 -4.03125 L 2.859375 -3.625 L 1.546875 -3.625 L 1.546875 -1.0625 C 1.546875 -0.726562 1.578125 -0.507812 1.640625 -0.40625 C 1.703125 -0.3125 1.820312 -0.265625 2 -0.265625 C 2.1875 -0.265625 2.320312 -0.316406 2.40625 -0.421875 C 2.488281 -0.535156 2.53125 -0.710938 2.53125 -0.953125 L 3.0625 -0.953125 C 3.039062 -0.585938 2.941406 -0.316406 2.765625 -0.140625 C 2.585938 0.0234375 2.316406 0.109375 1.953125 0.109375 C 1.546875 0.109375 1.257812 0.0195312 1.09375 -0.15625 C 0.925781 -0.332031 0.84375 -0.632812 0.84375 -1.0625 Z "/>
</g>
<g id="glyph-0-11">
<path d="M 2.34375 -0.265625 C 2.71875 -0.265625 3 -0.410156 3.1875 -0.703125 C 3.375 -1.003906 3.46875 -1.441406 3.46875 -2.015625 C 3.46875 -2.597656 3.375 -3.035156 3.1875 -3.328125 C 3 -3.617188 2.71875 -3.765625 2.34375 -3.765625 C 1.96875 -3.765625 1.679688 -3.617188 1.484375 -3.328125 C 1.296875 -3.035156 1.203125 -2.597656 1.203125 -2.015625 C 1.203125 -1.441406 1.296875 -1.003906 1.484375 -0.703125 C 1.679688 -0.410156 1.96875 -0.265625 2.34375 -0.265625 Z M 2.34375 0.109375 C 1.75 0.109375 1.273438 -0.0820312 0.921875 -0.46875 C 0.566406 -0.863281 0.390625 -1.378906 0.390625 -2.015625 C 0.390625 -2.660156 0.566406 -3.175781 0.921875 -3.5625 C 1.273438 -3.957031 1.75 -4.15625 2.34375 -4.15625 C 2.925781 -4.15625 3.394531 -3.957031 3.75 -3.5625 C 4.113281 -3.175781 4.296875 -2.660156 4.296875 -2.015625 C 4.296875 -1.378906 4.113281 -0.863281 3.75 -0.46875 C 3.394531 -0.0820312 2.925781 0.109375 2.34375 0.109375 Z "/>
</g>
<g id="glyph-0-12">
<path d="M 1 -4.3125 L 0.5625 -4.3125 L 0.5625 -5.328125 C 0.832031 -5.472656 1.101562 -5.582031 1.375 -5.65625 C 1.65625 -5.738281 1.929688 -5.78125 2.203125 -5.78125 C 2.785156 -5.78125 3.25 -5.632812 3.59375 -5.34375 C 3.9375 -5.0625 4.109375 -4.671875 4.109375 -4.171875 C 4.109375 -3.617188 3.71875 -2.957031 2.9375 -2.1875 C 2.882812 -2.125 2.84375 -2.082031 2.8125 -2.0625 L 1.375 -0.625 L 3.75 -0.625 L 3.75 -1.328125 L 4.1875 -1.328125 L 4.1875 0 L 0.53125 0 L 0.53125 -0.421875 L 2.25 -2.125 C 2.625 -2.507812 2.894531 -2.859375 3.0625 -3.171875 C 3.226562 -3.492188 3.3125 -3.828125 3.3125 -4.171875 C 3.3125 -4.554688 3.207031 -4.859375 3 -5.078125 C 2.800781 -5.296875 2.53125 -5.40625 2.1875 -5.40625 C 1.820312 -5.40625 1.539062 -5.3125 1.34375 -5.125 C 1.144531 -4.945312 1.03125 -4.675781 1 -4.3125 Z "/>
</g>
</g>
</defs>
<g fill="rgb(98.823529%, 38.431373%, 33.333333%)" fill-opacity="1">
<use xlink:href="#glyph-0-0" x="30" y="27.21875"/>
<use xlink:href="#glyph-0-1" x="35" y="27.21875"/>
<use xlink:href="#glyph-0-2" x="40" y="27.21875"/>
<use xlink:href="#glyph-0-3" x="42" y="27.21875"/>
<use xlink:href="#glyph-0-2" x="49" y="27.21875"/>
<use xlink:href="#glyph-0-4" x="51" y="27.21875"/>
<use xlink:href="#glyph-0-2" x="56" y="27.21875"/>
<use xlink:href="#glyph-0-5" x="58" y="27.21875"/>
<use xlink:href="#glyph-0-6" x="65" y="27.21875"/>
<use xlink:href="#glyph-0-7" x="69" y="27.21875"/>
<use xlink:href="#glyph-0-8" x="74" y="27.21875"/>
<use xlink:href="#glyph-0-9" x="79" y="27.21875"/>
<use xlink:href="#glyph-0-2" x="83" y="27.21875"/>
<use xlink:href="#glyph-0-10" x="85" y="27.21875"/>
<use xlink:href="#glyph-0-11" x="88" y="27.21875"/>
<use xlink:href="#glyph-0-2" x="93" y="27.21875"/>
<use xlink:href="#glyph-0-12" x="95" y="27.21875"/>
</g>
</svg>
