<?xml version="1.0" encoding="UTF-8"?>
<svg xmlns="http://www.w3.org/2000/svg" xmlns:xlink="http://www.w3.org/1999/xlink" width="854" height="480" viewBox="0 0 854 480">
<defs>
<g>
<g id="glyph-0-0">
<path d="M 1.515625 -2.265625 L 2.296875 -2.265625 C 2.585938 -2.265625 2.8125 -2.34375 2.96875 -2.5 C 3.125 -2.664062 3.203125 -2.898438 3.203125 -3.203125 C 3.203125 -3.503906 3.125 -3.734375 2.96875 -3.890625 C 2.8125 -4.054688 2.585938 -4.140625 2.296875 -4.140625 L 1.515625 -4.140625 Z M 0.34375 0 L 0.34375 -0.3125 L 0.90625 -0.3125 L 0.90625 -4.140625 L 0.34375 -4.140625 L 0.34375 -4.453125 L 2.4375 -4.453125 C 2.882812 -4.453125 3.238281 -4.335938 3.5 -4.109375 C 3.757812 -3.890625 3.890625 -3.585938 3.890625 -3.203125 C 3.890625 -2.816406 3.757812 -2.507812 3.5 -2.28125 C 3.238281 -2.0625 2.882812 -1.953125 2.4375 -1.953125 L 1.515625 -1.953125 L 1.515625 -0.3125 L 2.203125 -0.3125 L 2.203125 0 Z "/>
</g>
<g id="glyph-0-1">
<path d="M 2.796875 -3.828125 L 2.796875 -2.15625 L 4.46875 -2.15625 L 4.46875 -1.671875 L 2.796875 -1.671875 L 2.796875 0 L 2.328125 0 L 2.328125 -1.671875 L 0.640625 -1.671875 L 0.640625 -2.15625 L 2.328125 -2.15625 L 2.328125 -3.828125 Z "/>
</g>
<g id="glyph-0-2">
<path d="M 2.578125 0.09375 C 1.890625 0.09375 1.34375 -0.113281 0.9375 -0.53125 C 0.539062 -0.957031 0.34375 -1.519531 0.34375 -2.21875 C 0.34375 -2.582031 0.394531 -2.90625 0.5 -3.1875 C 0.613281 -3.46875 0.78125 -3.722656 1 -3.953125 C 1.195312 -4.140625 1.421875 -4.28125 1.671875 -4.375 C 1.921875 -4.476562 2.195312 -4.53125 2.5 -4.53125 C 3.144531 -4.53125 3.664062 -4.316406 4.0625 -3.890625 C 4.46875 -3.472656 4.671875 -2.914062 4.671875 -2.21875 C 4.671875 -1.632812 4.519531 -1.140625 4.21875 -0.734375 C 3.925781 -0.335938 3.515625 -0.0820312 2.984375 0.03125 C 3.085938 0.164062 3.21875 0.265625 3.375 0.328125 C 3.53125 0.390625 3.71875 0.421875 3.9375 0.421875 L 4.03125 0.421875 L 4.03125 0.984375 C 3.6875 0.960938 3.394531 0.878906 3.15625 0.734375 C 2.914062 0.585938 2.722656 0.375 2.578125 0.09375 Z M 2.5 -0.234375 C 2.988281 -0.234375 3.359375 -0.398438 3.609375 -0.734375 C 3.859375 -1.066406 3.984375 -1.5625 3.984375 -2.21875 C 3.984375 -2.875 3.859375 -3.367188 3.609375 -3.703125 C 3.359375 -4.046875 2.988281 -4.21875 2.5 -4.21875 C 2.007812 -4.21875 1.640625 -4.046875 1.390625 -3.703125 C 1.148438 -3.367188 1.03125 -2.875 1.03125 -2.21875 C 1.03125 -1.5625 1.148438 -1.066406 1.390625 -0.734375 C 1.640625 -0.398438 2.007812 -0.234375 2.5 -0.234375 Z "/>
</g>
<g id="glyph-0-3">
</g>
<g id="glyph-0-4">
<path d="M 0.640625 -2.765625 L 4.46875 -2.765625 L 4.46875 -2.28125 L 0.640625 -2.28125 Z M 0.640625 -1.546875 L 4.46875 -1.546875 L 4.46875 -1.0625 L 0.640625 -1.0625 Z "/>
</g>
<g id="glyph-0-5">
<path d="M 0.53125 -4.640625 L 1.90625 -4.640625 L 1.90625 -4.328125 L 1.09375 -4.328125 L 1.09375 0.484375 L 1.90625 0.484375 L 1.90625 0.8125 L 0.53125 0.8125 Z "/>
</g>
<g id="glyph-0-6">
<path d="M 2.84375 -1.21875 C 2.84375 -1.53125 2.765625 -1.773438 2.609375 -1.953125 C 2.453125 -2.128906 2.226562 -2.21875 1.9375 -2.21875 C 1.65625 -2.21875 1.429688 -2.128906 1.265625 -1.953125 C 1.109375 -1.773438 1.03125 -1.53125 1.03125 -1.21875 C 1.03125 -0.894531 1.109375 -0.644531 1.265625 -0.46875 C 1.429688 -0.289062 1.65625 -0.203125 1.9375 -0.203125 C 2.226562 -0.203125 2.453125 -0.289062 2.609375 -0.46875 C 2.765625 -0.644531 2.84375 -0.894531 2.84375 -1.21875 Z M 2.71875 -3.375 C 2.71875 -3.644531 2.648438 -3.851562 2.515625 -4 C 2.378906 -4.15625 2.1875 -4.234375 1.9375 -4.234375 C 1.695312 -4.234375 1.503906 -4.15625 1.359375 -4 C 1.222656 -3.851562 1.15625 -3.644531 1.15625 -3.375 C 1.15625 -3.101562 1.222656 -2.890625 1.359375 -2.734375 C 1.503906 -2.585938 1.695312 -2.515625 1.9375 -2.515625 C 2.1875 -2.515625 2.378906 -2.585938 2.515625 -2.734375 C 2.648438 -2.890625 2.71875 -3.101562 2.71875 -3.375 Z M 2.40625 -2.375 C 2.738281 -2.320312 3 -2.191406 3.1875 -1.984375 C 3.375 -1.785156 3.46875 -1.53125 3.46875 -1.21875 C 3.46875 -0.800781 3.335938 -0.476562 3.078125 -0.25 C 2.816406 -0.0195312 2.4375 0.09375 1.9375 0.09375 C 1.445312 0.09375 1.066406 -0.0195312 0.796875 -0.25 C 0.535156 -0.476562 0.40625 -0.800781 0.40625 -1.21875 C 0.40625 -1.53125 0.5 -1.785156 0.6875 -1.984375 C 0.875 -2.191406 1.140625 -2.320312 1.484375 -2.375 C 1.179688 -2.425781 0.953125 -2.535156 0.796875 -2.703125 C 0.640625 -2.878906 0.5625 -3.101562 0.5625 -3.375 C 0.5625 -3.738281 0.679688 -4.019531 0.921875 -4.21875 C 1.171875 -4.425781 1.507812 -4.53125 1.9375 -4.53125 C 2.375 -4.53125 2.710938 -4.425781 2.953125 -4.21875 C 3.203125 -4.019531 3.328125 -3.738281 3.328125 -3.375 C 3.328125 -3.101562 3.242188 -2.878906 3.078125 -2.703125 C 2.921875 -2.535156 2.695312 -2.425781 2.40625 -2.375 Z "/>
</g>
<g id="glyph-0-7">
<path d="M 1.9375 -0.203125 C 2.238281 -0.203125 2.46875 -0.367188 2.625 -0.703125 C 2.78125 -1.046875 2.859375 -1.550781 2.859375 -2.21875 C 2.859375 -2.894531 2.78125 -3.398438 2.625 -3.734375 C 2.46875 -4.066406 2.238281 -4.234375 1.9375 -4.234375 C 1.632812 -4.234375 1.40625 -4.066406 1.25 -3.734375 C 1.101562 -3.398438 1.03125 -2.894531 1.03125 -2.21875 C 1.03125 -1.550781 1.101562 -1.046875 1.25 -0.703125 C 1.40625 -0.367188 1.632812 -0.203125 1.9375 -0.203125 Z M 1.9375 0.09375 C 1.457031 0.09375 1.082031 -0.109375 0.8125 -0.515625 C 0.539062 -0.921875 0.40625 -1.488281 0.40625 -2.21875 C 0.40625 -2.945312 0.539062 -3.515625 0.8125 -3.921875 C 1.082031 -4.328125 1.457031 -4.53125 1.9375 -4.53125 C 2.425781 -4.53125 2.804688 -4.328125 3.078125 -3.921875 C 3.347656 -3.515625 3.484375 -2.945312 3.484375 -2.21875 C 3.484375 -1.488281 3.347656 -0.921875 3.078125 -0.515625 C 2.804688 -0.109375 2.425781 0.09375 1.9375 0.09375 Z "/>
</g>
<g id="glyph-0-8">
<path d="M 0.21875 0.59375 C 0.40625 0.457031 0.539062 0.296875 0.625 0.109375 C 0.71875 -0.078125 0.765625 -0.300781 0.765625 -0.5625 L 0.765625 -0.671875 L 1.34375 -0.671875 C 1.332031 -0.335938 1.253906 -0.0507812 1.109375 0.1875 C 0.960938 0.4375 0.742188 0.648438 0.453125 0.828125 Z "/>
</g>
<g id="glyph-0-9">
<path d="M 3.453125 -4.15625 L 1.703125 0 L 1.265625 0 L 2.921875 -3.96875 L 0.859375 -3.96875 L 0.859375 -3.421875 L 0.515625 -3.421875 L 0.515625 -4.453125 L 3.453125 -4.453125 Z "/>
</g>
<g id="glyph-0-10">
<path d="M 1.859375 -4.640625 L 1.859375 0.8125 L 0.46875 0.8125 L 0.46875 0.484375 L 1.28125 0.484375 L 1.28125 -4.328125 L 0.46875 -4.328125 L 0.46875 -4.640625 Z "/>
</g>
<g id="glyph-0-11">
<path d="M 0.875 0 L 0.875 -0.3125 L 1.640625 -0.3125 L 1.640625 -4.015625 L 0.75 -3.4375 L 0.75 -3.828125 L 1.828125 -4.53125 L 2.25 -4.53125 L 2.25 -0.3125 L 3.015625 -0.3125 L 3.015625 0 Z "/>
</g>
</g>
</defs>
<g fill="rgb(51.372549%, 75.686275%, 40.392157%)" fill-opacity="1">
<use xlink:href="#glyph-0-0" x="30" y="25.671875"/>
<use xlink:href="#glyph-0-1" x="34" y="25.671875"/>
<use xlink:href="#glyph-0-2" x="39" y="25.671875"/>
<use xlink:href="#glyph-0-3" x="44" y="25.671875"/>
<use xlink:href="#glyph-0-4" x="46" y="25.671875"/>
<use xlink:href="#glyph-0-3" x="51" y="25.671875"/>
<use xlink:href="#glyph-0-5" x="53" y="25.671875"/>
<use xlink:href="#glyph-0-6" x="55" y="25.671875"/>
<use xlink:href="#glyph-0-7" x="59" y="25.671875"/>
<use xlink:href="#glyph-0-8" x="63" y="25.671875"/>
<use xlink:href="#glyph-0-3" x="65" y="25.671875"/>
<use xlink:href="#glyph-0-6" x="67" y="25.671875"/>
<use xlink:href="#glyph-0-9" x="71" y="25.671875"/>
<use xlink:href="#glyph-0-10" x="75" y="25.671875"/>
<use xlink:href="#glyph-0-8" x="77" y="25.671875"/>
<use xlink:href="#glyph-0-3" x="79" y="25.671875"/>
<use xlink:href="#glyph-0-3" x="81" y="25.671875"/>
<use xlink:href="#glyph-0-3" x="83" y="25.671875"/>
<use xlink:href="#glyph-0-9" x="85" y="25.671875"/>
<use xlink:href="#glyph-0-0" x="89" y="25.671875"/>
<use xlink:href="#glyph-0-3" x="93" y="25.671875"/>
<use xlink:href="#glyph-0-4" x="95" y="25.671875"/>
<use xlink:href="#glyph-0-3" x="100" y="25.671875"/>
<use xlink:href="#glyph-0-5" x="102" y="25.671875"/>
<use xlink:href="#glyph-0-6" x="104" y="25.671875"/>
<use xlink:href="#glyph-0-7" x="108" y="25.671875"/>
<use xlink:href="#glyph-0-8" x="112" y="25.671875"/>
<use xlink:href="#glyph-0-3" x="114" y="25.671875"/>
<use xlink:href="#glyph-0-11" x="116" y="25.671875"/>
<use xlink:href="#glyph-0-7" x="120" y="25.671875"/>
<use xlink:href="#glyph-0-10" x="124" y="25.671875"/>
</g>
</svg>
