<?xml version="1.0" encoding="utf-8" standalone="no"?>
<!DOCTYPE svg PUBLIC "-//W3C//DTD SVG 1.1//EN"
  "http://www.w3.org/Graphics/SVG/1.1/DTD/svg11.dtd">
<svg xmlns:xlink="http://www.w3.org/1999/xlink" width="338.4pt" height="338.4pt" viewBox="0 0 338.4 338.4" xmlns="http://www.w3.org/2000/svg" version="1.1">
 <metadata>
  <rdf:RDF xmlns:dc="http://purl.org/dc/elements/1.1/" xmlns:cc="http://creativecommons.org/ns#" xmlns:rdf="http://www.w3.org/1999/02/22-rdf-syntax-ns#">
   <cc:Work>
    <dc:type rdf:resource="http://purl.org/dc/dcmitype/StillImage"/>
    <dc:date>2026-06-14T21:56:54.429179</dc:date>
    <dc:format>image/svg+xml</dc:format>
    <dc:creator>
     <cc:Agent>
      <dc:title>Matplotlib v3.10.9, https://matplotlib.org/</dc:title>
     </cc:Agent>
    </dc:creator>
   </cc:Work>
  </rdf:RDF>
 </metadata>
 <defs>
  <style type="text/css">*{stroke-linejoin: round; stroke-linecap: butt}</style>
 </defs>
 <g id="figure_1">
  <g id="patch_1">
   <path d="M -0 338.4 
L 338.4 338.4 
L 338.4 0 
L -0 0 
z
" style="fill: #ffffff"/>
  </g>
  <g id="axes_1">
   <g id="patch_2">
    <path d="M 7.2 331.2 
L 331.2 331.2 
L 331.2 7.2 
L 7.2 7.2 
z
" style="fill: #ffffff"/>
   </g>
   <g id="PathCollection_1">
    <path d="M 324.96627 173.239528 
C 326.292285 173.239528 327.564169 172.712697 328.501804 171.775062 
C 329.439438 170.837428 329.96627 169.565544 329.96627 168.239528 
C 329.96627 166.913513 329.439438 165.641629 328.501804 164.703994 
C 327.564169 163.76636 326.292285 163.239528 324.96627 163.239528 
C 323.640254 163.239528 322.36837 163.76636 321.430736 164.703994 
C 320.493101 165.641629 319.96627 166.913513 319.96627 168.239528 
C 319.96627 169.565544 320.493101 170.837428 321.430736 171.775062 
C 322.36837 172.712697 323.640254 173.239528 324.96627 173.239528 
z
" clip-path="url(#pfead1dcd6a)" style="fill: #008000"/>
   </g>
   <g id="PathCollection_2">
    <path d="M 24.497076 231.863828 
C 25.823091 231.863828 27.094975 231.336996 28.03261 230.399361 
C 28.970244 229.461727 29.497076 228.189843 29.497076 226.863828 
C 29.497076 225.537812 28.970244 224.265928 28.03261 223.328294 
C 27.094975 222.390659 25.823091 221.863828 24.497076 221.863828 
C 23.17106 221.863828 21.899177 222.390659 20.961542 223.328294 
C 20.023907 224.265928 19.497076 225.537812 19.497076 226.863828 
C 19.497076 228.189843 20.023907 229.461727 20.961542 230.399361 
C 21.899177 231.336996 23.17106 231.863828 24.497076 231.863828 
z
" clip-path="url(#pfead1dcd6a)" style="fill: #800080"/>
   </g>
   <g id="PathCollection_3">
    <path d="M 99.489652 34.89989 
C 100.815667 34.89989 102.087551 34.373059 103.025186 33.435424 
C 103.96282 32.497789 104.489652 31.225906 104.489652 29.89989 
C 104.489652 28.573875 103.96282 27.301991 103.025186 26.364356 
C 102.087551 25.426722 100.815667 24.89989 99.489652 24.89989 
C 98.163636 24.89989 96.891753 25.426722 95.954118 26.364356 
C 95.016483 27.301991 94.489652 28.573875 94.489652 29.89989 
C 94.489652 31.225906 95.016483 32.497789 95.954118 33.435424 
C 96.891753 34.373059 98.163636 34.89989 99.489652 34.89989 
z
" clip-path="url(#pfead1dcd6a)" style="fill: #ff0000"/>
   </g>
   <g id="PathCollection_4">
    <path d="M 292.671384 139.651933 
C 293.51003 139.651933 294.31444 139.318735 294.907452 138.725723 
C 295.500465 138.132711 295.833662 137.328301 295.833662 136.489655 
C 295.833662 135.65101 295.500465 134.8466 294.907452 134.253587 
C 294.31444 133.660575 293.51003 133.327378 292.671384 133.327378 
C 291.832739 133.327378 291.028329 133.660575 290.435316 134.253587 
C 289.842304 134.8466 289.509107 135.65101 289.509107 136.489655 
C 289.509107 137.328301 289.842304 138.132711 290.435316 138.725723 
C 291.028329 139.318735 291.832739 139.651933 292.671384 139.651933 
z
" clip-path="url(#pfead1dcd6a)" style="fill: #0000ff"/>
   </g>
   <g id="PathCollection_5">
    <path d="M 66.60935 248.45635 
C 67.447995 248.45635 68.252405 248.123153 68.845418 247.53014 
C 69.43843 246.937128 69.771627 246.132718 69.771627 245.294072 
C 69.771627 244.455427 69.43843 243.651017 68.845418 243.058005 
C 68.252405 242.464992 67.447995 242.131795 66.60935 242.131795 
C 65.770704 242.131795 64.966294 242.464992 64.373282 243.058005 
C 63.78027 243.651017 63.447072 244.455427 63.447072 245.294072 
C 63.447072 246.132718 63.78027 246.937128 64.373282 247.53014 
C 64.966294 248.123153 65.770704 248.45635 66.60935 248.45635 
z
" clip-path="url(#pfead1dcd6a)" style="fill: #0000ff"/>
   </g>
   <g id="PathCollection_6">
    <path d="M 112.037515 58.136188 
C 112.87616 58.136188 113.68057 57.80299 114.273583 57.209978 
C 114.866595 56.616966 115.199792 55.812556 115.199792 54.97391 
C 115.199792 54.135264 114.866595 53.330854 114.273583 52.737842 
C 113.68057 52.14483 112.87616 51.811632 112.037515 51.811632 
C 111.198869 51.811632 110.394459 52.14483 109.801447 52.737842 
C 109.208434 53.330854 108.875237 54.135264 108.875237 54.97391 
C 108.875237 55.812556 109.208434 56.616966 109.801447 57.209978 
C 110.394459 57.80299 111.198869 58.136188 112.037515 58.136188 
z
" clip-path="url(#pfead1dcd6a)" style="fill: #0000ff"/>
   </g>
   <g id="PathCollection_7">
    <path d="M 52.694375 224.722461 
C 53.533021 224.722461 54.337431 224.389264 54.930443 223.796252 
C 55.523455 223.203239 55.856653 222.398829 55.856653 221.560184 
C 55.856653 220.721538 55.523455 219.917128 54.930443 219.324116 
C 54.337431 218.731103 53.533021 218.397906 52.694375 218.397906 
C 51.855729 218.397906 51.051319 218.731103 50.458307 219.324116 
C 49.865295 219.917128 49.532098 220.721538 49.532098 221.560184 
C 49.532098 222.398829 49.865295 223.203239 50.458307 223.796252 
C 51.051319 224.389264 51.855729 224.722461 52.694375 224.722461 
z
" clip-path="url(#pfead1dcd6a)" style="fill: #0000ff"/>
   </g>
   <g id="PathCollection_8">
    <path d="M 233.632934 282.650747 
C 234.47158 282.650747 235.27599 282.317549 235.869002 281.724537 
C 236.462015 281.131525 236.795212 280.327115 236.795212 279.488469 
C 236.795212 278.649823 236.462015 277.845413 235.869002 277.252401 
C 235.27599 276.659389 234.47158 276.326191 233.632934 276.326191 
C 232.794289 276.326191 231.989879 276.659389 231.396866 277.252401 
C 230.803854 277.845413 230.470657 278.649823 230.470657 279.488469 
C 230.470657 280.327115 230.803854 281.131525 231.396866 281.724537 
C 231.989879 282.317549 232.794289 282.650747 233.632934 282.650747 
z
" clip-path="url(#pfead1dcd6a)" style="fill: #0000ff"/>
   </g>
   <g id="matplotlib.axis_1"/>
   <g id="matplotlib.axis_2"/>
   <g id="patch_3">
    <path d="M 169.2 324.969231 
C 210.510483 324.969231 250.134557 308.556402 279.345479 279.345479 
C 308.556402 250.134557 324.969231 210.510483 324.969231 169.2 
C 324.969231 127.889517 308.556402 88.265443 279.345479 59.054521 
C 250.134557 29.843598 210.510483 13.430769 169.2 13.430769 
C 127.889517 13.430769 88.265443 29.843598 59.054521 59.054521 
C 29.843598 88.265443 13.430769 127.889517 13.430769 169.2 
C 13.430769 210.510483 29.843598 250.134557 59.054521 279.345479 
C 88.265443 308.556402 127.889517 324.969231 169.2 324.969231 
L 169.2 324.969231 
z
" clip-path="url(#pfead1dcd6a)" style="fill: none; stroke: #d3d3d3; stroke-width: 2; stroke-linejoin: miter"/>
   </g>
   <g id="legend_1">
    <g id="patch_4">
     <path d="M 128.353125 191.917188 
L 214.046875 191.917188 
L 214.046875 150.482813 
L 128.353125 150.482813 
z
" style="fill: #4d4d4d; opacity: 0.5; stroke: #4d4d4d; stroke-linejoin: miter"/>
    </g>
    <g id="patch_5">
     <path d="M 126.353125 189.917188 
L 212.046875 189.917188 
L 212.046875 148.482813 
L 126.353125 148.482813 
z
" style="fill: #ffffff; stroke: #cccccc; stroke-linejoin: miter"/>
    </g>
    <g id="PathCollection_9">
     <path d="M 132.603125 162.45625 
C 133.398734 162.45625 134.161865 162.140151 134.724445 161.57757 
C 135.287026 161.01499 135.603125 160.251859 135.603125 159.45625 
C 135.603125 158.660641 135.287026 157.89751 134.724445 157.33493 
C 134.161865 156.772349 133.398734 156.45625 132.603125 156.45625 
C 131.807516 156.45625 131.044385 156.772349 130.481805 157.33493 
C 129.919224 157.89751 129.603125 158.660641 129.603125 159.45625 
C 129.603125 160.251859 129.919224 161.01499 130.481805 161.57757 
C 131.044385 162.140151 131.807516 162.45625 132.603125 162.45625 
z
" style="fill: #008000"/>
    </g>
    <g id="text_1">
     <!-- g -->
     <g transform="translate(137.853125 162.08125) scale(0.1 -0.1)">
      <defs>
       <path id="DejaVuSans-67" d="M 2906 1791 
Q 2906 2416 2648 2759 
Q 2391 3103 1925 3103 
Q 1463 3103 1205 2759 
Q 947 2416 947 1791 
Q 947 1169 1205 825 
Q 1463 481 1925 481 
Q 2391 481 2648 825 
Q 2906 1169 2906 1791 
z
M 3481 434 
Q 3481 -459 3084 -895 
Q 2688 -1331 1869 -1331 
Q 1566 -1331 1297 -1286 
Q 1028 -1241 775 -1147 
L 775 -588 
Q 1028 -725 1275 -790 
Q 1522 -856 1778 -856 
Q 2344 -856 2625 -561 
Q 2906 -266 2906 331 
L 2906 616 
Q 2728 306 2450 153 
Q 2172 0 1784 0 
Q 1141 0 747 490 
Q 353 981 353 1791 
Q 353 2603 747 3093 
Q 1141 3584 1784 3584 
Q 2172 3584 2450 3431 
Q 2728 3278 2906 2969 
L 2906 3500 
L 3481 3500 
L 3481 434 
z
" transform="scale(0.015625)"/>
      </defs>
      <use xlink:href="#DejaVuSans-67"/>
     </g>
    </g>
    <g id="PathCollection_10">
     <path d="M 132.603125 172.334375 
C 133.398734 172.334375 134.161865 172.018276 134.724445 171.455695 
C 135.287026 170.893115 135.603125 170.129984 135.603125 169.334375 
C 135.603125 168.538766 135.287026 167.775635 134.724445 167.213055 
C 134.161865 166.650474 133.398734 166.334375 132.603125 166.334375 
C 131.807516 166.334375 131.044385 166.650474 130.481805 167.213055 
C 129.919224 167.775635 129.603125 168.538766 129.603125 169.334375 
C 129.603125 170.129984 129.919224 170.893115 130.481805 171.455695 
C 131.044385 172.018276 131.807516 172.334375 132.603125 172.334375 
z
" style="fill: #800080"/>
    </g>
    <g id="text_2">
     <!-- h -->
     <g transform="translate(137.853125 171.959375) scale(0.1 -0.1)">
      <defs>
       <path id="DejaVuSans-68" d="M 3513 2113 
L 3513 0 
L 2938 0 
L 2938 2094 
Q 2938 2591 2744 2837 
Q 2550 3084 2163 3084 
Q 1697 3084 1428 2787 
Q 1159 2491 1159 1978 
L 1159 0 
L 581 0 
L 581 4863 
L 1159 4863 
L 1159 2956 
Q 1366 3272 1645 3428 
Q 1925 3584 2291 3584 
Q 2894 3584 3203 3211 
Q 3513 2838 3513 2113 
z
" transform="scale(0.015625)"/>
      </defs>
      <use xlink:href="#DejaVuSans-68"/>
     </g>
    </g>
    <g id="PathCollection_11">
     <path d="M 132.603125 182.2125 
C 133.398734 182.2125 134.161865 181.896401 134.724445 181.33382 
C 135.287026 180.77124 135.603125 180.008109 135.603125 179.2125 
C 135.603125 178.416891 135.287026 177.65376 134.724445 177.09118 
C 134.161865 176.528599 133.398734 176.2125 132.603125 176.2125 
C 131.807516 176.2125 131.044385 176.528599 130.481805 177.09118 
C 129.919224 177.65376 129.603125 178.416891 129.603125 179.2125 
C 129.603125 180.008109 129.919224 180.77124 130.481805 181.33382 
C 131.044385 181.896401 131.807516 182.2125 132.603125 182.2125 
z
" style="fill: #ff0000"/>
    </g>
    <g id="text_3">
     <!-- C = g^m h^r -->
     <g transform="translate(137.853125 181.8375) scale(0.1 -0.1)">
      <defs>
       <path id="DejaVuSans-43" d="M 4122 4306 
L 4122 3641 
Q 3803 3938 3442 4084 
Q 3081 4231 2675 4231 
Q 1875 4231 1450 3742 
Q 1025 3253 1025 2328 
Q 1025 1406 1450 917 
Q 1875 428 2675 428 
Q 3081 428 3442 575 
Q 3803 722 4122 1019 
L 4122 359 
Q 3791 134 3420 21 
Q 3050 -91 2638 -91 
Q 1578 -91 968 557 
Q 359 1206 359 2328 
Q 359 3453 968 4101 
Q 1578 4750 2638 4750 
Q 3056 4750 3426 4639 
Q 3797 4528 4122 4306 
z
" transform="scale(0.015625)"/>
       <path id="DejaVuSans-20" transform="scale(0.015625)"/>
       <path id="DejaVuSans-3d" d="M 678 2906 
L 4684 2906 
L 4684 2381 
L 678 2381 
L 678 2906 
z
M 678 1631 
L 4684 1631 
L 4684 1100 
L 678 1100 
L 678 1631 
z
" transform="scale(0.015625)"/>
       <path id="DejaVuSans-5e" d="M 2988 4666 
L 4684 2925 
L 4056 2925 
L 2681 4159 
L 1306 2925 
L 678 2925 
L 2375 4666 
L 2988 4666 
z
" transform="scale(0.015625)"/>
       <path id="DejaVuSans-6d" d="M 3328 2828 
Q 3544 3216 3844 3400 
Q 4144 3584 4550 3584 
Q 5097 3584 5394 3201 
Q 5691 2819 5691 2113 
L 5691 0 
L 5113 0 
L 5113 2094 
Q 5113 2597 4934 2840 
Q 4756 3084 4391 3084 
Q 3944 3084 3684 2787 
Q 3425 2491 3425 1978 
L 3425 0 
L 2847 0 
L 2847 2094 
Q 2847 2600 2669 2842 
Q 2491 3084 2119 3084 
Q 1678 3084 1418 2786 
Q 1159 2488 1159 1978 
L 1159 0 
L 581 0 
L 581 3500 
L 1159 3500 
L 1159 2956 
Q 1356 3278 1631 3431 
Q 1906 3584 2284 3584 
Q 2666 3584 2933 3390 
Q 3200 3197 3328 2828 
z
" transform="scale(0.015625)"/>
       <path id="DejaVuSans-72" d="M 2631 2963 
Q 2534 3019 2420 3045 
Q 2306 3072 2169 3072 
Q 1681 3072 1420 2755 
Q 1159 2438 1159 1844 
L 1159 0 
L 581 0 
L 581 3500 
L 1159 3500 
L 1159 2956 
Q 1341 3275 1631 3429 
Q 1922 3584 2338 3584 
Q 2397 3584 2469 3576 
Q 2541 3569 2628 3553 
L 2631 2963 
z
" transform="scale(0.015625)"/>
      </defs>
      <use xlink:href="#DejaVuSans-43"/>
      <use xlink:href="#DejaVuSans-20" transform="translate(69.824219 0)"/>
      <use xlink:href="#DejaVuSans-3d" transform="translate(101.611328 0)"/>
      <use xlink:href="#DejaVuSans-20" transform="translate(185.400391 0)"/>
      <use xlink:href="#DejaVuSans-67" transform="translate(217.1875 0)"/>
      <use xlink:href="#DejaVuSans-5e" transform="translate(280.664062 0)"/>
      <use xlink:href="#DejaVuSans-6d" transform="translate(364.453125 0)"/>
      <use xlink:href="#DejaVuSans-20" transform="translate(461.865234 0)"/>
      <use xlink:href="#DejaVuSans-68" transform="translate(493.652344 0)"/>
      <use xlink:href="#DejaVuSans-5e" transform="translate(557.03125 0)"/>
      <use xlink:href="#DejaVuSans-72" transform="translate(640.820312 0)"/>
     </g>
    </g>
   </g>
  </g>
 </g>
 <defs>
  <clipPath id="pfead1dcd6a">
   <rect x="7.2" y="7.2" width="324" height="324"/>
  </clipPath>
 </defs>
</svg>
