<?xml version="1.0" encoding="utf-8" standalone="no"?>
<!DOCTYPE svg PUBLIC "-//W3C//DTD SVG 1.1//EN"
  "http://www.w3.org/Graphics/SVG/1.1/DTD/svg11.dtd">
<svg xmlns:xlink="http://www.w3.org/1999/xlink" width="516.499958pt" height="350.459658pt" viewBox="0 0 516.499958 350.459658" xmlns="http://www.w3.org/2000/svg" version="1.1">
 <metadata>
  <rdf:RDF xmlns:dc="http://purl.org/dc/elements/1.1/" xmlns:cc="http://creativecommons.org/ns#" xmlns:rdf="http://www.w3.org/1999/02/22-rdf-syntax-ns#">
   <cc:Work>
    <dc:type rdf:resource="http://purl.org/dc/dcmitype/StillImage"/>
    <dc:date>2026-06-14T21:57:59.650608</dc:date>
    <dc:format>image/svg+xml</dc:format>
    <dc:creator>
     <cc:Agent>
      <dc:title>Matplotlib v3.10.9, https://matplotlib.org/</dc:title>
     </cc:Agent>
    </dc:creator>
   </cc:Work>
  </rdf:RDF>
 </metadata>
 <defs>
  <style type="text/css">*{stroke-linejoin: round; stroke-linecap: butt}</style>
 </defs>
 <g id="figure_1">
  <g id="patch_1">
   <path d="M 0 350.459658 
L 516.499958 350.459658 
L 516.499958 0 
L 0 0 
z
" style="fill: #ffffff"/>
  </g>
  <g id="axes_1">
   <g id="patch_2">
    <path d="M 7.2 343.259658 
L 509.299958 343.259658 
L 509.299958 7.518119 
L 7.2 7.518119 
z
" style="fill: #ffffff"/>
   </g>
   <g id="PathCollection_1">
    <path d="M 77.931412 95.854617 
C 78.82093 95.854617 79.674136 95.501208 80.30312 94.872223 
C 80.932105 94.243239 81.285514 93.390033 81.285514 92.500515 
C 81.285514 91.610997 80.932105 90.757791 80.30312 90.128807 
C 79.674136 89.499822 78.82093 89.146413 77.931412 89.146413 
C 77.041894 89.146413 76.188688 89.499822 75.559704 90.128807 
C 74.930719 90.757791 74.57731 91.610997 74.57731 92.500515 
C 74.57731 93.390033 74.930719 94.243239 75.559704 94.872223 
C 76.188688 95.501208 77.041894 95.854617 77.931412 95.854617 
z
" clip-path="url(#pfd51640b6f)" style="fill: #0000ff"/>
   </g>
   <g id="PathCollection_2">
    <path d="M 77.931412 258.723 
C 78.82093 258.723 79.674136 258.369591 80.30312 257.740607 
C 80.932105 257.111622 81.285514 256.258417 81.285514 255.368898 
C 81.285514 254.47938 80.932105 253.626174 80.30312 252.99719 
C 79.674136 252.368206 78.82093 252.014796 77.931412 252.014796 
C 77.041894 252.014796 76.188688 252.368206 75.559704 252.99719 
C 74.930719 253.626174 74.57731 254.47938 74.57731 255.368898 
C 74.57731 256.258417 74.930719 257.111622 75.559704 257.740607 
C 76.188688 258.369591 77.041894 258.723 77.931412 258.723 
z
" clip-path="url(#pfd51640b6f)" style="fill: #ff0000"/>
   </g>
   <g id="PathCollection_3">
    <path d="M 426.93509 177.288809 
C 427.824609 177.288809 428.677814 176.935399 429.306799 176.306415 
C 429.935783 175.677431 430.289192 174.824225 430.289192 173.934707 
C 430.289192 173.045188 429.935783 172.191983 429.306799 171.562998 
C 428.677814 170.934014 427.824609 170.580605 426.93509 170.580605 
C 426.045572 170.580605 425.192366 170.934014 424.563382 171.562998 
C 423.934398 172.191983 423.580988 173.045188 423.580988 173.934707 
C 423.580988 174.824225 423.934398 175.677431 424.563382 176.306415 
C 425.192366 176.935399 426.045572 177.288809 426.93509 177.288809 
z
" clip-path="url(#pfd51640b6f)" style="fill: #800080"/>
   </g>
   <g id="matplotlib.axis_1"/>
   <g id="matplotlib.axis_2"/>
   <g id="patch_3">
    <path d="M 136.098692 104.133971 
Q 243.708159 131.763429 350.234718 159.114843 
" clip-path="url(#pfd51640b6f)" style="fill: none; stroke: #808080; stroke-linecap: round"/>
    <path d="M 341.792338 151.785025 
L 350.234718 159.114843 
L 339.305436 161.470855 
z
" clip-path="url(#pfd51640b6f)" style="fill: #808080; stroke: #808080; stroke-linecap: round"/>
   </g>
   <g id="patch_4">
    <path d="M 136.098692 243.735442 
Q 243.708159 216.105984 350.234718 188.754571 
" clip-path="url(#pfd51640b6f)" style="fill: none; stroke: #808080; stroke-linecap: round"/>
    <path d="M 339.305436 186.398558 
L 350.234718 188.754571 
L 341.792338 196.084389 
z
" clip-path="url(#pfd51640b6f)" style="fill: #808080; stroke: #808080; stroke-linecap: round"/>
   </g>
   <g id="text_1">
    <!-- G1 -->
    <g style="fill: #0000ff" transform="translate(68.053756 17.837813) scale(0.14 -0.14)">
     <defs>
      <path id="DejaVuSans-47" d="M 3809 666 
L 3809 1919 
L 2778 1919 
L 2778 2438 
L 4434 2438 
L 4434 434 
Q 4069 175 3628 42 
Q 3188 -91 2688 -91 
Q 1594 -91 976 548 
Q 359 1188 359 2328 
Q 359 3472 976 4111 
Q 1594 4750 2688 4750 
Q 3144 4750 3555 4637 
Q 3966 4525 4313 4306 
L 4313 3634 
Q 3963 3931 3569 4081 
Q 3175 4231 2741 4231 
Q 1884 4231 1454 3753 
Q 1025 3275 1025 2328 
Q 1025 1384 1454 906 
Q 1884 428 2741 428 
Q 3075 428 3337 486 
Q 3600 544 3809 666 
z
" transform="scale(0.015625)"/>
      <path id="DejaVuSans-31" d="M 794 531 
L 1825 531 
L 1825 4091 
L 703 3866 
L 703 4441 
L 1819 4666 
L 2450 4666 
L 2450 531 
L 3481 531 
L 3481 0 
L 794 0 
L 794 531 
z
" transform="scale(0.015625)"/>
     </defs>
     <use xlink:href="#DejaVuSans-47"/>
     <use xlink:href="#DejaVuSans-31" transform="translate(77.490234 0)"/>
    </g>
   </g>
   <g id="text_2">
    <!-- P -->
    <g style="fill: #0000ff" transform="translate(100.488875 78.361581) scale(0.12 -0.12)">
     <defs>
      <path id="DejaVuSans-50" d="M 1259 4147 
L 1259 2394 
L 2053 2394 
Q 2494 2394 2734 2622 
Q 2975 2850 2975 3272 
Q 2975 3691 2734 3919 
Q 2494 4147 2053 4147 
L 1259 4147 
z
M 628 4666 
L 2053 4666 
Q 2838 4666 3239 4311 
Q 3641 3956 3641 3272 
Q 3641 2581 3239 2228 
Q 2838 1875 2053 1875 
L 1259 1875 
L 1259 0 
L 628 0 
L 628 4666 
z
" transform="scale(0.015625)"/>
     </defs>
     <use xlink:href="#DejaVuSans-50"/>
    </g>
   </g>
   <g id="text_3">
    <!-- G2 -->
    <g style="fill: #ff0000" transform="translate(68.053756 337.757851) scale(0.14 -0.14)">
     <defs>
      <path id="DejaVuSans-32" d="M 1228 531 
L 3431 531 
L 3431 0 
L 469 0 
L 469 531 
Q 828 903 1448 1529 
Q 2069 2156 2228 2338 
Q 2531 2678 2651 2914 
Q 2772 3150 2772 3378 
Q 2772 3750 2511 3984 
Q 2250 4219 1831 4219 
Q 1534 4219 1204 4116 
Q 875 4013 500 3803 
L 500 4441 
Q 881 4594 1212 4672 
Q 1544 4750 1819 4750 
Q 2544 4750 2975 4387 
Q 3406 4025 3406 3419 
Q 3406 3131 3298 2873 
Q 3191 2616 2906 2266 
Q 2828 2175 2409 1742 
Q 1991 1309 1228 531 
z
" transform="scale(0.015625)"/>
     </defs>
     <use xlink:href="#DejaVuSans-47"/>
     <use xlink:href="#DejaVuSans-32" transform="translate(77.490234 0)"/>
    </g>
   </g>
   <g id="text_4">
    <!-- Q -->
    <g style="fill: #ff0000" transform="translate(99.383563 241.229964) scale(0.12 -0.12)">
     <defs>
      <path id="DejaVuSans-51" d="M 2522 4238 
Q 1834 4238 1429 3725 
Q 1025 3213 1025 2328 
Q 1025 1447 1429 934 
Q 1834 422 2522 422 
Q 3209 422 3611 934 
Q 4013 1447 4013 2328 
Q 4013 3213 3611 3725 
Q 3209 4238 2522 4238 
z
M 3406 84 
L 4238 -825 
L 3475 -825 
L 2784 -78 
Q 2681 -84 2626 -87 
Q 2572 -91 2522 -91 
Q 1538 -91 948 567 
Q 359 1225 359 2328 
Q 359 3434 948 4092 
Q 1538 4750 2522 4750 
Q 3503 4750 4090 4092 
Q 4678 3434 4678 2328 
Q 4678 1516 4351 937 
Q 4025 359 3406 84 
z
" transform="scale(0.015625)"/>
     </defs>
     <use xlink:href="#DejaVuSans-51"/>
    </g>
   </g>
   <g id="text_5">
    <!-- G_T -->
    <g style="fill: #800080" transform="translate(413.735715 87.320267) scale(0.14 -0.14)">
     <defs>
      <path id="DejaVuSans-5f" d="M 3263 -1063 
L 3263 -1509 
L -63 -1509 
L -63 -1063 
L 3263 -1063 
z
" transform="scale(0.015625)"/>
      <path id="DejaVuSans-54" d="M -19 4666 
L 3928 4666 
L 3928 4134 
L 2272 4134 
L 2272 0 
L 1638 0 
L 1638 4134 
L -19 4134 
L -19 4666 
z
" transform="scale(0.015625)"/>
     </defs>
     <use xlink:href="#DejaVuSans-47"/>
     <use xlink:href="#DejaVuSans-5f" transform="translate(77.490234 0)"/>
     <use xlink:href="#DejaVuSans-54" transform="translate(127.490234 0)"/>
    </g>
   </g>
   <g id="text_6">
    <!-- e(P,Q) -->
    <g style="fill: #800080" transform="translate(409.865325 203.145295) scale(0.11 -0.11)">
     <defs>
      <path id="DejaVuSans-65" d="M 3597 1894 
L 3597 1613 
L 953 1613 
Q 991 1019 1311 708 
Q 1631 397 2203 397 
Q 2534 397 2845 478 
Q 3156 559 3463 722 
L 3463 178 
Q 3153 47 2828 -22 
Q 2503 -91 2169 -91 
Q 1331 -91 842 396 
Q 353 884 353 1716 
Q 353 2575 817 3079 
Q 1281 3584 2069 3584 
Q 2775 3584 3186 3129 
Q 3597 2675 3597 1894 
z
M 3022 2063 
Q 3016 2534 2758 2815 
Q 2500 3097 2075 3097 
Q 1594 3097 1305 2825 
Q 1016 2553 972 2059 
L 3022 2063 
z
" transform="scale(0.015625)"/>
      <path id="DejaVuSans-28" d="M 1984 4856 
Q 1566 4138 1362 3434 
Q 1159 2731 1159 2009 
Q 1159 1288 1364 580 
Q 1569 -128 1984 -844 
L 1484 -844 
Q 1016 -109 783 600 
Q 550 1309 550 2009 
Q 550 2706 781 3412 
Q 1013 4119 1484 4856 
L 1984 4856 
z
" transform="scale(0.015625)"/>
      <path id="DejaVuSans-2c" d="M 750 794 
L 1409 794 
L 1409 256 
L 897 -744 
L 494 -744 
L 750 256 
L 750 794 
z
" transform="scale(0.015625)"/>
      <path id="DejaVuSans-29" d="M 513 4856 
L 1013 4856 
Q 1481 4119 1714 3412 
Q 1947 2706 1947 2009 
Q 1947 1309 1714 600 
Q 1481 -109 1013 -844 
L 513 -844 
Q 928 -128 1133 580 
Q 1338 1288 1338 2009 
Q 1338 2731 1133 3434 
Q 928 4138 513 4856 
z
" transform="scale(0.015625)"/>
     </defs>
     <use xlink:href="#DejaVuSans-65"/>
     <use xlink:href="#DejaVuSans-28" transform="translate(61.523438 0)"/>
     <use xlink:href="#DejaVuSans-50" transform="translate(100.537109 0)"/>
     <use xlink:href="#DejaVuSans-2c" transform="translate(160.839844 0)"/>
     <use xlink:href="#DejaVuSans-51" transform="translate(192.626953 0)"/>
     <use xlink:href="#DejaVuSans-29" transform="translate(271.337891 0)"/>
    </g>
   </g>
   <g id="text_7">
    <!-- e :  G1 x G2  -&gt;  G_T -->
    <g transform="translate(185.412157 25.99142) scale(0.13 -0.13)">
     <defs>
      <path id="DejaVuSans-20" transform="scale(0.015625)"/>
      <path id="DejaVuSans-3a" d="M 750 794 
L 1409 794 
L 1409 0 
L 750 0 
L 750 794 
z
M 750 3309 
L 1409 3309 
L 1409 2516 
L 750 2516 
L 750 3309 
z
" transform="scale(0.015625)"/>
      <path id="DejaVuSans-78" d="M 3513 3500 
L 2247 1797 
L 3578 0 
L 2900 0 
L 1881 1375 
L 863 0 
L 184 0 
L 1544 1831 
L 300 3500 
L 978 3500 
L 1906 2253 
L 2834 3500 
L 3513 3500 
z
" transform="scale(0.015625)"/>
      <path id="DejaVuSans-2d" d="M 313 2009 
L 1997 2009 
L 1997 1497 
L 313 1497 
L 313 2009 
z
" transform="scale(0.015625)"/>
      <path id="DejaVuSans-3e" d="M 678 3150 
L 678 3719 
L 4684 2266 
L 4684 1747 
L 678 294 
L 678 863 
L 3897 2003 
L 678 3150 
z
" transform="scale(0.015625)"/>
     </defs>
     <use xlink:href="#DejaVuSans-65"/>
     <use xlink:href="#DejaVuSans-20" transform="translate(61.523438 0)"/>
     <use xlink:href="#DejaVuSans-3a" transform="translate(93.310547 0)"/>
     <use xlink:href="#DejaVuSans-20" transform="translate(127.001953 0)"/>
     <use xlink:href="#DejaVuSans-20" transform="translate(158.789062 0)"/>
     <use xlink:href="#DejaVuSans-47" transform="translate(190.576172 0)"/>
     <use xlink:href="#DejaVuSans-31" transform="translate(268.066406 0)"/>
     <use xlink:href="#DejaVuSans-20" transform="translate(331.689453 0)"/>
     <use xlink:href="#DejaVuSans-78" transform="translate(363.476562 0)"/>
     <use xlink:href="#DejaVuSans-20" transform="translate(422.65625 0)"/>
     <use xlink:href="#DejaVuSans-47" transform="translate(454.443359 0)"/>
     <use xlink:href="#DejaVuSans-32" transform="translate(531.933594 0)"/>
     <use xlink:href="#DejaVuSans-20" transform="translate(595.556641 0)"/>
     <use xlink:href="#DejaVuSans-20" transform="translate(627.34375 0)"/>
     <use xlink:href="#DejaVuSans-2d" transform="translate(659.130859 0)"/>
     <use xlink:href="#DejaVuSans-3e" transform="translate(695.214844 0)"/>
     <use xlink:href="#DejaVuSans-20" transform="translate(779.003906 0)"/>
     <use xlink:href="#DejaVuSans-20" transform="translate(810.791016 0)"/>
     <use xlink:href="#DejaVuSans-47" transform="translate(842.578125 0)"/>
     <use xlink:href="#DejaVuSans-5f" transform="translate(920.068359 0)"/>
     <use xlink:href="#DejaVuSans-54" transform="translate(970.068359 0)"/>
    </g>
   </g>
   <g id="text_8">
    <!-- e(aP, bQ) = e(P, Q)^(ab) -->
    <g transform="translate(171.638251 340.390277) scale(0.13 -0.13)">
     <defs>
      <path id="DejaVuSans-61" d="M 2194 1759 
Q 1497 1759 1228 1600 
Q 959 1441 959 1056 
Q 959 750 1161 570 
Q 1363 391 1709 391 
Q 2188 391 2477 730 
Q 2766 1069 2766 1631 
L 2766 1759 
L 2194 1759 
z
M 3341 1997 
L 3341 0 
L 2766 0 
L 2766 531 
Q 2569 213 2275 61 
Q 1981 -91 1556 -91 
Q 1019 -91 701 211 
Q 384 513 384 1019 
Q 384 1609 779 1909 
Q 1175 2209 1959 2209 
L 2766 2209 
L 2766 2266 
Q 2766 2663 2505 2880 
Q 2244 3097 1772 3097 
Q 1472 3097 1187 3025 
Q 903 2953 641 2809 
L 641 3341 
Q 956 3463 1253 3523 
Q 1550 3584 1831 3584 
Q 2591 3584 2966 3190 
Q 3341 2797 3341 1997 
z
" transform="scale(0.015625)"/>
      <path id="DejaVuSans-62" d="M 3116 1747 
Q 3116 2381 2855 2742 
Q 2594 3103 2138 3103 
Q 1681 3103 1420 2742 
Q 1159 2381 1159 1747 
Q 1159 1113 1420 752 
Q 1681 391 2138 391 
Q 2594 391 2855 752 
Q 3116 1113 3116 1747 
z
M 1159 2969 
Q 1341 3281 1617 3432 
Q 1894 3584 2278 3584 
Q 2916 3584 3314 3078 
Q 3713 2572 3713 1747 
Q 3713 922 3314 415 
Q 2916 -91 2278 -91 
Q 1894 -91 1617 61 
Q 1341 213 1159 525 
L 1159 0 
L 581 0 
L 581 4863 
L 1159 4863 
L 1159 2969 
z
" transform="scale(0.015625)"/>
      <path id="DejaVuSans-3d" d="M 678 2906 
L 4684 2906 
L 4684 2381 
L 678 2381 
L 678 2906 
z
M 678 1631 
L 4684 1631 
L 4684 1100 
L 678 1100 
L 678 1631 
z
" transform="scale(0.015625)"/>
      <path id="DejaVuSans-5e" d="M 2988 4666 
L 4684 2925 
L 4056 2925 
L 2681 4159 
L 1306 2925 
L 678 2925 
L 2375 4666 
L 2988 4666 
z
" transform="scale(0.015625)"/>
     </defs>
     <use xlink:href="#DejaVuSans-65"/>
     <use xlink:href="#DejaVuSans-28" transform="translate(61.523438 0)"/>
     <use xlink:href="#DejaVuSans-61" transform="translate(100.537109 0)"/>
     <use xlink:href="#DejaVuSans-50" transform="translate(161.816406 0)"/>
     <use xlink:href="#DejaVuSans-2c" transform="translate(222.119141 0)"/>
     <use xlink:href="#DejaVuSans-20" transform="translate(253.90625 0)"/>
     <use xlink:href="#DejaVuSans-62" transform="translate(285.693359 0)"/>
     <use xlink:href="#DejaVuSans-51" transform="translate(349.169922 0)"/>
     <use xlink:href="#DejaVuSans-29" transform="translate(427.880859 0)"/>
     <use xlink:href="#DejaVuSans-20" transform="translate(466.894531 0)"/>
     <use xlink:href="#DejaVuSans-3d" transform="translate(498.681641 0)"/>
     <use xlink:href="#DejaVuSans-20" transform="translate(582.470703 0)"/>
     <use xlink:href="#DejaVuSans-65" transform="translate(614.257812 0)"/>
     <use xlink:href="#DejaVuSans-28" transform="translate(675.78125 0)"/>
     <use xlink:href="#DejaVuSans-50" transform="translate(714.794922 0)"/>
     <use xlink:href="#DejaVuSans-2c" transform="translate(775.097656 0)"/>
     <use xlink:href="#DejaVuSans-20" transform="translate(806.884766 0)"/>
     <use xlink:href="#DejaVuSans-51" transform="translate(838.671875 0)"/>
     <use xlink:href="#DejaVuSans-29" transform="translate(917.382812 0)"/>
     <use xlink:href="#DejaVuSans-5e" transform="translate(956.396484 0)"/>
     <use xlink:href="#DejaVuSans-28" transform="translate(1040.185547 0)"/>
     <use xlink:href="#DejaVuSans-61" transform="translate(1079.199219 0)"/>
     <use xlink:href="#DejaVuSans-62" transform="translate(1140.478516 0)"/>
     <use xlink:href="#DejaVuSans-29" transform="translate(1203.955078 0)"/>
    </g>
   </g>
   <g id="patch_5">
    <path d="M 77.931412 153.576159 
C 94.128862 153.576159 109.665087 147.140844 121.118414 135.687517 
C 132.571741 124.23419 139.007056 108.697965 139.007056 92.500515 
C 139.007056 76.303065 132.571741 60.76684 121.118414 49.313513 
C 109.665087 37.860187 94.128862 31.424871 77.931412 31.424871 
C 61.733962 31.424871 46.197737 37.860187 34.74441 49.313513 
C 23.291084 60.76684 16.855768 76.303065 16.855768 92.500515 
C 16.855768 108.697965 23.291084 124.23419 34.74441 135.687517 
C 46.197737 147.140844 61.733962 153.576159 77.931412 153.576159 
L 77.931412 153.576159 
z
" clip-path="url(#pfd51640b6f)" style="fill: none; stroke: #0000ff; stroke-width: 2; stroke-linejoin: miter"/>
   </g>
   <g id="patch_6">
    <path d="M 77.931412 316.444542 
C 94.128862 316.444542 109.665087 310.009227 121.118414 298.5559 
C 132.571741 287.102573 139.007056 271.566348 139.007056 255.368898 
C 139.007056 239.171448 132.571741 223.635223 121.118414 212.181896 
C 109.665087 200.72857 94.128862 194.293255 77.931412 194.293255 
C 61.733962 194.293255 46.197737 200.72857 34.74441 212.181896 
C 23.291084 223.635223 16.855768 239.171448 16.855768 255.368898 
C 16.855768 271.566348 23.291084 287.102573 34.74441 298.5559 
C 46.197737 310.009227 61.733962 316.444542 77.931412 316.444542 
L 77.931412 316.444542 
z
" clip-path="url(#pfd51640b6f)" style="fill: none; stroke: #ff0000; stroke-width: 2; stroke-linejoin: miter"/>
   </g>
   <g id="patch_7">
    <path d="M 426.93509 246.643806 
C 446.217769 246.643806 464.713275 238.982717 478.348188 225.347804 
C 491.983101 211.712891 499.64419 193.217385 499.64419 173.934707 
C 499.64419 154.652028 491.983101 136.156522 478.348188 122.521609 
C 464.713275 108.886696 446.217769 101.225607 426.93509 101.225607 
C 407.652412 101.225607 389.156906 108.886696 375.521993 122.521609 
C 361.88708 136.156522 354.225991 154.652028 354.225991 173.934707 
C 354.225991 193.217385 361.88708 211.712891 375.521993 225.347804 
C 389.156906 238.982717 407.652412 246.643806 426.93509 246.643806 
L 426.93509 246.643806 
z
" clip-path="url(#pfd51640b6f)" style="fill: none; stroke: #800080; stroke-width: 2; stroke-linejoin: miter"/>
   </g>
  </g>
 </g>
 <defs>
  <clipPath id="pfd51640b6f">
   <rect x="7.2" y="7.518119" width="502.099958" height="335.741538"/>
  </clipPath>
 </defs>
</svg>
