<?xml version="1.0" encoding="utf-8" standalone="no"?>
<!DOCTYPE svg PUBLIC "-//W3C//DTD SVG 1.1//EN"
  "http://www.w3.org/Graphics/SVG/1.1/DTD/svg11.dtd">
<svg xmlns:xlink="http://www.w3.org/1999/xlink" width="496.8pt" height="279.249231pt" viewBox="0 0 496.8 279.249231" xmlns="http://www.w3.org/2000/svg" version="1.1">
 <metadata>
  <rdf:RDF xmlns:dc="http://purl.org/dc/elements/1.1/" xmlns:cc="http://creativecommons.org/ns#" xmlns:rdf="http://www.w3.org/1999/02/22-rdf-syntax-ns#">
   <cc:Work>
    <dc:type rdf:resource="http://purl.org/dc/dcmitype/StillImage"/>
    <dc:date>2026-06-15T21:46:13.897465</dc:date>
    <dc:format>image/svg+xml</dc:format>
    <dc:creator>
     <cc:Agent>
      <dc:title>Matplotlib v3.10.9, https://matplotlib.org/</dc:title>
     </cc:Agent>
    </dc:creator>
   </cc:Work>
  </rdf:RDF>
 </metadata>
 <defs>
  <style type="text/css">*{stroke-linejoin: round; stroke-linecap: butt}</style>
 </defs>
 <g id="figure_1">
  <g id="patch_1">
   <path d="M 0 279.249231 
L 496.8 279.249231 
L 496.8 0 
L 0 0 
z
" style="fill: #ffffff"/>
  </g>
  <g id="axes_1">
   <g id="patch_2">
    <path d="M 7.2 272.049231 
L 489.6 272.049231 
L 489.6 7.2 
L 7.2 7.2 
z
" style="fill: #ffffff"/>
   </g>
   <g id="PathCollection_1">
    <path d="M 16.476923 69.122255 
C 17.261404 69.122255 18.013861 68.810577 18.568573 68.255865 
C 19.123285 67.701153 19.434963 66.948696 19.434963 66.164215 
C 19.434963 65.379733 19.123285 64.627277 18.568573 64.072565 
C 18.013861 63.517853 17.261404 63.206175 16.476923 63.206175 
C 15.692442 63.206175 14.939985 63.517853 14.385273 64.072565 
C 13.830561 64.627277 13.518883 65.379733 13.518883 66.164215 
C 13.518883 66.948696 13.830561 67.701153 14.385273 68.255865 
C 14.939985 68.810577 15.692442 69.122255 16.476923 69.122255 
z
" clip-path="url(#p7a2b0c301e)" style="fill: #0000ff"/>
   </g>
   <g id="PathCollection_2">
    <path d="M 77.218681 69.122255 
C 78.003163 69.122255 78.755619 68.810577 79.310331 68.255865 
C 79.865043 67.701153 80.176721 66.948696 80.176721 66.164215 
C 80.176721 65.379733 79.865043 64.627277 79.310331 64.072565 
C 78.755619 63.517853 78.003163 63.206175 77.218681 63.206175 
C 76.4342 63.206175 75.681743 63.517853 75.127031 64.072565 
C 74.572319 64.627277 74.260641 65.379733 74.260641 66.164215 
C 74.260641 66.948696 74.572319 67.701153 75.127031 68.255865 
C 75.681743 68.810577 76.4342 69.122255 77.218681 69.122255 
z
" clip-path="url(#p7a2b0c301e)" style="fill: #0000ff"/>
   </g>
   <g id="PathCollection_3">
    <path d="M 137.96044 69.122255 
C 138.744921 69.122255 139.497378 68.810577 140.05209 68.255865 
C 140.606802 67.701153 140.918479 66.948696 140.918479 66.164215 
C 140.918479 65.379733 140.606802 64.627277 140.05209 64.072565 
C 139.497378 63.517853 138.744921 63.206175 137.96044 63.206175 
C 137.175958 63.206175 136.423502 63.517853 135.868789 64.072565 
C 135.314077 64.627277 135.0024 65.379733 135.0024 66.164215 
C 135.0024 66.948696 135.314077 67.701153 135.868789 68.255865 
C 136.423502 68.810577 137.175958 69.122255 137.96044 69.122255 
z
" clip-path="url(#p7a2b0c301e)" style="fill: #0000ff"/>
   </g>
   <g id="PathCollection_4">
    <path d="M 198.702198 69.122255 
C 199.486679 69.122255 200.239136 68.810577 200.793848 68.255865 
C 201.34856 67.701153 201.660238 66.948696 201.660238 66.164215 
C 201.660238 65.379733 201.34856 64.627277 200.793848 64.072565 
C 200.239136 63.517853 199.486679 63.206175 198.702198 63.206175 
C 197.917716 63.206175 197.16526 63.517853 196.610548 64.072565 
C 196.055836 64.627277 195.744158 65.379733 195.744158 66.164215 
C 195.744158 66.948696 196.055836 67.701153 196.610548 68.255865 
C 197.16526 68.810577 197.917716 69.122255 198.702198 69.122255 
z
" clip-path="url(#p7a2b0c301e)" style="fill: #0000ff"/>
   </g>
   <g id="PathCollection_5">
    <path d="M 259.443956 69.122255 
C 260.228437 69.122255 260.980894 68.810577 261.535606 68.255865 
C 262.090318 67.701153 262.401996 66.948696 262.401996 66.164215 
C 262.401996 65.379733 262.090318 64.627277 261.535606 64.072565 
C 260.980894 63.517853 260.228437 63.206175 259.443956 63.206175 
C 258.659475 63.206175 257.907018 63.517853 257.352306 64.072565 
C 256.797594 64.627277 256.485916 65.379733 256.485916 66.164215 
C 256.485916 66.948696 256.797594 67.701153 257.352306 68.255865 
C 257.907018 68.810577 258.659475 69.122255 259.443956 69.122255 
z
" clip-path="url(#p7a2b0c301e)" style="fill: #0000ff"/>
   </g>
   <g id="PathCollection_6">
    <path d="M 320.185714 69.122255 
C 320.970196 69.122255 321.722652 68.810577 322.277364 68.255865 
C 322.832076 67.701153 323.143754 66.948696 323.143754 66.164215 
C 323.143754 65.379733 322.832076 64.627277 322.277364 64.072565 
C 321.722652 63.517853 320.970196 63.206175 320.185714 63.206175 
C 319.401233 63.206175 318.648776 63.517853 318.094064 64.072565 
C 317.539352 64.627277 317.227674 65.379733 317.227674 66.164215 
C 317.227674 66.948696 317.539352 67.701153 318.094064 68.255865 
C 318.648776 68.810577 319.401233 69.122255 320.185714 69.122255 
z
" clip-path="url(#p7a2b0c301e)" style="fill: #0000ff"/>
   </g>
   <g id="PathCollection_7">
    <path d="M 380.927473 69.122255 
C 381.711954 69.122255 382.464411 68.810577 383.019123 68.255865 
C 383.573835 67.701153 383.885512 66.948696 383.885512 66.164215 
C 383.885512 65.379733 383.573835 64.627277 383.019123 64.072565 
C 382.464411 63.517853 381.711954 63.206175 380.927473 63.206175 
C 380.142991 63.206175 379.390535 63.517853 378.835822 64.072565 
C 378.28111 64.627277 377.969433 65.379733 377.969433 66.164215 
C 377.969433 66.948696 378.28111 67.701153 378.835822 68.255865 
C 379.390535 68.810577 380.142991 69.122255 380.927473 69.122255 
z
" clip-path="url(#p7a2b0c301e)" style="fill: #0000ff"/>
   </g>
   <g id="PathCollection_8">
    <path d="M 441.669231 69.122255 
C 442.453712 69.122255 443.206169 68.810577 443.760881 68.255865 
C 444.315593 67.701153 444.627271 66.948696 444.627271 66.164215 
C 444.627271 65.379733 444.315593 64.627277 443.760881 64.072565 
C 443.206169 63.517853 442.453712 63.206175 441.669231 63.206175 
C 440.884749 63.206175 440.132293 63.517853 439.577581 64.072565 
C 439.022869 64.627277 438.711191 65.379733 438.711191 66.164215 
C 438.711191 66.948696 439.022869 67.701153 439.577581 68.255865 
C 440.132293 68.810577 440.884749 69.122255 441.669231 69.122255 
z
" clip-path="url(#p7a2b0c301e)" style="fill: #0000ff"/>
   </g>
   <g id="PathCollection_9">
    <path d="M 215.268132 221.336478 
C 216.15765 221.336478 217.010856 220.983069 217.63984 220.354084 
C 218.268824 219.7251 218.622234 218.871894 218.622234 217.982376 
C 218.622234 217.092858 218.268824 216.239652 217.63984 215.610668 
C 217.010856 214.981683 216.15765 214.628274 215.268132 214.628274 
C 214.378614 214.628274 213.525408 214.981683 212.896424 215.610668 
C 212.267439 216.239652 211.91403 217.092858 211.91403 217.982376 
C 211.91403 218.871894 212.267439 219.7251 212.896424 220.354084 
C 213.525408 220.983069 214.378614 221.336478 215.268132 221.336478 
z
" clip-path="url(#p7a2b0c301e)" style="fill: #008000"/>
   </g>
   <g id="PathCollection_10">
    <path d="M 303.61978 221.336478 
C 304.509298 221.336478 305.362504 220.983069 305.991488 220.354084 
C 306.620473 219.7251 306.973882 218.871894 306.973882 217.982376 
C 306.973882 217.092858 306.620473 216.239652 305.991488 215.610668 
C 305.362504 214.981683 304.509298 214.628274 303.61978 214.628274 
C 302.730262 214.628274 301.877056 214.981683 301.248072 215.610668 
C 300.619088 216.239652 300.265678 217.092858 300.265678 217.982376 
C 300.265678 218.871894 300.619088 219.7251 301.248072 220.354084 
C 301.877056 220.983069 302.730262 221.336478 303.61978 221.336478 
z
" clip-path="url(#p7a2b0c301e)" style="fill: #008000"/>
   </g>
   <g id="PathCollection_11">
    <path d="M 391.971429 221.336478 
C 392.860947 221.336478 393.714152 220.983069 394.343137 220.354084 
C 394.972121 219.7251 395.325531 218.871894 395.325531 217.982376 
C 395.325531 217.092858 394.972121 216.239652 394.343137 215.610668 
C 393.714152 214.981683 392.860947 214.628274 391.971429 214.628274 
C 391.08191 214.628274 390.228705 214.981683 389.59972 215.610668 
C 388.970736 216.239652 388.617327 217.092858 388.617327 217.982376 
C 388.617327 218.871894 388.970736 219.7251 389.59972 220.354084 
C 390.228705 220.983069 391.08191 221.336478 391.971429 221.336478 
z
" clip-path="url(#p7a2b0c301e)" style="fill: #008000"/>
   </g>
   <g id="PathCollection_12">
    <path d="M 480.323077 221.336478 
C 481.212595 221.336478 482.065801 220.983069 482.694785 220.354084 
C 483.32377 219.7251 483.677179 218.871894 483.677179 217.982376 
C 483.677179 217.092858 483.32377 216.239652 482.694785 215.610668 
C 482.065801 214.981683 481.212595 214.628274 480.323077 214.628274 
C 479.433559 214.628274 478.580353 214.981683 477.951369 215.610668 
C 477.322384 216.239652 476.968975 217.092858 476.968975 217.982376 
C 476.968975 218.871894 477.322384 219.7251 477.951369 220.354084 
C 478.580353 220.983069 479.433559 221.336478 480.323077 221.336478 
z
" clip-path="url(#p7a2b0c301e)" style="fill: #008000"/>
   </g>
   <g id="matplotlib.axis_1"/>
   <g id="matplotlib.axis_2"/>
   <g id="line2d_1">
    <path d="M 16.476923 80.856295 
L 215.268132 198.392936 
" clip-path="url(#p7a2b0c301e)" style="fill: none; stroke: #808080; stroke-linecap: square"/>
   </g>
   <g id="line2d_2">
    <path d="M 259.443956 80.856295 
L 215.268132 198.392936 
" clip-path="url(#p7a2b0c301e)" style="fill: none; stroke: #808080; stroke-linecap: square"/>
   </g>
   <g id="line2d_3">
    <path d="M 77.218681 80.856295 
L 303.61978 198.392936 
" clip-path="url(#p7a2b0c301e)" style="fill: none; stroke: #808080; stroke-linecap: square"/>
   </g>
   <g id="line2d_4">
    <path d="M 320.185714 80.856295 
L 303.61978 198.392936 
" clip-path="url(#p7a2b0c301e)" style="fill: none; stroke: #808080; stroke-linecap: square"/>
   </g>
   <g id="line2d_5">
    <path d="M 137.96044 80.856295 
L 391.971429 198.392936 
" clip-path="url(#p7a2b0c301e)" style="fill: none; stroke: #808080; stroke-linecap: square"/>
   </g>
   <g id="line2d_6">
    <path d="M 380.927473 80.856295 
L 391.971429 198.392936 
" clip-path="url(#p7a2b0c301e)" style="fill: none; stroke: #808080; stroke-linecap: square"/>
   </g>
   <g id="line2d_7">
    <path d="M 198.702198 80.856295 
L 480.323077 198.392936 
" clip-path="url(#p7a2b0c301e)" style="fill: none; stroke: #808080; stroke-linecap: square"/>
   </g>
   <g id="line2d_8">
    <path d="M 441.669231 80.856295 
L 480.323077 198.392936 
" clip-path="url(#p7a2b0c301e)" style="fill: none; stroke: #808080; stroke-linecap: square"/>
   </g>
   <g id="text_1">
    <!-- 8 evaluations of degree 3 polynomial -->
    <g style="fill: #0000ff" transform="translate(254.720604 15.052629) scale(0.1 -0.1)">
     <defs>
      <path id="DejaVuSans-38" d="M 2034 2216 
Q 1584 2216 1326 1975 
Q 1069 1734 1069 1313 
Q 1069 891 1326 650 
Q 1584 409 2034 409 
Q 2484 409 2743 651 
Q 3003 894 3003 1313 
Q 3003 1734 2745 1975 
Q 2488 2216 2034 2216 
z
M 1403 2484 
Q 997 2584 770 2862 
Q 544 3141 544 3541 
Q 544 4100 942 4425 
Q 1341 4750 2034 4750 
Q 2731 4750 3128 4425 
Q 3525 4100 3525 3541 
Q 3525 3141 3298 2862 
Q 3072 2584 2669 2484 
Q 3125 2378 3379 2068 
Q 3634 1759 3634 1313 
Q 3634 634 3220 271 
Q 2806 -91 2034 -91 
Q 1263 -91 848 271 
Q 434 634 434 1313 
Q 434 1759 690 2068 
Q 947 2378 1403 2484 
z
M 1172 3481 
Q 1172 3119 1398 2916 
Q 1625 2713 2034 2713 
Q 2441 2713 2670 2916 
Q 2900 3119 2900 3481 
Q 2900 3844 2670 4047 
Q 2441 4250 2034 4250 
Q 1625 4250 1398 4047 
Q 1172 3844 1172 3481 
z
" transform="scale(0.015625)"/>
      <path id="DejaVuSans-20" transform="scale(0.015625)"/>
      <path id="DejaVuSans-65" d="M 3597 1894 
L 3597 1613 
L 953 1613 
Q 991 1019 1311 708 
Q 1631 397 2203 397 
Q 2534 397 2845 478 
Q 3156 559 3463 722 
L 3463 178 
Q 3153 47 2828 -22 
Q 2503 -91 2169 -91 
Q 1331 -91 842 396 
Q 353 884 353 1716 
Q 353 2575 817 3079 
Q 1281 3584 2069 3584 
Q 2775 3584 3186 3129 
Q 3597 2675 3597 1894 
z
M 3022 2063 
Q 3016 2534 2758 2815 
Q 2500 3097 2075 3097 
Q 1594 3097 1305 2825 
Q 1016 2553 972 2059 
L 3022 2063 
z
" transform="scale(0.015625)"/>
      <path id="DejaVuSans-76" d="M 191 3500 
L 800 3500 
L 1894 563 
L 2988 3500 
L 3597 3500 
L 2284 0 
L 1503 0 
L 191 3500 
z
" transform="scale(0.015625)"/>
      <path id="DejaVuSans-61" d="M 2194 1759 
Q 1497 1759 1228 1600 
Q 959 1441 959 1056 
Q 959 750 1161 570 
Q 1363 391 1709 391 
Q 2188 391 2477 730 
Q 2766 1069 2766 1631 
L 2766 1759 
L 2194 1759 
z
M 3341 1997 
L 3341 0 
L 2766 0 
L 2766 531 
Q 2569 213 2275 61 
Q 1981 -91 1556 -91 
Q 1019 -91 701 211 
Q 384 513 384 1019 
Q 384 1609 779 1909 
Q 1175 2209 1959 2209 
L 2766 2209 
L 2766 2266 
Q 2766 2663 2505 2880 
Q 2244 3097 1772 3097 
Q 1472 3097 1187 3025 
Q 903 2953 641 2809 
L 641 3341 
Q 956 3463 1253 3523 
Q 1550 3584 1831 3584 
Q 2591 3584 2966 3190 
Q 3341 2797 3341 1997 
z
" transform="scale(0.015625)"/>
      <path id="DejaVuSans-6c" d="M 603 4863 
L 1178 4863 
L 1178 0 
L 603 0 
L 603 4863 
z
" transform="scale(0.015625)"/>
      <path id="DejaVuSans-75" d="M 544 1381 
L 544 3500 
L 1119 3500 
L 1119 1403 
Q 1119 906 1312 657 
Q 1506 409 1894 409 
Q 2359 409 2629 706 
Q 2900 1003 2900 1516 
L 2900 3500 
L 3475 3500 
L 3475 0 
L 2900 0 
L 2900 538 
Q 2691 219 2414 64 
Q 2138 -91 1772 -91 
Q 1169 -91 856 284 
Q 544 659 544 1381 
z
M 1991 3584 
L 1991 3584 
z
" transform="scale(0.015625)"/>
      <path id="DejaVuSans-74" d="M 1172 4494 
L 1172 3500 
L 2356 3500 
L 2356 3053 
L 1172 3053 
L 1172 1153 
Q 1172 725 1289 603 
Q 1406 481 1766 481 
L 2356 481 
L 2356 0 
L 1766 0 
Q 1100 0 847 248 
Q 594 497 594 1153 
L 594 3053 
L 172 3053 
L 172 3500 
L 594 3500 
L 594 4494 
L 1172 4494 
z
" transform="scale(0.015625)"/>
      <path id="DejaVuSans-69" d="M 603 3500 
L 1178 3500 
L 1178 0 
L 603 0 
L 603 3500 
z
M 603 4863 
L 1178 4863 
L 1178 4134 
L 603 4134 
L 603 4863 
z
" transform="scale(0.015625)"/>
      <path id="DejaVuSans-6f" d="M 1959 3097 
Q 1497 3097 1228 2736 
Q 959 2375 959 1747 
Q 959 1119 1226 758 
Q 1494 397 1959 397 
Q 2419 397 2687 759 
Q 2956 1122 2956 1747 
Q 2956 2369 2687 2733 
Q 2419 3097 1959 3097 
z
M 1959 3584 
Q 2709 3584 3137 3096 
Q 3566 2609 3566 1747 
Q 3566 888 3137 398 
Q 2709 -91 1959 -91 
Q 1206 -91 779 398 
Q 353 888 353 1747 
Q 353 2609 779 3096 
Q 1206 3584 1959 3584 
z
" transform="scale(0.015625)"/>
      <path id="DejaVuSans-6e" d="M 3513 2113 
L 3513 0 
L 2938 0 
L 2938 2094 
Q 2938 2591 2744 2837 
Q 2550 3084 2163 3084 
Q 1697 3084 1428 2787 
Q 1159 2491 1159 1978 
L 1159 0 
L 581 0 
L 581 3500 
L 1159 3500 
L 1159 2956 
Q 1366 3272 1645 3428 
Q 1925 3584 2291 3584 
Q 2894 3584 3203 3211 
Q 3513 2838 3513 2113 
z
" transform="scale(0.015625)"/>
      <path id="DejaVuSans-73" d="M 2834 3397 
L 2834 2853 
Q 2591 2978 2328 3040 
Q 2066 3103 1784 3103 
Q 1356 3103 1142 2972 
Q 928 2841 928 2578 
Q 928 2378 1081 2264 
Q 1234 2150 1697 2047 
L 1894 2003 
Q 2506 1872 2764 1633 
Q 3022 1394 3022 966 
Q 3022 478 2636 193 
Q 2250 -91 1575 -91 
Q 1294 -91 989 -36 
Q 684 19 347 128 
L 347 722 
Q 666 556 975 473 
Q 1284 391 1588 391 
Q 1994 391 2212 530 
Q 2431 669 2431 922 
Q 2431 1156 2273 1281 
Q 2116 1406 1581 1522 
L 1381 1569 
Q 847 1681 609 1914 
Q 372 2147 372 2553 
Q 372 3047 722 3315 
Q 1072 3584 1716 3584 
Q 2034 3584 2315 3537 
Q 2597 3491 2834 3397 
z
" transform="scale(0.015625)"/>
      <path id="DejaVuSans-66" d="M 2375 4863 
L 2375 4384 
L 1825 4384 
Q 1516 4384 1395 4259 
Q 1275 4134 1275 3809 
L 1275 3500 
L 2222 3500 
L 2222 3053 
L 1275 3053 
L 1275 0 
L 697 0 
L 697 3053 
L 147 3053 
L 147 3500 
L 697 3500 
L 697 3744 
Q 697 4328 969 4595 
Q 1241 4863 1831 4863 
L 2375 4863 
z
" transform="scale(0.015625)"/>
      <path id="DejaVuSans-64" d="M 2906 2969 
L 2906 4863 
L 3481 4863 
L 3481 0 
L 2906 0 
L 2906 525 
Q 2725 213 2448 61 
Q 2172 -91 1784 -91 
Q 1150 -91 751 415 
Q 353 922 353 1747 
Q 353 2572 751 3078 
Q 1150 3584 1784 3584 
Q 2172 3584 2448 3432 
Q 2725 3281 2906 2969 
z
M 947 1747 
Q 947 1113 1208 752 
Q 1469 391 1925 391 
Q 2381 391 2643 752 
Q 2906 1113 2906 1747 
Q 2906 2381 2643 2742 
Q 2381 3103 1925 3103 
Q 1469 3103 1208 2742 
Q 947 2381 947 1747 
z
" transform="scale(0.015625)"/>
      <path id="DejaVuSans-67" d="M 2906 1791 
Q 2906 2416 2648 2759 
Q 2391 3103 1925 3103 
Q 1463 3103 1205 2759 
Q 947 2416 947 1791 
Q 947 1169 1205 825 
Q 1463 481 1925 481 
Q 2391 481 2648 825 
Q 2906 1169 2906 1791 
z
M 3481 434 
Q 3481 -459 3084 -895 
Q 2688 -1331 1869 -1331 
Q 1566 -1331 1297 -1286 
Q 1028 -1241 775 -1147 
L 775 -588 
Q 1028 -725 1275 -790 
Q 1522 -856 1778 -856 
Q 2344 -856 2625 -561 
Q 2906 -266 2906 331 
L 2906 616 
Q 2728 306 2450 153 
Q 2172 0 1784 0 
Q 1141 0 747 490 
Q 353 981 353 1791 
Q 353 2603 747 3093 
Q 1141 3584 1784 3584 
Q 2172 3584 2450 3431 
Q 2728 3278 2906 2969 
L 2906 3500 
L 3481 3500 
L 3481 434 
z
" transform="scale(0.015625)"/>
      <path id="DejaVuSans-72" d="M 2631 2963 
Q 2534 3019 2420 3045 
Q 2306 3072 2169 3072 
Q 1681 3072 1420 2755 
Q 1159 2438 1159 1844 
L 1159 0 
L 581 0 
L 581 3500 
L 1159 3500 
L 1159 2956 
Q 1341 3275 1631 3429 
Q 1922 3584 2338 3584 
Q 2397 3584 2469 3576 
Q 2541 3569 2628 3553 
L 2631 2963 
z
" transform="scale(0.015625)"/>
      <path id="DejaVuSans-33" d="M 2597 2516 
Q 3050 2419 3304 2112 
Q 3559 1806 3559 1356 
Q 3559 666 3084 287 
Q 2609 -91 1734 -91 
Q 1441 -91 1130 -33 
Q 819 25 488 141 
L 488 750 
Q 750 597 1062 519 
Q 1375 441 1716 441 
Q 2309 441 2620 675 
Q 2931 909 2931 1356 
Q 2931 1769 2642 2001 
Q 2353 2234 1838 2234 
L 1294 2234 
L 1294 2753 
L 1863 2753 
Q 2328 2753 2575 2939 
Q 2822 3125 2822 3475 
Q 2822 3834 2567 4026 
Q 2313 4219 1838 4219 
Q 1578 4219 1281 4162 
Q 984 4106 628 3988 
L 628 4550 
Q 988 4650 1302 4700 
Q 1616 4750 1894 4750 
Q 2613 4750 3031 4423 
Q 3450 4097 3450 3541 
Q 3450 3153 3228 2886 
Q 3006 2619 2597 2516 
z
" transform="scale(0.015625)"/>
      <path id="DejaVuSans-70" d="M 1159 525 
L 1159 -1331 
L 581 -1331 
L 581 3500 
L 1159 3500 
L 1159 2969 
Q 1341 3281 1617 3432 
Q 1894 3584 2278 3584 
Q 2916 3584 3314 3078 
Q 3713 2572 3713 1747 
Q 3713 922 3314 415 
Q 2916 -91 2278 -91 
Q 1894 -91 1617 61 
Q 1341 213 1159 525 
z
M 3116 1747 
Q 3116 2381 2855 2742 
Q 2594 3103 2138 3103 
Q 1681 3103 1420 2742 
Q 1159 2381 1159 1747 
Q 1159 1113 1420 752 
Q 1681 391 2138 391 
Q 2594 391 2855 752 
Q 3116 1113 3116 1747 
z
" transform="scale(0.015625)"/>
      <path id="DejaVuSans-79" d="M 2059 -325 
Q 1816 -950 1584 -1140 
Q 1353 -1331 966 -1331 
L 506 -1331 
L 506 -850 
L 844 -850 
Q 1081 -850 1212 -737 
Q 1344 -625 1503 -206 
L 1606 56 
L 191 3500 
L 800 3500 
L 1894 763 
L 2988 3500 
L 3597 3500 
L 2059 -325 
z
" transform="scale(0.015625)"/>
      <path id="DejaVuSans-6d" d="M 3328 2828 
Q 3544 3216 3844 3400 
Q 4144 3584 4550 3584 
Q 5097 3584 5394 3201 
Q 5691 2819 5691 2113 
L 5691 0 
L 5113 0 
L 5113 2094 
Q 5113 2597 4934 2840 
Q 4756 3084 4391 3084 
Q 3944 3084 3684 2787 
Q 3425 2491 3425 1978 
L 3425 0 
L 2847 0 
L 2847 2094 
Q 2847 2600 2669 2842 
Q 2491 3084 2119 3084 
Q 1678 3084 1418 2786 
Q 1159 2488 1159 1978 
L 1159 0 
L 581 0 
L 581 3500 
L 1159 3500 
L 1159 2956 
Q 1356 3278 1631 3431 
Q 1906 3584 2284 3584 
Q 2666 3584 2933 3390 
Q 3200 3197 3328 2828 
z
" transform="scale(0.015625)"/>
     </defs>
     <use xlink:href="#DejaVuSans-38"/>
     <use xlink:href="#DejaVuSans-20" transform="translate(63.623047 0)"/>
     <use xlink:href="#DejaVuSans-65" transform="translate(95.410156 0)"/>
     <use xlink:href="#DejaVuSans-76" transform="translate(156.933594 0)"/>
     <use xlink:href="#DejaVuSans-61" transform="translate(216.113281 0)"/>
     <use xlink:href="#DejaVuSans-6c" transform="translate(277.392578 0)"/>
     <use xlink:href="#DejaVuSans-75" transform="translate(305.175781 0)"/>
     <use xlink:href="#DejaVuSans-61" transform="translate(368.554688 0)"/>
     <use xlink:href="#DejaVuSans-74" transform="translate(429.833984 0)"/>
     <use xlink:href="#DejaVuSans-69" transform="translate(469.042969 0)"/>
     <use xlink:href="#DejaVuSans-6f" transform="translate(496.826172 0)"/>
     <use xlink:href="#DejaVuSans-6e" transform="translate(558.007812 0)"/>
     <use xlink:href="#DejaVuSans-73" transform="translate(621.386719 0)"/>
     <use xlink:href="#DejaVuSans-20" transform="translate(673.486328 0)"/>
     <use xlink:href="#DejaVuSans-6f" transform="translate(705.273438 0)"/>
     <use xlink:href="#DejaVuSans-66" transform="translate(766.455078 0)"/>
     <use xlink:href="#DejaVuSans-20" transform="translate(801.660156 0)"/>
     <use xlink:href="#DejaVuSans-64" transform="translate(833.447266 0)"/>
     <use xlink:href="#DejaVuSans-65" transform="translate(896.923828 0)"/>
     <use xlink:href="#DejaVuSans-67" transform="translate(958.447266 0)"/>
     <use xlink:href="#DejaVuSans-72" transform="translate(1021.923828 0)"/>
     <use xlink:href="#DejaVuSans-65" transform="translate(1060.787109 0)"/>
     <use xlink:href="#DejaVuSans-65" transform="translate(1122.310547 0)"/>
     <use xlink:href="#DejaVuSans-20" transform="translate(1183.833984 0)"/>
     <use xlink:href="#DejaVuSans-33" transform="translate(1215.621094 0)"/>
     <use xlink:href="#DejaVuSans-20" transform="translate(1279.244141 0)"/>
     <use xlink:href="#DejaVuSans-70" transform="translate(1311.03125 0)"/>
     <use xlink:href="#DejaVuSans-6f" transform="translate(1374.507812 0)"/>
     <use xlink:href="#DejaVuSans-6c" transform="translate(1435.689453 0)"/>
     <use xlink:href="#DejaVuSans-79" transform="translate(1463.472656 0)"/>
     <use xlink:href="#DejaVuSans-6e" transform="translate(1522.652344 0)"/>
     <use xlink:href="#DejaVuSans-6f" transform="translate(1586.03125 0)"/>
     <use xlink:href="#DejaVuSans-6d" transform="translate(1647.212891 0)"/>
     <use xlink:href="#DejaVuSans-69" transform="translate(1744.625 0)"/>
     <use xlink:href="#DejaVuSans-61" transform="translate(1772.408203 0)"/>
     <use xlink:href="#DejaVuSans-6c" transform="translate(1833.6875 0)"/>
    </g>
   </g>
   <g id="text_2">
    <!-- fold with beta = 29 -->
    <g transform="translate(294.804823 147.557288) scale(0.11 -0.11)">
     <defs>
      <path id="DejaVuSans-77" d="M 269 3500 
L 844 3500 
L 1563 769 
L 2278 3500 
L 2956 3500 
L 3675 769 
L 4391 3500 
L 4966 3500 
L 4050 0 
L 3372 0 
L 2619 2869 
L 1863 0 
L 1184 0 
L 269 3500 
z
" transform="scale(0.015625)"/>
      <path id="DejaVuSans-68" d="M 3513 2113 
L 3513 0 
L 2938 0 
L 2938 2094 
Q 2938 2591 2744 2837 
Q 2550 3084 2163 3084 
Q 1697 3084 1428 2787 
Q 1159 2491 1159 1978 
L 1159 0 
L 581 0 
L 581 4863 
L 1159 4863 
L 1159 2956 
Q 1366 3272 1645 3428 
Q 1925 3584 2291 3584 
Q 2894 3584 3203 3211 
Q 3513 2838 3513 2113 
z
" transform="scale(0.015625)"/>
      <path id="DejaVuSans-62" d="M 3116 1747 
Q 3116 2381 2855 2742 
Q 2594 3103 2138 3103 
Q 1681 3103 1420 2742 
Q 1159 2381 1159 1747 
Q 1159 1113 1420 752 
Q 1681 391 2138 391 
Q 2594 391 2855 752 
Q 3116 1113 3116 1747 
z
M 1159 2969 
Q 1341 3281 1617 3432 
Q 1894 3584 2278 3584 
Q 2916 3584 3314 3078 
Q 3713 2572 3713 1747 
Q 3713 922 3314 415 
Q 2916 -91 2278 -91 
Q 1894 -91 1617 61 
Q 1341 213 1159 525 
L 1159 0 
L 581 0 
L 581 4863 
L 1159 4863 
L 1159 2969 
z
" transform="scale(0.015625)"/>
      <path id="DejaVuSans-3d" d="M 678 2906 
L 4684 2906 
L 4684 2381 
L 678 2381 
L 678 2906 
z
M 678 1631 
L 4684 1631 
L 4684 1100 
L 678 1100 
L 678 1631 
z
" transform="scale(0.015625)"/>
      <path id="DejaVuSans-32" d="M 1228 531 
L 3431 531 
L 3431 0 
L 469 0 
L 469 531 
Q 828 903 1448 1529 
Q 2069 2156 2228 2338 
Q 2531 2678 2651 2914 
Q 2772 3150 2772 3378 
Q 2772 3750 2511 3984 
Q 2250 4219 1831 4219 
Q 1534 4219 1204 4116 
Q 875 4013 500 3803 
L 500 4441 
Q 881 4594 1212 4672 
Q 1544 4750 1819 4750 
Q 2544 4750 2975 4387 
Q 3406 4025 3406 3419 
Q 3406 3131 3298 2873 
Q 3191 2616 2906 2266 
Q 2828 2175 2409 1742 
Q 1991 1309 1228 531 
z
" transform="scale(0.015625)"/>
      <path id="DejaVuSans-39" d="M 703 97 
L 703 672 
Q 941 559 1184 500 
Q 1428 441 1663 441 
Q 2288 441 2617 861 
Q 2947 1281 2994 2138 
Q 2813 1869 2534 1725 
Q 2256 1581 1919 1581 
Q 1219 1581 811 2004 
Q 403 2428 403 3163 
Q 403 3881 828 4315 
Q 1253 4750 1959 4750 
Q 2769 4750 3195 4129 
Q 3622 3509 3622 2328 
Q 3622 1225 3098 567 
Q 2575 -91 1691 -91 
Q 1453 -91 1209 -44 
Q 966 3 703 97 
z
M 1959 2075 
Q 2384 2075 2632 2365 
Q 2881 2656 2881 3163 
Q 2881 3666 2632 3958 
Q 2384 4250 1959 4250 
Q 1534 4250 1286 3958 
Q 1038 3666 1038 3163 
Q 1038 2656 1286 2365 
Q 1534 2075 1959 2075 
z
" transform="scale(0.015625)"/>
     </defs>
     <use xlink:href="#DejaVuSans-66"/>
     <use xlink:href="#DejaVuSans-6f" transform="translate(35.205078 0)"/>
     <use xlink:href="#DejaVuSans-6c" transform="translate(96.386719 0)"/>
     <use xlink:href="#DejaVuSans-64" transform="translate(124.169922 0)"/>
     <use xlink:href="#DejaVuSans-20" transform="translate(187.646484 0)"/>
     <use xlink:href="#DejaVuSans-77" transform="translate(219.433594 0)"/>
     <use xlink:href="#DejaVuSans-69" transform="translate(301.220703 0)"/>
     <use xlink:href="#DejaVuSans-74" transform="translate(329.003906 0)"/>
     <use xlink:href="#DejaVuSans-68" transform="translate(368.212891 0)"/>
     <use xlink:href="#DejaVuSans-20" transform="translate(431.591797 0)"/>
     <use xlink:href="#DejaVuSans-62" transform="translate(463.378906 0)"/>
     <use xlink:href="#DejaVuSans-65" transform="translate(526.855469 0)"/>
     <use xlink:href="#DejaVuSans-74" transform="translate(588.378906 0)"/>
     <use xlink:href="#DejaVuSans-61" transform="translate(627.587891 0)"/>
     <use xlink:href="#DejaVuSans-20" transform="translate(688.867188 0)"/>
     <use xlink:href="#DejaVuSans-3d" transform="translate(720.654297 0)"/>
     <use xlink:href="#DejaVuSans-20" transform="translate(804.443359 0)"/>
     <use xlink:href="#DejaVuSans-32" transform="translate(836.230469 0)"/>
     <use xlink:href="#DejaVuSans-39" transform="translate(899.853516 0)"/>
    </g>
   </g>
   <g id="text_3">
    <!-- 4 evaluations of degree 1 polynomial -->
    <g style="fill: #008000" transform="translate(254.720604 269.715351) scale(0.1 -0.1)">
     <defs>
      <path id="DejaVuSans-34" d="M 2419 4116 
L 825 1625 
L 2419 1625 
L 2419 4116 
z
M 2253 4666 
L 3047 4666 
L 3047 1625 
L 3713 1625 
L 3713 1100 
L 3047 1100 
L 3047 0 
L 2419 0 
L 2419 1100 
L 313 1100 
L 313 1709 
L 2253 4666 
z
" transform="scale(0.015625)"/>
      <path id="DejaVuSans-31" d="M 794 531 
L 1825 531 
L 1825 4091 
L 703 3866 
L 703 4441 
L 1819 4666 
L 2450 4666 
L 2450 531 
L 3481 531 
L 3481 0 
L 794 0 
L 794 531 
z
" transform="scale(0.015625)"/>
     </defs>
     <use xlink:href="#DejaVuSans-34"/>
     <use xlink:href="#DejaVuSans-20" transform="translate(63.623047 0)"/>
     <use xlink:href="#DejaVuSans-65" transform="translate(95.410156 0)"/>
     <use xlink:href="#DejaVuSans-76" transform="translate(156.933594 0)"/>
     <use xlink:href="#DejaVuSans-61" transform="translate(216.113281 0)"/>
     <use xlink:href="#DejaVuSans-6c" transform="translate(277.392578 0)"/>
     <use xlink:href="#DejaVuSans-75" transform="translate(305.175781 0)"/>
     <use xlink:href="#DejaVuSans-61" transform="translate(368.554688 0)"/>
     <use xlink:href="#DejaVuSans-74" transform="translate(429.833984 0)"/>
     <use xlink:href="#DejaVuSans-69" transform="translate(469.042969 0)"/>
     <use xlink:href="#DejaVuSans-6f" transform="translate(496.826172 0)"/>
     <use xlink:href="#DejaVuSans-6e" transform="translate(558.007812 0)"/>
     <use xlink:href="#DejaVuSans-73" transform="translate(621.386719 0)"/>
     <use xlink:href="#DejaVuSans-20" transform="translate(673.486328 0)"/>
     <use xlink:href="#DejaVuSans-6f" transform="translate(705.273438 0)"/>
     <use xlink:href="#DejaVuSans-66" transform="translate(766.455078 0)"/>
     <use xlink:href="#DejaVuSans-20" transform="translate(801.660156 0)"/>
     <use xlink:href="#DejaVuSans-64" transform="translate(833.447266 0)"/>
     <use xlink:href="#DejaVuSans-65" transform="translate(896.923828 0)"/>
     <use xlink:href="#DejaVuSans-67" transform="translate(958.447266 0)"/>
     <use xlink:href="#DejaVuSans-72" transform="translate(1021.923828 0)"/>
     <use xlink:href="#DejaVuSans-65" transform="translate(1060.787109 0)"/>
     <use xlink:href="#DejaVuSans-65" transform="translate(1122.310547 0)"/>
     <use xlink:href="#DejaVuSans-20" transform="translate(1183.833984 0)"/>
     <use xlink:href="#DejaVuSans-31" transform="translate(1215.621094 0)"/>
     <use xlink:href="#DejaVuSans-20" transform="translate(1279.244141 0)"/>
     <use xlink:href="#DejaVuSans-70" transform="translate(1311.03125 0)"/>
     <use xlink:href="#DejaVuSans-6f" transform="translate(1374.507812 0)"/>
     <use xlink:href="#DejaVuSans-6c" transform="translate(1435.689453 0)"/>
     <use xlink:href="#DejaVuSans-79" transform="translate(1463.472656 0)"/>
     <use xlink:href="#DejaVuSans-6e" transform="translate(1522.652344 0)"/>
     <use xlink:href="#DejaVuSans-6f" transform="translate(1586.03125 0)"/>
     <use xlink:href="#DejaVuSans-6d" transform="translate(1647.212891 0)"/>
     <use xlink:href="#DejaVuSans-69" transform="translate(1744.625 0)"/>
     <use xlink:href="#DejaVuSans-61" transform="translate(1772.408203 0)"/>
     <use xlink:href="#DejaVuSans-6c" transform="translate(1833.6875 0)"/>
    </g>
   </g>
  </g>
 </g>
 <defs>
  <clipPath id="p7a2b0c301e">
   <rect x="7.2" y="7.2" width="482.4" height="264.849231"/>
  </clipPath>
 </defs>
</svg>
