<?xml version="1.0" encoding="utf-8" standalone="no"?>
<!DOCTYPE svg PUBLIC "-//W3C//DTD SVG 1.1//EN"
  "http://www.w3.org/Graphics/SVG/1.1/DTD/svg11.dtd">
<svg xmlns:xlink="http://www.w3.org/1999/xlink" width="406.617063pt" height="280.024615pt" viewBox="0 0 406.617063 280.024615" xmlns="http://www.w3.org/2000/svg" version="1.1">
 <metadata>
  <rdf:RDF xmlns:dc="http://purl.org/dc/elements/1.1/" xmlns:cc="http://creativecommons.org/ns#" xmlns:rdf="http://www.w3.org/1999/02/22-rdf-syntax-ns#">
   <cc:Work>
    <dc:type rdf:resource="http://purl.org/dc/dcmitype/StillImage"/>
    <dc:date>2026-06-15T21:46:13.901031</dc:date>
    <dc:format>image/svg+xml</dc:format>
    <dc:creator>
     <cc:Agent>
      <dc:title>Matplotlib v3.10.9, https://matplotlib.org/</dc:title>
     </cc:Agent>
    </dc:creator>
   </cc:Work>
  </rdf:RDF>
 </metadata>
 <defs>
  <style type="text/css">*{stroke-linejoin: round; stroke-linecap: butt}</style>
 </defs>
 <g id="figure_1">
  <g id="patch_1">
   <path d="M 0 280.024615 
L 406.617063 280.024615 
L 406.617063 0 
L 0 0 
z
" style="fill: #ffffff"/>
  </g>
  <g id="axes_1">
   <g id="patch_2">
    <path d="M 7.2 272.824615 
L 399.417063 272.824615 
L 399.417063 7.2 
L 7.2 7.2 
z
" style="fill: #ffffff"/>
   </g>
   <g id="matplotlib.axis_1"/>
   <g id="matplotlib.axis_2"/>
   <g id="line2d_1">
    <path d="M 203.308531 32.00908 
L 90.731877 109.40553 
" clip-path="url(#pc8e70b19b4)" style="fill: none; stroke: #808080; stroke-width: 2; stroke-linecap: square"/>
   </g>
   <g id="line2d_2">
    <path d="M 203.308531 32.00908 
L 315.885186 109.40553 
" clip-path="url(#pc8e70b19b4)" style="fill: none; stroke: #ff0000; stroke-width: 2; stroke-linecap: square"/>
   </g>
   <g id="line2d_3">
    <path d="M 90.731877 109.40553 
L 34.44355 193.83802 
" clip-path="url(#pc8e70b19b4)" style="fill: none; stroke: #808080; stroke-width: 2; stroke-linecap: square"/>
   </g>
   <g id="line2d_4">
    <path d="M 90.731877 109.40553 
L 147.020204 193.83802 
" clip-path="url(#pc8e70b19b4)" style="fill: none; stroke: #808080; stroke-width: 2; stroke-linecap: square"/>
   </g>
   <g id="line2d_5">
    <path d="M 315.885186 109.40553 
L 259.596859 193.83802 
" clip-path="url(#pc8e70b19b4)" style="fill: none; stroke: #ff0000; stroke-width: 2; stroke-linecap: square"/>
   </g>
   <g id="line2d_6">
    <path d="M 315.885186 109.40553 
L 372.173513 193.83802 
" clip-path="url(#pc8e70b19b4)" style="fill: none; stroke: #808080; stroke-width: 2; stroke-linecap: square"/>
   </g>
   <g id="text_1">
    <!-- 827669 -->
    <g transform="translate(188.038531 34.21658) scale(0.08 -0.08)">
     <defs>
      <path id="DejaVuSans-38" d="M 2034 2216 
Q 1584 2216 1326 1975 
Q 1069 1734 1069 1313 
Q 1069 891 1326 650 
Q 1584 409 2034 409 
Q 2484 409 2743 651 
Q 3003 894 3003 1313 
Q 3003 1734 2745 1975 
Q 2488 2216 2034 2216 
z
M 1403 2484 
Q 997 2584 770 2862 
Q 544 3141 544 3541 
Q 544 4100 942 4425 
Q 1341 4750 2034 4750 
Q 2731 4750 3128 4425 
Q 3525 4100 3525 3541 
Q 3525 3141 3298 2862 
Q 3072 2584 2669 2484 
Q 3125 2378 3379 2068 
Q 3634 1759 3634 1313 
Q 3634 634 3220 271 
Q 2806 -91 2034 -91 
Q 1263 -91 848 271 
Q 434 634 434 1313 
Q 434 1759 690 2068 
Q 947 2378 1403 2484 
z
M 1172 3481 
Q 1172 3119 1398 2916 
Q 1625 2713 2034 2713 
Q 2441 2713 2670 2916 
Q 2900 3119 2900 3481 
Q 2900 3844 2670 4047 
Q 2441 4250 2034 4250 
Q 1625 4250 1398 4047 
Q 1172 3844 1172 3481 
z
" transform="scale(0.015625)"/>
      <path id="DejaVuSans-32" d="M 1228 531 
L 3431 531 
L 3431 0 
L 469 0 
L 469 531 
Q 828 903 1448 1529 
Q 2069 2156 2228 2338 
Q 2531 2678 2651 2914 
Q 2772 3150 2772 3378 
Q 2772 3750 2511 3984 
Q 2250 4219 1831 4219 
Q 1534 4219 1204 4116 
Q 875 4013 500 3803 
L 500 4441 
Q 881 4594 1212 4672 
Q 1544 4750 1819 4750 
Q 2544 4750 2975 4387 
Q 3406 4025 3406 3419 
Q 3406 3131 3298 2873 
Q 3191 2616 2906 2266 
Q 2828 2175 2409 1742 
Q 1991 1309 1228 531 
z
" transform="scale(0.015625)"/>
      <path id="DejaVuSans-37" d="M 525 4666 
L 3525 4666 
L 3525 4397 
L 1831 0 
L 1172 0 
L 2766 4134 
L 525 4134 
L 525 4666 
z
" transform="scale(0.015625)"/>
      <path id="DejaVuSans-36" d="M 2113 2584 
Q 1688 2584 1439 2293 
Q 1191 2003 1191 1497 
Q 1191 994 1439 701 
Q 1688 409 2113 409 
Q 2538 409 2786 701 
Q 3034 994 3034 1497 
Q 3034 2003 2786 2293 
Q 2538 2584 2113 2584 
z
M 3366 4563 
L 3366 3988 
Q 3128 4100 2886 4159 
Q 2644 4219 2406 4219 
Q 1781 4219 1451 3797 
Q 1122 3375 1075 2522 
Q 1259 2794 1537 2939 
Q 1816 3084 2150 3084 
Q 2853 3084 3261 2657 
Q 3669 2231 3669 1497 
Q 3669 778 3244 343 
Q 2819 -91 2113 -91 
Q 1303 -91 875 529 
Q 447 1150 447 2328 
Q 447 3434 972 4092 
Q 1497 4750 2381 4750 
Q 2619 4750 2861 4703 
Q 3103 4656 3366 4563 
z
" transform="scale(0.015625)"/>
      <path id="DejaVuSans-39" d="M 703 97 
L 703 672 
Q 941 559 1184 500 
Q 1428 441 1663 441 
Q 2288 441 2617 861 
Q 2947 1281 2994 2138 
Q 2813 1869 2534 1725 
Q 2256 1581 1919 1581 
Q 1219 1581 811 2004 
Q 403 2428 403 3163 
Q 403 3881 828 4315 
Q 1253 4750 1959 4750 
Q 2769 4750 3195 4129 
Q 3622 3509 3622 2328 
Q 3622 1225 3098 567 
Q 2575 -91 1691 -91 
Q 1453 -91 1209 -44 
Q 966 3 703 97 
z
M 1959 2075 
Q 2384 2075 2632 2365 
Q 2881 2656 2881 3163 
Q 2881 3666 2632 3958 
Q 2384 4250 1959 4250 
Q 1534 4250 1286 3958 
Q 1038 3666 1038 3163 
Q 1038 2656 1286 2365 
Q 1534 2075 1959 2075 
z
" transform="scale(0.015625)"/>
     </defs>
     <use xlink:href="#DejaVuSans-38"/>
     <use xlink:href="#DejaVuSans-32" transform="translate(63.623047 0)"/>
     <use xlink:href="#DejaVuSans-37" transform="translate(127.246094 0)"/>
     <use xlink:href="#DejaVuSans-36" transform="translate(190.869141 0)"/>
     <use xlink:href="#DejaVuSans-36" transform="translate(254.492188 0)"/>
     <use xlink:href="#DejaVuSans-39" transform="translate(318.115234 0)"/>
    </g>
   </g>
   <g id="text_2">
    <!-- n0 -->
    <g transform="translate(85.651877 111.61303) scale(0.08 -0.08)">
     <defs>
      <path id="DejaVuSans-6e" d="M 3513 2113 
L 3513 0 
L 2938 0 
L 2938 2094 
Q 2938 2591 2744 2837 
Q 2550 3084 2163 3084 
Q 1697 3084 1428 2787 
Q 1159 2491 1159 1978 
L 1159 0 
L 581 0 
L 581 3500 
L 1159 3500 
L 1159 2956 
Q 1366 3272 1645 3428 
Q 1925 3584 2291 3584 
Q 2894 3584 3203 3211 
Q 3513 2838 3513 2113 
z
" transform="scale(0.015625)"/>
      <path id="DejaVuSans-30" d="M 2034 4250 
Q 1547 4250 1301 3770 
Q 1056 3291 1056 2328 
Q 1056 1369 1301 889 
Q 1547 409 2034 409 
Q 2525 409 2770 889 
Q 3016 1369 3016 2328 
Q 3016 3291 2770 3770 
Q 2525 4250 2034 4250 
z
M 2034 4750 
Q 2819 4750 3233 4129 
Q 3647 3509 3647 2328 
Q 3647 1150 3233 529 
Q 2819 -91 2034 -91 
Q 1250 -91 836 529 
Q 422 1150 422 2328 
Q 422 3509 836 4129 
Q 1250 4750 2034 4750 
z
" transform="scale(0.015625)"/>
     </defs>
     <use xlink:href="#DejaVuSans-6e"/>
     <use xlink:href="#DejaVuSans-30" transform="translate(63.378906 0)"/>
    </g>
   </g>
   <g id="text_3">
    <!-- n1 -->
    <g transform="translate(310.805186 111.61303) scale(0.08 -0.08)">
     <defs>
      <path id="DejaVuSans-31" d="M 794 531 
L 1825 531 
L 1825 4091 
L 703 3866 
L 703 4441 
L 1819 4666 
L 2450 4666 
L 2450 531 
L 3481 531 
L 3481 0 
L 794 0 
L 794 531 
z
" transform="scale(0.015625)"/>
     </defs>
     <use xlink:href="#DejaVuSans-6e"/>
     <use xlink:href="#DejaVuSans-31" transform="translate(63.378906 0)"/>
    </g>
   </g>
   <g id="text_4">
    <!-- row0 -->
    <g transform="translate(24.625425 196.04552) scale(0.08 -0.08)">
     <defs>
      <path id="DejaVuSans-72" d="M 2631 2963 
Q 2534 3019 2420 3045 
Q 2306 3072 2169 3072 
Q 1681 3072 1420 2755 
Q 1159 2438 1159 1844 
L 1159 0 
L 581 0 
L 581 3500 
L 1159 3500 
L 1159 2956 
Q 1341 3275 1631 3429 
Q 1922 3584 2338 3584 
Q 2397 3584 2469 3576 
Q 2541 3569 2628 3553 
L 2631 2963 
z
" transform="scale(0.015625)"/>
      <path id="DejaVuSans-6f" d="M 1959 3097 
Q 1497 3097 1228 2736 
Q 959 2375 959 1747 
Q 959 1119 1226 758 
Q 1494 397 1959 397 
Q 2419 397 2687 759 
Q 2956 1122 2956 1747 
Q 2956 2369 2687 2733 
Q 2419 3097 1959 3097 
z
M 1959 3584 
Q 2709 3584 3137 3096 
Q 3566 2609 3566 1747 
Q 3566 888 3137 398 
Q 2709 -91 1959 -91 
Q 1206 -91 779 398 
Q 353 888 353 1747 
Q 353 2609 779 3096 
Q 1206 3584 1959 3584 
z
" transform="scale(0.015625)"/>
      <path id="DejaVuSans-77" d="M 269 3500 
L 844 3500 
L 1563 769 
L 2278 3500 
L 2956 3500 
L 3675 769 
L 4391 3500 
L 4966 3500 
L 4050 0 
L 3372 0 
L 2619 2869 
L 1863 0 
L 1184 0 
L 269 3500 
z
" transform="scale(0.015625)"/>
     </defs>
     <use xlink:href="#DejaVuSans-72"/>
     <use xlink:href="#DejaVuSans-6f" transform="translate(38.863281 0)"/>
     <use xlink:href="#DejaVuSans-77" transform="translate(100.044922 0)"/>
     <use xlink:href="#DejaVuSans-30" transform="translate(181.832031 0)"/>
    </g>
   </g>
   <g id="text_5">
    <!-- row1 -->
    <g transform="translate(137.202079 196.04552) scale(0.08 -0.08)">
     <use xlink:href="#DejaVuSans-72"/>
     <use xlink:href="#DejaVuSans-6f" transform="translate(38.863281 0)"/>
     <use xlink:href="#DejaVuSans-77" transform="translate(100.044922 0)"/>
     <use xlink:href="#DejaVuSans-31" transform="translate(181.832031 0)"/>
    </g>
   </g>
   <g id="text_6">
    <!-- row2 -->
    <g transform="translate(249.778734 196.04552) scale(0.08 -0.08)">
     <use xlink:href="#DejaVuSans-72"/>
     <use xlink:href="#DejaVuSans-6f" transform="translate(38.863281 0)"/>
     <use xlink:href="#DejaVuSans-77" transform="translate(100.044922 0)"/>
     <use xlink:href="#DejaVuSans-32" transform="translate(181.832031 0)"/>
    </g>
   </g>
   <g id="text_7">
    <!-- row3 -->
    <g transform="translate(362.355388 196.04552) scale(0.08 -0.08)">
     <defs>
      <path id="DejaVuSans-33" d="M 2597 2516 
Q 3050 2419 3304 2112 
Q 3559 1806 3559 1356 
Q 3559 666 3084 287 
Q 2609 -91 1734 -91 
Q 1441 -91 1130 -33 
Q 819 25 488 141 
L 488 750 
Q 750 597 1062 519 
Q 1375 441 1716 441 
Q 2309 441 2620 675 
Q 2931 909 2931 1356 
Q 2931 1769 2642 2001 
Q 2353 2234 1838 2234 
L 1294 2234 
L 1294 2753 
L 1863 2753 
Q 2328 2753 2575 2939 
Q 2822 3125 2822 3475 
Q 2822 3834 2567 4026 
Q 2313 4219 1838 4219 
Q 1578 4219 1281 4162 
Q 984 4106 628 3988 
L 628 4550 
Q 988 4650 1302 4700 
Q 1616 4750 1894 4750 
Q 2613 4750 3031 4423 
Q 3450 4097 3450 3541 
Q 3450 3153 3228 2886 
Q 3006 2619 2597 2516 
z
" transform="scale(0.015625)"/>
     </defs>
     <use xlink:href="#DejaVuSans-72"/>
     <use xlink:href="#DejaVuSans-6f" transform="translate(38.863281 0)"/>
     <use xlink:href="#DejaVuSans-77" transform="translate(100.044922 0)"/>
     <use xlink:href="#DejaVuSans-33" transform="translate(181.832031 0)"/>
    </g>
   </g>
   <g id="text_8">
    <!-- one leaf opens through two sibling hashes -->
    <g transform="translate(97.367906 249.367702) scale(0.1 -0.1)">
     <defs>
      <path id="DejaVuSans-65" d="M 3597 1894 
L 3597 1613 
L 953 1613 
Q 991 1019 1311 708 
Q 1631 397 2203 397 
Q 2534 397 2845 478 
Q 3156 559 3463 722 
L 3463 178 
Q 3153 47 2828 -22 
Q 2503 -91 2169 -91 
Q 1331 -91 842 396 
Q 353 884 353 1716 
Q 353 2575 817 3079 
Q 1281 3584 2069 3584 
Q 2775 3584 3186 3129 
Q 3597 2675 3597 1894 
z
M 3022 2063 
Q 3016 2534 2758 2815 
Q 2500 3097 2075 3097 
Q 1594 3097 1305 2825 
Q 1016 2553 972 2059 
L 3022 2063 
z
" transform="scale(0.015625)"/>
      <path id="DejaVuSans-20" transform="scale(0.015625)"/>
      <path id="DejaVuSans-6c" d="M 603 4863 
L 1178 4863 
L 1178 0 
L 603 0 
L 603 4863 
z
" transform="scale(0.015625)"/>
      <path id="DejaVuSans-61" d="M 2194 1759 
Q 1497 1759 1228 1600 
Q 959 1441 959 1056 
Q 959 750 1161 570 
Q 1363 391 1709 391 
Q 2188 391 2477 730 
Q 2766 1069 2766 1631 
L 2766 1759 
L 2194 1759 
z
M 3341 1997 
L 3341 0 
L 2766 0 
L 2766 531 
Q 2569 213 2275 61 
Q 1981 -91 1556 -91 
Q 1019 -91 701 211 
Q 384 513 384 1019 
Q 384 1609 779 1909 
Q 1175 2209 1959 2209 
L 2766 2209 
L 2766 2266 
Q 2766 2663 2505 2880 
Q 2244 3097 1772 3097 
Q 1472 3097 1187 3025 
Q 903 2953 641 2809 
L 641 3341 
Q 956 3463 1253 3523 
Q 1550 3584 1831 3584 
Q 2591 3584 2966 3190 
Q 3341 2797 3341 1997 
z
" transform="scale(0.015625)"/>
      <path id="DejaVuSans-66" d="M 2375 4863 
L 2375 4384 
L 1825 4384 
Q 1516 4384 1395 4259 
Q 1275 4134 1275 3809 
L 1275 3500 
L 2222 3500 
L 2222 3053 
L 1275 3053 
L 1275 0 
L 697 0 
L 697 3053 
L 147 3053 
L 147 3500 
L 697 3500 
L 697 3744 
Q 697 4328 969 4595 
Q 1241 4863 1831 4863 
L 2375 4863 
z
" transform="scale(0.015625)"/>
      <path id="DejaVuSans-70" d="M 1159 525 
L 1159 -1331 
L 581 -1331 
L 581 3500 
L 1159 3500 
L 1159 2969 
Q 1341 3281 1617 3432 
Q 1894 3584 2278 3584 
Q 2916 3584 3314 3078 
Q 3713 2572 3713 1747 
Q 3713 922 3314 415 
Q 2916 -91 2278 -91 
Q 1894 -91 1617 61 
Q 1341 213 1159 525 
z
M 3116 1747 
Q 3116 2381 2855 2742 
Q 2594 3103 2138 3103 
Q 1681 3103 1420 2742 
Q 1159 2381 1159 1747 
Q 1159 1113 1420 752 
Q 1681 391 2138 391 
Q 2594 391 2855 752 
Q 3116 1113 3116 1747 
z
" transform="scale(0.015625)"/>
      <path id="DejaVuSans-73" d="M 2834 3397 
L 2834 2853 
Q 2591 2978 2328 3040 
Q 2066 3103 1784 3103 
Q 1356 3103 1142 2972 
Q 928 2841 928 2578 
Q 928 2378 1081 2264 
Q 1234 2150 1697 2047 
L 1894 2003 
Q 2506 1872 2764 1633 
Q 3022 1394 3022 966 
Q 3022 478 2636 193 
Q 2250 -91 1575 -91 
Q 1294 -91 989 -36 
Q 684 19 347 128 
L 347 722 
Q 666 556 975 473 
Q 1284 391 1588 391 
Q 1994 391 2212 530 
Q 2431 669 2431 922 
Q 2431 1156 2273 1281 
Q 2116 1406 1581 1522 
L 1381 1569 
Q 847 1681 609 1914 
Q 372 2147 372 2553 
Q 372 3047 722 3315 
Q 1072 3584 1716 3584 
Q 2034 3584 2315 3537 
Q 2597 3491 2834 3397 
z
" transform="scale(0.015625)"/>
      <path id="DejaVuSans-74" d="M 1172 4494 
L 1172 3500 
L 2356 3500 
L 2356 3053 
L 1172 3053 
L 1172 1153 
Q 1172 725 1289 603 
Q 1406 481 1766 481 
L 2356 481 
L 2356 0 
L 1766 0 
Q 1100 0 847 248 
Q 594 497 594 1153 
L 594 3053 
L 172 3053 
L 172 3500 
L 594 3500 
L 594 4494 
L 1172 4494 
z
" transform="scale(0.015625)"/>
      <path id="DejaVuSans-68" d="M 3513 2113 
L 3513 0 
L 2938 0 
L 2938 2094 
Q 2938 2591 2744 2837 
Q 2550 3084 2163 3084 
Q 1697 3084 1428 2787 
Q 1159 2491 1159 1978 
L 1159 0 
L 581 0 
L 581 4863 
L 1159 4863 
L 1159 2956 
Q 1366 3272 1645 3428 
Q 1925 3584 2291 3584 
Q 2894 3584 3203 3211 
Q 3513 2838 3513 2113 
z
" transform="scale(0.015625)"/>
      <path id="DejaVuSans-75" d="M 544 1381 
L 544 3500 
L 1119 3500 
L 1119 1403 
Q 1119 906 1312 657 
Q 1506 409 1894 409 
Q 2359 409 2629 706 
Q 2900 1003 2900 1516 
L 2900 3500 
L 3475 3500 
L 3475 0 
L 2900 0 
L 2900 538 
Q 2691 219 2414 64 
Q 2138 -91 1772 -91 
Q 1169 -91 856 284 
Q 544 659 544 1381 
z
M 1991 3584 
L 1991 3584 
z
" transform="scale(0.015625)"/>
      <path id="DejaVuSans-67" d="M 2906 1791 
Q 2906 2416 2648 2759 
Q 2391 3103 1925 3103 
Q 1463 3103 1205 2759 
Q 947 2416 947 1791 
Q 947 1169 1205 825 
Q 1463 481 1925 481 
Q 2391 481 2648 825 
Q 2906 1169 2906 1791 
z
M 3481 434 
Q 3481 -459 3084 -895 
Q 2688 -1331 1869 -1331 
Q 1566 -1331 1297 -1286 
Q 1028 -1241 775 -1147 
L 775 -588 
Q 1028 -725 1275 -790 
Q 1522 -856 1778 -856 
Q 2344 -856 2625 -561 
Q 2906 -266 2906 331 
L 2906 616 
Q 2728 306 2450 153 
Q 2172 0 1784 0 
Q 1141 0 747 490 
Q 353 981 353 1791 
Q 353 2603 747 3093 
Q 1141 3584 1784 3584 
Q 2172 3584 2450 3431 
Q 2728 3278 2906 2969 
L 2906 3500 
L 3481 3500 
L 3481 434 
z
" transform="scale(0.015625)"/>
      <path id="DejaVuSans-69" d="M 603 3500 
L 1178 3500 
L 1178 0 
L 603 0 
L 603 3500 
z
M 603 4863 
L 1178 4863 
L 1178 4134 
L 603 4134 
L 603 4863 
z
" transform="scale(0.015625)"/>
      <path id="DejaVuSans-62" d="M 3116 1747 
Q 3116 2381 2855 2742 
Q 2594 3103 2138 3103 
Q 1681 3103 1420 2742 
Q 1159 2381 1159 1747 
Q 1159 1113 1420 752 
Q 1681 391 2138 391 
Q 2594 391 2855 752 
Q 3116 1113 3116 1747 
z
M 1159 2969 
Q 1341 3281 1617 3432 
Q 1894 3584 2278 3584 
Q 2916 3584 3314 3078 
Q 3713 2572 3713 1747 
Q 3713 922 3314 415 
Q 2916 -91 2278 -91 
Q 1894 -91 1617 61 
Q 1341 213 1159 525 
L 1159 0 
L 581 0 
L 581 4863 
L 1159 4863 
L 1159 2969 
z
" transform="scale(0.015625)"/>
     </defs>
     <use xlink:href="#DejaVuSans-6f"/>
     <use xlink:href="#DejaVuSans-6e" transform="translate(61.181641 0)"/>
     <use xlink:href="#DejaVuSans-65" transform="translate(124.560547 0)"/>
     <use xlink:href="#DejaVuSans-20" transform="translate(186.083984 0)"/>
     <use xlink:href="#DejaVuSans-6c" transform="translate(217.871094 0)"/>
     <use xlink:href="#DejaVuSans-65" transform="translate(245.654297 0)"/>
     <use xlink:href="#DejaVuSans-61" transform="translate(307.177734 0)"/>
     <use xlink:href="#DejaVuSans-66" transform="translate(368.457031 0)"/>
     <use xlink:href="#DejaVuSans-20" transform="translate(403.662109 0)"/>
     <use xlink:href="#DejaVuSans-6f" transform="translate(435.449219 0)"/>
     <use xlink:href="#DejaVuSans-70" transform="translate(496.630859 0)"/>
     <use xlink:href="#DejaVuSans-65" transform="translate(560.107422 0)"/>
     <use xlink:href="#DejaVuSans-6e" transform="translate(621.630859 0)"/>
     <use xlink:href="#DejaVuSans-73" transform="translate(685.009766 0)"/>
     <use xlink:href="#DejaVuSans-20" transform="translate(737.109375 0)"/>
     <use xlink:href="#DejaVuSans-74" transform="translate(768.896484 0)"/>
     <use xlink:href="#DejaVuSans-68" transform="translate(808.105469 0)"/>
     <use xlink:href="#DejaVuSans-72" transform="translate(871.484375 0)"/>
     <use xlink:href="#DejaVuSans-6f" transform="translate(910.347656 0)"/>
     <use xlink:href="#DejaVuSans-75" transform="translate(971.529297 0)"/>
     <use xlink:href="#DejaVuSans-67" transform="translate(1034.908203 0)"/>
     <use xlink:href="#DejaVuSans-68" transform="translate(1098.384766 0)"/>
     <use xlink:href="#DejaVuSans-20" transform="translate(1161.763672 0)"/>
     <use xlink:href="#DejaVuSans-74" transform="translate(1193.550781 0)"/>
     <use xlink:href="#DejaVuSans-77" transform="translate(1232.759766 0)"/>
     <use xlink:href="#DejaVuSans-6f" transform="translate(1314.546875 0)"/>
     <use xlink:href="#DejaVuSans-20" transform="translate(1375.728516 0)"/>
     <use xlink:href="#DejaVuSans-73" transform="translate(1407.515625 0)"/>
     <use xlink:href="#DejaVuSans-69" transform="translate(1459.615234 0)"/>
     <use xlink:href="#DejaVuSans-62" transform="translate(1487.398438 0)"/>
     <use xlink:href="#DejaVuSans-6c" transform="translate(1550.875 0)"/>
     <use xlink:href="#DejaVuSans-69" transform="translate(1578.658203 0)"/>
     <use xlink:href="#DejaVuSans-6e" transform="translate(1606.441406 0)"/>
     <use xlink:href="#DejaVuSans-67" transform="translate(1669.820312 0)"/>
     <use xlink:href="#DejaVuSans-20" transform="translate(1733.296875 0)"/>
     <use xlink:href="#DejaVuSans-68" transform="translate(1765.083984 0)"/>
     <use xlink:href="#DejaVuSans-61" transform="translate(1828.462891 0)"/>
     <use xlink:href="#DejaVuSans-73" transform="translate(1889.742188 0)"/>
     <use xlink:href="#DejaVuSans-68" transform="translate(1941.841797 0)"/>
     <use xlink:href="#DejaVuSans-65" transform="translate(2005.220703 0)"/>
     <use xlink:href="#DejaVuSans-73" transform="translate(2066.744141 0)"/>
    </g>
   </g>
   <g id="text_9">
    <!-- tamper a leaf -&gt; root changes -->
    <g style="fill: #ff0000" transform="translate(127.786656 270.475825) scale(0.1 -0.1)">
     <defs>
      <path id="DejaVuSans-6d" d="M 3328 2828 
Q 3544 3216 3844 3400 
Q 4144 3584 4550 3584 
Q 5097 3584 5394 3201 
Q 5691 2819 5691 2113 
L 5691 0 
L 5113 0 
L 5113 2094 
Q 5113 2597 4934 2840 
Q 4756 3084 4391 3084 
Q 3944 3084 3684 2787 
Q 3425 2491 3425 1978 
L 3425 0 
L 2847 0 
L 2847 2094 
Q 2847 2600 2669 2842 
Q 2491 3084 2119 3084 
Q 1678 3084 1418 2786 
Q 1159 2488 1159 1978 
L 1159 0 
L 581 0 
L 581 3500 
L 1159 3500 
L 1159 2956 
Q 1356 3278 1631 3431 
Q 1906 3584 2284 3584 
Q 2666 3584 2933 3390 
Q 3200 3197 3328 2828 
z
" transform="scale(0.015625)"/>
      <path id="DejaVuSans-2d" d="M 313 2009 
L 1997 2009 
L 1997 1497 
L 313 1497 
L 313 2009 
z
" transform="scale(0.015625)"/>
      <path id="DejaVuSans-3e" d="M 678 3150 
L 678 3719 
L 4684 2266 
L 4684 1747 
L 678 294 
L 678 863 
L 3897 2003 
L 678 3150 
z
" transform="scale(0.015625)"/>
      <path id="DejaVuSans-63" d="M 3122 3366 
L 3122 2828 
Q 2878 2963 2633 3030 
Q 2388 3097 2138 3097 
Q 1578 3097 1268 2742 
Q 959 2388 959 1747 
Q 959 1106 1268 751 
Q 1578 397 2138 397 
Q 2388 397 2633 464 
Q 2878 531 3122 666 
L 3122 134 
Q 2881 22 2623 -34 
Q 2366 -91 2075 -91 
Q 1284 -91 818 406 
Q 353 903 353 1747 
Q 353 2603 823 3093 
Q 1294 3584 2113 3584 
Q 2378 3584 2631 3529 
Q 2884 3475 3122 3366 
z
" transform="scale(0.015625)"/>
     </defs>
     <use xlink:href="#DejaVuSans-74"/>
     <use xlink:href="#DejaVuSans-61" transform="translate(39.208984 0)"/>
     <use xlink:href="#DejaVuSans-6d" transform="translate(100.488281 0)"/>
     <use xlink:href="#DejaVuSans-70" transform="translate(197.900391 0)"/>
     <use xlink:href="#DejaVuSans-65" transform="translate(261.376953 0)"/>
     <use xlink:href="#DejaVuSans-72" transform="translate(322.900391 0)"/>
     <use xlink:href="#DejaVuSans-20" transform="translate(364.013672 0)"/>
     <use xlink:href="#DejaVuSans-61" transform="translate(395.800781 0)"/>
     <use xlink:href="#DejaVuSans-20" transform="translate(457.080078 0)"/>
     <use xlink:href="#DejaVuSans-6c" transform="translate(488.867188 0)"/>
     <use xlink:href="#DejaVuSans-65" transform="translate(516.650391 0)"/>
     <use xlink:href="#DejaVuSans-61" transform="translate(578.173828 0)"/>
     <use xlink:href="#DejaVuSans-66" transform="translate(639.453125 0)"/>
     <use xlink:href="#DejaVuSans-20" transform="translate(674.658203 0)"/>
     <use xlink:href="#DejaVuSans-2d" transform="translate(706.445312 0)"/>
     <use xlink:href="#DejaVuSans-3e" transform="translate(742.529297 0)"/>
     <use xlink:href="#DejaVuSans-20" transform="translate(826.318359 0)"/>
     <use xlink:href="#DejaVuSans-72" transform="translate(858.105469 0)"/>
     <use xlink:href="#DejaVuSans-6f" transform="translate(896.96875 0)"/>
     <use xlink:href="#DejaVuSans-6f" transform="translate(958.150391 0)"/>
     <use xlink:href="#DejaVuSans-74" transform="translate(1019.332031 0)"/>
     <use xlink:href="#DejaVuSans-20" transform="translate(1058.541016 0)"/>
     <use xlink:href="#DejaVuSans-63" transform="translate(1090.328125 0)"/>
     <use xlink:href="#DejaVuSans-68" transform="translate(1145.308594 0)"/>
     <use xlink:href="#DejaVuSans-61" transform="translate(1208.6875 0)"/>
     <use xlink:href="#DejaVuSans-6e" transform="translate(1269.966797 0)"/>
     <use xlink:href="#DejaVuSans-67" transform="translate(1333.345703 0)"/>
     <use xlink:href="#DejaVuSans-65" transform="translate(1396.822266 0)"/>
     <use xlink:href="#DejaVuSans-73" transform="translate(1458.345703 0)"/>
    </g>
   </g>
   <g id="patch_3">
    <path d="M 203.308531 51.709995 
C 208.533275 51.709995 213.54473 49.634182 217.239182 45.93973 
C 220.933633 42.245279 223.009446 37.233824 223.009446 32.00908 
C 223.009446 26.784337 220.933633 21.772882 217.239182 18.07843 
C 213.54473 14.383978 208.533275 12.308166 203.308531 12.308166 
C 198.083788 12.308166 193.072333 14.383978 189.377881 18.07843 
C 185.68343 21.772882 183.607617 26.784337 183.607617 32.00908 
C 183.607617 37.233824 185.68343 42.245279 189.377881 45.93973 
C 193.072333 49.634182 198.083788 51.709995 203.308531 51.709995 
L 203.308531 51.709995 
z
" clip-path="url(#pc8e70b19b4)" style="fill: none; stroke: #ff0000; stroke-width: 2; stroke-linejoin: miter"/>
   </g>
   <g id="patch_4">
    <path d="M 90.731877 129.106444 
C 95.956621 129.106444 100.968076 127.030632 104.662528 123.33618 
C 108.356979 119.641728 110.432792 114.630273 110.432792 109.40553 
C 110.432792 104.180786 108.356979 99.169331 104.662528 95.47488 
C 100.968076 91.780428 95.956621 89.704615 90.731877 89.704615 
C 85.507134 89.704615 80.495679 91.780428 76.801227 95.47488 
C 73.106776 99.169331 71.030963 104.180786 71.030963 109.40553 
C 71.030963 114.630273 73.106776 119.641728 76.801227 123.33618 
C 80.495679 127.030632 85.507134 129.106444 90.731877 129.106444 
L 90.731877 129.106444 
z
" clip-path="url(#pc8e70b19b4)" style="fill: none; stroke: #d3d3d3; stroke-width: 2; stroke-linejoin: miter"/>
   </g>
   <g id="patch_5">
    <path d="M 315.885186 129.106444 
C 321.109929 129.106444 326.121384 127.030632 329.815836 123.33618 
C 333.510287 119.641728 335.5861 114.630273 335.5861 109.40553 
C 335.5861 104.180786 333.510287 99.169331 329.815836 95.47488 
C 326.121384 91.780428 321.109929 89.704615 315.885186 89.704615 
C 310.660442 89.704615 305.648987 91.780428 301.954535 95.47488 
C 298.260084 99.169331 296.184271 104.180786 296.184271 109.40553 
C 296.184271 114.630273 298.260084 119.641728 301.954535 123.33618 
C 305.648987 127.030632 310.660442 129.106444 315.885186 129.106444 
L 315.885186 129.106444 
z
" clip-path="url(#pc8e70b19b4)" style="fill: none; stroke: #ff0000; stroke-width: 2; stroke-linejoin: miter"/>
   </g>
   <g id="patch_6">
    <path d="M 34.44355 213.538935 
C 39.668294 213.538935 44.679749 211.463122 48.374201 207.768671 
C 52.068652 204.074219 54.144465 199.062764 54.144465 193.83802 
C 54.144465 188.613277 52.068652 183.601822 48.374201 179.90737 
C 44.679749 176.212919 39.668294 174.137106 34.44355 174.137106 
C 29.218807 174.137106 24.207352 176.212919 20.5129 179.90737 
C 16.818448 183.601822 14.742636 188.613277 14.742636 193.83802 
C 14.742636 199.062764 16.818448 204.074219 20.5129 207.768671 
C 24.207352 211.463122 29.218807 213.538935 34.44355 213.538935 
L 34.44355 213.538935 
z
" clip-path="url(#pc8e70b19b4)" style="fill: none; stroke: #d3d3d3; stroke-width: 2; stroke-linejoin: miter"/>
   </g>
   <g id="patch_7">
    <path d="M 147.020204 213.538935 
C 152.244948 213.538935 157.256403 211.463122 160.950855 207.768671 
C 164.645306 204.074219 166.721119 199.062764 166.721119 193.83802 
C 166.721119 188.613277 164.645306 183.601822 160.950855 179.90737 
C 157.256403 176.212919 152.244948 174.137106 147.020204 174.137106 
C 141.795461 174.137106 136.784006 176.212919 133.089554 179.90737 
C 129.395103 183.601822 127.31929 188.613277 127.31929 193.83802 
C 127.31929 199.062764 129.395103 204.074219 133.089554 207.768671 
C 136.784006 211.463122 141.795461 213.538935 147.020204 213.538935 
L 147.020204 213.538935 
z
" clip-path="url(#pc8e70b19b4)" style="fill: none; stroke: #d3d3d3; stroke-width: 2; stroke-linejoin: miter"/>
   </g>
   <g id="patch_8">
    <path d="M 259.596859 213.538935 
C 264.821602 213.538935 269.833057 211.463122 273.527509 207.768671 
C 277.22196 204.074219 279.297773 199.062764 279.297773 193.83802 
C 279.297773 188.613277 277.22196 183.601822 273.527509 179.90737 
C 269.833057 176.212919 264.821602 174.137106 259.596859 174.137106 
C 254.372115 174.137106 249.36066 176.212919 245.666208 179.90737 
C 241.971757 183.601822 239.895944 188.613277 239.895944 193.83802 
C 239.895944 199.062764 241.971757 204.074219 245.666208 207.768671 
C 249.36066 211.463122 254.372115 213.538935 259.596859 213.538935 
L 259.596859 213.538935 
z
" clip-path="url(#pc8e70b19b4)" style="fill: none; stroke: #ff0000; stroke-width: 2; stroke-linejoin: miter"/>
   </g>
   <g id="patch_9">
    <path d="M 372.173513 213.538935 
C 377.398256 213.538935 382.409711 211.463122 386.104163 207.768671 
C 389.798614 204.074219 391.874427 199.062764 391.874427 193.83802 
C 391.874427 188.613277 389.798614 183.601822 386.104163 179.90737 
C 382.409711 176.212919 377.398256 174.137106 372.173513 174.137106 
C 366.948769 174.137106 361.937314 176.212919 358.242862 179.90737 
C 354.548411 183.601822 352.472598 188.613277 352.472598 193.83802 
C 352.472598 199.062764 354.548411 204.074219 358.242862 207.768671 
C 361.937314 211.463122 366.948769 213.538935 372.173513 213.538935 
L 372.173513 213.538935 
z
" clip-path="url(#pc8e70b19b4)" style="fill: none; stroke: #d3d3d3; stroke-width: 2; stroke-linejoin: miter"/>
   </g>
  </g>
 </g>
 <defs>
  <clipPath id="pc8e70b19b4">
   <rect x="7.2" y="7.2" width="392.217063" height="265.624615"/>
  </clipPath>
 </defs>
</svg>
