<?xml version="1.0" encoding="utf-8" standalone="no"?>
<!DOCTYPE svg PUBLIC "-//W3C//DTD SVG 1.1//EN"
  "http://www.w3.org/Graphics/SVG/1.1/DTD/svg11.dtd">
<svg xmlns:xlink="http://www.w3.org/1999/xlink" width="236.301639pt" height="352.8pt" viewBox="0 0 236.301639 352.8" xmlns="http://www.w3.org/2000/svg" version="1.1">
 <metadata>
  <rdf:RDF xmlns:dc="http://purl.org/dc/elements/1.1/" xmlns:cc="http://creativecommons.org/ns#" xmlns:rdf="http://www.w3.org/1999/02/22-rdf-syntax-ns#">
   <cc:Work>
    <dc:type rdf:resource="http://purl.org/dc/dcmitype/StillImage"/>
    <dc:date>2026-06-15T21:45:07.016640</dc:date>
    <dc:format>image/svg+xml</dc:format>
    <dc:creator>
     <cc:Agent>
      <dc:title>Matplotlib v3.10.9, https://matplotlib.org/</dc:title>
     </cc:Agent>
    </dc:creator>
   </cc:Work>
  </rdf:RDF>
 </metadata>
 <defs>
  <style type="text/css">*{stroke-linejoin: round; stroke-linecap: butt}</style>
 </defs>
 <g id="figure_1">
  <g id="patch_1">
   <path d="M 0 352.8 
L 236.301639 352.8 
L 236.301639 0 
L 0 0 
z
" style="fill: #ffffff"/>
  </g>
  <g id="axes_1">
   <g id="patch_2">
    <path d="M 7.2 345.6 
L 229.101639 345.6 
L 229.101639 7.2 
L 7.2 7.2 
z
" style="fill: #ffffff"/>
   </g>
   <g id="PathCollection_1">
    <path d="M 224.8343 150.020083 
C 225.618781 150.020083 226.371238 149.708405 226.92595 149.153693 
C 227.480662 148.598981 227.79234 147.846524 227.79234 147.062043 
C 227.79234 146.277562 227.480662 145.525105 226.92595 144.970393 
C 226.371238 144.415681 225.618781 144.104003 224.8343 144.104003 
C 224.049819 144.104003 223.297362 144.415681 222.74265 144.970393 
C 222.187938 145.525105 221.87626 146.277562 221.87626 147.062043 
C 221.87626 147.846524 222.187938 148.598981 222.74265 149.153693 
C 223.297362 149.708405 224.049819 150.020083 224.8343 150.020083 
z
" clip-path="url(#p2a71b02a2b)" style="fill: #0000ff"/>
   </g>
   <g id="PathCollection_2">
    <path d="M 224.832272 149.362273 
C 225.616753 149.362273 226.36921 149.050596 226.923922 148.495883 
C 227.478634 147.941171 227.790312 147.188715 227.790312 146.404233 
C 227.790312 145.619752 227.478634 144.867295 226.923922 144.312583 
C 226.36921 143.757871 225.616753 143.446194 224.832272 143.446194 
C 224.047791 143.446194 223.295334 143.757871 222.740622 144.312583 
C 222.18591 144.867295 221.874232 145.619752 221.874232 146.404233 
C 221.874232 147.188715 222.18591 147.941171 222.740622 148.495883 
C 223.295334 149.050596 224.047791 149.362273 224.832272 149.362273 
z
" clip-path="url(#p2a71b02a2b)" style="fill: #0000ff"/>
   </g>
   <g id="PathCollection_3">
    <path d="M 224.826188 148.704489 
C 225.610669 148.704489 226.363126 148.392811 226.917838 147.838099 
C 227.47255 147.283387 227.784228 146.53093 227.784228 145.746449 
C 227.784228 144.961968 227.47255 144.209511 226.917838 143.654799 
C 226.363126 143.100087 225.610669 142.788409 224.826188 142.788409 
C 224.041707 142.788409 223.28925 143.100087 222.734538 143.654799 
C 222.179826 144.209511 221.868148 144.961968 221.868148 145.746449 
C 221.868148 146.53093 222.179826 147.283387 222.734538 147.838099 
C 223.28925 148.392811 224.041707 148.704489 224.826188 148.704489 
z
" clip-path="url(#p2a71b02a2b)" style="fill: #0000ff"/>
   </g>
   <g id="PathCollection_4">
    <path d="M 224.816048 148.046754 
C 225.60053 148.046754 226.352986 147.735077 226.907698 147.180365 
C 227.46241 146.625653 227.774088 145.873196 227.774088 145.088715 
C 227.774088 144.304233 227.46241 143.551777 226.907698 142.997064 
C 226.352986 142.442352 225.60053 142.130675 224.816048 142.130675 
C 224.031567 142.130675 223.27911 142.442352 222.724398 142.997064 
C 222.169686 143.551777 221.858008 144.304233 221.858008 145.088715 
C 221.858008 145.873196 222.169686 146.625653 222.724398 147.180365 
C 223.27911 147.735077 224.031567 148.046754 224.816048 148.046754 
z
" clip-path="url(#p2a71b02a2b)" style="fill: #0000ff"/>
   </g>
   <g id="PathCollection_5">
    <path d="M 224.801853 147.389095 
C 225.586334 147.389095 226.338791 147.077417 226.893503 146.522705 
C 227.448215 145.967993 227.759893 145.215537 227.759893 144.431055 
C 227.759893 143.646574 227.448215 142.894117 226.893503 142.339405 
C 226.338791 141.784693 225.586334 141.473015 224.801853 141.473015 
C 224.017372 141.473015 223.264915 141.784693 222.710203 142.339405 
C 222.155491 142.894117 221.843813 143.646574 221.843813 144.431055 
C 221.843813 145.215537 222.155491 145.967993 222.710203 146.522705 
C 223.264915 147.077417 224.017372 147.389095 224.801853 147.389095 
z
" clip-path="url(#p2a71b02a2b)" style="fill: #0000ff"/>
   </g>
   <g id="PathCollection_6">
    <path d="M 224.783603 146.731536 
C 225.568084 146.731536 226.320541 146.419858 226.875253 145.865146 
C 227.429965 145.310434 227.741643 144.557977 227.741643 143.773496 
C 227.741643 142.989014 227.429965 142.236558 226.875253 141.681846 
C 226.320541 141.127134 225.568084 140.815456 224.783603 140.815456 
C 223.999122 140.815456 223.246665 141.127134 222.691953 141.681846 
C 222.137241 142.236558 221.825563 142.989014 221.825563 143.773496 
C 221.825563 144.557977 222.137241 145.310434 222.691953 145.865146 
C 223.246665 146.419858 223.999122 146.731536 224.783603 146.731536 
z
" clip-path="url(#p2a71b02a2b)" style="fill: #0000ff"/>
   </g>
   <g id="PathCollection_7">
    <path d="M 224.761299 146.074101 
C 225.54578 146.074101 226.298237 145.762424 226.852949 145.207712 
C 227.407661 144.652999 227.719339 143.900543 227.719339 143.116061 
C 227.719339 142.33158 227.407661 141.579123 226.852949 141.024411 
C 226.298237 140.469699 225.54578 140.158022 224.761299 140.158022 
C 223.976817 140.158022 223.224361 140.469699 222.669649 141.024411 
C 222.114937 141.579123 221.803259 142.33158 221.803259 143.116061 
C 221.803259 143.900543 222.114937 144.652999 222.669649 145.207712 
C 223.224361 145.762424 223.976817 146.074101 224.761299 146.074101 
z
" clip-path="url(#p2a71b02a2b)" style="fill: #0000ff"/>
   </g>
   <g id="PathCollection_8">
    <path d="M 224.734941 145.416817 
C 225.519422 145.416817 226.271879 145.105139 226.826591 144.550427 
C 227.381303 143.995715 227.692981 143.243259 227.692981 142.458777 
C 227.692981 141.674296 227.381303 140.921839 226.826591 140.367127 
C 226.271879 139.812415 225.519422 139.500737 224.734941 139.500737 
C 223.95046 139.500737 223.198003 139.812415 222.643291 140.367127 
C 222.088579 140.921839 221.776901 141.674296 221.776901 142.458777 
C 221.776901 143.243259 222.088579 143.995715 222.643291 144.550427 
C 223.198003 145.105139 223.95046 145.416817 224.734941 145.416817 
z
" clip-path="url(#p2a71b02a2b)" style="fill: #0000ff"/>
   </g>
   <g id="PathCollection_9">
    <path d="M 224.704531 144.759708 
C 225.489013 144.759708 226.241469 144.44803 226.796181 143.893318 
C 227.350893 143.338606 227.662571 142.586149 227.662571 141.801668 
C 227.662571 141.017187 227.350893 140.26473 226.796181 139.710018 
C 226.241469 139.155306 225.489013 138.843628 224.704531 138.843628 
C 223.92005 138.843628 223.167593 139.155306 222.612881 139.710018 
C 222.058169 140.26473 221.746491 141.017187 221.746491 141.801668 
C 221.746491 142.586149 222.058169 143.338606 222.612881 143.893318 
C 223.167593 144.44803 223.92005 144.759708 224.704531 144.759708 
z
" clip-path="url(#p2a71b02a2b)" style="fill: #0000ff"/>
   </g>
   <g id="PathCollection_10">
    <path d="M 224.67007 144.102798 
C 225.454552 144.102798 226.207008 143.791121 226.76172 143.236409 
C 227.316432 142.681697 227.62811 141.92924 227.62811 141.144759 
C 227.62811 140.360277 227.316432 139.607821 226.76172 139.053108 
C 226.207008 138.498396 225.454552 138.186719 224.67007 138.186719 
C 223.885589 138.186719 223.133132 138.498396 222.57842 139.053108 
C 222.023708 139.607821 221.71203 140.360277 221.71203 141.144759 
C 221.71203 141.92924 222.023708 142.681697 222.57842 143.236409 
C 223.133132 143.791121 223.885589 144.102798 224.67007 144.102798 
z
" clip-path="url(#p2a71b02a2b)" style="fill: #0000ff"/>
   </g>
   <g id="PathCollection_11">
    <path d="M 224.631559 143.446114 
C 225.416041 143.446114 226.168497 143.134436 226.723209 142.579724 
C 227.277922 142.025012 227.589599 141.272556 227.589599 140.488074 
C 227.589599 139.703593 227.277922 138.951136 226.723209 138.396424 
C 226.168497 137.841712 225.416041 137.530034 224.631559 137.530034 
C 223.847078 137.530034 223.094621 137.841712 222.539909 138.396424 
C 221.985197 138.951136 221.67352 139.703593 221.67352 140.488074 
C 221.67352 141.272556 221.985197 142.025012 222.539909 142.579724 
C 223.094621 143.134436 223.847078 143.446114 224.631559 143.446114 
z
" clip-path="url(#p2a71b02a2b)" style="fill: #0000ff"/>
   </g>
   <g id="PathCollection_12">
    <path d="M 224.589 142.78968 
C 225.373482 142.78968 226.125938 142.478002 226.68065 141.92329 
C 227.235362 141.368578 227.54704 140.616121 227.54704 139.83164 
C 227.54704 139.047159 227.235362 138.294702 226.68065 137.73999 
C 226.125938 137.185278 225.373482 136.8736 224.589 136.8736 
C 223.804519 136.8736 223.052062 137.185278 222.49735 137.73999 
C 221.942638 138.294702 221.63096 139.047159 221.63096 139.83164 
C 221.63096 140.616121 221.942638 141.368578 222.49735 141.92329 
C 223.052062 142.478002 223.804519 142.78968 224.589 142.78968 
z
" clip-path="url(#p2a71b02a2b)" style="fill: #0000ff"/>
   </g>
   <g id="PathCollection_13">
    <path d="M 184.446236 234.82933 
C 185.55566 234.82933 186.619794 234.388551 187.404276 233.604069 
C 188.188757 232.819588 188.629536 231.755454 188.629536 230.646029 
C 188.629536 229.536605 188.188757 228.472471 187.404276 227.68799 
C 186.619794 226.903508 185.55566 226.462729 184.446236 226.462729 
C 183.336812 226.462729 182.272677 226.903508 181.488196 227.68799 
C 180.703715 228.472471 180.262936 229.536605 180.262936 230.646029 
C 180.262936 231.755454 180.703715 232.819588 181.488196 233.604069 
C 182.272677 234.388551 183.336812 234.82933 184.446236 234.82933 
z
" clip-path="url(#p2a71b02a2b)" style="fill: #ff0000"/>
   </g>
   <g id="matplotlib.axis_1"/>
   <g id="matplotlib.axis_2"/>
   <g id="text_1">
    <!-- walk: g^0, g^1, g^2, ... -->
    <g style="fill: #0000ff" transform="translate(57.502382 16.467067) scale(0.1 -0.1)">
     <defs>
      <path id="DejaVuSans-77" d="M 269 3500 
L 844 3500 
L 1563 769 
L 2278 3500 
L 2956 3500 
L 3675 769 
L 4391 3500 
L 4966 3500 
L 4050 0 
L 3372 0 
L 2619 2869 
L 1863 0 
L 1184 0 
L 269 3500 
z
" transform="scale(0.015625)"/>
      <path id="DejaVuSans-61" d="M 2194 1759 
Q 1497 1759 1228 1600 
Q 959 1441 959 1056 
Q 959 750 1161 570 
Q 1363 391 1709 391 
Q 2188 391 2477 730 
Q 2766 1069 2766 1631 
L 2766 1759 
L 2194 1759 
z
M 3341 1997 
L 3341 0 
L 2766 0 
L 2766 531 
Q 2569 213 2275 61 
Q 1981 -91 1556 -91 
Q 1019 -91 701 211 
Q 384 513 384 1019 
Q 384 1609 779 1909 
Q 1175 2209 1959 2209 
L 2766 2209 
L 2766 2266 
Q 2766 2663 2505 2880 
Q 2244 3097 1772 3097 
Q 1472 3097 1187 3025 
Q 903 2953 641 2809 
L 641 3341 
Q 956 3463 1253 3523 
Q 1550 3584 1831 3584 
Q 2591 3584 2966 3190 
Q 3341 2797 3341 1997 
z
" transform="scale(0.015625)"/>
      <path id="DejaVuSans-6c" d="M 603 4863 
L 1178 4863 
L 1178 0 
L 603 0 
L 603 4863 
z
" transform="scale(0.015625)"/>
      <path id="DejaVuSans-6b" d="M 581 4863 
L 1159 4863 
L 1159 1991 
L 2875 3500 
L 3609 3500 
L 1753 1863 
L 3688 0 
L 2938 0 
L 1159 1709 
L 1159 0 
L 581 0 
L 581 4863 
z
" transform="scale(0.015625)"/>
      <path id="DejaVuSans-3a" d="M 750 794 
L 1409 794 
L 1409 0 
L 750 0 
L 750 794 
z
M 750 3309 
L 1409 3309 
L 1409 2516 
L 750 2516 
L 750 3309 
z
" transform="scale(0.015625)"/>
      <path id="DejaVuSans-20" transform="scale(0.015625)"/>
      <path id="DejaVuSans-67" d="M 2906 1791 
Q 2906 2416 2648 2759 
Q 2391 3103 1925 3103 
Q 1463 3103 1205 2759 
Q 947 2416 947 1791 
Q 947 1169 1205 825 
Q 1463 481 1925 481 
Q 2391 481 2648 825 
Q 2906 1169 2906 1791 
z
M 3481 434 
Q 3481 -459 3084 -895 
Q 2688 -1331 1869 -1331 
Q 1566 -1331 1297 -1286 
Q 1028 -1241 775 -1147 
L 775 -588 
Q 1028 -725 1275 -790 
Q 1522 -856 1778 -856 
Q 2344 -856 2625 -561 
Q 2906 -266 2906 331 
L 2906 616 
Q 2728 306 2450 153 
Q 2172 0 1784 0 
Q 1141 0 747 490 
Q 353 981 353 1791 
Q 353 2603 747 3093 
Q 1141 3584 1784 3584 
Q 2172 3584 2450 3431 
Q 2728 3278 2906 2969 
L 2906 3500 
L 3481 3500 
L 3481 434 
z
" transform="scale(0.015625)"/>
      <path id="DejaVuSans-5e" d="M 2988 4666 
L 4684 2925 
L 4056 2925 
L 2681 4159 
L 1306 2925 
L 678 2925 
L 2375 4666 
L 2988 4666 
z
" transform="scale(0.015625)"/>
      <path id="DejaVuSans-30" d="M 2034 4250 
Q 1547 4250 1301 3770 
Q 1056 3291 1056 2328 
Q 1056 1369 1301 889 
Q 1547 409 2034 409 
Q 2525 409 2770 889 
Q 3016 1369 3016 2328 
Q 3016 3291 2770 3770 
Q 2525 4250 2034 4250 
z
M 2034 4750 
Q 2819 4750 3233 4129 
Q 3647 3509 3647 2328 
Q 3647 1150 3233 529 
Q 2819 -91 2034 -91 
Q 1250 -91 836 529 
Q 422 1150 422 2328 
Q 422 3509 836 4129 
Q 1250 4750 2034 4750 
z
" transform="scale(0.015625)"/>
      <path id="DejaVuSans-2c" d="M 750 794 
L 1409 794 
L 1409 256 
L 897 -744 
L 494 -744 
L 750 256 
L 750 794 
z
" transform="scale(0.015625)"/>
      <path id="DejaVuSans-31" d="M 794 531 
L 1825 531 
L 1825 4091 
L 703 3866 
L 703 4441 
L 1819 4666 
L 2450 4666 
L 2450 531 
L 3481 531 
L 3481 0 
L 794 0 
L 794 531 
z
" transform="scale(0.015625)"/>
      <path id="DejaVuSans-32" d="M 1228 531 
L 3431 531 
L 3431 0 
L 469 0 
L 469 531 
Q 828 903 1448 1529 
Q 2069 2156 2228 2338 
Q 2531 2678 2651 2914 
Q 2772 3150 2772 3378 
Q 2772 3750 2511 3984 
Q 2250 4219 1831 4219 
Q 1534 4219 1204 4116 
Q 875 4013 500 3803 
L 500 4441 
Q 881 4594 1212 4672 
Q 1544 4750 1819 4750 
Q 2544 4750 2975 4387 
Q 3406 4025 3406 3419 
Q 3406 3131 3298 2873 
Q 3191 2616 2906 2266 
Q 2828 2175 2409 1742 
Q 1991 1309 1228 531 
z
" transform="scale(0.015625)"/>
      <path id="DejaVuSans-2e" d="M 684 794 
L 1344 794 
L 1344 0 
L 684 0 
L 684 794 
z
" transform="scale(0.015625)"/>
     </defs>
     <use xlink:href="#DejaVuSans-77"/>
     <use xlink:href="#DejaVuSans-61" transform="translate(81.787109 0)"/>
     <use xlink:href="#DejaVuSans-6c" transform="translate(143.066406 0)"/>
     <use xlink:href="#DejaVuSans-6b" transform="translate(170.849609 0)"/>
     <use xlink:href="#DejaVuSans-3a" transform="translate(228.759766 0)"/>
     <use xlink:href="#DejaVuSans-20" transform="translate(262.451172 0)"/>
     <use xlink:href="#DejaVuSans-67" transform="translate(294.238281 0)"/>
     <use xlink:href="#DejaVuSans-5e" transform="translate(357.714844 0)"/>
     <use xlink:href="#DejaVuSans-30" transform="translate(441.503906 0)"/>
     <use xlink:href="#DejaVuSans-2c" transform="translate(505.126953 0)"/>
     <use xlink:href="#DejaVuSans-20" transform="translate(536.914062 0)"/>
     <use xlink:href="#DejaVuSans-67" transform="translate(568.701172 0)"/>
     <use xlink:href="#DejaVuSans-5e" transform="translate(632.177734 0)"/>
     <use xlink:href="#DejaVuSans-31" transform="translate(715.966797 0)"/>
     <use xlink:href="#DejaVuSans-2c" transform="translate(779.589844 0)"/>
     <use xlink:href="#DejaVuSans-20" transform="translate(811.376953 0)"/>
     <use xlink:href="#DejaVuSans-67" transform="translate(843.164062 0)"/>
     <use xlink:href="#DejaVuSans-5e" transform="translate(906.640625 0)"/>
     <use xlink:href="#DejaVuSans-32" transform="translate(990.429688 0)"/>
     <use xlink:href="#DejaVuSans-2c" transform="translate(1054.052734 0)"/>
     <use xlink:href="#DejaVuSans-20" transform="translate(1085.839844 0)"/>
     <use xlink:href="#DejaVuSans-2e" transform="translate(1117.626953 0)"/>
     <use xlink:href="#DejaVuSans-2e" transform="translate(1149.414062 0)"/>
     <use xlink:href="#DejaVuSans-2e" transform="translate(1181.201172 0)"/>
    </g>
   </g>
   <g id="text_2">
    <!-- target h = g^x -->
    <g style="fill: #ff0000" transform="translate(80.498476 283.175768) scale(0.1 -0.1)">
     <defs>
      <path id="DejaVuSans-74" d="M 1172 4494 
L 1172 3500 
L 2356 3500 
L 2356 3053 
L 1172 3053 
L 1172 1153 
Q 1172 725 1289 603 
Q 1406 481 1766 481 
L 2356 481 
L 2356 0 
L 1766 0 
Q 1100 0 847 248 
Q 594 497 594 1153 
L 594 3053 
L 172 3053 
L 172 3500 
L 594 3500 
L 594 4494 
L 1172 4494 
z
" transform="scale(0.015625)"/>
      <path id="DejaVuSans-72" d="M 2631 2963 
Q 2534 3019 2420 3045 
Q 2306 3072 2169 3072 
Q 1681 3072 1420 2755 
Q 1159 2438 1159 1844 
L 1159 0 
L 581 0 
L 581 3500 
L 1159 3500 
L 1159 2956 
Q 1341 3275 1631 3429 
Q 1922 3584 2338 3584 
Q 2397 3584 2469 3576 
Q 2541 3569 2628 3553 
L 2631 2963 
z
" transform="scale(0.015625)"/>
      <path id="DejaVuSans-65" d="M 3597 1894 
L 3597 1613 
L 953 1613 
Q 991 1019 1311 708 
Q 1631 397 2203 397 
Q 2534 397 2845 478 
Q 3156 559 3463 722 
L 3463 178 
Q 3153 47 2828 -22 
Q 2503 -91 2169 -91 
Q 1331 -91 842 396 
Q 353 884 353 1716 
Q 353 2575 817 3079 
Q 1281 3584 2069 3584 
Q 2775 3584 3186 3129 
Q 3597 2675 3597 1894 
z
M 3022 2063 
Q 3016 2534 2758 2815 
Q 2500 3097 2075 3097 
Q 1594 3097 1305 2825 
Q 1016 2553 972 2059 
L 3022 2063 
z
" transform="scale(0.015625)"/>
      <path id="DejaVuSans-68" d="M 3513 2113 
L 3513 0 
L 2938 0 
L 2938 2094 
Q 2938 2591 2744 2837 
Q 2550 3084 2163 3084 
Q 1697 3084 1428 2787 
Q 1159 2491 1159 1978 
L 1159 0 
L 581 0 
L 581 4863 
L 1159 4863 
L 1159 2956 
Q 1366 3272 1645 3428 
Q 1925 3584 2291 3584 
Q 2894 3584 3203 3211 
Q 3513 2838 3513 2113 
z
" transform="scale(0.015625)"/>
      <path id="DejaVuSans-3d" d="M 678 2906 
L 4684 2906 
L 4684 2381 
L 678 2381 
L 678 2906 
z
M 678 1631 
L 4684 1631 
L 4684 1100 
L 678 1100 
L 678 1631 
z
" transform="scale(0.015625)"/>
      <path id="DejaVuSans-78" d="M 3513 3500 
L 2247 1797 
L 3578 0 
L 2900 0 
L 1881 1375 
L 863 0 
L 184 0 
L 1544 1831 
L 300 3500 
L 978 3500 
L 1906 2253 
L 2834 3500 
L 3513 3500 
z
" transform="scale(0.015625)"/>
     </defs>
     <use xlink:href="#DejaVuSans-74"/>
     <use xlink:href="#DejaVuSans-61" transform="translate(39.208984 0)"/>
     <use xlink:href="#DejaVuSans-72" transform="translate(100.488281 0)"/>
     <use xlink:href="#DejaVuSans-67" transform="translate(139.851562 0)"/>
     <use xlink:href="#DejaVuSans-65" transform="translate(203.328125 0)"/>
     <use xlink:href="#DejaVuSans-74" transform="translate(264.851562 0)"/>
     <use xlink:href="#DejaVuSans-20" transform="translate(304.060547 0)"/>
     <use xlink:href="#DejaVuSans-68" transform="translate(335.847656 0)"/>
     <use xlink:href="#DejaVuSans-20" transform="translate(399.226562 0)"/>
     <use xlink:href="#DejaVuSans-3d" transform="translate(431.013672 0)"/>
     <use xlink:href="#DejaVuSans-20" transform="translate(514.802734 0)"/>
     <use xlink:href="#DejaVuSans-67" transform="translate(546.589844 0)"/>
     <use xlink:href="#DejaVuSans-5e" transform="translate(610.066406 0)"/>
     <use xlink:href="#DejaVuSans-78" transform="translate(693.855469 0)"/>
    </g>
   </g>
   <g id="text_3">
    <!-- forward: short multiplication chain -->
    <g transform="translate(40.633398 314.904875) scale(0.09 -0.09)">
     <defs>
      <path id="DejaVuSans-66" d="M 2375 4863 
L 2375 4384 
L 1825 4384 
Q 1516 4384 1395 4259 
Q 1275 4134 1275 3809 
L 1275 3500 
L 2222 3500 
L 2222 3053 
L 1275 3053 
L 1275 0 
L 697 0 
L 697 3053 
L 147 3053 
L 147 3500 
L 697 3500 
L 697 3744 
Q 697 4328 969 4595 
Q 1241 4863 1831 4863 
L 2375 4863 
z
" transform="scale(0.015625)"/>
      <path id="DejaVuSans-6f" d="M 1959 3097 
Q 1497 3097 1228 2736 
Q 959 2375 959 1747 
Q 959 1119 1226 758 
Q 1494 397 1959 397 
Q 2419 397 2687 759 
Q 2956 1122 2956 1747 
Q 2956 2369 2687 2733 
Q 2419 3097 1959 3097 
z
M 1959 3584 
Q 2709 3584 3137 3096 
Q 3566 2609 3566 1747 
Q 3566 888 3137 398 
Q 2709 -91 1959 -91 
Q 1206 -91 779 398 
Q 353 888 353 1747 
Q 353 2609 779 3096 
Q 1206 3584 1959 3584 
z
" transform="scale(0.015625)"/>
      <path id="DejaVuSans-64" d="M 2906 2969 
L 2906 4863 
L 3481 4863 
L 3481 0 
L 2906 0 
L 2906 525 
Q 2725 213 2448 61 
Q 2172 -91 1784 -91 
Q 1150 -91 751 415 
Q 353 922 353 1747 
Q 353 2572 751 3078 
Q 1150 3584 1784 3584 
Q 2172 3584 2448 3432 
Q 2725 3281 2906 2969 
z
M 947 1747 
Q 947 1113 1208 752 
Q 1469 391 1925 391 
Q 2381 391 2643 752 
Q 2906 1113 2906 1747 
Q 2906 2381 2643 2742 
Q 2381 3103 1925 3103 
Q 1469 3103 1208 2742 
Q 947 2381 947 1747 
z
" transform="scale(0.015625)"/>
      <path id="DejaVuSans-73" d="M 2834 3397 
L 2834 2853 
Q 2591 2978 2328 3040 
Q 2066 3103 1784 3103 
Q 1356 3103 1142 2972 
Q 928 2841 928 2578 
Q 928 2378 1081 2264 
Q 1234 2150 1697 2047 
L 1894 2003 
Q 2506 1872 2764 1633 
Q 3022 1394 3022 966 
Q 3022 478 2636 193 
Q 2250 -91 1575 -91 
Q 1294 -91 989 -36 
Q 684 19 347 128 
L 347 722 
Q 666 556 975 473 
Q 1284 391 1588 391 
Q 1994 391 2212 530 
Q 2431 669 2431 922 
Q 2431 1156 2273 1281 
Q 2116 1406 1581 1522 
L 1381 1569 
Q 847 1681 609 1914 
Q 372 2147 372 2553 
Q 372 3047 722 3315 
Q 1072 3584 1716 3584 
Q 2034 3584 2315 3537 
Q 2597 3491 2834 3397 
z
" transform="scale(0.015625)"/>
      <path id="DejaVuSans-6d" d="M 3328 2828 
Q 3544 3216 3844 3400 
Q 4144 3584 4550 3584 
Q 5097 3584 5394 3201 
Q 5691 2819 5691 2113 
L 5691 0 
L 5113 0 
L 5113 2094 
Q 5113 2597 4934 2840 
Q 4756 3084 4391 3084 
Q 3944 3084 3684 2787 
Q 3425 2491 3425 1978 
L 3425 0 
L 2847 0 
L 2847 2094 
Q 2847 2600 2669 2842 
Q 2491 3084 2119 3084 
Q 1678 3084 1418 2786 
Q 1159 2488 1159 1978 
L 1159 0 
L 581 0 
L 581 3500 
L 1159 3500 
L 1159 2956 
Q 1356 3278 1631 3431 
Q 1906 3584 2284 3584 
Q 2666 3584 2933 3390 
Q 3200 3197 3328 2828 
z
" transform="scale(0.015625)"/>
      <path id="DejaVuSans-75" d="M 544 1381 
L 544 3500 
L 1119 3500 
L 1119 1403 
Q 1119 906 1312 657 
Q 1506 409 1894 409 
Q 2359 409 2629 706 
Q 2900 1003 2900 1516 
L 2900 3500 
L 3475 3500 
L 3475 0 
L 2900 0 
L 2900 538 
Q 2691 219 2414 64 
Q 2138 -91 1772 -91 
Q 1169 -91 856 284 
Q 544 659 544 1381 
z
M 1991 3584 
L 1991 3584 
z
" transform="scale(0.015625)"/>
      <path id="DejaVuSans-69" d="M 603 3500 
L 1178 3500 
L 1178 0 
L 603 0 
L 603 3500 
z
M 603 4863 
L 1178 4863 
L 1178 4134 
L 603 4134 
L 603 4863 
z
" transform="scale(0.015625)"/>
      <path id="DejaVuSans-70" d="M 1159 525 
L 1159 -1331 
L 581 -1331 
L 581 3500 
L 1159 3500 
L 1159 2969 
Q 1341 3281 1617 3432 
Q 1894 3584 2278 3584 
Q 2916 3584 3314 3078 
Q 3713 2572 3713 1747 
Q 3713 922 3314 415 
Q 2916 -91 2278 -91 
Q 1894 -91 1617 61 
Q 1341 213 1159 525 
z
M 3116 1747 
Q 3116 2381 2855 2742 
Q 2594 3103 2138 3103 
Q 1681 3103 1420 2742 
Q 1159 2381 1159 1747 
Q 1159 1113 1420 752 
Q 1681 391 2138 391 
Q 2594 391 2855 752 
Q 3116 1113 3116 1747 
z
" transform="scale(0.015625)"/>
      <path id="DejaVuSans-63" d="M 3122 3366 
L 3122 2828 
Q 2878 2963 2633 3030 
Q 2388 3097 2138 3097 
Q 1578 3097 1268 2742 
Q 959 2388 959 1747 
Q 959 1106 1268 751 
Q 1578 397 2138 397 
Q 2388 397 2633 464 
Q 2878 531 3122 666 
L 3122 134 
Q 2881 22 2623 -34 
Q 2366 -91 2075 -91 
Q 1284 -91 818 406 
Q 353 903 353 1747 
Q 353 2603 823 3093 
Q 1294 3584 2113 3584 
Q 2378 3584 2631 3529 
Q 2884 3475 3122 3366 
z
" transform="scale(0.015625)"/>
      <path id="DejaVuSans-6e" d="M 3513 2113 
L 3513 0 
L 2938 0 
L 2938 2094 
Q 2938 2591 2744 2837 
Q 2550 3084 2163 3084 
Q 1697 3084 1428 2787 
Q 1159 2491 1159 1978 
L 1159 0 
L 581 0 
L 581 3500 
L 1159 3500 
L 1159 2956 
Q 1366 3272 1645 3428 
Q 1925 3584 2291 3584 
Q 2894 3584 3203 3211 
Q 3513 2838 3513 2113 
z
" transform="scale(0.015625)"/>
     </defs>
     <use xlink:href="#DejaVuSans-66"/>
     <use xlink:href="#DejaVuSans-6f" transform="translate(35.205078 0)"/>
     <use xlink:href="#DejaVuSans-72" transform="translate(96.386719 0)"/>
     <use xlink:href="#DejaVuSans-77" transform="translate(137.5 0)"/>
     <use xlink:href="#DejaVuSans-61" transform="translate(219.287109 0)"/>
     <use xlink:href="#DejaVuSans-72" transform="translate(280.566406 0)"/>
     <use xlink:href="#DejaVuSans-64" transform="translate(319.929688 0)"/>
     <use xlink:href="#DejaVuSans-3a" transform="translate(383.40625 0)"/>
     <use xlink:href="#DejaVuSans-20" transform="translate(417.097656 0)"/>
     <use xlink:href="#DejaVuSans-73" transform="translate(448.884766 0)"/>
     <use xlink:href="#DejaVuSans-68" transform="translate(500.984375 0)"/>
     <use xlink:href="#DejaVuSans-6f" transform="translate(564.363281 0)"/>
     <use xlink:href="#DejaVuSans-72" transform="translate(625.544922 0)"/>
     <use xlink:href="#DejaVuSans-74" transform="translate(666.658203 0)"/>
     <use xlink:href="#DejaVuSans-20" transform="translate(705.867188 0)"/>
     <use xlink:href="#DejaVuSans-6d" transform="translate(737.654297 0)"/>
     <use xlink:href="#DejaVuSans-75" transform="translate(835.066406 0)"/>
     <use xlink:href="#DejaVuSans-6c" transform="translate(898.445312 0)"/>
     <use xlink:href="#DejaVuSans-74" transform="translate(926.228516 0)"/>
     <use xlink:href="#DejaVuSans-69" transform="translate(965.4375 0)"/>
     <use xlink:href="#DejaVuSans-70" transform="translate(993.220703 0)"/>
     <use xlink:href="#DejaVuSans-6c" transform="translate(1056.697266 0)"/>
     <use xlink:href="#DejaVuSans-69" transform="translate(1084.480469 0)"/>
     <use xlink:href="#DejaVuSans-63" transform="translate(1112.263672 0)"/>
     <use xlink:href="#DejaVuSans-61" transform="translate(1167.244141 0)"/>
     <use xlink:href="#DejaVuSans-74" transform="translate(1228.523438 0)"/>
     <use xlink:href="#DejaVuSans-69" transform="translate(1267.732422 0)"/>
     <use xlink:href="#DejaVuSans-6f" transform="translate(1295.515625 0)"/>
     <use xlink:href="#DejaVuSans-6e" transform="translate(1356.697266 0)"/>
     <use xlink:href="#DejaVuSans-20" transform="translate(1420.076172 0)"/>
     <use xlink:href="#DejaVuSans-63" transform="translate(1451.863281 0)"/>
     <use xlink:href="#DejaVuSans-68" transform="translate(1506.84375 0)"/>
     <use xlink:href="#DejaVuSans-61" transform="translate(1570.222656 0)"/>
     <use xlink:href="#DejaVuSans-69" transform="translate(1631.501953 0)"/>
     <use xlink:href="#DejaVuSans-6e" transform="translate(1659.285156 0)"/>
    </g>
   </g>
   <g id="text_4">
    <!-- backward: search the clock -->
    <g transform="translate(56.695585 341.575745) scale(0.09 -0.09)">
     <defs>
      <path id="DejaVuSans-62" d="M 3116 1747 
Q 3116 2381 2855 2742 
Q 2594 3103 2138 3103 
Q 1681 3103 1420 2742 
Q 1159 2381 1159 1747 
Q 1159 1113 1420 752 
Q 1681 391 2138 391 
Q 2594 391 2855 752 
Q 3116 1113 3116 1747 
z
M 1159 2969 
Q 1341 3281 1617 3432 
Q 1894 3584 2278 3584 
Q 2916 3584 3314 3078 
Q 3713 2572 3713 1747 
Q 3713 922 3314 415 
Q 2916 -91 2278 -91 
Q 1894 -91 1617 61 
Q 1341 213 1159 525 
L 1159 0 
L 581 0 
L 581 4863 
L 1159 4863 
L 1159 2969 
z
" transform="scale(0.015625)"/>
     </defs>
     <use xlink:href="#DejaVuSans-62"/>
     <use xlink:href="#DejaVuSans-61" transform="translate(63.476562 0)"/>
     <use xlink:href="#DejaVuSans-63" transform="translate(124.755859 0)"/>
     <use xlink:href="#DejaVuSans-6b" transform="translate(179.736328 0)"/>
     <use xlink:href="#DejaVuSans-77" transform="translate(237.646484 0)"/>
     <use xlink:href="#DejaVuSans-61" transform="translate(319.433594 0)"/>
     <use xlink:href="#DejaVuSans-72" transform="translate(380.712891 0)"/>
     <use xlink:href="#DejaVuSans-64" transform="translate(420.076172 0)"/>
     <use xlink:href="#DejaVuSans-3a" transform="translate(483.552734 0)"/>
     <use xlink:href="#DejaVuSans-20" transform="translate(517.244141 0)"/>
     <use xlink:href="#DejaVuSans-73" transform="translate(549.03125 0)"/>
     <use xlink:href="#DejaVuSans-65" transform="translate(601.130859 0)"/>
     <use xlink:href="#DejaVuSans-61" transform="translate(662.654297 0)"/>
     <use xlink:href="#DejaVuSans-72" transform="translate(723.933594 0)"/>
     <use xlink:href="#DejaVuSans-63" transform="translate(762.796875 0)"/>
     <use xlink:href="#DejaVuSans-68" transform="translate(817.777344 0)"/>
     <use xlink:href="#DejaVuSans-20" transform="translate(881.15625 0)"/>
     <use xlink:href="#DejaVuSans-74" transform="translate(912.943359 0)"/>
     <use xlink:href="#DejaVuSans-68" transform="translate(952.152344 0)"/>
     <use xlink:href="#DejaVuSans-65" transform="translate(1015.53125 0)"/>
     <use xlink:href="#DejaVuSans-20" transform="translate(1077.054688 0)"/>
     <use xlink:href="#DejaVuSans-63" transform="translate(1108.841797 0)"/>
     <use xlink:href="#DejaVuSans-6c" transform="translate(1163.822266 0)"/>
     <use xlink:href="#DejaVuSans-6f" transform="translate(1191.605469 0)"/>
     <use xlink:href="#DejaVuSans-63" transform="translate(1252.787109 0)"/>
     <use xlink:href="#DejaVuSans-6b" transform="translate(1307.767578 0)"/>
    </g>
   </g>
   <g id="patch_3">
    <path d="M 118.15082 253.745523 
C 146.443609 253.745523 173.581409 242.504679 193.587432 222.498655 
C 213.593456 202.492632 224.8343 175.354833 224.8343 147.062043 
C 224.8343 118.769253 213.593456 91.631454 193.587432 71.62543 
C 173.581409 51.619407 146.443609 40.378562 118.15082 40.378562 
C 89.85803 40.378562 62.720231 51.619407 42.714207 71.62543 
C 22.708184 91.631454 11.467339 118.769253 11.467339 147.062043 
C 11.467339 175.354833 22.708184 202.492632 42.714207 222.498655 
C 62.720231 242.504679 89.85803 253.745523 118.15082 253.745523 
L 118.15082 253.745523 
z
" clip-path="url(#p2a71b02a2b)" style="fill: none; stroke: #d3d3d3; stroke-width: 2; stroke-linejoin: miter"/>
   </g>
  </g>
 </g>
 <defs>
  <clipPath id="p2a71b02a2b">
   <rect x="7.2" y="7.2" width="221.901639" height="338.4"/>
  </clipPath>
 </defs>
</svg>
