<?xml version="1.0" encoding="UTF-8"?>
<svg xmlns="http://www.w3.org/2000/svg" xmlns:xlink="http://www.w3.org/1999/xlink" width="854" height="480" viewBox="0 0 854 480">
<defs>
<g>
<g id="glyph-0-0">
<path d="M 3.578125 -3.90625 L 3.578125 -2.921875 L 3.203125 -2.921875 C 3.179688 -3.117188 3.125 -3.265625 3.03125 -3.359375 C 2.9375 -3.453125 2.800781 -3.5 2.625 -3.5 C 2.289062 -3.5 2.035156 -3.382812 1.859375 -3.15625 C 1.679688 -2.925781 1.59375 -2.597656 1.59375 -2.171875 L 1.59375 -0.390625 L 2.375 -0.390625 L 2.375 0 L 0.3125 0 L 0.3125 -0.390625 L 0.921875 -0.390625 L 0.921875 -3.515625 L 0.265625 -3.515625 L 0.265625 -3.890625 L 1.59375 -3.890625 L 1.59375 -3.203125 C 1.71875 -3.472656 1.882812 -3.671875 2.09375 -3.796875 C 2.300781 -3.929688 2.554688 -4 2.859375 -4 C 2.960938 -4 3.078125 -3.988281 3.203125 -3.96875 C 3.328125 -3.957031 3.453125 -3.9375 3.578125 -3.90625 Z "/>
</g>
<g id="glyph-0-1">
<path d="M 2.25 -0.25 C 2.613281 -0.25 2.882812 -0.390625 3.0625 -0.671875 C 3.25 -0.960938 3.34375 -1.390625 3.34375 -1.953125 C 3.34375 -2.503906 3.25 -2.921875 3.0625 -3.203125 C 2.882812 -3.492188 2.613281 -3.640625 2.25 -3.640625 C 1.894531 -3.640625 1.625 -3.492188 1.4375 -3.203125 C 1.25 -2.921875 1.15625 -2.503906 1.15625 -1.953125 C 1.15625 -1.390625 1.25 -0.960938 1.4375 -0.671875 C 1.625 -0.390625 1.894531 -0.25 2.25 -0.25 Z M 2.25 0.109375 C 1.6875 0.109375 1.234375 -0.078125 0.890625 -0.453125 C 0.546875 -0.828125 0.375 -1.328125 0.375 -1.953125 C 0.375 -2.566406 0.546875 -3.0625 0.890625 -3.4375 C 1.234375 -3.8125 1.6875 -4 2.25 -4 C 2.820312 -4 3.28125 -3.8125 3.625 -3.4375 C 3.96875 -3.0625 4.140625 -2.566406 4.140625 -1.953125 C 4.140625 -1.328125 3.96875 -0.828125 3.625 -0.453125 C 3.28125 -0.078125 2.820312 0.109375 2.25 0.109375 Z "/>
</g>
<g id="glyph-0-2">
<path d="M 3.59375 -3.890625 L 4.59375 -0.859375 L 5.46875 -3.5 L 4.90625 -3.5 L 4.90625 -3.890625 L 6.328125 -3.890625 L 6.328125 -3.5 L 5.890625 -3.5 L 4.734375 0 L 4.171875 0 L 3.21875 -2.90625 L 2.25 0 L 1.703125 0 L 0.5625 -3.5 L 0.125 -3.5 L 0.125 -3.890625 L 1.875 -3.890625 L 1.875 -3.5 L 1.25 -3.5 L 2.125 -0.859375 L 3.125 -3.890625 Z "/>
</g>
<g id="glyph-0-3">
</g>
<g id="glyph-0-4">
<path d="M 0.953125 -4.15625 L 0.546875 -4.15625 L 0.546875 -5.140625 C 0.804688 -5.273438 1.066406 -5.378906 1.328125 -5.453125 C 1.597656 -5.523438 1.859375 -5.5625 2.109375 -5.5625 C 2.679688 -5.5625 3.128906 -5.421875 3.453125 -5.140625 C 3.785156 -4.867188 3.953125 -4.5 3.953125 -4.03125 C 3.953125 -3.488281 3.582031 -2.847656 2.84375 -2.109375 C 2.78125 -2.054688 2.734375 -2.015625 2.703125 -1.984375 L 1.328125 -0.59375 L 3.609375 -0.59375 L 3.609375 -1.28125 L 4.03125 -1.28125 L 4.03125 0 L 0.515625 0 L 0.515625 -0.40625 L 2.171875 -2.046875 C 2.535156 -2.421875 2.796875 -2.757812 2.953125 -3.0625 C 3.109375 -3.363281 3.1875 -3.6875 3.1875 -4.03125 C 3.1875 -4.394531 3.085938 -4.679688 2.890625 -4.890625 C 2.703125 -5.097656 2.441406 -5.203125 2.109375 -5.203125 C 1.753906 -5.203125 1.484375 -5.113281 1.296875 -4.9375 C 1.109375 -4.769531 0.992188 -4.507812 0.953125 -4.15625 Z "/>
</g>
<g id="glyph-0-5">
<path d="M 0.78125 -0.375 C 0.78125 -0.519531 0.828125 -0.640625 0.921875 -0.734375 C 1.015625 -0.828125 1.128906 -0.875 1.265625 -0.875 C 1.398438 -0.875 1.515625 -0.828125 1.609375 -0.734375 C 1.703125 -0.640625 1.75 -0.519531 1.75 -0.375 C 1.75 -0.238281 1.703125 -0.125 1.609375 -0.03125 C 1.515625 0.0625 1.398438 0.109375 1.265625 0.109375 C 1.128906 0.109375 1.015625 0.0625 0.921875 -0.03125 C 0.828125 -0.125 0.78125 -0.238281 0.78125 -0.375 Z M 0.78125 -2.765625 C 0.78125 -2.898438 0.828125 -3.015625 0.921875 -3.109375 C 1.015625 -3.203125 1.128906 -3.25 1.265625 -3.25 C 1.398438 -3.25 1.515625 -3.203125 1.609375 -3.109375 C 1.703125 -3.023438 1.75 -2.910156 1.75 -2.765625 C 1.75 -2.628906 1.703125 -2.515625 1.609375 -2.421875 C 1.515625 -2.328125 1.398438 -2.28125 1.265625 -2.28125 C 1.128906 -2.28125 1.015625 -2.328125 0.921875 -2.421875 C 0.828125 -2.515625 0.78125 -2.628906 0.78125 -2.765625 Z "/>
</g>
<g id="glyph-0-6">
<path d="M 2.390625 1.171875 C 1.796875 0.898438 1.347656 0.476562 1.046875 -0.09375 C 0.742188 -0.675781 0.59375 -1.398438 0.59375 -2.265625 C 0.59375 -3.128906 0.742188 -3.847656 1.046875 -4.421875 C 1.347656 -5.003906 1.796875 -5.429688 2.390625 -5.703125 L 2.390625 -5.34375 C 2.015625 -5.082031 1.742188 -4.71875 1.578125 -4.25 C 1.421875 -3.78125 1.34375 -3.117188 1.34375 -2.265625 C 1.34375 -1.410156 1.421875 -0.75 1.578125 -0.28125 C 1.742188 0.1875 2.015625 0.550781 2.390625 0.8125 Z "/>
</g>
<g id="glyph-0-7">
<path d="M 0.8125 -3.5 L 0.21875 -3.5 L 0.21875 -3.890625 L 0.8125 -3.890625 L 0.8125 -5.09375 L 1.484375 -5.09375 L 1.484375 -3.890625 L 2.75 -3.890625 L 2.75 -3.5 L 1.484375 -3.5 L 1.484375 -1.03125 C 1.484375 -0.695312 1.515625 -0.484375 1.578125 -0.390625 C 1.640625 -0.296875 1.757812 -0.25 1.9375 -0.25 C 2.113281 -0.25 2.238281 -0.300781 2.3125 -0.40625 C 2.394531 -0.507812 2.441406 -0.679688 2.453125 -0.921875 L 2.953125 -0.921875 C 2.929688 -0.566406 2.832031 -0.304688 2.65625 -0.140625 C 2.488281 0.0234375 2.226562 0.109375 1.875 0.109375 C 1.488281 0.109375 1.210938 0.0234375 1.046875 -0.140625 C 0.890625 -0.316406 0.8125 -0.613281 0.8125 -1.03125 Z "/>
</g>
<g id="glyph-0-8">
<path d="M 3.4375 -4.703125 L 3.4375 -2.640625 L 5.484375 -2.640625 L 5.484375 -2.046875 L 3.4375 -2.046875 L 3.4375 0 L 2.84375 0 L 2.84375 -2.046875 L 0.796875 -2.046875 L 0.796875 -2.640625 L 2.84375 -2.640625 L 2.84375 -4.703125 Z "/>
</g>
<g id="glyph-0-9">
<path d="M 2.1875 -2.375 L 3 -3.5 L 2.46875 -3.5 L 2.46875 -3.890625 L 3.96875 -3.890625 L 3.96875 -3.5 L 3.453125 -3.5 L 2.40625 -2.0625 L 3.625 -0.390625 L 4.140625 -0.390625 L 4.140625 0 L 2.34375 0 L 2.34375 -0.390625 L 2.828125 -0.390625 L 1.984375 -1.546875 L 1.140625 -0.390625 L 1.640625 -0.390625 L 1.640625 0 L 0.171875 0 L 0.171875 -0.390625 L 0.6875 -0.390625 L 1.75 -1.875 L 0.578125 -3.5 L 0.09375 -3.5 L 0.09375 -3.890625 L 1.828125 -3.890625 L 1.828125 -3.5 L 1.359375 -3.5 Z "/>
</g>
<g id="glyph-0-10">
<path d="M 0.53125 1.171875 L 0.53125 0.8125 C 0.90625 0.550781 1.175781 0.1875 1.34375 -0.28125 C 1.507812 -0.75 1.59375 -1.410156 1.59375 -2.265625 C 1.59375 -3.117188 1.507812 -3.78125 1.34375 -4.25 C 1.175781 -4.71875 0.90625 -5.082031 0.53125 -5.34375 L 0.53125 -5.703125 C 1.125 -5.429688 1.570312 -5.003906 1.875 -4.421875 C 2.175781 -3.847656 2.328125 -3.128906 2.328125 -2.265625 C 2.328125 -1.398438 2.175781 -0.675781 1.875 -0.09375 C 1.570312 0.476562 1.125 0.898438 0.53125 1.171875 Z "/>
</g>
<g id="glyph-0-11">
<path d="M 3.625 -4.53125 L 2.203125 -3.859375 L 3.625 -3.1875 L 3.34375 -2.75 L 2.078125 -3.546875 L 2.125 -2.15625 L 1.625 -2.15625 L 1.671875 -3.546875 L 0.40625 -2.75 L 0.125 -3.1875 L 1.546875 -3.859375 L 0.125 -4.53125 L 0.40625 -4.96875 L 1.671875 -4.171875 L 1.625 -5.5625 L 2.125 -5.5625 L 2.078125 -4.171875 L 3.34375 -4.96875 Z "/>
</g>
<g id="glyph-0-12">
<path d="M 1.0625 0 L 1.0625 -0.390625 L 2.015625 -0.390625 L 2.015625 -4.9375 L 0.921875 -4.21875 L 0.921875 -4.703125 L 2.25 -5.5625 L 2.75 -5.5625 L 2.75 -0.390625 L 3.703125 -0.390625 L 3.703125 0 Z "/>
</g>
<g id="glyph-0-13">
<path d="M 0.796875 -3.390625 L 5.484375 -3.390625 L 5.484375 -2.8125 L 0.796875 -2.8125 Z M 0.796875 -1.890625 L 5.484375 -1.890625 L 5.484375 -1.3125 L 0.796875 -1.3125 Z "/>
</g>
<g id="glyph-0-14">
<path d="M 2.65625 -3.890625 L 3.921875 -3.890625 L 3.921875 -0.390625 L 4.546875 -0.390625 L 4.546875 0 L 3.234375 0 L 3.234375 -0.6875 C 3.109375 -0.425781 2.945312 -0.226562 2.75 -0.09375 C 2.5625 0.0390625 2.332031 0.109375 2.0625 0.109375 C 1.632812 0.109375 1.316406 -0.0078125 1.109375 -0.25 C 0.910156 -0.5 0.8125 -0.890625 0.8125 -1.421875 L 0.8125 -3.5 L 0.203125 -3.5 L 0.203125 -3.890625 L 1.484375 -3.890625 L 1.484375 -1.625 C 1.484375 -1.15625 1.539062 -0.832031 1.65625 -0.65625 C 1.769531 -0.476562 1.976562 -0.390625 2.28125 -0.390625 C 2.59375 -0.390625 2.828125 -0.503906 2.984375 -0.734375 C 3.148438 -0.960938 3.234375 -1.296875 3.234375 -1.734375 L 3.234375 -3.5 L 2.65625 -3.5 Z "/>
</g>
<g id="glyph-0-15">
<path d="M 0.328125 -2.296875 L 2.203125 -2.296875 L 2.203125 -1.71875 L 0.328125 -1.71875 Z "/>
</g>
<g id="glyph-0-16">
<path d="M 0.796875 -3.734375 L 0.796875 -4.359375 L 5.484375 -2.65625 L 5.484375 -2.046875 L 0.796875 -0.34375 L 0.796875 -0.96875 L 4.59375 -2.34375 Z "/>
</g>
<g id="glyph-0-17">
<path d="M 3.765625 -5.46875 L 3.765625 -4.859375 L 1.265625 -4.859375 L 1.265625 -3.296875 C 1.390625 -3.390625 1.535156 -3.457031 1.703125 -3.5 C 1.878906 -3.539062 2.070312 -3.5625 2.28125 -3.5625 C 2.875 -3.5625 3.335938 -3.394531 3.671875 -3.0625 C 4.015625 -2.738281 4.1875 -2.296875 4.1875 -1.734375 C 4.1875 -1.148438 4.015625 -0.695312 3.671875 -0.375 C 3.328125 -0.0507812 2.84375 0.109375 2.21875 0.109375 C 1.96875 0.109375 1.707031 0.078125 1.4375 0.015625 C 1.175781 -0.046875 0.910156 -0.140625 0.640625 -0.265625 L 0.640625 -1.328125 L 1.046875 -1.328125 C 1.066406 -0.984375 1.175781 -0.71875 1.375 -0.53125 C 1.582031 -0.34375 1.863281 -0.25 2.21875 -0.25 C 2.601562 -0.25 2.898438 -0.375 3.109375 -0.625 C 3.316406 -0.882812 3.421875 -1.253906 3.421875 -1.734375 C 3.421875 -2.203125 3.316406 -2.5625 3.109375 -2.8125 C 2.898438 -3.070312 2.601562 -3.203125 2.21875 -3.203125 C 2 -3.203125 1.804688 -3.160156 1.640625 -3.078125 C 1.472656 -3.003906 1.320312 -2.882812 1.1875 -2.71875 L 0.875 -2.71875 L 0.875 -5.46875 Z "/>
</g>
</g>
</defs>
<g fill="rgb(51.372549%, 75.686275%, 40.392157%)" fill-opacity="1">
<use xlink:href="#glyph-0-0" x="30" y="26.961914"/>
<use xlink:href="#glyph-0-1" x="34" y="26.961914"/>
<use xlink:href="#glyph-0-2" x="39" y="26.961914"/>
<use xlink:href="#glyph-0-3" x="45" y="26.961914"/>
<use xlink:href="#glyph-0-4" x="47" y="26.961914"/>
<use xlink:href="#glyph-0-5" x="52" y="26.961914"/>
<use xlink:href="#glyph-0-3" x="55" y="26.961914"/>
<use xlink:href="#glyph-0-6" x="57" y="26.961914"/>
<use xlink:href="#glyph-0-7" x="60" y="26.961914"/>
<use xlink:href="#glyph-0-3" x="63" y="26.961914"/>
<use xlink:href="#glyph-0-8" x="65" y="26.961914"/>
<use xlink:href="#glyph-0-3" x="71" y="26.961914"/>
<use xlink:href="#glyph-0-9" x="73" y="26.961914"/>
<use xlink:href="#glyph-0-10" x="77" y="26.961914"/>
<use xlink:href="#glyph-0-3" x="80" y="26.961914"/>
<use xlink:href="#glyph-0-11" x="82" y="26.961914"/>
<use xlink:href="#glyph-0-3" x="86" y="26.961914"/>
<use xlink:href="#glyph-0-12" x="88" y="26.961914"/>
<use xlink:href="#glyph-0-3" x="93" y="26.961914"/>
<use xlink:href="#glyph-0-13" x="95" y="26.961914"/>
<use xlink:href="#glyph-0-3" x="101" y="26.961914"/>
<use xlink:href="#glyph-0-1" x="103" y="26.961914"/>
<use xlink:href="#glyph-0-14" x="108" y="26.961914"/>
<use xlink:href="#glyph-0-7" x="113" y="26.961914"/>
<use xlink:href="#glyph-0-3" x="116" y="26.961914"/>
<use xlink:href="#glyph-0-3" x="118" y="26.961914"/>
<use xlink:href="#glyph-0-3" x="120" y="26.961914"/>
<use xlink:href="#glyph-0-15" x="122" y="26.961914"/>
<use xlink:href="#glyph-0-16" x="125" y="26.961914"/>
<use xlink:href="#glyph-0-3" x="131" y="26.961914"/>
<use xlink:href="#glyph-0-3" x="133" y="26.961914"/>
<use xlink:href="#glyph-0-3" x="135" y="26.961914"/>
<use xlink:href="#glyph-0-12" x="137" y="26.961914"/>
<use xlink:href="#glyph-0-17" x="142" y="26.961914"/>
<use xlink:href="#glyph-0-3" x="147" y="26.961914"/>
<use xlink:href="#glyph-0-11" x="149" y="26.961914"/>
<use xlink:href="#glyph-0-3" x="153" y="26.961914"/>
<use xlink:href="#glyph-0-12" x="155" y="26.961914"/>
<use xlink:href="#glyph-0-3" x="160" y="26.961914"/>
<use xlink:href="#glyph-0-13" x="162" y="26.961914"/>
<use xlink:href="#glyph-0-3" x="168" y="26.961914"/>
<use xlink:href="#glyph-0-12" x="170" y="26.961914"/>
<use xlink:href="#glyph-0-17" x="175" y="26.961914"/>
</g>
</svg>
