<?xml version="1.0" encoding="UTF-8"?>
<svg xmlns="http://www.w3.org/2000/svg" xmlns:xlink="http://www.w3.org/1999/xlink" width="854" height="480" viewBox="0 0 854 480">
<defs>
<g>
<g id="glyph-0-0">
<path d="M 4.515625 -3.421875 C 4.734375 -3.359375 4.921875 -3.253906 5.078125 -3.109375 C 5.234375 -2.972656 5.375 -2.78125 5.5 -2.53125 L 6.5 -0.484375 L 7.328125 -0.484375 L 7.328125 0 L 5.703125 0 L 4.640625 -2.1875 C 4.429688 -2.613281 4.238281 -2.890625 4.0625 -3.015625 C 3.894531 -3.140625 3.660156 -3.203125 3.359375 -3.203125 L 2.328125 -3.203125 L 2.328125 -0.484375 L 3.296875 -0.484375 L 3.296875 0 L 0.515625 0 L 0.515625 -0.484375 L 1.390625 -0.484375 L 1.390625 -6.390625 L 0.515625 -6.390625 L 0.515625 -6.875 L 4.015625 -6.875 C 4.679688 -6.875 5.195312 -6.710938 5.5625 -6.390625 C 5.925781 -6.078125 6.109375 -5.628906 6.109375 -5.046875 C 6.109375 -4.566406 5.972656 -4.191406 5.703125 -3.921875 C 5.441406 -3.648438 5.046875 -3.484375 4.515625 -3.421875 Z M 2.328125 -3.6875 L 3.6875 -3.6875 C 4.15625 -3.6875 4.5 -3.796875 4.71875 -4.015625 C 4.9375 -4.234375 5.046875 -4.578125 5.046875 -5.046875 C 5.046875 -5.503906 4.9375 -5.84375 4.71875 -6.0625 C 4.5 -6.28125 4.15625 -6.390625 3.6875 -6.390625 L 2.328125 -6.390625 Z "/>
</g>
<g id="glyph-0-1">
<path d="M 1.34375 0 L 1.34375 -0.484375 L 2.546875 -0.484375 L 2.546875 -6.21875 L 1.15625 -5.3125 L 1.15625 -5.921875 L 2.828125 -7 L 3.46875 -7 L 3.46875 -0.484375 L 4.65625 -0.484375 L 4.65625 0 Z "/>
</g>
<g id="glyph-0-2">
<path d="M 6.65625 -1.8125 C 6.445312 -1.175781 6.101562 -0.691406 5.625 -0.359375 C 5.15625 -0.0234375 4.550781 0.140625 3.8125 0.140625 C 3.363281 0.140625 2.945312 0.0625 2.5625 -0.09375 C 2.1875 -0.25 1.847656 -0.476562 1.546875 -0.78125 C 1.203125 -1.125 0.945312 -1.515625 0.78125 -1.953125 C 0.613281 -2.390625 0.53125 -2.882812 0.53125 -3.4375 C 0.53125 -4.5 0.835938 -5.359375 1.453125 -6.015625 C 2.066406 -6.671875 2.882812 -7 3.90625 -7 C 4.269531 -7 4.664062 -6.945312 5.09375 -6.84375 C 5.519531 -6.75 5.976562 -6.601562 6.46875 -6.40625 L 6.46875 -4.828125 L 5.9375 -4.828125 C 5.832031 -5.398438 5.609375 -5.820312 5.265625 -6.09375 C 4.921875 -6.375 4.4375 -6.515625 3.8125 -6.515625 C 3.082031 -6.515625 2.523438 -6.253906 2.140625 -5.734375 C 1.765625 -5.210938 1.578125 -4.445312 1.578125 -3.4375 C 1.578125 -2.425781 1.765625 -1.660156 2.140625 -1.140625 C 2.523438 -0.617188 3.082031 -0.359375 3.8125 -0.359375 C 4.332031 -0.359375 4.753906 -0.476562 5.078125 -0.71875 C 5.410156 -0.96875 5.65625 -1.332031 5.8125 -1.8125 Z "/>
</g>
<g id="glyph-0-3">
<path d="M 0.875 -0.328125 L 0.875 -1.90625 L 1.40625 -1.890625 C 1.414062 -1.367188 1.566406 -0.984375 1.859375 -0.734375 C 2.148438 -0.484375 2.585938 -0.359375 3.171875 -0.359375 C 3.710938 -0.359375 4.128906 -0.46875 4.421875 -0.6875 C 4.710938 -0.90625 4.859375 -1.21875 4.859375 -1.625 C 4.859375 -1.957031 4.769531 -2.210938 4.59375 -2.390625 C 4.414062 -2.566406 4.050781 -2.742188 3.5 -2.921875 L 2.578125 -3.1875 C 1.921875 -3.382812 1.457031 -3.628906 1.1875 -3.921875 C 0.925781 -4.222656 0.796875 -4.632812 0.796875 -5.15625 C 0.796875 -5.738281 1 -6.191406 1.40625 -6.515625 C 1.820312 -6.835938 2.40625 -7 3.15625 -7 C 3.476562 -7 3.828125 -6.960938 4.203125 -6.890625 C 4.585938 -6.828125 4.992188 -6.726562 5.421875 -6.59375 L 5.421875 -5.140625 L 4.90625 -5.140625 C 4.851562 -5.617188 4.691406 -5.96875 4.421875 -6.1875 C 4.148438 -6.40625 3.734375 -6.515625 3.171875 -6.515625 C 2.691406 -6.515625 2.320312 -6.414062 2.0625 -6.21875 C 1.8125 -6.019531 1.6875 -5.726562 1.6875 -5.34375 C 1.6875 -5.019531 1.78125 -4.765625 1.96875 -4.578125 C 2.164062 -4.390625 2.570312 -4.203125 3.1875 -4.015625 L 4.046875 -3.765625 C 4.671875 -3.578125 5.113281 -3.335938 5.375 -3.046875 C 5.644531 -2.753906 5.78125 -2.363281 5.78125 -1.875 C 5.78125 -1.207031 5.566406 -0.703125 5.140625 -0.359375 C 4.710938 -0.0234375 4.070312 0.140625 3.21875 0.140625 C 2.84375 0.140625 2.457031 0.0976562 2.0625 0.015625 C 1.675781 -0.0546875 1.28125 -0.171875 0.875 -0.328125 Z "/>
</g>
<g id="glyph-0-4">
<path d="M 0.984375 -0.484375 C 0.984375 -0.648438 1.039062 -0.789062 1.15625 -0.90625 C 1.28125 -1.03125 1.425781 -1.09375 1.59375 -1.09375 C 1.769531 -1.09375 1.914062 -1.03125 2.03125 -0.90625 C 2.144531 -0.789062 2.203125 -0.648438 2.203125 -0.484375 C 2.203125 -0.304688 2.144531 -0.15625 2.03125 -0.03125 C 1.914062 0.0820312 1.769531 0.140625 1.59375 0.140625 C 1.414062 0.140625 1.269531 0.0820312 1.15625 -0.03125 C 1.039062 -0.15625 0.984375 -0.304688 0.984375 -0.484375 Z M 0.984375 -3.484375 C 0.984375 -3.648438 1.039062 -3.789062 1.15625 -3.90625 C 1.28125 -4.03125 1.425781 -4.09375 1.59375 -4.09375 C 1.769531 -4.09375 1.914062 -4.035156 2.03125 -3.921875 C 2.144531 -3.804688 2.203125 -3.660156 2.203125 -3.484375 C 2.203125 -3.304688 2.144531 -3.160156 2.03125 -3.046875 C 1.914062 -2.929688 1.769531 -2.875 1.59375 -2.875 C 1.425781 -2.875 1.28125 -2.929688 1.15625 -3.046875 C 1.039062 -3.160156 0.984375 -3.304688 0.984375 -3.484375 Z "/>
</g>
<g id="glyph-0-5">
</g>
<g id="glyph-0-6">
<path d="M 5.109375 -2.359375 L 1.453125 -2.359375 L 1.453125 -2.328125 C 1.453125 -1.660156 1.578125 -1.160156 1.828125 -0.828125 C 2.078125 -0.492188 2.445312 -0.328125 2.9375 -0.328125 C 3.3125 -0.328125 3.613281 -0.421875 3.84375 -0.609375 C 4.082031 -0.804688 4.25 -1.097656 4.34375 -1.484375 L 5.03125 -1.484375 C 4.894531 -0.941406 4.644531 -0.535156 4.28125 -0.265625 C 3.914062 0.00390625 3.4375 0.140625 2.84375 0.140625 C 2.132812 0.140625 1.5625 -0.09375 1.125 -0.5625 C 0.6875 -1.039062 0.46875 -1.671875 0.46875 -2.453125 C 0.46875 -3.222656 0.679688 -3.84375 1.109375 -4.3125 C 1.535156 -4.789062 2.097656 -5.03125 2.796875 -5.03125 C 3.535156 -5.03125 4.101562 -4.800781 4.5 -4.34375 C 4.894531 -3.882812 5.097656 -3.222656 5.109375 -2.359375 Z M 4.109375 -2.84375 C 4.097656 -3.414062 3.976562 -3.847656 3.75 -4.140625 C 3.53125 -4.429688 3.210938 -4.578125 2.796875 -4.578125 C 2.398438 -4.578125 2.085938 -4.429688 1.859375 -4.140625 C 1.640625 -3.847656 1.503906 -3.414062 1.453125 -2.84375 Z "/>
</g>
<g id="glyph-0-7">
<path d="M 2.328125 0 L 0.53125 -4.40625 L -0.03125 -4.40625 L -0.03125 -4.90625 L 2.21875 -4.90625 L 2.21875 -4.40625 L 1.4375 -4.40625 L 2.8125 -1.03125 L 4.203125 -4.40625 L 3.46875 -4.40625 L 3.46875 -4.90625 L 5.296875 -4.90625 L 5.296875 -4.40625 L 4.75 -4.40625 L 2.953125 0 Z "/>
</g>
<g id="glyph-0-8">
<path d="M 4.515625 -4.90625 L 4.515625 -3.6875 L 4.015625 -3.6875 C 4.003906 -3.925781 3.9375 -4.101562 3.8125 -4.21875 C 3.695312 -4.34375 3.523438 -4.40625 3.296875 -4.40625 C 2.878906 -4.40625 2.554688 -4.257812 2.328125 -3.96875 C 2.109375 -3.6875 2 -3.273438 2 -2.734375 L 2 -0.484375 L 2.984375 -0.484375 L 2.984375 0 L 0.390625 0 L 0.390625 -0.484375 L 1.15625 -0.484375 L 1.15625 -4.421875 L 0.34375 -4.421875 L 0.34375 -4.90625 L 2 -4.90625 L 2 -4.03125 C 2.164062 -4.363281 2.378906 -4.613281 2.640625 -4.78125 C 2.898438 -4.945312 3.21875 -5.03125 3.59375 -5.03125 C 3.726562 -5.03125 3.875 -5.019531 4.03125 -5 C 4.1875 -4.976562 4.347656 -4.945312 4.515625 -4.90625 Z "/>
</g>
<g id="glyph-0-9">
<path d="M 2.03125 0.90625 L 2.359375 0.078125 L 0.53125 -4.40625 L -0.03125 -4.40625 L -0.03125 -4.90625 L 2.21875 -4.90625 L 2.21875 -4.40625 L 1.4375 -4.40625 L 2.8125 -1.03125 L 4.203125 -4.40625 L 3.46875 -4.40625 L 3.46875 -4.90625 L 5.296875 -4.90625 L 5.296875 -4.40625 L 4.75 -4.40625 L 2.515625 1.109375 C 2.359375 1.484375 2.1875 1.738281 2 1.875 C 1.8125 2.019531 1.546875 2.09375 1.203125 2.09375 C 1.054688 2.09375 0.90625 2.078125 0.75 2.046875 C 0.601562 2.023438 0.453125 1.992188 0.296875 1.953125 L 0.296875 1.015625 L 0.734375 1.015625 C 0.753906 1.222656 0.804688 1.375 0.890625 1.46875 C 0.984375 1.5625 1.117188 1.609375 1.296875 1.609375 C 1.472656 1.609375 1.609375 1.5625 1.703125 1.46875 C 1.804688 1.375 1.914062 1.1875 2.03125 0.90625 Z "/>
</g>
<g id="glyph-0-10">
<path d="M 2.84375 -0.328125 C 3.289062 -0.328125 3.628906 -0.503906 3.859375 -0.859375 C 4.097656 -1.222656 4.21875 -1.753906 4.21875 -2.453125 C 4.21875 -3.148438 4.097656 -3.675781 3.859375 -4.03125 C 3.628906 -4.394531 3.289062 -4.578125 2.84375 -4.578125 C 2.382812 -4.578125 2.035156 -4.394531 1.796875 -4.03125 C 1.566406 -3.675781 1.453125 -3.148438 1.453125 -2.453125 C 1.453125 -1.753906 1.566406 -1.222656 1.796875 -0.859375 C 2.035156 -0.503906 2.382812 -0.328125 2.84375 -0.328125 Z M 2.84375 0.140625 C 2.125 0.140625 1.546875 -0.09375 1.109375 -0.5625 C 0.679688 -1.039062 0.46875 -1.671875 0.46875 -2.453125 C 0.46875 -3.234375 0.679688 -3.859375 1.109375 -4.328125 C 1.546875 -4.796875 2.125 -5.03125 2.84375 -5.03125 C 3.550781 -5.03125 4.117188 -4.796875 4.546875 -4.328125 C 4.984375 -3.859375 5.203125 -3.234375 5.203125 -2.453125 C 5.203125 -1.671875 4.984375 -1.039062 4.546875 -0.5625 C 4.117188 -0.09375 3.550781 0.140625 2.84375 0.140625 Z "/>
</g>
<g id="glyph-0-11">
<path d="M 4.53125 -4.90625 L 5.78125 -1.078125 L 6.890625 -4.40625 L 6.171875 -4.40625 L 6.171875 -4.90625 L 7.953125 -4.90625 L 7.953125 -4.40625 L 7.40625 -4.40625 L 5.953125 0 L 5.25 0 L 4.046875 -3.65625 L 2.828125 0 L 2.15625 0 L 0.703125 -4.40625 L 0.15625 -4.40625 L 0.15625 -4.90625 L 2.375 -4.90625 L 2.375 -4.40625 L 1.578125 -4.40625 L 2.671875 -1.078125 L 3.9375 -4.90625 Z "/>
</g>
<g id="glyph-0-12">
<path d="M 3.75 -1.546875 L 3.75 -2.578125 L 2.65625 -2.578125 C 2.238281 -2.578125 1.925781 -2.484375 1.71875 -2.296875 C 1.519531 -2.117188 1.421875 -1.84375 1.421875 -1.46875 C 1.421875 -1.125 1.523438 -0.851562 1.734375 -0.65625 C 1.941406 -0.457031 2.222656 -0.359375 2.578125 -0.359375 C 2.929688 -0.359375 3.210938 -0.46875 3.421875 -0.6875 C 3.640625 -0.90625 3.75 -1.191406 3.75 -1.546875 Z M 4.609375 -3.0625 L 4.609375 -0.484375 L 5.359375 -0.484375 L 5.359375 0 L 3.75 0 L 3.75 -0.53125 C 3.5625 -0.300781 3.34375 -0.128906 3.09375 -0.015625 C 2.851562 0.0859375 2.570312 0.140625 2.25 0.140625 C 1.695312 0.140625 1.257812 -0.00390625 0.9375 -0.296875 C 0.625 -0.585938 0.46875 -0.976562 0.46875 -1.46875 C 0.46875 -1.976562 0.648438 -2.367188 1.015625 -2.640625 C 1.378906 -2.921875 1.894531 -3.0625 2.5625 -3.0625 L 3.75 -3.0625 L 3.75 -3.40625 C 3.75 -3.78125 3.632812 -4.066406 3.40625 -4.265625 C 3.1875 -4.472656 2.875 -4.578125 2.46875 -4.578125 C 2.125 -4.578125 1.851562 -4.5 1.65625 -4.34375 C 1.457031 -4.1875 1.332031 -3.957031 1.28125 -3.65625 L 0.84375 -3.65625 L 0.84375 -4.65625 C 1.144531 -4.78125 1.429688 -4.875 1.703125 -4.9375 C 1.984375 -5 2.253906 -5.03125 2.515625 -5.03125 C 3.203125 -5.03125 3.722656 -4.859375 4.078125 -4.515625 C 4.429688 -4.179688 4.609375 -3.695312 4.609375 -3.0625 Z "/>
</g>
<g id="glyph-0-13">
<path d="M 0.53125 -0.265625 L 0.53125 -1.421875 L 1.015625 -1.421875 C 1.023438 -1.046875 1.140625 -0.769531 1.359375 -0.59375 C 1.578125 -0.414062 1.898438 -0.328125 2.328125 -0.328125 C 2.703125 -0.328125 2.988281 -0.394531 3.1875 -0.53125 C 3.394531 -0.675781 3.5 -0.882812 3.5 -1.15625 C 3.5 -1.375 3.425781 -1.546875 3.28125 -1.671875 C 3.132812 -1.804688 2.820312 -1.953125 2.34375 -2.109375 L 1.734375 -2.3125 C 1.316406 -2.445312 1.015625 -2.613281 0.828125 -2.8125 C 0.640625 -3.019531 0.546875 -3.28125 0.546875 -3.59375 C 0.546875 -4.039062 0.707031 -4.390625 1.03125 -4.640625 C 1.363281 -4.898438 1.816406 -5.03125 2.390625 -5.03125 C 2.648438 -5.03125 2.921875 -4.992188 3.203125 -4.921875 C 3.492188 -4.859375 3.789062 -4.765625 4.09375 -4.640625 L 4.09375 -3.5625 L 3.609375 -3.5625 C 3.597656 -3.882812 3.488281 -4.132812 3.28125 -4.3125 C 3.070312 -4.488281 2.785156 -4.578125 2.421875 -4.578125 C 2.066406 -4.578125 1.796875 -4.515625 1.609375 -4.390625 C 1.429688 -4.265625 1.34375 -4.070312 1.34375 -3.8125 C 1.34375 -3.613281 1.410156 -3.453125 1.546875 -3.328125 C 1.679688 -3.203125 1.957031 -3.070312 2.375 -2.9375 L 3.046875 -2.734375 C 3.515625 -2.585938 3.847656 -2.40625 4.046875 -2.1875 C 4.253906 -1.976562 4.359375 -1.703125 4.359375 -1.359375 C 4.359375 -0.890625 4.179688 -0.519531 3.828125 -0.25 C 3.472656 0.0078125 2.984375 0.140625 2.359375 0.140625 C 2.046875 0.140625 1.738281 0.101562 1.4375 0.03125 C 1.132812 -0.03125 0.832031 -0.128906 0.53125 -0.265625 Z "/>
</g>
<g id="glyph-0-14">
<path d="M 2.703125 0 L 0.328125 0 L 0.328125 -0.484375 L 1.09375 -0.484375 L 1.09375 -6.6875 L 0.265625 -6.6875 L 0.265625 -7.171875 L 1.9375 -7.171875 L 1.9375 -2.5 L 4 -4.40625 L 3.296875 -4.40625 L 3.296875 -4.90625 L 5.515625 -4.90625 L 5.515625 -4.40625 L 4.671875 -4.40625 L 3.21875 -3.0625 L 5.078125 -0.484375 L 5.78125 -0.484375 L 5.78125 0 L 3.375 0 L 3.375 -0.484375 L 4.0625 -0.484375 L 2.609375 -2.5 L 1.9375 -1.875 L 1.9375 -0.484375 L 2.703125 -0.484375 Z "/>
</g>
<g id="glyph-0-15">
<path d="M 4.0625 -6.015625 L 3.609375 -6.015625 C 3.609375 -6.242188 3.539062 -6.414062 3.40625 -6.53125 C 3.28125 -6.65625 3.097656 -6.71875 2.859375 -6.71875 C 2.546875 -6.71875 2.320312 -6.628906 2.1875 -6.453125 C 2.0625 -6.285156 2 -5.976562 2 -5.53125 L 2 -4.90625 L 3.375 -4.90625 L 3.375 -4.40625 L 2 -4.40625 L 2 -0.484375 L 3.09375 -0.484375 L 3.09375 0 L 0.34375 0 L 0.34375 -0.484375 L 1.15625 -0.484375 L 1.15625 -4.40625 L 0.34375 -4.40625 L 0.34375 -4.90625 L 1.15625 -4.90625 L 1.15625 -5.515625 C 1.15625 -6.054688 1.296875 -6.46875 1.578125 -6.75 C 1.859375 -7.03125 2.273438 -7.171875 2.828125 -7.171875 C 3.035156 -7.171875 3.238281 -7.148438 3.4375 -7.109375 C 3.644531 -7.078125 3.851562 -7.019531 4.0625 -6.9375 Z "/>
</g>
<g id="glyph-0-16">
<path d="M 0.390625 0 L 0.390625 -0.484375 L 1.15625 -0.484375 L 1.15625 -4.40625 L 0.34375 -4.40625 L 0.34375 -4.90625 L 2 -4.90625 L 2 -4.03125 C 2.15625 -4.363281 2.359375 -4.613281 2.609375 -4.78125 C 2.859375 -4.945312 3.148438 -5.03125 3.484375 -5.03125 C 4.023438 -5.03125 4.421875 -4.875 4.671875 -4.5625 C 4.929688 -4.25 5.0625 -3.765625 5.0625 -3.109375 L 5.0625 -0.484375 L 5.8125 -0.484375 L 5.8125 0 L 3.46875 0 L 3.46875 -0.484375 L 4.203125 -0.484375 L 4.203125 -2.84375 C 4.203125 -3.445312 4.128906 -3.859375 3.984375 -4.078125 C 3.835938 -4.304688 3.578125 -4.421875 3.203125 -4.421875 C 2.816406 -4.421875 2.519531 -4.273438 2.3125 -3.984375 C 2.101562 -3.691406 2 -3.273438 2 -2.734375 L 2 -0.484375 L 2.734375 -0.484375 L 2.734375 0 Z "/>
</g>
<g id="glyph-0-17">
<path d="M 1.9375 -2.6875 L 1.9375 -2.203125 C 1.9375 -1.617188 2.046875 -1.171875 2.265625 -0.859375 C 2.492188 -0.546875 2.828125 -0.390625 3.265625 -0.390625 C 3.691406 -0.390625 4.015625 -0.5625 4.234375 -0.90625 C 4.460938 -1.257812 4.578125 -1.773438 4.578125 -2.453125 C 4.578125 -3.128906 4.460938 -3.640625 4.234375 -3.984375 C 4.015625 -4.328125 3.691406 -4.5 3.265625 -4.5 C 2.828125 -4.5 2.492188 -4.34375 2.265625 -4.03125 C 2.046875 -3.726562 1.9375 -3.28125 1.9375 -2.6875 Z M 1.09375 -4.40625 L 0.265625 -4.40625 L 0.265625 -4.90625 L 1.9375 -4.90625 L 1.9375 -4.140625 C 2.101562 -4.441406 2.3125 -4.664062 2.5625 -4.8125 C 2.820312 -4.957031 3.140625 -5.03125 3.515625 -5.03125 C 4.117188 -5.03125 4.609375 -4.789062 4.984375 -4.3125 C 5.367188 -3.84375 5.5625 -3.222656 5.5625 -2.453125 C 5.5625 -1.679688 5.367188 -1.054688 4.984375 -0.578125 C 4.609375 -0.0976562 4.117188 0.140625 3.515625 0.140625 C 3.140625 0.140625 2.820312 0.0664062 2.5625 -0.078125 C 2.3125 -0.222656 2.101562 -0.453125 1.9375 -0.765625 L 1.9375 1.46875 L 2.734375 1.46875 L 2.734375 1.96875 L 0.265625 1.96875 L 0.265625 1.46875 L 1.09375 1.46875 Z "/>
</g>
<g id="glyph-0-18">
<path d="M 4.953125 -0.484375 L 5.765625 -0.484375 L 5.765625 0 L 4.109375 0 L 4.109375 -0.765625 C 3.941406 -0.453125 3.726562 -0.222656 3.46875 -0.078125 C 3.21875 0.0664062 2.898438 0.140625 2.515625 0.140625 C 1.921875 0.140625 1.429688 -0.0976562 1.046875 -0.578125 C 0.660156 -1.054688 0.46875 -1.679688 0.46875 -2.453125 C 0.46875 -3.222656 0.65625 -3.84375 1.03125 -4.3125 C 1.414062 -4.789062 1.910156 -5.03125 2.515625 -5.03125 C 2.898438 -5.03125 3.21875 -4.957031 3.46875 -4.8125 C 3.726562 -4.664062 3.941406 -4.441406 4.109375 -4.140625 L 4.109375 -6.6875 L 3.296875 -6.6875 L 3.296875 -7.171875 L 4.953125 -7.171875 Z M 4.109375 -2.203125 L 4.109375 -2.6875 C 4.109375 -3.28125 3.992188 -3.726562 3.765625 -4.03125 C 3.535156 -4.34375 3.207031 -4.5 2.78125 -4.5 C 2.34375 -4.5 2.007812 -4.328125 1.78125 -3.984375 C 1.5625 -3.640625 1.453125 -3.128906 1.453125 -2.453125 C 1.453125 -1.773438 1.5625 -1.257812 1.78125 -0.90625 C 2.007812 -0.5625 2.34375 -0.390625 2.78125 -0.390625 C 3.207031 -0.390625 3.535156 -0.546875 3.765625 -0.859375 C 3.992188 -1.171875 4.109375 -1.617188 4.109375 -2.203125 Z "/>
</g>
<g id="glyph-0-19">
<path d="M 3.34375 -4.90625 L 4.921875 -4.90625 L 4.921875 -0.484375 L 5.734375 -0.484375 L 5.734375 0 L 4.078125 0 L 4.078125 -0.859375 C 3.921875 -0.535156 3.71875 -0.285156 3.46875 -0.109375 C 3.21875 0.0546875 2.929688 0.140625 2.609375 0.140625 C 2.054688 0.140625 1.648438 -0.015625 1.390625 -0.328125 C 1.140625 -0.640625 1.015625 -1.125 1.015625 -1.78125 L 1.015625 -4.40625 L 0.25 -4.40625 L 0.25 -4.90625 L 1.875 -4.90625 L 1.875 -2.046875 C 1.875 -1.453125 1.945312 -1.039062 2.09375 -0.8125 C 2.238281 -0.59375 2.5 -0.484375 2.875 -0.484375 C 3.257812 -0.484375 3.554688 -0.628906 3.765625 -0.921875 C 3.972656 -1.210938 4.078125 -1.628906 4.078125 -2.171875 L 4.078125 -4.40625 L 3.34375 -4.40625 Z "/>
</g>
<g id="glyph-0-20">
<path d="M 4.859375 -1.46875 C 4.734375 -0.945312 4.5 -0.546875 4.15625 -0.265625 C 3.820312 0.00390625 3.382812 0.140625 2.84375 0.140625 C 2.125 0.140625 1.546875 -0.09375 1.109375 -0.5625 C 0.679688 -1.039062 0.46875 -1.671875 0.46875 -2.453125 C 0.46875 -3.234375 0.679688 -3.859375 1.109375 -4.328125 C 1.546875 -4.796875 2.125 -5.03125 2.84375 -5.03125 C 3.144531 -5.03125 3.445312 -4.992188 3.75 -4.921875 C 4.0625 -4.847656 4.375 -4.738281 4.6875 -4.59375 L 4.6875 -3.34375 L 4.203125 -3.34375 C 4.128906 -3.769531 3.984375 -4.082031 3.765625 -4.28125 C 3.554688 -4.476562 3.25 -4.578125 2.84375 -4.578125 C 2.382812 -4.578125 2.035156 -4.398438 1.796875 -4.046875 C 1.566406 -3.691406 1.453125 -3.160156 1.453125 -2.453125 C 1.453125 -1.742188 1.566406 -1.210938 1.796875 -0.859375 C 2.035156 -0.503906 2.382812 -0.328125 2.84375 -0.328125 C 3.207031 -0.328125 3.5 -0.421875 3.71875 -0.609375 C 3.9375 -0.796875 4.085938 -1.082031 4.171875 -1.46875 Z "/>
</g>
<g id="glyph-0-21">
<path d="M 1.015625 -4.40625 L 0.265625 -4.40625 L 0.265625 -4.90625 L 1.015625 -4.90625 L 1.015625 -6.421875 L 1.875 -6.421875 L 1.875 -4.90625 L 3.46875 -4.90625 L 3.46875 -4.40625 L 1.875 -4.40625 L 1.875 -1.296875 C 1.875 -0.878906 1.910156 -0.613281 1.984375 -0.5 C 2.066406 -0.382812 2.21875 -0.328125 2.4375 -0.328125 C 2.65625 -0.328125 2.8125 -0.390625 2.90625 -0.515625 C 3.007812 -0.648438 3.066406 -0.863281 3.078125 -1.15625 L 3.71875 -1.15625 C 3.695312 -0.707031 3.578125 -0.378906 3.359375 -0.171875 C 3.140625 0.0351562 2.804688 0.140625 2.359375 0.140625 C 1.867188 0.140625 1.519531 0.03125 1.3125 -0.1875 C 1.113281 -0.40625 1.015625 -0.773438 1.015625 -1.296875 Z "/>
</g>
</g>
</defs>
<g fill="rgb(100%, 100%, 100%)" fill-opacity="1">
<use xlink:href="#glyph-0-0" x="30" y="28.766602"/>
<use xlink:href="#glyph-0-1" x="37" y="28.766602"/>
<use xlink:href="#glyph-0-2" x="43" y="28.766602"/>
<use xlink:href="#glyph-0-3" x="50" y="28.766602"/>
<use xlink:href="#glyph-0-4" x="56" y="28.766602"/>
<use xlink:href="#glyph-0-5" x="59" y="28.766602"/>
<use xlink:href="#glyph-0-6" x="62" y="28.766602"/>
<use xlink:href="#glyph-0-7" x="68" y="28.766602"/>
<use xlink:href="#glyph-0-6" x="73" y="28.766602"/>
<use xlink:href="#glyph-0-8" x="79" y="28.766602"/>
<use xlink:href="#glyph-0-9" x="84" y="28.766602"/>
<use xlink:href="#glyph-0-5" x="89" y="28.766602"/>
<use xlink:href="#glyph-0-8" x="92" y="28.766602"/>
<use xlink:href="#glyph-0-10" x="97" y="28.766602"/>
<use xlink:href="#glyph-0-11" x="103" y="28.766602"/>
<use xlink:href="#glyph-0-5" x="111" y="28.766602"/>
<use xlink:href="#glyph-0-12" x="114" y="28.766602"/>
<use xlink:href="#glyph-0-13" x="120" y="28.766602"/>
<use xlink:href="#glyph-0-14" x="125" y="28.766602"/>
<use xlink:href="#glyph-0-13" x="131" y="28.766602"/>
<use xlink:href="#glyph-0-5" x="136" y="28.766602"/>
<use xlink:href="#glyph-0-15" x="139" y="28.766602"/>
<use xlink:href="#glyph-0-10" x="142" y="28.766602"/>
<use xlink:href="#glyph-0-8" x="148" y="28.766602"/>
<use xlink:href="#glyph-0-5" x="153" y="28.766602"/>
<use xlink:href="#glyph-0-10" x="156" y="28.766602"/>
<use xlink:href="#glyph-0-16" x="162" y="28.766602"/>
<use xlink:href="#glyph-0-6" x="168" y="28.766602"/>
<use xlink:href="#glyph-0-5" x="174" y="28.766602"/>
<use xlink:href="#glyph-0-17" x="177" y="28.766602"/>
<use xlink:href="#glyph-0-8" x="183" y="28.766602"/>
<use xlink:href="#glyph-0-10" x="188" y="28.766602"/>
<use xlink:href="#glyph-0-18" x="194" y="28.766602"/>
<use xlink:href="#glyph-0-19" x="200" y="28.766602"/>
<use xlink:href="#glyph-0-20" x="206" y="28.766602"/>
<use xlink:href="#glyph-0-21" x="211" y="28.766602"/>
</g>
</svg>
