<?xml version="1.0" encoding="utf-8" standalone="no"?>
<!DOCTYPE svg PUBLIC "-//W3C//DTD SVG 1.1//EN"
  "http://www.w3.org/Graphics/SVG/1.1/DTD/svg11.dtd">
<svg xmlns:xlink="http://www.w3.org/1999/xlink" width="451.166235pt" height="337.114942pt" viewBox="0 0 451.166235 337.114942" xmlns="http://www.w3.org/2000/svg" version="1.1">
 <metadata>
  <rdf:RDF xmlns:dc="http://purl.org/dc/elements/1.1/" xmlns:cc="http://creativecommons.org/ns#" xmlns:rdf="http://www.w3.org/1999/02/22-rdf-syntax-ns#">
   <cc:Work>
    <dc:type rdf:resource="http://purl.org/dc/dcmitype/StillImage"/>
    <dc:date>2026-06-14T21:43:26.318099</dc:date>
    <dc:format>image/svg+xml</dc:format>
    <dc:creator>
     <cc:Agent>
      <dc:title>Matplotlib v3.10.9, https://matplotlib.org/</dc:title>
     </cc:Agent>
    </dc:creator>
   </cc:Work>
  </rdf:RDF>
 </metadata>
 <defs>
  <style type="text/css">*{stroke-linejoin: round; stroke-linecap: butt}</style>
 </defs>
 <g id="figure_1">
  <g id="patch_1">
   <path d="M 0 337.114942 
L 451.166235 337.114942 
L 451.166235 0 
L 0 0 
z
" style="fill: #ffffff"/>
  </g>
  <g id="axes_1">
   <g id="patch_2">
    <path d="M 25.2648 319.237538 
L 442.445185 319.237538 
L 442.445185 7.2 
L 25.2648 7.2 
z
" style="fill: #ffffff"/>
   </g>
   <g id="PathCollection_1">
    <defs>
     <path id="C0_0_719359d649" d="M 0 2.12132 
C 0.562581 2.12132 1.102195 1.897805 1.5 1.5 
C 1.897805 1.102195 2.12132 0.562581 2.12132 -0 
C 2.12132 -0.562581 1.897805 -1.102195 1.5 -1.5 
C 1.102195 -1.897805 0.562581 -2.12132 0 -2.12132 
C -0.562581 -2.12132 -1.102195 -1.897805 -1.5 -1.5 
C -1.897805 -1.102195 -2.12132 -0.562581 -2.12132 0 
C -2.12132 0.562581 -1.897805 1.102195 -1.5 1.5 
C -1.102195 1.897805 -0.562581 2.12132 0 2.12132 
z
"/>
    </defs>
    <g clip-path="url(#p87faa1b368)">
     <use xlink:href="#C0_0_719359d649" x="33.2875" y="292.23429" style="fill: #0000ff"/>
    </g>
    <g clip-path="url(#p87faa1b368)">
     <use xlink:href="#C0_0_719359d649" x="37.29885" y="268.231402" style="fill: #0000ff"/>
    </g>
    <g clip-path="url(#p87faa1b368)">
     <use xlink:href="#C0_0_719359d649" x="41.3102" y="226.226349" style="fill: #0000ff"/>
    </g>
    <g clip-path="url(#p87faa1b368)">
     <use xlink:href="#C0_0_719359d649" x="45.32155" y="166.21913" style="fill: #0000ff"/>
    </g>
    <g clip-path="url(#p87faa1b368)">
     <use xlink:href="#C0_0_719359d649" x="49.332899" y="88.209746" style="fill: #0000ff"/>
    </g>
    <g clip-path="url(#p87faa1b368)">
     <use xlink:href="#C0_0_719359d649" x="53.344249" y="295.234651" style="fill: #0000ff"/>
    </g>
    <g clip-path="url(#p87faa1b368)">
     <use xlink:href="#C0_0_719359d649" x="57.355599" y="181.220935" style="fill: #0000ff"/>
    </g>
    <g clip-path="url(#p87faa1b368)">
     <use xlink:href="#C0_0_719359d649" x="61.366949" y="49.205053" style="fill: #0000ff"/>
    </g>
    <g clip-path="url(#p87faa1b368)">
     <use xlink:href="#C0_0_719359d649" x="65.378299" y="202.223462" style="fill: #0000ff"/>
    </g>
    <g clip-path="url(#p87faa1b368)">
     <use xlink:href="#C0_0_719359d649" x="69.389649" y="34.203249" style="fill: #0000ff"/>
    </g>
    <g clip-path="url(#p87faa1b368)">
     <use xlink:href="#C0_0_719359d649" x="73.400999" y="151.217325" style="fill: #0000ff"/>
    </g>
    <g clip-path="url(#p87faa1b368)">
     <use xlink:href="#C0_0_719359d649" x="77.412348" y="250.229237" style="fill: #0000ff"/>
    </g>
    <g clip-path="url(#p87faa1b368)">
     <use xlink:href="#C0_0_719359d649" x="81.423698" y="28.202527" style="fill: #0000ff"/>
    </g>
    <g clip-path="url(#p87faa1b368)">
     <use xlink:href="#C0_0_719359d649" x="85.435048" y="91.210107" style="fill: #0000ff"/>
    </g>
    <g clip-path="url(#p87faa1b368)">
     <use xlink:href="#C0_0_719359d649" x="89.446398" y="136.215521" style="fill: #0000ff"/>
    </g>
    <g clip-path="url(#p87faa1b368)">
     <use xlink:href="#C0_0_719359d649" x="93.457748" y="163.218769" style="fill: #0000ff"/>
    </g>
    <g clip-path="url(#p87faa1b368)">
     <use xlink:href="#C0_0_719359d649" x="97.469098" y="172.219852" style="fill: #0000ff"/>
    </g>
    <g clip-path="url(#p87faa1b368)">
     <use xlink:href="#C0_0_719359d649" x="101.480447" y="163.218769" style="fill: #0000ff"/>
    </g>
    <g clip-path="url(#p87faa1b368)">
     <use xlink:href="#C0_0_719359d649" x="105.491797" y="136.215521" style="fill: #0000ff"/>
    </g>
    <g clip-path="url(#p87faa1b368)">
     <use xlink:href="#C0_0_719359d649" x="109.503147" y="91.210107" style="fill: #0000ff"/>
    </g>
    <g clip-path="url(#p87faa1b368)">
     <use xlink:href="#C0_0_719359d649" x="113.514497" y="28.202527" style="fill: #0000ff"/>
    </g>
    <g clip-path="url(#p87faa1b368)">
     <use xlink:href="#C0_0_719359d649" x="117.525847" y="250.229237" style="fill: #0000ff"/>
    </g>
    <g clip-path="url(#p87faa1b368)">
     <use xlink:href="#C0_0_719359d649" x="121.537197" y="151.217325" style="fill: #0000ff"/>
    </g>
    <g clip-path="url(#p87faa1b368)">
     <use xlink:href="#C0_0_719359d649" x="125.548547" y="34.203249" style="fill: #0000ff"/>
    </g>
    <g clip-path="url(#p87faa1b368)">
     <use xlink:href="#C0_0_719359d649" x="129.559896" y="202.223462" style="fill: #0000ff"/>
    </g>
    <g clip-path="url(#p87faa1b368)">
     <use xlink:href="#C0_0_719359d649" x="133.571246" y="49.205053" style="fill: #0000ff"/>
    </g>
    <g clip-path="url(#p87faa1b368)">
     <use xlink:href="#C0_0_719359d649" x="137.582596" y="181.220935" style="fill: #0000ff"/>
    </g>
    <g clip-path="url(#p87faa1b368)">
     <use xlink:href="#C0_0_719359d649" x="141.593946" y="295.234651" style="fill: #0000ff"/>
    </g>
    <g clip-path="url(#p87faa1b368)">
     <use xlink:href="#C0_0_719359d649" x="145.605296" y="88.209746" style="fill: #0000ff"/>
    </g>
    <g clip-path="url(#p87faa1b368)">
     <use xlink:href="#C0_0_719359d649" x="149.616646" y="166.21913" style="fill: #0000ff"/>
    </g>
    <g clip-path="url(#p87faa1b368)">
     <use xlink:href="#C0_0_719359d649" x="153.627996" y="226.226349" style="fill: #0000ff"/>
    </g>
    <g clip-path="url(#p87faa1b368)">
     <use xlink:href="#C0_0_719359d649" x="157.639345" y="268.231402" style="fill: #0000ff"/>
    </g>
    <g clip-path="url(#p87faa1b368)">
     <use xlink:href="#C0_0_719359d649" x="161.650695" y="292.23429" style="fill: #0000ff"/>
    </g>
    <g clip-path="url(#p87faa1b368)">
     <use xlink:href="#C0_0_719359d649" x="165.662045" y="298.235012" style="fill: #0000ff"/>
    </g>
    <g clip-path="url(#p87faa1b368)">
     <use xlink:href="#C0_0_719359d649" x="169.673395" y="286.233568" style="fill: #0000ff"/>
    </g>
    <g clip-path="url(#p87faa1b368)">
     <use xlink:href="#C0_0_719359d649" x="173.684745" y="256.229959" style="fill: #0000ff"/>
    </g>
    <g clip-path="url(#p87faa1b368)">
     <use xlink:href="#C0_0_719359d649" x="177.696095" y="208.224183" style="fill: #0000ff"/>
    </g>
    <g clip-path="url(#p87faa1b368)">
     <use xlink:href="#C0_0_719359d649" x="181.707445" y="142.216243" style="fill: #0000ff"/>
    </g>
    <g clip-path="url(#p87faa1b368)">
     <use xlink:href="#C0_0_719359d649" x="185.718794" y="58.206136" style="fill: #0000ff"/>
    </g>
    <g clip-path="url(#p87faa1b368)">
     <use xlink:href="#C0_0_719359d649" x="189.730144" y="259.23032" style="fill: #0000ff"/>
    </g>
    <g clip-path="url(#p87faa1b368)">
     <use xlink:href="#C0_0_719359d649" x="193.741494" y="139.215882" style="fill: #0000ff"/>
    </g>
    <g clip-path="url(#p87faa1b368)">
     <use xlink:href="#C0_0_719359d649" x="197.752844" y="304.235734" style="fill: #0000ff"/>
    </g>
    <g clip-path="url(#p87faa1b368)">
     <use xlink:href="#C0_0_719359d649" x="201.764194" y="148.216964" style="fill: #0000ff"/>
    </g>
    <g clip-path="url(#p87faa1b368)">
     <use xlink:href="#C0_0_719359d649" x="205.775544" y="277.232485" style="fill: #0000ff"/>
    </g>
    <g clip-path="url(#p87faa1b368)">
     <use xlink:href="#C0_0_719359d649" x="209.786893" y="85.209385" style="fill: #0000ff"/>
    </g>
    <g clip-path="url(#p87faa1b368)">
     <use xlink:href="#C0_0_719359d649" x="213.798243" y="178.220574" style="fill: #0000ff"/>
    </g>
    <g clip-path="url(#p87faa1b368)">
     <use xlink:href="#C0_0_719359d649" x="217.809593" y="253.229598" style="fill: #0000ff"/>
    </g>
    <g clip-path="url(#p87faa1b368)">
     <use xlink:href="#C0_0_719359d649" x="221.820943" y="310.236456" style="fill: #0000ff"/>
    </g>
    <g clip-path="url(#p87faa1b368)">
     <use xlink:href="#C0_0_719359d649" x="225.832293" y="46.204692" style="fill: #0000ff"/>
    </g>
    <g clip-path="url(#p87faa1b368)">
     <use xlink:href="#C0_0_719359d649" x="229.843643" y="67.207219" style="fill: #0000ff"/>
    </g>
    <g clip-path="url(#p87faa1b368)">
     <use xlink:href="#C0_0_719359d649" x="233.854993" y="70.20758" style="fill: #0000ff"/>
    </g>
    <g clip-path="url(#p87faa1b368)">
     <use xlink:href="#C0_0_719359d649" x="237.866342" y="55.205775" style="fill: #0000ff"/>
    </g>
    <g clip-path="url(#p87faa1b368)">
     <use xlink:href="#C0_0_719359d649" x="241.877692" y="22.201805" style="fill: #0000ff"/>
    </g>
    <g clip-path="url(#p87faa1b368)">
     <use xlink:href="#C0_0_719359d649" x="245.889042" y="274.232124" style="fill: #0000ff"/>
    </g>
    <g clip-path="url(#p87faa1b368)">
     <use xlink:href="#C0_0_719359d649" x="249.900392" y="205.223822" style="fill: #0000ff"/>
    </g>
    <g clip-path="url(#p87faa1b368)">
     <use xlink:href="#C0_0_719359d649" x="253.911742" y="118.213355" style="fill: #0000ff"/>
    </g>
    <g clip-path="url(#p87faa1b368)">
     <use xlink:href="#C0_0_719359d649" x="257.923092" y="13.200722" style="fill: #0000ff"/>
    </g>
    <g clip-path="url(#p87faa1b368)">
     <use xlink:href="#C0_0_719359d649" x="261.934442" y="193.222379" style="fill: #0000ff"/>
    </g>
    <g clip-path="url(#p87faa1b368)">
     <use xlink:href="#C0_0_719359d649" x="265.945791" y="52.205414" style="fill: #0000ff"/>
    </g>
    <g clip-path="url(#p87faa1b368)">
     <use xlink:href="#C0_0_719359d649" x="269.957141" y="196.22274" style="fill: #0000ff"/>
    </g>
    <g clip-path="url(#p87faa1b368)">
     <use xlink:href="#C0_0_719359d649" x="273.968491" y="19.201444" style="fill: #0000ff"/>
    </g>
    <g clip-path="url(#p87faa1b368)">
     <use xlink:href="#C0_0_719359d649" x="277.979841" y="127.214438" style="fill: #0000ff"/>
    </g>
    <g clip-path="url(#p87faa1b368)">
     <use xlink:href="#C0_0_719359d649" x="281.991191" y="217.225266" style="fill: #0000ff"/>
    </g>
    <g clip-path="url(#p87faa1b368)">
     <use xlink:href="#C0_0_719359d649" x="286.002541" y="289.233929" style="fill: #0000ff"/>
    </g>
    <g clip-path="url(#p87faa1b368)">
     <use xlink:href="#C0_0_719359d649" x="290.013891" y="40.20397" style="fill: #0000ff"/>
    </g>
    <g clip-path="url(#p87faa1b368)">
     <use xlink:href="#C0_0_719359d649" x="294.02524" y="76.208302" style="fill: #0000ff"/>
    </g>
    <g clip-path="url(#p87faa1b368)">
     <use xlink:href="#C0_0_719359d649" x="298.03659" y="94.210467" style="fill: #0000ff"/>
    </g>
    <g clip-path="url(#p87faa1b368)">
     <use xlink:href="#C0_0_719359d649" x="302.04794" y="94.210467" style="fill: #0000ff"/>
    </g>
    <g clip-path="url(#p87faa1b368)">
     <use xlink:href="#C0_0_719359d649" x="306.05929" y="76.208302" style="fill: #0000ff"/>
    </g>
    <g clip-path="url(#p87faa1b368)">
     <use xlink:href="#C0_0_719359d649" x="310.07064" y="40.20397" style="fill: #0000ff"/>
    </g>
    <g clip-path="url(#p87faa1b368)">
     <use xlink:href="#C0_0_719359d649" x="314.08199" y="289.233929" style="fill: #0000ff"/>
    </g>
    <g clip-path="url(#p87faa1b368)">
     <use xlink:href="#C0_0_719359d649" x="318.093339" y="217.225266" style="fill: #0000ff"/>
    </g>
    <g clip-path="url(#p87faa1b368)">
     <use xlink:href="#C0_0_719359d649" x="322.104689" y="127.214438" style="fill: #0000ff"/>
    </g>
    <g clip-path="url(#p87faa1b368)">
     <use xlink:href="#C0_0_719359d649" x="326.116039" y="19.201444" style="fill: #0000ff"/>
    </g>
    <g clip-path="url(#p87faa1b368)">
     <use xlink:href="#C0_0_719359d649" x="330.127389" y="196.22274" style="fill: #0000ff"/>
    </g>
    <g clip-path="url(#p87faa1b368)">
     <use xlink:href="#C0_0_719359d649" x="334.138739" y="52.205414" style="fill: #0000ff"/>
    </g>
    <g clip-path="url(#p87faa1b368)">
     <use xlink:href="#C0_0_719359d649" x="338.150089" y="193.222379" style="fill: #0000ff"/>
    </g>
    <g clip-path="url(#p87faa1b368)">
     <use xlink:href="#C0_0_719359d649" x="342.161439" y="13.200722" style="fill: #0000ff"/>
    </g>
    <g clip-path="url(#p87faa1b368)">
     <use xlink:href="#C0_0_719359d649" x="346.172788" y="118.213355" style="fill: #0000ff"/>
    </g>
    <g clip-path="url(#p87faa1b368)">
     <use xlink:href="#C0_0_719359d649" x="350.184138" y="205.223822" style="fill: #0000ff"/>
    </g>
    <g clip-path="url(#p87faa1b368)">
     <use xlink:href="#C0_0_719359d649" x="354.195488" y="274.232124" style="fill: #0000ff"/>
    </g>
    <g clip-path="url(#p87faa1b368)">
     <use xlink:href="#C0_0_719359d649" x="358.206838" y="22.201805" style="fill: #0000ff"/>
    </g>
    <g clip-path="url(#p87faa1b368)">
     <use xlink:href="#C0_0_719359d649" x="362.218188" y="55.205775" style="fill: #0000ff"/>
    </g>
    <g clip-path="url(#p87faa1b368)">
     <use xlink:href="#C0_0_719359d649" x="366.229538" y="70.20758" style="fill: #0000ff"/>
    </g>
    <g clip-path="url(#p87faa1b368)">
     <use xlink:href="#C0_0_719359d649" x="370.240888" y="67.207219" style="fill: #0000ff"/>
    </g>
    <g clip-path="url(#p87faa1b368)">
     <use xlink:href="#C0_0_719359d649" x="374.252237" y="46.204692" style="fill: #0000ff"/>
    </g>
    <g clip-path="url(#p87faa1b368)">
     <use xlink:href="#C0_0_719359d649" x="378.263587" y="310.236456" style="fill: #0000ff"/>
    </g>
    <g clip-path="url(#p87faa1b368)">
     <use xlink:href="#C0_0_719359d649" x="382.274937" y="253.229598" style="fill: #0000ff"/>
    </g>
    <g clip-path="url(#p87faa1b368)">
     <use xlink:href="#C0_0_719359d649" x="386.286287" y="178.220574" style="fill: #0000ff"/>
    </g>
    <g clip-path="url(#p87faa1b368)">
     <use xlink:href="#C0_0_719359d649" x="390.297637" y="85.209385" style="fill: #0000ff"/>
    </g>
    <g clip-path="url(#p87faa1b368)">
     <use xlink:href="#C0_0_719359d649" x="394.308987" y="277.232485" style="fill: #0000ff"/>
    </g>
    <g clip-path="url(#p87faa1b368)">
     <use xlink:href="#C0_0_719359d649" x="398.320337" y="148.216964" style="fill: #0000ff"/>
    </g>
    <g clip-path="url(#p87faa1b368)">
     <use xlink:href="#C0_0_719359d649" x="402.331686" y="304.235734" style="fill: #0000ff"/>
    </g>
    <g clip-path="url(#p87faa1b368)">
     <use xlink:href="#C0_0_719359d649" x="406.343036" y="139.215882" style="fill: #0000ff"/>
    </g>
    <g clip-path="url(#p87faa1b368)">
     <use xlink:href="#C0_0_719359d649" x="410.354386" y="259.23032" style="fill: #0000ff"/>
    </g>
    <g clip-path="url(#p87faa1b368)">
     <use xlink:href="#C0_0_719359d649" x="414.365736" y="58.206136" style="fill: #0000ff"/>
    </g>
    <g clip-path="url(#p87faa1b368)">
     <use xlink:href="#C0_0_719359d649" x="418.377086" y="142.216243" style="fill: #0000ff"/>
    </g>
    <g clip-path="url(#p87faa1b368)">
     <use xlink:href="#C0_0_719359d649" x="422.388436" y="208.224183" style="fill: #0000ff"/>
    </g>
    <g clip-path="url(#p87faa1b368)">
     <use xlink:href="#C0_0_719359d649" x="426.399786" y="256.229959" style="fill: #0000ff"/>
    </g>
    <g clip-path="url(#p87faa1b368)">
     <use xlink:href="#C0_0_719359d649" x="430.411135" y="286.233568" style="fill: #0000ff"/>
    </g>
    <g clip-path="url(#p87faa1b368)">
     <use xlink:href="#C0_0_719359d649" x="434.422485" y="298.235012" style="fill: #0000ff"/>
    </g>
   </g>
   <g id="PathCollection_2">
    <defs>
     <path id="C1_0_7321cf9804" d="M 0 2.12132 
C 0.562581 2.12132 1.102195 1.897805 1.5 1.5 
C 1.897805 1.102195 2.12132 0.562581 2.12132 -0 
C 2.12132 -0.562581 1.897805 -1.102195 1.5 -1.5 
C 1.102195 -1.897805 0.562581 -2.12132 0 -2.12132 
C -0.562581 -2.12132 -1.102195 -1.897805 -1.5 -1.5 
C -1.897805 -1.102195 -2.12132 -0.562581 -2.12132 0 
C -2.12132 0.562581 -1.897805 1.102195 -1.5 1.5 
C -1.102195 1.897805 -0.562581 2.12132 0 2.12132 
z
"/>
    </defs>
    <g clip-path="url(#p87faa1b368)">
     <use xlink:href="#C1_0_7321cf9804" x="33.2875" y="292.23429" style="fill: #ff0000"/>
    </g>
    <g clip-path="url(#p87faa1b368)">
     <use xlink:href="#C1_0_7321cf9804" x="37.29885" y="277.232485" style="fill: #ff0000"/>
    </g>
    <g clip-path="url(#p87faa1b368)">
     <use xlink:href="#C1_0_7321cf9804" x="41.3102" y="244.228515" style="fill: #ff0000"/>
    </g>
    <g clip-path="url(#p87faa1b368)">
     <use xlink:href="#C1_0_7321cf9804" x="45.32155" y="193.222379" style="fill: #ff0000"/>
    </g>
    <g clip-path="url(#p87faa1b368)">
     <use xlink:href="#C1_0_7321cf9804" x="49.332899" y="124.214077" style="fill: #ff0000"/>
    </g>
    <g clip-path="url(#p87faa1b368)">
     <use xlink:href="#C1_0_7321cf9804" x="53.344249" y="37.203609" style="fill: #ff0000"/>
    </g>
    <g clip-path="url(#p87faa1b368)">
     <use xlink:href="#C1_0_7321cf9804" x="57.355599" y="235.227432" style="fill: #ff0000"/>
    </g>
    <g clip-path="url(#p87faa1b368)">
     <use xlink:href="#C1_0_7321cf9804" x="61.366949" y="112.212633" style="fill: #ff0000"/>
    </g>
    <g clip-path="url(#p87faa1b368)">
     <use xlink:href="#C1_0_7321cf9804" x="65.378299" y="274.232124" style="fill: #ff0000"/>
    </g>
    <g clip-path="url(#p87faa1b368)">
     <use xlink:href="#C1_0_7321cf9804" x="69.389649" y="115.212994" style="fill: #ff0000"/>
    </g>
    <g clip-path="url(#p87faa1b368)">
     <use xlink:href="#C1_0_7321cf9804" x="73.400999" y="241.228154" style="fill: #ff0000"/>
    </g>
    <g clip-path="url(#p87faa1b368)">
     <use xlink:href="#C1_0_7321cf9804" x="77.412348" y="46.204692" style="fill: #ff0000"/>
    </g>
    <g clip-path="url(#p87faa1b368)">
     <use xlink:href="#C1_0_7321cf9804" x="81.423698" y="136.215521" style="fill: #ff0000"/>
    </g>
    <g clip-path="url(#p87faa1b368)">
     <use xlink:href="#C1_0_7321cf9804" x="85.435048" y="208.224183" style="fill: #ff0000"/>
    </g>
    <g clip-path="url(#p87faa1b368)">
     <use xlink:href="#C1_0_7321cf9804" x="89.446398" y="262.23068" style="fill: #ff0000"/>
    </g>
    <g clip-path="url(#p87faa1b368)">
     <use xlink:href="#C1_0_7321cf9804" x="93.457748" y="298.235012" style="fill: #ff0000"/>
    </g>
    <g clip-path="url(#p87faa1b368)">
     <use xlink:href="#C1_0_7321cf9804" x="97.469098" y="13.200722" style="fill: #ff0000"/>
    </g>
    <g clip-path="url(#p87faa1b368)">
     <use xlink:href="#C1_0_7321cf9804" x="101.480447" y="13.200722" style="fill: #ff0000"/>
    </g>
    <g clip-path="url(#p87faa1b368)">
     <use xlink:href="#C1_0_7321cf9804" x="105.491797" y="298.235012" style="fill: #ff0000"/>
    </g>
    <g clip-path="url(#p87faa1b368)">
     <use xlink:href="#C1_0_7321cf9804" x="109.503147" y="262.23068" style="fill: #ff0000"/>
    </g>
    <g clip-path="url(#p87faa1b368)">
     <use xlink:href="#C1_0_7321cf9804" x="113.514497" y="208.224183" style="fill: #ff0000"/>
    </g>
    <g clip-path="url(#p87faa1b368)">
     <use xlink:href="#C1_0_7321cf9804" x="117.525847" y="136.215521" style="fill: #ff0000"/>
    </g>
    <g clip-path="url(#p87faa1b368)">
     <use xlink:href="#C1_0_7321cf9804" x="121.537197" y="46.204692" style="fill: #ff0000"/>
    </g>
    <g clip-path="url(#p87faa1b368)">
     <use xlink:href="#C1_0_7321cf9804" x="125.548547" y="241.228154" style="fill: #ff0000"/>
    </g>
    <g clip-path="url(#p87faa1b368)">
     <use xlink:href="#C1_0_7321cf9804" x="129.559896" y="115.212994" style="fill: #ff0000"/>
    </g>
    <g clip-path="url(#p87faa1b368)">
     <use xlink:href="#C1_0_7321cf9804" x="133.571246" y="274.232124" style="fill: #ff0000"/>
    </g>
    <g clip-path="url(#p87faa1b368)">
     <use xlink:href="#C1_0_7321cf9804" x="137.582596" y="112.212633" style="fill: #ff0000"/>
    </g>
    <g clip-path="url(#p87faa1b368)">
     <use xlink:href="#C1_0_7321cf9804" x="141.593946" y="235.227432" style="fill: #ff0000"/>
    </g>
    <g clip-path="url(#p87faa1b368)">
     <use xlink:href="#C1_0_7321cf9804" x="145.605296" y="37.203609" style="fill: #ff0000"/>
    </g>
    <g clip-path="url(#p87faa1b368)">
     <use xlink:href="#C1_0_7321cf9804" x="149.616646" y="124.214077" style="fill: #ff0000"/>
    </g>
    <g clip-path="url(#p87faa1b368)">
     <use xlink:href="#C1_0_7321cf9804" x="153.627996" y="193.222379" style="fill: #ff0000"/>
    </g>
    <g clip-path="url(#p87faa1b368)">
     <use xlink:href="#C1_0_7321cf9804" x="157.639345" y="244.228515" style="fill: #ff0000"/>
    </g>
    <g clip-path="url(#p87faa1b368)">
     <use xlink:href="#C1_0_7321cf9804" x="161.650695" y="277.232485" style="fill: #ff0000"/>
    </g>
    <g clip-path="url(#p87faa1b368)">
     <use xlink:href="#C1_0_7321cf9804" x="165.662045" y="292.23429" style="fill: #ff0000"/>
    </g>
    <g clip-path="url(#p87faa1b368)">
     <use xlink:href="#C1_0_7321cf9804" x="169.673395" y="289.233929" style="fill: #ff0000"/>
    </g>
    <g clip-path="url(#p87faa1b368)">
     <use xlink:href="#C1_0_7321cf9804" x="173.684745" y="268.231402" style="fill: #ff0000"/>
    </g>
    <g clip-path="url(#p87faa1b368)">
     <use xlink:href="#C1_0_7321cf9804" x="177.696095" y="229.22671" style="fill: #ff0000"/>
    </g>
    <g clip-path="url(#p87faa1b368)">
     <use xlink:href="#C1_0_7321cf9804" x="181.707445" y="172.219852" style="fill: #ff0000"/>
    </g>
    <g clip-path="url(#p87faa1b368)">
     <use xlink:href="#C1_0_7321cf9804" x="185.718794" y="97.210828" style="fill: #ff0000"/>
    </g>
    <g clip-path="url(#p87faa1b368)">
     <use xlink:href="#C1_0_7321cf9804" x="189.730144" y="307.236095" style="fill: #ff0000"/>
    </g>
    <g clip-path="url(#p87faa1b368)">
     <use xlink:href="#C1_0_7321cf9804" x="193.741494" y="196.22274" style="fill: #ff0000"/>
    </g>
    <g clip-path="url(#p87faa1b368)">
     <use xlink:href="#C1_0_7321cf9804" x="197.752844" y="67.207219" style="fill: #ff0000"/>
    </g>
    <g clip-path="url(#p87faa1b368)">
     <use xlink:href="#C1_0_7321cf9804" x="201.764194" y="223.225988" style="fill: #ff0000"/>
    </g>
    <g clip-path="url(#p87faa1b368)">
     <use xlink:href="#C1_0_7321cf9804" x="205.775544" y="58.206136" style="fill: #ff0000"/>
    </g>
    <g clip-path="url(#p87faa1b368)">
     <use xlink:href="#C1_0_7321cf9804" x="209.786893" y="178.220574" style="fill: #ff0000"/>
    </g>
    <g clip-path="url(#p87faa1b368)">
     <use xlink:href="#C1_0_7321cf9804" x="213.798243" y="280.232846" style="fill: #ff0000"/>
    </g>
    <g clip-path="url(#p87faa1b368)">
     <use xlink:href="#C1_0_7321cf9804" x="217.809593" y="61.206497" style="fill: #ff0000"/>
    </g>
    <g clip-path="url(#p87faa1b368)">
     <use xlink:href="#C1_0_7321cf9804" x="221.820943" y="127.214438" style="fill: #ff0000"/>
    </g>
    <g clip-path="url(#p87faa1b368)">
     <use xlink:href="#C1_0_7321cf9804" x="225.832293" y="175.220213" style="fill: #ff0000"/>
    </g>
    <g clip-path="url(#p87faa1b368)">
     <use xlink:href="#C1_0_7321cf9804" x="229.843643" y="205.223822" style="fill: #ff0000"/>
    </g>
    <g clip-path="url(#p87faa1b368)">
     <use xlink:href="#C1_0_7321cf9804" x="233.854993" y="217.225266" style="fill: #ff0000"/>
    </g>
    <g clip-path="url(#p87faa1b368)">
     <use xlink:href="#C1_0_7321cf9804" x="237.866342" y="211.224544" style="fill: #ff0000"/>
    </g>
    <g clip-path="url(#p87faa1b368)">
     <use xlink:href="#C1_0_7321cf9804" x="241.877692" y="187.221657" style="fill: #ff0000"/>
    </g>
    <g clip-path="url(#p87faa1b368)">
     <use xlink:href="#C1_0_7321cf9804" x="245.889042" y="145.216604" style="fill: #ff0000"/>
    </g>
    <g clip-path="url(#p87faa1b368)">
     <use xlink:href="#C1_0_7321cf9804" x="249.900392" y="85.209385" style="fill: #ff0000"/>
    </g>
    <g clip-path="url(#p87faa1b368)">
     <use xlink:href="#C1_0_7321cf9804" x="253.911742" y="310.236456" style="fill: #ff0000"/>
    </g>
    <g clip-path="url(#p87faa1b368)">
     <use xlink:href="#C1_0_7321cf9804" x="257.923092" y="214.224905" style="fill: #ff0000"/>
    </g>
    <g clip-path="url(#p87faa1b368)">
     <use xlink:href="#C1_0_7321cf9804" x="261.934442" y="100.211189" style="fill: #ff0000"/>
    </g>
    <g clip-path="url(#p87faa1b368)">
     <use xlink:href="#C1_0_7321cf9804" x="265.945791" y="271.231763" style="fill: #ff0000"/>
    </g>
    <g clip-path="url(#p87faa1b368)">
     <use xlink:href="#C1_0_7321cf9804" x="269.957141" y="121.213716" style="fill: #ff0000"/>
    </g>
    <g clip-path="url(#p87faa1b368)">
     <use xlink:href="#C1_0_7321cf9804" x="273.968491" y="256.229959" style="fill: #ff0000"/>
    </g>
    <g clip-path="url(#p87faa1b368)">
     <use xlink:href="#C1_0_7321cf9804" x="277.979841" y="70.20758" style="fill: #ff0000"/>
    </g>
    <g clip-path="url(#p87faa1b368)">
     <use xlink:href="#C1_0_7321cf9804" x="281.991191" y="169.219491" style="fill: #ff0000"/>
    </g>
    <g clip-path="url(#p87faa1b368)">
     <use xlink:href="#C1_0_7321cf9804" x="286.002541" y="250.229237" style="fill: #ff0000"/>
    </g>
    <g clip-path="url(#p87faa1b368)">
     <use xlink:href="#C1_0_7321cf9804" x="290.013891" y="313.236817" style="fill: #ff0000"/>
    </g>
    <g clip-path="url(#p87faa1b368)">
     <use xlink:href="#C1_0_7321cf9804" x="294.02524" y="55.205775" style="fill: #ff0000"/>
    </g>
    <g clip-path="url(#p87faa1b368)">
     <use xlink:href="#C1_0_7321cf9804" x="298.03659" y="82.209024" style="fill: #ff0000"/>
    </g>
    <g clip-path="url(#p87faa1b368)">
     <use xlink:href="#C1_0_7321cf9804" x="302.04794" y="91.210107" style="fill: #ff0000"/>
    </g>
    <g clip-path="url(#p87faa1b368)">
     <use xlink:href="#C1_0_7321cf9804" x="306.05929" y="82.209024" style="fill: #ff0000"/>
    </g>
    <g clip-path="url(#p87faa1b368)">
     <use xlink:href="#C1_0_7321cf9804" x="310.07064" y="55.205775" style="fill: #ff0000"/>
    </g>
    <g clip-path="url(#p87faa1b368)">
     <use xlink:href="#C1_0_7321cf9804" x="314.08199" y="313.236817" style="fill: #ff0000"/>
    </g>
    <g clip-path="url(#p87faa1b368)">
     <use xlink:href="#C1_0_7321cf9804" x="318.093339" y="250.229237" style="fill: #ff0000"/>
    </g>
    <g clip-path="url(#p87faa1b368)">
     <use xlink:href="#C1_0_7321cf9804" x="322.104689" y="169.219491" style="fill: #ff0000"/>
    </g>
    <g clip-path="url(#p87faa1b368)">
     <use xlink:href="#C1_0_7321cf9804" x="326.116039" y="70.20758" style="fill: #ff0000"/>
    </g>
    <g clip-path="url(#p87faa1b368)">
     <use xlink:href="#C1_0_7321cf9804" x="330.127389" y="256.229959" style="fill: #ff0000"/>
    </g>
    <g clip-path="url(#p87faa1b368)">
     <use xlink:href="#C1_0_7321cf9804" x="334.138739" y="121.213716" style="fill: #ff0000"/>
    </g>
    <g clip-path="url(#p87faa1b368)">
     <use xlink:href="#C1_0_7321cf9804" x="338.150089" y="271.231763" style="fill: #ff0000"/>
    </g>
    <g clip-path="url(#p87faa1b368)">
     <use xlink:href="#C1_0_7321cf9804" x="342.161439" y="100.211189" style="fill: #ff0000"/>
    </g>
    <g clip-path="url(#p87faa1b368)">
     <use xlink:href="#C1_0_7321cf9804" x="346.172788" y="214.224905" style="fill: #ff0000"/>
    </g>
    <g clip-path="url(#p87faa1b368)">
     <use xlink:href="#C1_0_7321cf9804" x="350.184138" y="310.236456" style="fill: #ff0000"/>
    </g>
    <g clip-path="url(#p87faa1b368)">
     <use xlink:href="#C1_0_7321cf9804" x="354.195488" y="85.209385" style="fill: #ff0000"/>
    </g>
    <g clip-path="url(#p87faa1b368)">
     <use xlink:href="#C1_0_7321cf9804" x="358.206838" y="145.216604" style="fill: #ff0000"/>
    </g>
    <g clip-path="url(#p87faa1b368)">
     <use xlink:href="#C1_0_7321cf9804" x="362.218188" y="187.221657" style="fill: #ff0000"/>
    </g>
    <g clip-path="url(#p87faa1b368)">
     <use xlink:href="#C1_0_7321cf9804" x="366.229538" y="211.224544" style="fill: #ff0000"/>
    </g>
    <g clip-path="url(#p87faa1b368)">
     <use xlink:href="#C1_0_7321cf9804" x="370.240888" y="217.225266" style="fill: #ff0000"/>
    </g>
    <g clip-path="url(#p87faa1b368)">
     <use xlink:href="#C1_0_7321cf9804" x="374.252237" y="205.223822" style="fill: #ff0000"/>
    </g>
    <g clip-path="url(#p87faa1b368)">
     <use xlink:href="#C1_0_7321cf9804" x="378.263587" y="175.220213" style="fill: #ff0000"/>
    </g>
    <g clip-path="url(#p87faa1b368)">
     <use xlink:href="#C1_0_7321cf9804" x="382.274937" y="127.214438" style="fill: #ff0000"/>
    </g>
    <g clip-path="url(#p87faa1b368)">
     <use xlink:href="#C1_0_7321cf9804" x="386.286287" y="61.206497" style="fill: #ff0000"/>
    </g>
    <g clip-path="url(#p87faa1b368)">
     <use xlink:href="#C1_0_7321cf9804" x="390.297637" y="280.232846" style="fill: #ff0000"/>
    </g>
    <g clip-path="url(#p87faa1b368)">
     <use xlink:href="#C1_0_7321cf9804" x="394.308987" y="178.220574" style="fill: #ff0000"/>
    </g>
    <g clip-path="url(#p87faa1b368)">
     <use xlink:href="#C1_0_7321cf9804" x="398.320337" y="58.206136" style="fill: #ff0000"/>
    </g>
    <g clip-path="url(#p87faa1b368)">
     <use xlink:href="#C1_0_7321cf9804" x="402.331686" y="223.225988" style="fill: #ff0000"/>
    </g>
    <g clip-path="url(#p87faa1b368)">
     <use xlink:href="#C1_0_7321cf9804" x="406.343036" y="67.207219" style="fill: #ff0000"/>
    </g>
    <g clip-path="url(#p87faa1b368)">
     <use xlink:href="#C1_0_7321cf9804" x="410.354386" y="196.22274" style="fill: #ff0000"/>
    </g>
    <g clip-path="url(#p87faa1b368)">
     <use xlink:href="#C1_0_7321cf9804" x="414.365736" y="307.236095" style="fill: #ff0000"/>
    </g>
    <g clip-path="url(#p87faa1b368)">
     <use xlink:href="#C1_0_7321cf9804" x="418.377086" y="97.210828" style="fill: #ff0000"/>
    </g>
    <g clip-path="url(#p87faa1b368)">
     <use xlink:href="#C1_0_7321cf9804" x="422.388436" y="172.219852" style="fill: #ff0000"/>
    </g>
    <g clip-path="url(#p87faa1b368)">
     <use xlink:href="#C1_0_7321cf9804" x="426.399786" y="229.22671" style="fill: #ff0000"/>
    </g>
    <g clip-path="url(#p87faa1b368)">
     <use xlink:href="#C1_0_7321cf9804" x="430.411135" y="268.231402" style="fill: #ff0000"/>
    </g>
    <g clip-path="url(#p87faa1b368)">
     <use xlink:href="#C1_0_7321cf9804" x="434.422485" y="289.233929" style="fill: #ff0000"/>
    </g>
   </g>
   <g id="matplotlib.axis_1">
    <g id="xtick_1">
     <g id="line2d_1">
      <defs>
       <path id="mfeed944fe3" d="M 0 0 
L 0 3.5 
" style="stroke: #000000; stroke-width: 0.8"/>
      </defs>
      <g>
       <use xlink:href="#mfeed944fe3" x="33.2875" y="313.236817" style="stroke: #000000; stroke-width: 0.8"/>
      </g>
     </g>
    </g>
    <g id="xtick_2">
     <g id="line2d_2">
      <g>
       <use xlink:href="#mfeed944fe3" x="113.514497" y="313.236817" style="stroke: #000000; stroke-width: 0.8"/>
      </g>
     </g>
     <g id="text_1">
      <!-- 20 -->
      <g transform="translate(107.151997 327.835254) scale(0.1 -0.1)">
       <defs>
        <path id="DejaVuSans-32" d="M 1228 531 
L 3431 531 
L 3431 0 
L 469 0 
L 469 531 
Q 828 903 1448 1529 
Q 2069 2156 2228 2338 
Q 2531 2678 2651 2914 
Q 2772 3150 2772 3378 
Q 2772 3750 2511 3984 
Q 2250 4219 1831 4219 
Q 1534 4219 1204 4116 
Q 875 4013 500 3803 
L 500 4441 
Q 881 4594 1212 4672 
Q 1544 4750 1819 4750 
Q 2544 4750 2975 4387 
Q 3406 4025 3406 3419 
Q 3406 3131 3298 2873 
Q 3191 2616 2906 2266 
Q 2828 2175 2409 1742 
Q 1991 1309 1228 531 
z
" transform="scale(0.015625)"/>
        <path id="DejaVuSans-30" d="M 2034 4250 
Q 1547 4250 1301 3770 
Q 1056 3291 1056 2328 
Q 1056 1369 1301 889 
Q 1547 409 2034 409 
Q 2525 409 2770 889 
Q 3016 1369 3016 2328 
Q 3016 3291 2770 3770 
Q 2525 4250 2034 4250 
z
M 2034 4750 
Q 2819 4750 3233 4129 
Q 3647 3509 3647 2328 
Q 3647 1150 3233 529 
Q 2819 -91 2034 -91 
Q 1250 -91 836 529 
Q 422 1150 422 2328 
Q 422 3509 836 4129 
Q 1250 4750 2034 4750 
z
" transform="scale(0.015625)"/>
       </defs>
       <use xlink:href="#DejaVuSans-32"/>
       <use xlink:href="#DejaVuSans-30" transform="translate(63.623047 0)"/>
      </g>
     </g>
    </g>
    <g id="xtick_3">
     <g id="line2d_3">
      <g>
       <use xlink:href="#mfeed944fe3" x="193.741494" y="313.236817" style="stroke: #000000; stroke-width: 0.8"/>
      </g>
     </g>
     <g id="text_2">
      <!-- 40 -->
      <g transform="translate(187.378994 327.835254) scale(0.1 -0.1)">
       <defs>
        <path id="DejaVuSans-34" d="M 2419 4116 
L 825 1625 
L 2419 1625 
L 2419 4116 
z
M 2253 4666 
L 3047 4666 
L 3047 1625 
L 3713 1625 
L 3713 1100 
L 3047 1100 
L 3047 0 
L 2419 0 
L 2419 1100 
L 313 1100 
L 313 1709 
L 2253 4666 
z
" transform="scale(0.015625)"/>
       </defs>
       <use xlink:href="#DejaVuSans-34"/>
       <use xlink:href="#DejaVuSans-30" transform="translate(63.623047 0)"/>
      </g>
     </g>
    </g>
    <g id="xtick_4">
     <g id="line2d_4">
      <g>
       <use xlink:href="#mfeed944fe3" x="273.968491" y="313.236817" style="stroke: #000000; stroke-width: 0.8"/>
      </g>
     </g>
     <g id="text_3">
      <!-- 60 -->
      <g transform="translate(267.605991 327.835254) scale(0.1 -0.1)">
       <defs>
        <path id="DejaVuSans-36" d="M 2113 2584 
Q 1688 2584 1439 2293 
Q 1191 2003 1191 1497 
Q 1191 994 1439 701 
Q 1688 409 2113 409 
Q 2538 409 2786 701 
Q 3034 994 3034 1497 
Q 3034 2003 2786 2293 
Q 2538 2584 2113 2584 
z
M 3366 4563 
L 3366 3988 
Q 3128 4100 2886 4159 
Q 2644 4219 2406 4219 
Q 1781 4219 1451 3797 
Q 1122 3375 1075 2522 
Q 1259 2794 1537 2939 
Q 1816 3084 2150 3084 
Q 2853 3084 3261 2657 
Q 3669 2231 3669 1497 
Q 3669 778 3244 343 
Q 2819 -91 2113 -91 
Q 1303 -91 875 529 
Q 447 1150 447 2328 
Q 447 3434 972 4092 
Q 1497 4750 2381 4750 
Q 2619 4750 2861 4703 
Q 3103 4656 3366 4563 
z
" transform="scale(0.015625)"/>
       </defs>
       <use xlink:href="#DejaVuSans-36"/>
       <use xlink:href="#DejaVuSans-30" transform="translate(63.623047 0)"/>
      </g>
     </g>
    </g>
    <g id="xtick_5">
     <g id="line2d_5">
      <g>
       <use xlink:href="#mfeed944fe3" x="354.195488" y="313.236817" style="stroke: #000000; stroke-width: 0.8"/>
      </g>
     </g>
     <g id="text_4">
      <!-- 80 -->
      <g transform="translate(347.832988 327.835254) scale(0.1 -0.1)">
       <defs>
        <path id="DejaVuSans-38" d="M 2034 2216 
Q 1584 2216 1326 1975 
Q 1069 1734 1069 1313 
Q 1069 891 1326 650 
Q 1584 409 2034 409 
Q 2484 409 2743 651 
Q 3003 894 3003 1313 
Q 3003 1734 2745 1975 
Q 2488 2216 2034 2216 
z
M 1403 2484 
Q 997 2584 770 2862 
Q 544 3141 544 3541 
Q 544 4100 942 4425 
Q 1341 4750 2034 4750 
Q 2731 4750 3128 4425 
Q 3525 4100 3525 3541 
Q 3525 3141 3298 2862 
Q 3072 2584 2669 2484 
Q 3125 2378 3379 2068 
Q 3634 1759 3634 1313 
Q 3634 634 3220 271 
Q 2806 -91 2034 -91 
Q 1263 -91 848 271 
Q 434 634 434 1313 
Q 434 1759 690 2068 
Q 947 2378 1403 2484 
z
M 1172 3481 
Q 1172 3119 1398 2916 
Q 1625 2713 2034 2713 
Q 2441 2713 2670 2916 
Q 2900 3119 2900 3481 
Q 2900 3844 2670 4047 
Q 2441 4250 2034 4250 
Q 1625 4250 1398 4047 
Q 1172 3844 1172 3481 
z
" transform="scale(0.015625)"/>
       </defs>
       <use xlink:href="#DejaVuSans-38"/>
       <use xlink:href="#DejaVuSans-30" transform="translate(63.623047 0)"/>
      </g>
     </g>
    </g>
    <g id="xtick_6">
     <g id="line2d_6">
      <g>
       <use xlink:href="#mfeed944fe3" x="434.422485" y="313.236817" style="stroke: #000000; stroke-width: 0.8"/>
      </g>
     </g>
     <g id="text_5">
      <!-- 100 -->
      <g transform="translate(424.878735 327.835254) scale(0.1 -0.1)">
       <defs>
        <path id="DejaVuSans-31" d="M 794 531 
L 1825 531 
L 1825 4091 
L 703 3866 
L 703 4441 
L 1819 4666 
L 2450 4666 
L 2450 531 
L 3481 531 
L 3481 0 
L 794 0 
L 794 531 
z
" transform="scale(0.015625)"/>
       </defs>
       <use xlink:href="#DejaVuSans-31"/>
       <use xlink:href="#DejaVuSans-30" transform="translate(63.623047 0)"/>
       <use xlink:href="#DejaVuSans-30" transform="translate(127.246094 0)"/>
      </g>
     </g>
    </g>
    <g id="xtick_7">
     <g id="line2d_7">
      <defs>
       <path id="mae955a6c00" d="M 0 0 
L 0 2 
" style="stroke: #000000; stroke-width: 0.6"/>
      </defs>
      <g>
       <use xlink:href="#mae955a6c00" x="53.344249" y="313.236817" style="stroke: #000000; stroke-width: 0.6"/>
      </g>
     </g>
    </g>
    <g id="xtick_8">
     <g id="line2d_8">
      <g>
       <use xlink:href="#mae955a6c00" x="73.400999" y="313.236817" style="stroke: #000000; stroke-width: 0.6"/>
      </g>
     </g>
    </g>
    <g id="xtick_9">
     <g id="line2d_9">
      <g>
       <use xlink:href="#mae955a6c00" x="93.457748" y="313.236817" style="stroke: #000000; stroke-width: 0.6"/>
      </g>
     </g>
    </g>
    <g id="xtick_10">
     <g id="line2d_10">
      <g>
       <use xlink:href="#mae955a6c00" x="133.571246" y="313.236817" style="stroke: #000000; stroke-width: 0.6"/>
      </g>
     </g>
    </g>
    <g id="xtick_11">
     <g id="line2d_11">
      <g>
       <use xlink:href="#mae955a6c00" x="153.627996" y="313.236817" style="stroke: #000000; stroke-width: 0.6"/>
      </g>
     </g>
    </g>
    <g id="xtick_12">
     <g id="line2d_12">
      <g>
       <use xlink:href="#mae955a6c00" x="173.684745" y="313.236817" style="stroke: #000000; stroke-width: 0.6"/>
      </g>
     </g>
    </g>
    <g id="xtick_13">
     <g id="line2d_13">
      <g>
       <use xlink:href="#mae955a6c00" x="213.798243" y="313.236817" style="stroke: #000000; stroke-width: 0.6"/>
      </g>
     </g>
    </g>
    <g id="xtick_14">
     <g id="line2d_14">
      <g>
       <use xlink:href="#mae955a6c00" x="233.854993" y="313.236817" style="stroke: #000000; stroke-width: 0.6"/>
      </g>
     </g>
    </g>
    <g id="xtick_15">
     <g id="line2d_15">
      <g>
       <use xlink:href="#mae955a6c00" x="253.911742" y="313.236817" style="stroke: #000000; stroke-width: 0.6"/>
      </g>
     </g>
    </g>
    <g id="xtick_16">
     <g id="line2d_16">
      <g>
       <use xlink:href="#mae955a6c00" x="294.02524" y="313.236817" style="stroke: #000000; stroke-width: 0.6"/>
      </g>
     </g>
    </g>
    <g id="xtick_17">
     <g id="line2d_17">
      <g>
       <use xlink:href="#mae955a6c00" x="314.08199" y="313.236817" style="stroke: #000000; stroke-width: 0.6"/>
      </g>
     </g>
    </g>
    <g id="xtick_18">
     <g id="line2d_18">
      <g>
       <use xlink:href="#mae955a6c00" x="334.138739" y="313.236817" style="stroke: #000000; stroke-width: 0.6"/>
      </g>
     </g>
    </g>
    <g id="xtick_19">
     <g id="line2d_19">
      <g>
       <use xlink:href="#mae955a6c00" x="374.252237" y="313.236817" style="stroke: #000000; stroke-width: 0.6"/>
      </g>
     </g>
    </g>
    <g id="xtick_20">
     <g id="line2d_20">
      <g>
       <use xlink:href="#mae955a6c00" x="394.308987" y="313.236817" style="stroke: #000000; stroke-width: 0.6"/>
      </g>
     </g>
    </g>
    <g id="xtick_21">
     <g id="line2d_21">
      <g>
       <use xlink:href="#mae955a6c00" x="414.365736" y="313.236817" style="stroke: #000000; stroke-width: 0.6"/>
      </g>
     </g>
    </g>
   </g>
   <g id="matplotlib.axis_2">
    <g id="ytick_1">
     <g id="line2d_22">
      <defs>
       <path id="m5984d670e1" d="M 0 0 
L -3.5 0 
" style="stroke: #000000; stroke-width: 0.8"/>
      </defs>
      <g>
       <use xlink:href="#m5984d670e1" x="33.2875" y="313.236817" style="stroke: #000000; stroke-width: 0.8"/>
      </g>
     </g>
    </g>
    <g id="ytick_2">
     <g id="line2d_23">
      <g>
       <use xlink:href="#m5984d670e1" x="33.2875" y="253.229598" style="stroke: #000000; stroke-width: 0.8"/>
      </g>
     </g>
     <g id="text_6">
      <!-- 20 -->
      <g transform="translate(13.5625 257.028816) scale(0.1 -0.1)">
       <use xlink:href="#DejaVuSans-32"/>
       <use xlink:href="#DejaVuSans-30" transform="translate(63.623047 0)"/>
      </g>
     </g>
    </g>
    <g id="ytick_3">
     <g id="line2d_24">
      <g>
       <use xlink:href="#m5984d670e1" x="33.2875" y="193.222379" style="stroke: #000000; stroke-width: 0.8"/>
      </g>
     </g>
     <g id="text_7">
      <!-- 40 -->
      <g transform="translate(13.5625 197.021597) scale(0.1 -0.1)">
       <use xlink:href="#DejaVuSans-34"/>
       <use xlink:href="#DejaVuSans-30" transform="translate(63.623047 0)"/>
      </g>
     </g>
    </g>
    <g id="ytick_4">
     <g id="line2d_25">
      <g>
       <use xlink:href="#m5984d670e1" x="33.2875" y="133.21516" style="stroke: #000000; stroke-width: 0.8"/>
      </g>
     </g>
     <g id="text_8">
      <!-- 60 -->
      <g transform="translate(13.5625 137.014379) scale(0.1 -0.1)">
       <use xlink:href="#DejaVuSans-36"/>
       <use xlink:href="#DejaVuSans-30" transform="translate(63.623047 0)"/>
      </g>
     </g>
    </g>
    <g id="ytick_5">
     <g id="line2d_26">
      <g>
       <use xlink:href="#m5984d670e1" x="33.2875" y="73.207941" style="stroke: #000000; stroke-width: 0.8"/>
      </g>
     </g>
     <g id="text_9">
      <!-- 80 -->
      <g transform="translate(13.5625 77.00716) scale(0.1 -0.1)">
       <use xlink:href="#DejaVuSans-38"/>
       <use xlink:href="#DejaVuSans-30" transform="translate(63.623047 0)"/>
      </g>
     </g>
    </g>
    <g id="ytick_6">
     <g id="line2d_27">
      <g>
       <use xlink:href="#m5984d670e1" x="33.2875" y="13.200722" style="stroke: #000000; stroke-width: 0.8"/>
      </g>
     </g>
     <g id="text_10">
      <!-- 100 -->
      <g transform="translate(7.2 16.999941) scale(0.1 -0.1)">
       <use xlink:href="#DejaVuSans-31"/>
       <use xlink:href="#DejaVuSans-30" transform="translate(63.623047 0)"/>
       <use xlink:href="#DejaVuSans-30" transform="translate(127.246094 0)"/>
      </g>
     </g>
    </g>
    <g id="ytick_7">
     <g id="line2d_28">
      <defs>
       <path id="mcb939941df" d="M 0 0 
L -2 0 
" style="stroke: #000000; stroke-width: 0.6"/>
      </defs>
      <g>
       <use xlink:href="#mcb939941df" x="33.2875" y="298.235012" style="stroke: #000000; stroke-width: 0.6"/>
      </g>
     </g>
    </g>
    <g id="ytick_8">
     <g id="line2d_29">
      <g>
       <use xlink:href="#mcb939941df" x="33.2875" y="283.233207" style="stroke: #000000; stroke-width: 0.6"/>
      </g>
     </g>
    </g>
    <g id="ytick_9">
     <g id="line2d_30">
      <g>
       <use xlink:href="#mcb939941df" x="33.2875" y="268.231402" style="stroke: #000000; stroke-width: 0.6"/>
      </g>
     </g>
    </g>
    <g id="ytick_10">
     <g id="line2d_31">
      <g>
       <use xlink:href="#mcb939941df" x="33.2875" y="238.227793" style="stroke: #000000; stroke-width: 0.6"/>
      </g>
     </g>
    </g>
    <g id="ytick_11">
     <g id="line2d_32">
      <g>
       <use xlink:href="#mcb939941df" x="33.2875" y="223.225988" style="stroke: #000000; stroke-width: 0.6"/>
      </g>
     </g>
    </g>
    <g id="ytick_12">
     <g id="line2d_33">
      <g>
       <use xlink:href="#mcb939941df" x="33.2875" y="208.224183" style="stroke: #000000; stroke-width: 0.6"/>
      </g>
     </g>
    </g>
    <g id="ytick_13">
     <g id="line2d_34">
      <g>
       <use xlink:href="#mcb939941df" x="33.2875" y="178.220574" style="stroke: #000000; stroke-width: 0.6"/>
      </g>
     </g>
    </g>
    <g id="ytick_14">
     <g id="line2d_35">
      <g>
       <use xlink:href="#mcb939941df" x="33.2875" y="163.218769" style="stroke: #000000; stroke-width: 0.6"/>
      </g>
     </g>
    </g>
    <g id="ytick_15">
     <g id="line2d_36">
      <g>
       <use xlink:href="#mcb939941df" x="33.2875" y="148.216964" style="stroke: #000000; stroke-width: 0.6"/>
      </g>
     </g>
    </g>
    <g id="ytick_16">
     <g id="line2d_37">
      <g>
       <use xlink:href="#mcb939941df" x="33.2875" y="118.213355" style="stroke: #000000; stroke-width: 0.6"/>
      </g>
     </g>
    </g>
    <g id="ytick_17">
     <g id="line2d_38">
      <g>
       <use xlink:href="#mcb939941df" x="33.2875" y="103.21155" style="stroke: #000000; stroke-width: 0.6"/>
      </g>
     </g>
    </g>
    <g id="ytick_18">
     <g id="line2d_39">
      <g>
       <use xlink:href="#mcb939941df" x="33.2875" y="88.209746" style="stroke: #000000; stroke-width: 0.6"/>
      </g>
     </g>
    </g>
    <g id="ytick_19">
     <g id="line2d_40">
      <g>
       <use xlink:href="#mcb939941df" x="33.2875" y="58.206136" style="stroke: #000000; stroke-width: 0.6"/>
      </g>
     </g>
    </g>
    <g id="ytick_20">
     <g id="line2d_41">
      <g>
       <use xlink:href="#mcb939941df" x="33.2875" y="43.204331" style="stroke: #000000; stroke-width: 0.6"/>
      </g>
     </g>
    </g>
    <g id="ytick_21">
     <g id="line2d_42">
      <g>
       <use xlink:href="#mcb939941df" x="33.2875" y="28.202527" style="stroke: #000000; stroke-width: 0.6"/>
      </g>
     </g>
    </g>
   </g>
   <g id="patch_3">
    <path d="M 33.2875 319.237538 
L 33.2875 7.2 
" style="fill: none; stroke: #000000; stroke-width: 0.8; stroke-linejoin: miter; stroke-linecap: square"/>
   </g>
   <g id="patch_4">
    <path d="M 25.2648 313.236817 
L 442.445185 313.236817 
" style="fill: none; stroke: #000000; stroke-width: 0.8; stroke-linejoin: miter; stroke-linecap: square"/>
   </g>
   <g id="legend_1">
    <g id="patch_5">
     <path d="M 415.596747 45.75625 
L 439.445185 45.75625 
L 439.445185 14.2 
L 415.596747 14.2 
z
" style="fill: #4d4d4d; opacity: 0.5; stroke: #4d4d4d; stroke-linejoin: miter"/>
    </g>
    <g id="patch_6">
     <path d="M 413.596747 43.75625 
L 437.445185 43.75625 
L 437.445185 12.2 
L 413.596747 12.2 
z
" style="fill: #ffffff; stroke: #cccccc; stroke-linejoin: miter"/>
    </g>
    <g id="PathCollection_3">
     <path d="M 419.846747 24.44623 
C 420.184296 24.44623 420.508065 24.31212 420.746747 24.073437 
C 420.98543 23.834755 421.11954 23.510986 421.11954 23.173437 
C 421.11954 22.835889 420.98543 22.51212 420.746747 22.273437 
C 420.508065 22.034755 420.184296 21.900645 419.846747 21.900645 
C 419.509199 21.900645 419.18543 22.034755 418.946747 22.273437 
C 418.708065 22.51212 418.573955 22.835889 418.573955 23.173437 
C 418.573955 23.510986 418.708065 23.834755 418.946747 24.073437 
C 419.18543 24.31212 419.509199 24.44623 419.846747 24.44623 
z
" style="fill: #0000ff"/>
    </g>
    <g id="text_11">
     <!-- p -->
     <g transform="translate(425.096747 25.798437) scale(0.1 -0.1)">
      <defs>
       <path id="DejaVuSans-70" d="M 1159 525 
L 1159 -1331 
L 581 -1331 
L 581 3500 
L 1159 3500 
L 1159 2969 
Q 1341 3281 1617 3432 
Q 1894 3584 2278 3584 
Q 2916 3584 3314 3078 
Q 3713 2572 3713 1747 
Q 3713 922 3314 415 
Q 2916 -91 2278 -91 
Q 1894 -91 1617 61 
Q 1341 213 1159 525 
z
M 3116 1747 
Q 3116 2381 2855 2742 
Q 2594 3103 2138 3103 
Q 1681 3103 1420 2742 
Q 1159 2381 1159 1747 
Q 1159 1113 1420 752 
Q 1681 391 2138 391 
Q 2594 391 2855 752 
Q 3116 1113 3116 1747 
z
" transform="scale(0.015625)"/>
      </defs>
      <use xlink:href="#DejaVuSans-70"/>
     </g>
    </g>
    <g id="PathCollection_4">
     <path d="M 419.846747 34.324355 
C 420.184296 34.324355 420.508065 34.190245 420.746747 33.951562 
C 420.98543 33.71288 421.11954 33.389111 421.11954 33.051562 
C 421.11954 32.714014 420.98543 32.390245 420.746747 32.151562 
C 420.508065 31.91288 420.184296 31.77877 419.846747 31.77877 
C 419.509199 31.77877 419.18543 31.91288 418.946747 32.151562 
C 418.708065 32.390245 418.573955 32.714014 418.573955 33.051562 
C 418.573955 33.389111 418.708065 33.71288 418.946747 33.951562 
C 419.18543 34.190245 419.509199 34.324355 419.846747 34.324355 
z
" style="fill: #ff0000"/>
    </g>
    <g id="text_12">
     <!-- q -->
     <g transform="translate(425.096747 35.676562) scale(0.1 -0.1)">
      <defs>
       <path id="DejaVuSans-71" d="M 947 1747 
Q 947 1113 1208 752 
Q 1469 391 1925 391 
Q 2381 391 2643 752 
Q 2906 1113 2906 1747 
Q 2906 2381 2643 2742 
Q 2381 3103 1925 3103 
Q 1469 3103 1208 2742 
Q 947 2381 947 1747 
z
M 2906 525 
Q 2725 213 2448 61 
Q 2172 -91 1784 -91 
Q 1150 -91 751 415 
Q 353 922 353 1747 
Q 353 2572 751 3078 
Q 1150 3584 1784 3584 
Q 2172 3584 2448 3432 
Q 2725 3281 2906 2969 
L 2906 3500 
L 3481 3500 
L 3481 -1331 
L 2906 -1331 
L 2906 525 
z
" transform="scale(0.015625)"/>
      </defs>
      <use xlink:href="#DejaVuSans-71"/>
     </g>
    </g>
   </g>
  </g>
 </g>
 <defs>
  <clipPath id="p87faa1b368">
   <rect x="25.2648" y="7.2" width="417.180385" height="312.037538"/>
  </clipPath>
 </defs>
</svg>
