<?xml version="1.0" encoding="UTF-8"?>
<svg xmlns="http://www.w3.org/2000/svg" xmlns:xlink="http://www.w3.org/1999/xlink" width="854" height="480" viewBox="0 0 854 480">
<defs>
<g>
<g id="glyph-0-0">
<path d="M 4.125 -3.109375 C 4.320312 -3.054688 4.488281 -2.96875 4.625 -2.84375 C 4.769531 -2.71875 4.898438 -2.539062 5.015625 -2.3125 L 5.921875 -0.453125 L 6.6875 -0.453125 L 6.6875 0 L 5.203125 0 L 4.234375 -2 C 4.046875 -2.382812 3.867188 -2.632812 3.703125 -2.75 C 3.546875 -2.863281 3.332031 -2.921875 3.0625 -2.921875 L 2.125 -2.921875 L 2.125 -0.453125 L 3.015625 -0.453125 L 3.015625 0 L 0.46875 0 L 0.46875 -0.453125 L 1.28125 -0.453125 L 1.28125 -5.828125 L 0.46875 -5.828125 L 0.46875 -6.28125 L 3.65625 -6.28125 C 4.269531 -6.28125 4.738281 -6.132812 5.0625 -5.84375 C 5.394531 -5.550781 5.5625 -5.132812 5.5625 -4.59375 C 5.5625 -4.164062 5.441406 -3.828125 5.203125 -3.578125 C 4.960938 -3.328125 4.601562 -3.171875 4.125 -3.109375 Z M 2.125 -3.375 L 3.375 -3.375 C 3.789062 -3.375 4.097656 -3.472656 4.296875 -3.671875 C 4.503906 -3.867188 4.609375 -4.175781 4.609375 -4.59375 C 4.609375 -5.019531 4.503906 -5.332031 4.296875 -5.53125 C 4.097656 -5.726562 3.789062 -5.828125 3.375 -5.828125 L 2.125 -5.828125 Z "/>
</g>
<g id="glyph-0-1">
<path d="M 4.671875 -2.15625 L 1.328125 -2.15625 L 1.328125 -2.125 C 1.328125 -1.519531 1.441406 -1.0625 1.671875 -0.75 C 1.898438 -0.445312 2.234375 -0.296875 2.671875 -0.296875 C 3.015625 -0.296875 3.296875 -0.382812 3.515625 -0.5625 C 3.734375 -0.738281 3.882812 -1.003906 3.96875 -1.359375 L 4.59375 -1.359375 C 4.46875 -0.867188 4.238281 -0.5 3.90625 -0.25 C 3.570312 0 3.132812 0.125 2.59375 0.125 C 1.945312 0.125 1.421875 -0.0859375 1.015625 -0.515625 C 0.617188 -0.953125 0.421875 -1.523438 0.421875 -2.234375 C 0.421875 -2.941406 0.613281 -3.507812 1 -3.9375 C 1.394531 -4.375 1.910156 -4.59375 2.546875 -4.59375 C 3.222656 -4.59375 3.738281 -4.382812 4.09375 -3.96875 C 4.457031 -3.550781 4.648438 -2.945312 4.671875 -2.15625 Z M 3.75 -2.59375 C 3.738281 -3.113281 3.628906 -3.503906 3.421875 -3.765625 C 3.222656 -4.035156 2.929688 -4.171875 2.546875 -4.171875 C 2.191406 -4.171875 1.910156 -4.035156 1.703125 -3.765625 C 1.503906 -3.503906 1.378906 -3.113281 1.328125 -2.59375 Z "/>
</g>
<g id="glyph-0-2">
<path d="M 4.515625 -0.453125 L 5.265625 -0.453125 L 5.265625 0 L 3.75 0 L 3.75 -0.703125 C 3.59375 -0.421875 3.394531 -0.210938 3.15625 -0.078125 C 2.925781 0.0546875 2.640625 0.125 2.296875 0.125 C 1.742188 0.125 1.289062 -0.09375 0.9375 -0.53125 C 0.59375 -0.96875 0.421875 -1.535156 0.421875 -2.234375 C 0.421875 -2.929688 0.59375 -3.5 0.9375 -3.9375 C 1.289062 -4.375 1.742188 -4.59375 2.296875 -4.59375 C 2.640625 -4.59375 2.925781 -4.523438 3.15625 -4.390625 C 3.394531 -4.253906 3.59375 -4.046875 3.75 -3.765625 L 3.75 -6.09375 L 3.015625 -6.09375 L 3.015625 -6.546875 L 4.515625 -6.546875 Z M 3.75 -2.015625 L 3.75 -2.453125 C 3.75 -2.992188 3.644531 -3.40625 3.4375 -3.6875 C 3.226562 -3.96875 2.929688 -4.109375 2.546875 -4.109375 C 2.140625 -4.109375 1.832031 -3.953125 1.625 -3.640625 C 1.425781 -3.328125 1.328125 -2.859375 1.328125 -2.234375 C 1.328125 -1.617188 1.425781 -1.148438 1.625 -0.828125 C 1.832031 -0.515625 2.140625 -0.359375 2.546875 -0.359375 C 2.929688 -0.359375 3.226562 -0.5 3.4375 -0.78125 C 3.644531 -1.0625 3.75 -1.472656 3.75 -2.015625 Z "/>
</g>
<g id="glyph-0-3">
<path d="M 0.375 -2.640625 L 2.53125 -2.640625 L 2.53125 -1.984375 L 0.375 -1.984375 Z "/>
</g>
<g id="glyph-0-4">
<path d="M 0.796875 -0.296875 L 0.796875 -1.734375 L 1.28125 -1.734375 C 1.289062 -1.253906 1.425781 -0.898438 1.6875 -0.671875 C 1.957031 -0.441406 2.359375 -0.328125 2.890625 -0.328125 C 3.390625 -0.328125 3.769531 -0.425781 4.03125 -0.625 C 4.289062 -0.820312 4.421875 -1.109375 4.421875 -1.484375 C 4.421875 -1.785156 4.34375 -2.019531 4.1875 -2.1875 C 4.03125 -2.351562 3.695312 -2.507812 3.1875 -2.65625 L 2.359375 -2.90625 C 1.753906 -3.09375 1.328125 -3.320312 1.078125 -3.59375 C 0.835938 -3.863281 0.71875 -4.234375 0.71875 -4.703125 C 0.71875 -5.234375 0.90625 -5.644531 1.28125 -5.9375 C 1.664062 -6.238281 2.203125 -6.390625 2.890625 -6.390625 C 3.179688 -6.390625 3.5 -6.359375 3.84375 -6.296875 C 4.1875 -6.234375 4.554688 -6.140625 4.953125 -6.015625 L 4.953125 -4.6875 L 4.484375 -4.6875 C 4.429688 -5.125 4.28125 -5.441406 4.03125 -5.640625 C 3.78125 -5.835938 3.40625 -5.9375 2.90625 -5.9375 C 2.457031 -5.9375 2.117188 -5.84375 1.890625 -5.65625 C 1.660156 -5.476562 1.546875 -5.21875 1.546875 -4.875 C 1.546875 -4.582031 1.628906 -4.347656 1.796875 -4.171875 C 1.972656 -4.003906 2.34375 -3.835938 2.90625 -3.671875 L 3.6875 -3.4375 C 4.257812 -3.257812 4.664062 -3.039062 4.90625 -2.78125 C 5.144531 -2.519531 5.265625 -2.164062 5.265625 -1.71875 C 5.265625 -1.101562 5.066406 -0.640625 4.671875 -0.328125 C 4.285156 -0.0234375 3.707031 0.125 2.9375 0.125 C 2.59375 0.125 2.242188 0.0859375 1.890625 0.015625 C 1.535156 -0.0546875 1.171875 -0.160156 0.796875 -0.296875 Z "/>
</g>
<g id="glyph-0-5">
<path d="M 2.59375 -0.296875 C 3.007812 -0.296875 3.320312 -0.457031 3.53125 -0.78125 C 3.738281 -1.113281 3.84375 -1.597656 3.84375 -2.234375 C 3.84375 -2.867188 3.738281 -3.347656 3.53125 -3.671875 C 3.320312 -4.003906 3.007812 -4.171875 2.59375 -4.171875 C 2.175781 -4.171875 1.859375 -4.003906 1.640625 -3.671875 C 1.429688 -3.347656 1.328125 -2.867188 1.328125 -2.234375 C 1.328125 -1.597656 1.429688 -1.113281 1.640625 -0.78125 C 1.859375 -0.457031 2.175781 -0.296875 2.59375 -0.296875 Z M 2.59375 0.125 C 1.9375 0.125 1.410156 -0.0859375 1.015625 -0.515625 C 0.617188 -0.953125 0.421875 -1.523438 0.421875 -2.234375 C 0.421875 -2.941406 0.617188 -3.507812 1.015625 -3.9375 C 1.410156 -4.375 1.9375 -4.59375 2.59375 -4.59375 C 3.238281 -4.59375 3.757812 -4.375 4.15625 -3.9375 C 4.550781 -3.507812 4.75 -2.941406 4.75 -2.234375 C 4.75 -1.523438 4.550781 -0.953125 4.15625 -0.515625 C 3.757812 -0.0859375 3.238281 0.125 2.59375 0.125 Z "/>
</g>
<g id="glyph-0-6">
<path d="M 1.765625 -0.453125 L 2.5 -0.453125 L 2.5 0 L 0.25 0 L 0.25 -0.453125 L 0.984375 -0.453125 L 0.984375 -6.09375 L 0.25 -6.09375 L 0.25 -6.546875 L 1.765625 -6.546875 Z "/>
</g>
<g id="glyph-0-7">
<path d="M 4.453125 -3.59375 C 4.609375 -3.925781 4.800781 -4.175781 5.03125 -4.34375 C 5.257812 -4.507812 5.53125 -4.59375 5.84375 -4.59375 C 6.3125 -4.59375 6.660156 -4.445312 6.890625 -4.15625 C 7.117188 -3.863281 7.234375 -3.425781 7.234375 -2.84375 L 7.234375 -0.453125 L 7.921875 -0.453125 L 7.921875 0 L 5.78125 0 L 5.78125 -0.453125 L 6.453125 -0.453125 L 6.453125 -2.75 C 6.453125 -3.207031 6.382812 -3.53125 6.25 -3.71875 C 6.113281 -3.914062 5.894531 -4.015625 5.59375 -4.015625 C 5.238281 -4.015625 4.972656 -3.882812 4.796875 -3.625 C 4.617188 -3.363281 4.53125 -2.984375 4.53125 -2.484375 L 4.53125 -0.453125 L 5.203125 -0.453125 L 5.203125 0 L 3.078125 0 L 3.078125 -0.453125 L 3.75 -0.453125 L 3.75 -2.78125 C 3.75 -3.226562 3.679688 -3.546875 3.546875 -3.734375 C 3.410156 -3.921875 3.191406 -4.015625 2.890625 -4.015625 C 2.535156 -4.015625 2.269531 -3.882812 2.09375 -3.625 C 1.914062 -3.363281 1.828125 -2.984375 1.828125 -2.484375 L 1.828125 -0.453125 L 2.5 -0.453125 L 2.5 0 L 0.359375 0 L 0.359375 -0.453125 L 1.046875 -0.453125 L 1.046875 -4.03125 L 0.3125 -4.03125 L 0.3125 -4.46875 L 1.828125 -4.46875 L 1.828125 -3.671875 C 1.960938 -3.972656 2.140625 -4.203125 2.359375 -4.359375 C 2.585938 -4.515625 2.84375 -4.59375 3.125 -4.59375 C 3.46875 -4.59375 3.753906 -4.503906 3.984375 -4.328125 C 4.222656 -4.160156 4.378906 -3.914062 4.453125 -3.59375 Z "/>
</g>
<g id="glyph-0-8">
<path d="M 0.359375 0 L 0.359375 -0.453125 L 1.046875 -0.453125 L 1.046875 -4.015625 L 0.3125 -4.015625 L 0.3125 -4.46875 L 1.828125 -4.46875 L 1.828125 -3.671875 C 1.960938 -3.972656 2.144531 -4.203125 2.375 -4.359375 C 2.601562 -4.515625 2.867188 -4.59375 3.171875 -4.59375 C 3.671875 -4.59375 4.035156 -4.445312 4.265625 -4.15625 C 4.492188 -3.875 4.609375 -3.4375 4.609375 -2.84375 L 4.609375 -0.453125 L 5.3125 -0.453125 L 5.3125 0 L 3.171875 0 L 3.171875 -0.453125 L 3.84375 -0.453125 L 3.84375 -2.59375 C 3.84375 -3.144531 3.773438 -3.519531 3.640625 -3.71875 C 3.503906 -3.925781 3.265625 -4.03125 2.921875 -4.03125 C 2.566406 -4.03125 2.296875 -3.894531 2.109375 -3.625 C 1.921875 -3.363281 1.828125 -2.984375 1.828125 -2.484375 L 1.828125 -0.453125 L 2.5 -0.453125 L 2.5 0 Z "/>
</g>
<g id="glyph-0-9">
<path d="M 0.890625 -0.4375 C 0.890625 -0.59375 0.941406 -0.722656 1.046875 -0.828125 C 1.160156 -0.941406 1.296875 -1 1.453125 -1 C 1.609375 -1 1.738281 -0.941406 1.84375 -0.828125 C 1.957031 -0.722656 2.015625 -0.59375 2.015625 -0.4375 C 2.015625 -0.28125 1.957031 -0.144531 1.84375 -0.03125 C 1.738281 0.0703125 1.609375 0.125 1.453125 0.125 C 1.296875 0.125 1.160156 0.0703125 1.046875 -0.03125 C 0.941406 -0.144531 0.890625 -0.28125 0.890625 -0.4375 Z M 0.890625 -3.171875 C 0.890625 -3.328125 0.941406 -3.457031 1.046875 -3.5625 C 1.160156 -3.675781 1.296875 -3.734375 1.453125 -3.734375 C 1.609375 -3.734375 1.738281 -3.679688 1.84375 -3.578125 C 1.957031 -3.472656 2.015625 -3.335938 2.015625 -3.171875 C 2.015625 -3.015625 1.957031 -2.882812 1.84375 -2.78125 C 1.738281 -2.675781 1.609375 -2.625 1.453125 -2.625 C 1.296875 -2.625 1.160156 -2.675781 1.046875 -2.78125 C 0.941406 -2.882812 0.890625 -3.015625 0.890625 -3.171875 Z "/>
</g>
<g id="glyph-0-10">
</g>
<g id="glyph-0-11">
<path d="M 0.484375 -0.25 L 0.484375 -1.296875 L 0.921875 -1.296875 C 0.941406 -0.960938 1.046875 -0.710938 1.234375 -0.546875 C 1.429688 -0.378906 1.726562 -0.296875 2.125 -0.296875 C 2.46875 -0.296875 2.726562 -0.359375 2.90625 -0.484375 C 3.09375 -0.617188 3.1875 -0.8125 3.1875 -1.0625 C 3.1875 -1.257812 3.117188 -1.414062 2.984375 -1.53125 C 2.847656 -1.65625 2.566406 -1.785156 2.140625 -1.921875 L 1.578125 -2.109375 C 1.203125 -2.234375 0.925781 -2.382812 0.75 -2.5625 C 0.570312 -2.75 0.484375 -2.988281 0.484375 -3.28125 C 0.484375 -3.6875 0.632812 -4.003906 0.9375 -4.234375 C 1.238281 -4.472656 1.65625 -4.59375 2.1875 -4.59375 C 2.425781 -4.59375 2.675781 -4.5625 2.9375 -4.5 C 3.195312 -4.4375 3.460938 -4.347656 3.734375 -4.234375 L 3.734375 -3.25 L 3.296875 -3.25 C 3.285156 -3.539062 3.179688 -3.765625 2.984375 -3.921875 C 2.796875 -4.085938 2.539062 -4.171875 2.21875 -4.171875 C 1.882812 -4.171875 1.632812 -4.113281 1.46875 -4 C 1.300781 -3.882812 1.21875 -3.710938 1.21875 -3.484375 C 1.21875 -3.296875 1.28125 -3.144531 1.40625 -3.03125 C 1.539062 -2.914062 1.796875 -2.800781 2.171875 -2.6875 L 2.78125 -2.5 C 3.207031 -2.363281 3.515625 -2.195312 3.703125 -2 C 3.890625 -1.800781 3.984375 -1.546875 3.984375 -1.234375 C 3.984375 -0.816406 3.816406 -0.484375 3.484375 -0.234375 C 3.160156 0.00390625 2.71875 0.125 2.15625 0.125 C 1.863281 0.125 1.578125 0.09375 1.296875 0.03125 C 1.023438 -0.03125 0.753906 -0.125 0.484375 -0.25 Z "/>
</g>
<g id="glyph-0-12">
<path d="M 1.765625 -2.453125 L 1.765625 -2.015625 C 1.765625 -1.472656 1.867188 -1.0625 2.078125 -0.78125 C 2.285156 -0.5 2.582031 -0.359375 2.96875 -0.359375 C 3.363281 -0.359375 3.660156 -0.515625 3.859375 -0.828125 C 4.066406 -1.148438 4.171875 -1.617188 4.171875 -2.234375 C 4.171875 -2.859375 4.066406 -3.328125 3.859375 -3.640625 C 3.660156 -3.953125 3.363281 -4.109375 2.96875 -4.109375 C 2.582031 -4.109375 2.285156 -3.96875 2.078125 -3.6875 C 1.867188 -3.40625 1.765625 -2.992188 1.765625 -2.453125 Z M 0.984375 -4.015625 L 0.25 -4.015625 L 0.25 -4.46875 L 1.765625 -4.46875 L 1.765625 -3.765625 C 1.921875 -4.046875 2.113281 -4.253906 2.34375 -4.390625 C 2.570312 -4.523438 2.863281 -4.59375 3.21875 -4.59375 C 3.757812 -4.59375 4.203125 -4.375 4.546875 -3.9375 C 4.898438 -3.5 5.078125 -2.929688 5.078125 -2.234375 C 5.078125 -1.535156 4.898438 -0.96875 4.546875 -0.53125 C 4.203125 -0.09375 3.757812 0.125 3.21875 0.125 C 2.863281 0.125 2.570312 0.0546875 2.34375 -0.078125 C 2.113281 -0.210938 1.921875 -0.421875 1.765625 -0.703125 L 1.765625 1.34375 L 2.5 1.34375 L 2.5 1.796875 L 0.25 1.796875 L 0.25 1.34375 L 0.984375 1.34375 Z "/>
</g>
<g id="glyph-0-13">
<path d="M 4.109375 -4.484375 L 4.109375 -3.359375 L 3.671875 -3.359375 C 3.660156 -3.578125 3.597656 -3.738281 3.484375 -3.84375 C 3.378906 -3.957031 3.21875 -4.015625 3 -4.015625 C 2.625 -4.015625 2.332031 -3.882812 2.125 -3.625 C 1.925781 -3.363281 1.828125 -2.984375 1.828125 -2.484375 L 1.828125 -0.453125 L 2.71875 -0.453125 L 2.71875 0 L 0.359375 0 L 0.359375 -0.453125 L 1.046875 -0.453125 L 1.046875 -4.03125 L 0.3125 -4.03125 L 0.3125 -4.46875 L 1.828125 -4.46875 L 1.828125 -3.671875 C 1.972656 -3.984375 2.164062 -4.210938 2.40625 -4.359375 C 2.644531 -4.515625 2.9375 -4.59375 3.28125 -4.59375 C 3.40625 -4.59375 3.535156 -4.582031 3.671875 -4.5625 C 3.816406 -4.539062 3.960938 -4.515625 4.109375 -4.484375 Z "/>
</g>
<g id="glyph-0-14">
<path d="M 3.421875 -1.40625 L 3.421875 -2.34375 L 2.4375 -2.34375 C 2.050781 -2.34375 1.765625 -2.257812 1.578125 -2.09375 C 1.390625 -1.9375 1.296875 -1.6875 1.296875 -1.34375 C 1.296875 -1.03125 1.390625 -0.78125 1.578125 -0.59375 C 1.765625 -0.414062 2.019531 -0.328125 2.34375 -0.328125 C 2.664062 -0.328125 2.925781 -0.425781 3.125 -0.625 C 3.320312 -0.820312 3.421875 -1.082031 3.421875 -1.40625 Z M 4.203125 -2.796875 L 4.203125 -0.453125 L 4.890625 -0.453125 L 4.890625 0 L 3.421875 0 L 3.421875 -0.484375 C 3.253906 -0.273438 3.054688 -0.117188 2.828125 -0.015625 C 2.609375 0.078125 2.347656 0.125 2.046875 0.125 C 1.546875 0.125 1.148438 -0.00390625 0.859375 -0.265625 C 0.566406 -0.535156 0.421875 -0.894531 0.421875 -1.34375 C 0.421875 -1.800781 0.585938 -2.15625 0.921875 -2.40625 C 1.253906 -2.664062 1.726562 -2.796875 2.34375 -2.796875 L 3.421875 -2.796875 L 3.421875 -3.109375 C 3.421875 -3.441406 3.316406 -3.703125 3.109375 -3.890625 C 2.910156 -4.078125 2.625 -4.171875 2.25 -4.171875 C 1.9375 -4.171875 1.6875 -4.097656 1.5 -3.953125 C 1.320312 -3.816406 1.210938 -3.613281 1.171875 -3.34375 L 0.78125 -3.34375 L 0.78125 -4.25 C 1.039062 -4.363281 1.296875 -4.445312 1.546875 -4.5 C 1.804688 -4.5625 2.054688 -4.59375 2.296875 -4.59375 C 2.921875 -4.59375 3.394531 -4.4375 3.71875 -4.125 C 4.039062 -3.820312 4.203125 -3.378906 4.203125 -2.796875 Z "/>
</g>
<g id="glyph-0-15">
<path d="M 0.359375 0 L 0.359375 -0.453125 L 1.046875 -0.453125 L 1.046875 -6.09375 L 0.3125 -6.09375 L 0.3125 -6.546875 L 1.828125 -6.546875 L 1.828125 -3.671875 C 1.960938 -3.972656 2.144531 -4.203125 2.375 -4.359375 C 2.601562 -4.515625 2.867188 -4.59375 3.171875 -4.59375 C 3.671875 -4.59375 4.035156 -4.445312 4.265625 -4.15625 C 4.492188 -3.875 4.609375 -3.4375 4.609375 -2.84375 L 4.609375 -0.453125 L 5.3125 -0.453125 L 5.3125 0 L 3.171875 0 L 3.171875 -0.453125 L 3.84375 -0.453125 L 3.84375 -2.59375 C 3.84375 -3.144531 3.773438 -3.519531 3.640625 -3.71875 C 3.503906 -3.914062 3.265625 -4.015625 2.921875 -4.015625 C 2.566406 -4.015625 2.296875 -3.882812 2.109375 -3.625 C 1.921875 -3.363281 1.828125 -2.984375 1.828125 -2.484375 L 1.828125 -0.453125 L 2.5 -0.453125 L 2.5 0 Z "/>
</g>
<g id="glyph-0-16">
<path d="M 0.921875 -4.015625 L 0.25 -4.015625 L 0.25 -4.46875 L 0.921875 -4.46875 L 0.921875 -5.859375 L 1.703125 -5.859375 L 1.703125 -4.46875 L 3.15625 -4.46875 L 3.15625 -4.015625 L 1.703125 -4.015625 L 1.703125 -1.1875 C 1.703125 -0.800781 1.738281 -0.554688 1.8125 -0.453125 C 1.882812 -0.347656 2.019531 -0.296875 2.21875 -0.296875 C 2.414062 -0.296875 2.5625 -0.351562 2.65625 -0.46875 C 2.75 -0.59375 2.800781 -0.785156 2.8125 -1.046875 L 3.390625 -1.046875 C 3.367188 -0.640625 3.257812 -0.34375 3.0625 -0.15625 C 2.863281 0.03125 2.5625 0.125 2.15625 0.125 C 1.707031 0.125 1.390625 0.0234375 1.203125 -0.171875 C 1.015625 -0.367188 0.921875 -0.707031 0.921875 -1.1875 Z "/>
</g>
<g id="glyph-0-17">
<path d="M 4.515625 -4.015625 L 4.515625 -0.09375 C 4.515625 0.539062 4.335938 1.03125 3.984375 1.375 C 3.628906 1.726562 3.128906 1.90625 2.484375 1.90625 C 2.179688 1.90625 1.894531 1.878906 1.625 1.828125 C 1.363281 1.773438 1.109375 1.695312 0.859375 1.59375 L 0.859375 0.65625 L 1.265625 0.65625 C 1.316406 0.945312 1.4375 1.160156 1.625 1.296875 C 1.8125 1.429688 2.082031 1.5 2.4375 1.5 C 2.882812 1.5 3.210938 1.367188 3.421875 1.109375 C 3.640625 0.859375 3.75 0.457031 3.75 -0.09375 L 3.75 -0.703125 C 3.59375 -0.421875 3.394531 -0.210938 3.15625 -0.078125 C 2.925781 0.0546875 2.640625 0.125 2.296875 0.125 C 1.742188 0.125 1.289062 -0.09375 0.9375 -0.53125 C 0.59375 -0.96875 0.421875 -1.535156 0.421875 -2.234375 C 0.421875 -2.929688 0.59375 -3.5 0.9375 -3.9375 C 1.289062 -4.375 1.742188 -4.59375 2.296875 -4.59375 C 2.640625 -4.59375 2.925781 -4.523438 3.15625 -4.390625 C 3.394531 -4.253906 3.59375 -4.046875 3.75 -3.765625 L 3.75 -4.46875 L 5.265625 -4.46875 L 5.265625 -4.015625 Z M 3.75 -2.453125 C 3.75 -2.992188 3.644531 -3.40625 3.4375 -3.6875 C 3.226562 -3.96875 2.929688 -4.109375 2.546875 -4.109375 C 2.140625 -4.109375 1.832031 -3.953125 1.625 -3.640625 C 1.425781 -3.328125 1.328125 -2.859375 1.328125 -2.234375 C 1.328125 -1.617188 1.425781 -1.148438 1.625 -0.828125 C 1.832031 -0.515625 2.140625 -0.359375 2.546875 -0.359375 C 2.929688 -0.359375 3.226562 -0.5 3.4375 -0.78125 C 3.644531 -1.0625 3.75 -1.472656 3.75 -2.015625 Z "/>
</g>
<g id="glyph-0-18">
<path d="M 0.84375 -5.859375 C 0.84375 -5.984375 0.890625 -6.09375 0.984375 -6.1875 C 1.078125 -6.28125 1.1875 -6.328125 1.3125 -6.328125 C 1.445312 -6.328125 1.5625 -6.28125 1.65625 -6.1875 C 1.75 -6.09375 1.796875 -5.984375 1.796875 -5.859375 C 1.796875 -5.722656 1.75 -5.609375 1.65625 -5.515625 C 1.5625 -5.421875 1.445312 -5.375 1.3125 -5.375 C 1.1875 -5.375 1.078125 -5.421875 0.984375 -5.515625 C 0.890625 -5.609375 0.84375 -5.722656 0.84375 -5.859375 Z M 1.828125 -0.453125 L 2.5625 -0.453125 L 2.5625 0 L 0.3125 0 L 0.3125 -0.453125 L 1.046875 -0.453125 L 1.046875 -4.015625 L 0.3125 -4.015625 L 0.3125 -4.46875 L 1.828125 -4.46875 Z "/>
</g>
<g id="glyph-0-19">
<path d="M 1.859375 0.8125 L 2.15625 0.078125 L 0.484375 -4.015625 L -0.03125 -4.015625 L -0.03125 -4.46875 L 2.03125 -4.46875 L 2.03125 -4.015625 L 1.3125 -4.015625 L 2.578125 -0.953125 L 3.828125 -4.015625 L 3.15625 -4.015625 L 3.15625 -4.46875 L 4.84375 -4.46875 L 4.84375 -4.015625 L 4.34375 -4.015625 L 2.296875 1.015625 C 2.148438 1.359375 1.988281 1.59375 1.8125 1.71875 C 1.644531 1.84375 1.40625 1.90625 1.09375 1.90625 C 0.96875 1.90625 0.832031 1.894531 0.6875 1.875 C 0.550781 1.851562 0.414062 1.820312 0.28125 1.78125 L 0.28125 0.921875 L 0.671875 0.921875 C 0.691406 1.117188 0.738281 1.257812 0.8125 1.34375 C 0.894531 1.425781 1.019531 1.46875 1.1875 1.46875 C 1.34375 1.46875 1.46875 1.421875 1.5625 1.328125 C 1.65625 1.242188 1.753906 1.070312 1.859375 0.8125 Z "/>
</g>
<g id="glyph-0-20">
<path d="M 4.421875 -1.34375 C 4.316406 -0.863281 4.109375 -0.5 3.796875 -0.25 C 3.484375 0 3.082031 0.125 2.59375 0.125 C 1.9375 0.125 1.410156 -0.0859375 1.015625 -0.515625 C 0.617188 -0.953125 0.421875 -1.523438 0.421875 -2.234375 C 0.421875 -2.953125 0.617188 -3.523438 1.015625 -3.953125 C 1.410156 -4.378906 1.9375 -4.59375 2.59375 -4.59375 C 2.875 -4.59375 3.15625 -4.554688 3.4375 -4.484375 C 3.71875 -4.421875 4 -4.320312 4.28125 -4.1875 L 4.28125 -3.046875 L 3.828125 -3.046875 C 3.765625 -3.441406 3.632812 -3.726562 3.4375 -3.90625 C 3.25 -4.082031 2.96875 -4.171875 2.59375 -4.171875 C 2.175781 -4.171875 1.859375 -4.007812 1.640625 -3.6875 C 1.429688 -3.363281 1.328125 -2.878906 1.328125 -2.234375 C 1.328125 -1.585938 1.429688 -1.101562 1.640625 -0.78125 C 1.859375 -0.457031 2.175781 -0.296875 2.59375 -0.296875 C 2.925781 -0.296875 3.191406 -0.378906 3.390625 -0.546875 C 3.585938 -0.722656 3.722656 -0.988281 3.796875 -1.34375 Z "/>
</g>
<g id="glyph-0-21">
<path d="M 2.46875 0 L 0.296875 0 L 0.296875 -0.453125 L 0.984375 -0.453125 L 0.984375 -6.09375 L 0.25 -6.09375 L 0.25 -6.546875 L 1.765625 -6.546875 L 1.765625 -2.28125 L 3.65625 -4.015625 L 3 -4.015625 L 3 -4.46875 L 5.03125 -4.46875 L 5.03125 -4.015625 L 4.265625 -4.015625 L 2.9375 -2.796875 L 4.625 -0.453125 L 5.28125 -0.453125 L 5.28125 0 L 3.078125 0 L 3.078125 -0.453125 L 3.71875 -0.453125 L 2.375 -2.28125 L 1.765625 -1.71875 L 1.765625 -0.453125 L 2.46875 -0.453125 Z "/>
</g>
</g>
</defs>
<g fill="rgb(100%, 100%, 100%)" fill-opacity="1">
<use xlink:href="#glyph-0-0" x="30" y="27.992188"/>
<use xlink:href="#glyph-0-1" x="36" y="27.992188"/>
<use xlink:href="#glyph-0-1" x="41" y="27.992188"/>
<use xlink:href="#glyph-0-2" x="46" y="27.992188"/>
<use xlink:href="#glyph-0-3" x="52" y="27.992188"/>
<use xlink:href="#glyph-0-4" x="55" y="27.992188"/>
<use xlink:href="#glyph-0-5" x="61" y="27.992188"/>
<use xlink:href="#glyph-0-6" x="66" y="27.992188"/>
<use xlink:href="#glyph-0-5" x="69" y="27.992188"/>
<use xlink:href="#glyph-0-7" x="74" y="27.992188"/>
<use xlink:href="#glyph-0-5" x="82" y="27.992188"/>
<use xlink:href="#glyph-0-8" x="87" y="27.992188"/>
<use xlink:href="#glyph-0-9" x="93" y="27.992188"/>
<use xlink:href="#glyph-0-10" x="96" y="27.992188"/>
<use xlink:href="#glyph-0-11" x="99" y="27.992188"/>
<use xlink:href="#glyph-0-12" x="103" y="27.992188"/>
<use xlink:href="#glyph-0-13" x="109" y="27.992188"/>
<use xlink:href="#glyph-0-1" x="113" y="27.992188"/>
<use xlink:href="#glyph-0-14" x="118" y="27.992188"/>
<use xlink:href="#glyph-0-2" x="123" y="27.992188"/>
<use xlink:href="#glyph-0-10" x="129" y="27.992188"/>
<use xlink:href="#glyph-0-14" x="132" y="27.992188"/>
<use xlink:href="#glyph-0-10" x="137" y="27.992188"/>
<use xlink:href="#glyph-0-11" x="140" y="27.992188"/>
<use xlink:href="#glyph-0-15" x="144" y="27.992188"/>
<use xlink:href="#glyph-0-5" x="150" y="27.992188"/>
<use xlink:href="#glyph-0-13" x="155" y="27.992188"/>
<use xlink:href="#glyph-0-16" x="159" y="27.992188"/>
<use xlink:href="#glyph-0-10" x="162" y="27.992188"/>
<use xlink:href="#glyph-0-7" x="165" y="27.992188"/>
<use xlink:href="#glyph-0-1" x="173" y="27.992188"/>
<use xlink:href="#glyph-0-11" x="178" y="27.992188"/>
<use xlink:href="#glyph-0-11" x="182" y="27.992188"/>
<use xlink:href="#glyph-0-14" x="186" y="27.992188"/>
<use xlink:href="#glyph-0-17" x="191" y="27.992188"/>
<use xlink:href="#glyph-0-1" x="197" y="27.992188"/>
<use xlink:href="#glyph-0-10" x="202" y="27.992188"/>
<use xlink:href="#glyph-0-18" x="205" y="27.992188"/>
<use xlink:href="#glyph-0-8" x="208" y="27.992188"/>
<use xlink:href="#glyph-0-16" x="214" y="27.992188"/>
<use xlink:href="#glyph-0-5" x="217" y="27.992188"/>
<use xlink:href="#glyph-0-10" x="222" y="27.992188"/>
<use xlink:href="#glyph-0-7" x="225" y="27.992188"/>
<use xlink:href="#glyph-0-14" x="233" y="27.992188"/>
<use xlink:href="#glyph-0-8" x="238" y="27.992188"/>
<use xlink:href="#glyph-0-19" x="244" y="27.992188"/>
<use xlink:href="#glyph-0-10" x="249" y="27.992188"/>
<use xlink:href="#glyph-0-20" x="252" y="27.992188"/>
<use xlink:href="#glyph-0-15" x="257" y="27.992188"/>
<use xlink:href="#glyph-0-1" x="263" y="27.992188"/>
<use xlink:href="#glyph-0-20" x="268" y="27.992188"/>
<use xlink:href="#glyph-0-21" x="273" y="27.992188"/>
<use xlink:href="#glyph-0-11" x="278" y="27.992188"/>
</g>
</svg>
